<?xml version="1.0" encoding="UTF-8" standalone="no"?>
<!DOCTYPE svg PUBLIC "-//W3C//DTD SVG 1.1//EN" "http://www.w3.org/Graphics/SVG/1.1/DTD/svg11.dtd">
<svg width="100%" height="100%" viewBox="0 0 535 294" version="1.1" xmlns="http://www.w3.org/2000/svg" xmlns:xlink="http://www.w3.org/1999/xlink" xml:space="preserve" xmlns:serif="http://www.serif.com/" style="fill-rule:evenodd;clip-rule:evenodd;stroke-miterlimit:10;">
    <g transform="matrix(1,0,0,1,-1356.27,-1802.47)">
        <g transform="matrix(4.16667,0,0,4.16667,0,0)">
            <clipPath id="_clip1">
                <rect x="326.831" y="433.666" width="125.8" height="68" clip-rule="nonzero"/>
            </clipPath>
            <g clip-path="url(#_clip1)">
                <g transform="matrix(0.085,0,0,0.085,326.831,433.921)">
                    <rect x="7" y="7" width="1464" height="783" style="fill:white;stroke:white;stroke-width:4.5px;"/>
                </g>
                <g transform="matrix(0,-0.085,-0.085,0,422.32,530.787)">
                    <path d="M732.997,377.201C740.287,377.201 746.202,383.111 746.202,390.4C746.202,397.689 740.287,403.6 732.997,403.6C725.709,403.6 719.799,397.689 719.799,390.4C719.799,383.111 725.709,377.201 732.997,377.201" style="fill:rgb(255,0,0);"/>
                </g>
                <g transform="matrix(0,-0.085,-0.085,0,422.32,530.787)">
                    <ellipse cx="733" cy="390.4" rx="13.202" ry="13.199" style="fill:none;stroke:rgb(255,0,0);stroke-width:4.5px;"/>
                </g>
                <g transform="matrix(0,0.085,0.085,0,323.108,424.741)">
                    <path d="M340.602,474.398L520.602,474.398" style="fill:none;fill-rule:nonzero;stroke:black;stroke-width:4.5px;stroke-linejoin:bevel;"/>
                </g>
                <g transform="matrix(0.085,0,0,0.085,326.831,439.48)">
                    <path d="M443.199,347.801L430.602,383.801L418,347.801"/>
                </g>
                <g transform="matrix(0.085,0,0,0.085,326.831,439.48)">
                    <path d="M443.199,347.801L430.602,383.801L418,347.801L443.199,347.801Z" style="fill:none;fill-rule:nonzero;stroke:black;stroke-width:4.5px;"/>
                </g>
                <g transform="matrix(0.085,0,0,0.085,326.831,425.914)">
                    <path d="M514.602,545.199L515.199,545.199L517.602,543.398L523,541L531.398,536.801L539.801,532.597L548.199,528.398L555.398,524.801L562,521.199L568,518.801L573.398,515.801L591.398,506.801L598,503.199L605.199,499.597L612.398,496L619,493L625.602,489.398L632.199,486.398L638.801,482.801L644.801,479.801L651.398,476.801L658.602,473.199L665.801,469.597L673,465.398L680.801,461.801L695.199,454.597L701.801,451L708.398,448L715,445L722.199,441.398L729.398,437.801L736.602,434.199L744.398,430.597L752.199,426.398L759.398,422.801L766.602,419.199L773.199,416.199L779.801,412.597L786.398,409.597L793,406L800.199,402.398L807.398,398.801L815.199,395.199L822.398,391.597L829.602,388L836.199,384.398L842.801,381.398L848.801,378.398L855.398,375.398L861.398,371.801L868.602,368.801L876.398,364.597L886,359.801L910,347.801L913,346L913.602,346" style="fill:none;fill-rule:nonzero;stroke:rgb(255,0,0);stroke-width:4.5px;stroke-linejoin:bevel;"/>
                </g>
                <g transform="matrix(0.085,0,0,0.085,326.831,408.319)">
                    <path d="M910,540.403L948.398,535.602L921.398,562.602" style="fill:rgb(255,0,0);"/>
                </g>
                <g transform="matrix(0.085,0,0,0.085,326.831,408.319)">
                    <path d="M910,540.403L948.398,535.602L921.398,562.602L910,540.403Z" style="fill:none;fill-rule:nonzero;stroke:rgb(255,0,0);stroke-width:4.5px;"/>
                </g>
                <g transform="matrix(0,-0.085,-0.085,0,454.986,549.529)">
                    <path d="M945.099,472.301L1125.7,472.301" style="fill:none;fill-rule:nonzero;stroke:black;stroke-width:4.5px;stroke-linejoin:bevel;"/>
                </g>
                <g transform="matrix(0.085,0,0,0.085,326.831,439.786)">
                    <path d="M1048,346L1035.4,382L1022.8,346"/>
                </g>
                <g transform="matrix(0.085,0,0,0.085,326.831,439.786)">
                    <path d="M1048,346L1035.4,382L1022.8,346L1048,346Z" style="fill:none;fill-rule:nonzero;stroke:black;stroke-width:4.5px;"/>
                </g>
                <g transform="matrix(0.085,0,0,0.085,326.831,438.46)">
                    <path d="M746.199,356.801L746.801,356.801L749.801,358L752.801,359.204L755.801,359.801L758.199,360.403L760.602,361L763.602,362.204L766.602,362.801L769.602,364L772.602,364.602L775.602,365.801L778.602,366.403L782.199,367.602L785.801,368.801L789.398,369.403L792.398,370.602L796.602,371.801L800.801,372.403L804.398,373.602L808,374.801L812.199,376L815.801,377.204L820.602,378.403L824.801,379L828.398,380.204L835.602,382.602L840.398,383.801L849.398,386.801L850,386.801" style="fill:none;fill-rule:nonzero;stroke:rgb(255,0,0);stroke-width:4.5px;stroke-linejoin:bevel;"/>
                </g>
                <g transform="matrix(0.085,0,0,0.085,326.831,441.112)">
                    <path d="M856.602,344.199L887.801,366.398L849.398,368.199" style="fill:rgb(255,0,0);"/>
                </g>
                <g transform="matrix(0.085,0,0,0.085,326.831,441.112)">
                    <path d="M856.602,344.199L887.801,366.398L849.398,368.199L856.602,344.199Z" style="fill:none;fill-rule:nonzero;stroke:rgb(255,0,0);stroke-width:4.5px;"/>
                </g>
            </g>
        </g>
        <g transform="matrix(3.54167,0,0,3.54167,1445.18,1810.9)">
            <path d="M0,0L39.076,0" style="fill:none;fill-rule:nonzero;stroke:black;stroke-width:0.4px;"/>
        </g>
        <g transform="matrix(0,-3.54167,-3.54167,0,1467.22,1832.24)">
            <path d="M-6.024,6.024L6.024,6.024" style="fill:none;fill-rule:nonzero;stroke:black;stroke-width:0.4px;"/>
        </g>
        <g transform="matrix(0,-3.54167,-3.54167,0,1604.2,1832.24)">
            <path d="M-6.024,6.024L6.024,6.024" style="fill:none;fill-rule:nonzero;stroke:black;stroke-width:0.4px;"/>
        </g>
        <g transform="matrix(3.54167,0,0,3.54167,1445.18,1853.57)">
            <path d="M0,0L39.076,0" style="fill:none;fill-rule:nonzero;stroke:black;stroke-width:0.4px;"/>
        </g>
        <g transform="matrix(3.54167,0,0,3.54167,1659.38,1810.9)">
            <path d="M0,0L39.076,0" style="fill:none;fill-rule:nonzero;stroke:black;stroke-width:0.4px;"/>
        </g>
        <g transform="matrix(0,-3.54167,-3.54167,0,1681.42,1832.24)">
            <path d="M-6.024,6.024L6.024,6.024" style="fill:none;fill-rule:nonzero;stroke:black;stroke-width:0.4px;"/>
        </g>
        <g transform="matrix(0,-3.54167,-3.54167,0,1818.41,1832.24)">
            <path d="M-6.024,6.024L6.024,6.024" style="fill:none;fill-rule:nonzero;stroke:black;stroke-width:0.4px;"/>
        </g>
        <g transform="matrix(3.54167,0,0,3.54167,1659.38,1853.57)">
            <path d="M0,0L39.076,0" style="fill:none;fill-rule:nonzero;stroke:black;stroke-width:0.4px;"/>
        </g>
        <g transform="matrix(1,0,0,1,1045.65,1548.67)">
            <g transform="matrix(28.2274,0,0,28.2274,330.206,509.302)">
                <path d="M0.598,-0.717L0.598,-0.632L0.356,-0.632L0.356,-0L0.258,-0L0.258,-0.632L0.016,-0.632L0.016,-0.717L0.598,-0.717Z" style="fill-rule:nonzero;"/>
            </g>
            <g transform="matrix(28.2274,0,0,28.2274,344.186,509.302)">
                <path d="M0.282,-0.535C0.319,-0.535 0.355,-0.526 0.39,-0.509C0.425,-0.491 0.451,-0.469 0.47,-0.441C0.487,-0.415 0.499,-0.384 0.505,-0.349C0.51,-0.325 0.513,-0.286 0.513,-0.233L0.129,-0.233C0.131,-0.18 0.144,-0.138 0.167,-0.106C0.19,-0.074 0.227,-0.058 0.276,-0.058C0.322,-0.058 0.358,-0.073 0.386,-0.103C0.401,-0.121 0.412,-0.141 0.419,-0.164L0.505,-0.164C0.503,-0.145 0.496,-0.123 0.483,-0.1C0.47,-0.076 0.455,-0.057 0.439,-0.042C0.413,-0.016 0.38,0.002 0.34,0.011C0.319,0.016 0.295,0.019 0.269,0.019C0.203,0.019 0.148,-0.005 0.103,-0.052C0.058,-0.1 0.035,-0.166 0.035,-0.251C0.035,-0.335 0.058,-0.404 0.104,-0.456C0.149,-0.508 0.209,-0.535 0.282,-0.535ZM0.422,-0.303C0.419,-0.341 0.41,-0.372 0.397,-0.395C0.373,-0.437 0.333,-0.458 0.277,-0.458C0.236,-0.458 0.203,-0.443 0.175,-0.414C0.148,-0.385 0.133,-0.348 0.132,-0.303L0.422,-0.303Z" style="fill-rule:nonzero;"/>
            </g>
            <g transform="matrix(28.2274,0,0,28.2274,359.752,509.302)">
                <path d="M0.117,-0.164C0.119,-0.135 0.127,-0.112 0.139,-0.097C0.161,-0.068 0.199,-0.054 0.254,-0.054C0.286,-0.054 0.315,-0.061 0.34,-0.075C0.365,-0.09 0.377,-0.111 0.377,-0.141C0.377,-0.164 0.367,-0.181 0.347,-0.192C0.334,-0.2 0.309,-0.208 0.272,-0.217L0.202,-0.235C0.158,-0.246 0.125,-0.258 0.104,-0.272C0.066,-0.296 0.047,-0.329 0.047,-0.371C0.047,-0.42 0.065,-0.46 0.1,-0.491C0.136,-0.521 0.184,-0.537 0.244,-0.537C0.323,-0.537 0.38,-0.514 0.415,-0.467C0.436,-0.438 0.447,-0.406 0.446,-0.373L0.363,-0.373C0.362,-0.392 0.355,-0.41 0.342,-0.427C0.322,-0.45 0.287,-0.461 0.237,-0.461C0.204,-0.461 0.179,-0.455 0.162,-0.442C0.145,-0.43 0.136,-0.413 0.136,-0.392C0.136,-0.369 0.147,-0.351 0.17,-0.337C0.183,-0.329 0.202,-0.322 0.228,-0.316L0.286,-0.302C0.349,-0.286 0.391,-0.272 0.413,-0.257C0.447,-0.235 0.464,-0.2 0.464,-0.151C0.464,-0.105 0.446,-0.065 0.411,-0.031C0.376,0.003 0.322,0.02 0.25,0.02C0.172,0.02 0.117,0.002 0.084,-0.033C0.052,-0.068 0.035,-0.112 0.032,-0.164L0.117,-0.164Z" style="fill-rule:nonzero;"/>
            </g>
            <g transform="matrix(28.2274,0,0,28.2274,373.733,509.302)">
                <path d="M0.082,-0.669L0.171,-0.669L0.171,-0.523L0.254,-0.523L0.254,-0.451L0.171,-0.451L0.171,-0.11C0.171,-0.092 0.177,-0.079 0.189,-0.073C0.196,-0.07 0.208,-0.068 0.224,-0.068C0.228,-0.068 0.232,-0.068 0.237,-0.068C0.242,-0.068 0.248,-0.069 0.254,-0.069L0.254,-0C0.244,0.003 0.234,0.005 0.223,0.006C0.212,0.008 0.2,0.008 0.188,0.008C0.146,0.008 0.119,-0.002 0.104,-0.023C0.089,-0.044 0.082,-0.071 0.082,-0.105L0.082,-0.451L0.011,-0.451L0.011,-0.523L0.082,-0.523L0.082,-0.669Z" style="fill-rule:nonzero;"/>
            </g>
            <g transform="matrix(28.2274,0,0,28.2274,393.841,509.302)">
                <path d="M0.074,-0.717L0.213,-0.717L0.419,-0.111L0.624,-0.717L0.761,-0.717L0.761,-0L0.669,-0L0.669,-0.423C0.669,-0.438 0.669,-0.462 0.67,-0.496C0.671,-0.53 0.671,-0.566 0.671,-0.605L0.466,-0L0.37,-0L0.164,-0.605L0.164,-0.583C0.164,-0.565 0.164,-0.539 0.165,-0.503C0.166,-0.467 0.167,-0.44 0.167,-0.423L0.167,-0L0.074,-0L0.074,-0.717Z" style="fill-rule:nonzero;"/>
            </g>
            <g transform="matrix(28.2274,0,0,28.2274,417.222,509.302)">
                <path d="M0.085,-0.717L0.408,-0.717C0.472,-0.717 0.523,-0.699 0.563,-0.663C0.602,-0.627 0.621,-0.577 0.621,-0.512C0.621,-0.456 0.604,-0.407 0.569,-0.365C0.534,-0.324 0.48,-0.303 0.408,-0.303L0.183,-0.303L0.183,-0L0.085,-0L0.085,-0.717ZM0.523,-0.511C0.523,-0.564 0.503,-0.6 0.464,-0.619C0.443,-0.629 0.413,-0.634 0.376,-0.634L0.183,-0.634L0.183,-0.385L0.376,-0.385C0.42,-0.385 0.455,-0.395 0.482,-0.413C0.509,-0.432 0.523,-0.464 0.523,-0.511Z" style="fill-rule:nonzero;"/>
            </g>
            <g transform="matrix(28.2274,0,0,28.2274,435.917,509.302)">
                <path d="M0.111,-0.516L0.213,-0.516L0.213,-0.41L0.111,-0.41L0.111,-0.516ZM0.111,-0.106L0.213,-0.106L0.213,-0L0.111,-0L0.111,-0.106Z" style="fill-rule:nonzero;"/>
            </g>
            <g transform="matrix(28.2274,0,0,28.2274,457.487,509.302)">
                <path d="M0.444,-0.294L0.335,-0.611L0.22,-0.294L0.444,-0.294ZM0.285,-0.717L0.395,-0.717L0.655,-0L0.548,-0L0.476,-0.215L0.192,-0.215L0.114,-0L0.015,-0L0.285,-0.717Z" style="fill-rule:nonzero;"/>
            </g>
            <g transform="matrix(28.2274,0,0,28.2274,476.181,509.302)">
                <rect x="0.067" y="-0.717" width="0.088" height="0.717" style="fill-rule:nonzero;"/>
            </g>
            <g transform="matrix(28.2274,0,0,28.2274,482.32,509.302)">
                <rect x="0.067" y="-0.717" width="0.088" height="0.717" style="fill-rule:nonzero;"/>
            </g>
            <g transform="matrix(28.2274,0,0,28.2274,488.458,509.302)">
                <path d="M0.272,-0.057C0.33,-0.057 0.37,-0.079 0.392,-0.123C0.413,-0.167 0.424,-0.216 0.424,-0.27C0.424,-0.319 0.417,-0.359 0.401,-0.389C0.376,-0.437 0.333,-0.461 0.273,-0.461C0.219,-0.461 0.18,-0.441 0.156,-0.4C0.131,-0.359 0.119,-0.309 0.119,-0.251C0.119,-0.196 0.131,-0.149 0.156,-0.112C0.18,-0.075 0.219,-0.057 0.272,-0.057ZM0.275,-0.538C0.343,-0.538 0.4,-0.516 0.446,-0.471C0.493,-0.426 0.516,-0.36 0.516,-0.272C0.516,-0.188 0.496,-0.118 0.455,-0.063C0.414,-0.008 0.35,0.019 0.264,0.019C0.192,0.019 0.135,-0.005 0.092,-0.054C0.05,-0.103 0.029,-0.168 0.029,-0.25C0.029,-0.338 0.051,-0.408 0.096,-0.46C0.14,-0.512 0.2,-0.538 0.275,-0.538Z" style="fill-rule:nonzero;"/>
            </g>
            <g transform="matrix(28.2274,0,0,28.2274,504.024,509.302)">
                <path d="M0.105,-0.523L0.206,-0.111L0.308,-0.523L0.406,-0.523L0.509,-0.113L0.616,-0.523L0.704,-0.523L0.552,-0L0.46,-0L0.354,-0.405L0.251,-0L0.16,-0L0.009,-0.523L0.105,-0.523Z" style="fill-rule:nonzero;"/>
            </g>
            <g transform="matrix(28.2274,0,0,28.2274,524.277,509.302)">
                <path d="M0.282,-0.535C0.319,-0.535 0.355,-0.526 0.39,-0.509C0.425,-0.491 0.451,-0.469 0.47,-0.441C0.487,-0.415 0.499,-0.384 0.505,-0.349C0.51,-0.325 0.513,-0.286 0.513,-0.233L0.129,-0.233C0.131,-0.18 0.144,-0.138 0.167,-0.106C0.19,-0.074 0.227,-0.058 0.276,-0.058C0.322,-0.058 0.358,-0.073 0.386,-0.103C0.401,-0.121 0.412,-0.141 0.419,-0.164L0.505,-0.164C0.503,-0.145 0.496,-0.123 0.483,-0.1C0.47,-0.076 0.455,-0.057 0.439,-0.042C0.413,-0.016 0.38,0.002 0.34,0.011C0.319,0.016 0.295,0.019 0.269,0.019C0.203,0.019 0.148,-0.005 0.103,-0.052C0.058,-0.1 0.035,-0.166 0.035,-0.251C0.035,-0.335 0.058,-0.404 0.104,-0.456C0.149,-0.508 0.209,-0.535 0.282,-0.535ZM0.422,-0.303C0.419,-0.341 0.41,-0.372 0.397,-0.395C0.373,-0.437 0.333,-0.458 0.277,-0.458C0.236,-0.458 0.203,-0.443 0.175,-0.414C0.148,-0.385 0.133,-0.348 0.132,-0.303L0.422,-0.303Z" style="fill-rule:nonzero;"/>
            </g>
            <g transform="matrix(28.2274,0,0,28.2274,539.843,509.302)">
                <path d="M0.12,-0.255C0.12,-0.199 0.132,-0.153 0.156,-0.115C0.18,-0.077 0.218,-0.058 0.27,-0.058C0.311,-0.058 0.344,-0.076 0.37,-0.111C0.397,-0.146 0.41,-0.196 0.41,-0.261C0.41,-0.327 0.396,-0.376 0.369,-0.408C0.342,-0.44 0.309,-0.456 0.269,-0.456C0.225,-0.456 0.189,-0.439 0.161,-0.405C0.134,-0.371 0.12,-0.321 0.12,-0.255ZM0.252,-0.532C0.292,-0.532 0.326,-0.524 0.353,-0.507C0.369,-0.497 0.386,-0.48 0.406,-0.456L0.406,-0.72L0.491,-0.72L0.491,-0L0.412,-0L0.412,-0.073C0.391,-0.041 0.367,-0.017 0.339,-0.003C0.311,0.011 0.279,0.019 0.243,0.019C0.184,0.019 0.134,-0.006 0.091,-0.055C0.049,-0.104 0.027,-0.169 0.027,-0.25C0.027,-0.327 0.047,-0.393 0.086,-0.448C0.125,-0.504 0.18,-0.532 0.252,-0.532Z" style="fill-rule:nonzero;"/>
            </g>
            <g transform="matrix(28.2274,0,0,28.2274,565.116,509.302)">
                <path d="M0.272,-0.057C0.33,-0.057 0.37,-0.079 0.392,-0.123C0.413,-0.167 0.424,-0.216 0.424,-0.27C0.424,-0.319 0.417,-0.359 0.401,-0.389C0.376,-0.437 0.333,-0.461 0.273,-0.461C0.219,-0.461 0.18,-0.441 0.156,-0.4C0.131,-0.359 0.119,-0.309 0.119,-0.251C0.119,-0.196 0.131,-0.149 0.156,-0.112C0.18,-0.075 0.219,-0.057 0.272,-0.057ZM0.275,-0.538C0.343,-0.538 0.4,-0.516 0.446,-0.471C0.493,-0.426 0.516,-0.36 0.516,-0.272C0.516,-0.188 0.496,-0.118 0.455,-0.063C0.414,-0.008 0.35,0.019 0.264,0.019C0.192,0.019 0.135,-0.005 0.092,-0.054C0.05,-0.103 0.029,-0.168 0.029,-0.25C0.029,-0.338 0.051,-0.408 0.096,-0.46C0.14,-0.512 0.2,-0.538 0.275,-0.538Z" style="fill-rule:nonzero;"/>
            </g>
            <g transform="matrix(28.2274,0,0,28.2274,580.682,509.302)">
                <path d="M0.064,-0.523L0.148,-0.523L0.148,-0.449C0.173,-0.479 0.199,-0.501 0.227,-0.515C0.254,-0.528 0.285,-0.535 0.319,-0.535C0.393,-0.535 0.443,-0.509 0.469,-0.457C0.484,-0.429 0.491,-0.388 0.491,-0.335L0.491,-0L0.401,-0L0.401,-0.33C0.401,-0.361 0.397,-0.387 0.387,-0.407C0.372,-0.439 0.343,-0.456 0.302,-0.456C0.281,-0.456 0.264,-0.453 0.251,-0.449C0.227,-0.442 0.206,-0.428 0.188,-0.406C0.173,-0.389 0.163,-0.371 0.159,-0.353C0.155,-0.334 0.152,-0.308 0.152,-0.274L0.152,-0L0.064,-0L0.064,-0.523Z" style="fill-rule:nonzero;"/>
            </g>
            <g transform="matrix(28.2274,0,0,28.2274,605.956,509.302)">
                <path d="M0.085,-0.717L0.408,-0.717C0.472,-0.717 0.523,-0.699 0.563,-0.663C0.602,-0.627 0.621,-0.577 0.621,-0.512C0.621,-0.456 0.604,-0.407 0.569,-0.365C0.534,-0.324 0.48,-0.303 0.408,-0.303L0.183,-0.303L0.183,-0L0.085,-0L0.085,-0.717ZM0.523,-0.511C0.523,-0.564 0.503,-0.6 0.464,-0.619C0.443,-0.629 0.413,-0.634 0.376,-0.634L0.183,-0.634L0.183,-0.385L0.376,-0.385C0.42,-0.385 0.455,-0.395 0.482,-0.413C0.509,-0.432 0.523,-0.464 0.523,-0.511Z" style="fill-rule:nonzero;"/>
            </g>
            <g transform="matrix(28.2274,0,0,28.2274,624.651,509.302)">
                <path d="M0.272,-0.057C0.33,-0.057 0.37,-0.079 0.392,-0.123C0.413,-0.167 0.424,-0.216 0.424,-0.27C0.424,-0.319 0.417,-0.359 0.401,-0.389C0.376,-0.437 0.333,-0.461 0.273,-0.461C0.219,-0.461 0.18,-0.441 0.156,-0.4C0.131,-0.359 0.119,-0.309 0.119,-0.251C0.119,-0.196 0.131,-0.149 0.156,-0.112C0.18,-0.075 0.219,-0.057 0.272,-0.057ZM0.275,-0.538C0.343,-0.538 0.4,-0.516 0.446,-0.471C0.493,-0.426 0.516,-0.36 0.516,-0.272C0.516,-0.188 0.496,-0.118 0.455,-0.063C0.414,-0.008 0.35,0.019 0.264,0.019C0.192,0.019 0.135,-0.005 0.092,-0.054C0.05,-0.103 0.029,-0.168 0.029,-0.25C0.029,-0.338 0.051,-0.408 0.096,-0.46C0.14,-0.512 0.2,-0.538 0.275,-0.538Z" style="fill-rule:nonzero;"/>
            </g>
            <g transform="matrix(28.2274,0,0,28.2274,640.217,509.302)">
                <path d="M0.105,-0.523L0.206,-0.111L0.308,-0.523L0.406,-0.523L0.509,-0.113L0.616,-0.523L0.704,-0.523L0.552,-0L0.46,-0L0.354,-0.405L0.251,-0L0.16,-0L0.009,-0.523L0.105,-0.523Z" style="fill-rule:nonzero;"/>
            </g>
            <g transform="matrix(28.2274,0,0,28.2274,660.469,509.302)">
                <path d="M0.282,-0.535C0.319,-0.535 0.355,-0.526 0.39,-0.509C0.425,-0.491 0.451,-0.469 0.47,-0.441C0.487,-0.415 0.499,-0.384 0.505,-0.349C0.51,-0.325 0.513,-0.286 0.513,-0.233L0.129,-0.233C0.131,-0.18 0.144,-0.138 0.167,-0.106C0.19,-0.074 0.227,-0.058 0.276,-0.058C0.322,-0.058 0.358,-0.073 0.386,-0.103C0.401,-0.121 0.412,-0.141 0.419,-0.164L0.505,-0.164C0.503,-0.145 0.496,-0.123 0.483,-0.1C0.47,-0.076 0.455,-0.057 0.439,-0.042C0.413,-0.016 0.38,0.002 0.34,0.011C0.319,0.016 0.295,0.019 0.269,0.019C0.203,0.019 0.148,-0.005 0.103,-0.052C0.058,-0.1 0.035,-0.166 0.035,-0.251C0.035,-0.335 0.058,-0.404 0.104,-0.456C0.149,-0.508 0.209,-0.535 0.282,-0.535ZM0.422,-0.303C0.419,-0.341 0.41,-0.372 0.397,-0.395C0.373,-0.437 0.333,-0.458 0.277,-0.458C0.236,-0.458 0.203,-0.443 0.175,-0.414C0.148,-0.385 0.133,-0.348 0.132,-0.303L0.422,-0.303Z" style="fill-rule:nonzero;"/>
            </g>
            <g transform="matrix(28.2274,0,0,28.2274,676.035,509.302)">
                <path d="M0.067,-0.523L0.15,-0.523L0.15,-0.433C0.157,-0.45 0.174,-0.472 0.201,-0.497C0.227,-0.522 0.258,-0.535 0.293,-0.535C0.295,-0.535 0.297,-0.535 0.301,-0.534C0.305,-0.534 0.312,-0.533 0.321,-0.532L0.321,-0.439C0.316,-0.44 0.311,-0.441 0.307,-0.441C0.302,-0.442 0.298,-0.442 0.292,-0.442C0.248,-0.442 0.214,-0.428 0.19,-0.399C0.167,-0.371 0.155,-0.338 0.155,-0.301L0.155,-0L0.067,-0L0.067,-0.523Z" style="fill-rule:nonzero;"/>
            </g>
            <g transform="matrix(28.2274,0,0,28.2274,690.532,509.302)">
                <path d="M0.132,-0.139C0.132,-0.114 0.141,-0.094 0.16,-0.079C0.178,-0.064 0.2,-0.057 0.226,-0.057C0.257,-0.057 0.286,-0.064 0.315,-0.079C0.364,-0.102 0.389,-0.141 0.389,-0.195L0.389,-0.266C0.378,-0.259 0.364,-0.254 0.347,-0.249C0.33,-0.244 0.314,-0.241 0.297,-0.239L0.244,-0.232C0.212,-0.228 0.188,-0.222 0.172,-0.212C0.145,-0.197 0.132,-0.173 0.132,-0.139ZM0.345,-0.317C0.365,-0.319 0.378,-0.328 0.385,-0.342C0.389,-0.35 0.391,-0.361 0.391,-0.376C0.391,-0.406 0.38,-0.428 0.359,-0.441C0.338,-0.455 0.307,-0.461 0.268,-0.461C0.222,-0.461 0.189,-0.449 0.17,-0.424C0.159,-0.411 0.152,-0.39 0.149,-0.363L0.067,-0.363C0.069,-0.428 0.089,-0.473 0.13,-0.498C0.17,-0.523 0.216,-0.536 0.27,-0.536C0.331,-0.536 0.381,-0.524 0.419,-0.5C0.458,-0.477 0.477,-0.441 0.477,-0.391L0.477,-0.09C0.477,-0.081 0.478,-0.073 0.482,-0.068C0.486,-0.062 0.494,-0.06 0.506,-0.06C0.51,-0.06 0.514,-0.06 0.519,-0.06C0.524,-0.061 0.529,-0.062 0.535,-0.063L0.535,0.002C0.521,0.006 0.511,0.009 0.503,0.01C0.496,0.011 0.486,0.011 0.474,0.011C0.444,0.011 0.422,0 0.408,-0.021C0.401,-0.032 0.396,-0.049 0.393,-0.069C0.375,-0.046 0.349,-0.026 0.316,-0.008C0.282,0.009 0.245,0.018 0.205,0.018C0.157,0.018 0.117,0.003 0.086,-0.027C0.055,-0.056 0.04,-0.093 0.04,-0.137C0.04,-0.186 0.055,-0.223 0.085,-0.25C0.116,-0.277 0.155,-0.293 0.205,-0.299L0.345,-0.317Z" style="fill-rule:nonzero;"/>
            </g>
            <g transform="matrix(28.2274,0,0,28.2274,706.098,509.302)">
                <path d="M0.064,-0.523L0.148,-0.523L0.148,-0.449C0.173,-0.479 0.199,-0.501 0.227,-0.515C0.254,-0.528 0.285,-0.535 0.319,-0.535C0.393,-0.535 0.443,-0.509 0.469,-0.457C0.484,-0.429 0.491,-0.388 0.491,-0.335L0.491,-0L0.401,-0L0.401,-0.33C0.401,-0.361 0.397,-0.387 0.387,-0.407C0.372,-0.439 0.343,-0.456 0.302,-0.456C0.281,-0.456 0.264,-0.453 0.251,-0.449C0.227,-0.442 0.206,-0.428 0.188,-0.406C0.173,-0.389 0.163,-0.371 0.159,-0.353C0.155,-0.334 0.152,-0.308 0.152,-0.274L0.152,-0L0.064,-0L0.064,-0.523Z" style="fill-rule:nonzero;"/>
            </g>
            <g transform="matrix(28.2274,0,0,28.2274,721.665,509.302)">
                <path d="M0.12,-0.255C0.12,-0.199 0.132,-0.153 0.156,-0.115C0.18,-0.077 0.218,-0.058 0.27,-0.058C0.311,-0.058 0.344,-0.076 0.37,-0.111C0.397,-0.146 0.41,-0.196 0.41,-0.261C0.41,-0.327 0.396,-0.376 0.369,-0.408C0.342,-0.44 0.309,-0.456 0.269,-0.456C0.225,-0.456 0.189,-0.439 0.161,-0.405C0.134,-0.371 0.12,-0.321 0.12,-0.255ZM0.252,-0.532C0.292,-0.532 0.326,-0.524 0.353,-0.507C0.369,-0.497 0.386,-0.48 0.406,-0.456L0.406,-0.72L0.491,-0.72L0.491,-0L0.412,-0L0.412,-0.073C0.391,-0.041 0.367,-0.017 0.339,-0.003C0.311,0.011 0.279,0.019 0.243,0.019C0.184,0.019 0.134,-0.006 0.091,-0.055C0.049,-0.104 0.027,-0.169 0.027,-0.25C0.027,-0.327 0.047,-0.393 0.086,-0.448C0.125,-0.504 0.18,-0.532 0.252,-0.532Z" style="fill-rule:nonzero;"/>
            </g>
            <g transform="matrix(28.2274,0,0,28.2274,744.995,509.302)">
                <path d="M0.444,-0.294L0.335,-0.611L0.22,-0.294L0.444,-0.294ZM0.285,-0.717L0.395,-0.717L0.655,-0L0.548,-0L0.476,-0.215L0.192,-0.215L0.114,-0L0.015,-0L0.285,-0.717Z" style="fill-rule:nonzero;"/>
            </g>
            <g transform="matrix(28.2274,0,0,28.2274,763.689,509.302)">
                <path d="M0.41,-0.389C0.455,-0.389 0.491,-0.398 0.518,-0.416C0.544,-0.434 0.558,-0.467 0.558,-0.515C0.558,-0.566 0.539,-0.601 0.502,-0.619C0.482,-0.629 0.456,-0.634 0.422,-0.634L0.185,-0.634L0.185,-0.389L0.41,-0.389ZM0.088,-0.717L0.42,-0.717C0.475,-0.717 0.52,-0.709 0.555,-0.693C0.623,-0.663 0.656,-0.606 0.656,-0.524C0.656,-0.481 0.647,-0.446 0.63,-0.418C0.612,-0.391 0.587,-0.369 0.555,-0.353C0.583,-0.341 0.604,-0.326 0.618,-0.308C0.633,-0.289 0.64,-0.259 0.642,-0.217L0.646,-0.121C0.646,-0.094 0.649,-0.073 0.652,-0.06C0.658,-0.037 0.669,-0.023 0.684,-0.016L0.684,-0L0.564,-0C0.561,-0.006 0.559,-0.014 0.557,-0.024C0.555,-0.034 0.553,-0.053 0.552,-0.081L0.546,-0.2C0.544,-0.247 0.526,-0.278 0.494,-0.294C0.475,-0.303 0.446,-0.308 0.406,-0.308L0.185,-0.308L0.185,-0L0.088,-0L0.088,-0.717Z" style="fill-rule:nonzero;"/>
            </g>
            <g transform="matrix(28.2274,0,0,28.2274,783.941,509.302)">
                <path d="M0.074,-0.717L0.213,-0.717L0.419,-0.111L0.624,-0.717L0.761,-0.717L0.761,-0L0.669,-0L0.669,-0.423C0.669,-0.438 0.669,-0.462 0.67,-0.496C0.671,-0.53 0.671,-0.566 0.671,-0.605L0.466,-0L0.37,-0L0.164,-0.605L0.164,-0.583C0.164,-0.565 0.164,-0.539 0.165,-0.503C0.166,-0.467 0.167,-0.44 0.167,-0.423L0.167,-0L0.074,-0L0.074,-0.717Z" style="fill-rule:nonzero;"/>
            </g>
        </g>
        <g transform="matrix(1,0,0,1,1100.88,1384.75)">
            <g transform="matrix(28.2274,0,0,28.2274,356.295,457.536)">
                <path d="M0.598,-0.717L0.598,-0.632L0.356,-0.632L0.356,-0L0.258,-0L0.258,-0.632L0.016,-0.632L0.016,-0.717L0.598,-0.717Z" style="fill-rule:nonzero;"/>
            </g>
            <g transform="matrix(28.2274,0,0,28.2274,373.534,457.536)">
                <path d="M0.064,-0.72L0.152,-0.72L0.152,-0.452C0.173,-0.479 0.192,-0.497 0.208,-0.508C0.237,-0.526 0.272,-0.536 0.314,-0.536C0.39,-0.536 0.442,-0.509 0.469,-0.456C0.483,-0.427 0.491,-0.387 0.491,-0.335L0.491,-0L0.4,-0L0.4,-0.33C0.4,-0.368 0.396,-0.396 0.386,-0.414C0.37,-0.443 0.34,-0.457 0.296,-0.457C0.259,-0.457 0.226,-0.444 0.197,-0.419C0.167,-0.394 0.152,-0.347 0.152,-0.277L0.152,-0L0.064,-0L0.064,-0.72Z" style="fill-rule:nonzero;"/>
            </g>
            <g transform="matrix(28.2274,0,0,28.2274,389.229,457.536)">
                <path d="M0.067,-0.523L0.15,-0.523L0.15,-0.433C0.157,-0.45 0.174,-0.472 0.201,-0.497C0.227,-0.522 0.258,-0.535 0.293,-0.535C0.295,-0.535 0.297,-0.535 0.301,-0.534C0.305,-0.534 0.312,-0.533 0.321,-0.532L0.321,-0.439C0.316,-0.44 0.311,-0.441 0.307,-0.441C0.302,-0.442 0.298,-0.442 0.292,-0.442C0.248,-0.442 0.214,-0.428 0.19,-0.399C0.167,-0.371 0.155,-0.338 0.155,-0.301L0.155,-0L0.067,-0L0.067,-0.523Z" style="fill-rule:nonzero;"/>
            </g>
            <g transform="matrix(28.2274,0,0,28.2274,398.626,457.536)">
                <path d="M0.282,-0.535C0.319,-0.535 0.355,-0.526 0.39,-0.509C0.425,-0.491 0.451,-0.469 0.47,-0.441C0.487,-0.415 0.499,-0.384 0.505,-0.349C0.51,-0.325 0.513,-0.286 0.513,-0.233L0.129,-0.233C0.131,-0.18 0.144,-0.138 0.167,-0.106C0.19,-0.074 0.227,-0.058 0.276,-0.058C0.322,-0.058 0.358,-0.073 0.386,-0.103C0.401,-0.121 0.412,-0.141 0.419,-0.164L0.505,-0.164C0.503,-0.145 0.496,-0.123 0.483,-0.1C0.47,-0.076 0.455,-0.057 0.439,-0.042C0.413,-0.016 0.38,0.002 0.34,0.011C0.319,0.016 0.295,0.019 0.269,0.019C0.203,0.019 0.148,-0.005 0.103,-0.052C0.058,-0.1 0.035,-0.166 0.035,-0.251C0.035,-0.335 0.058,-0.404 0.104,-0.456C0.149,-0.508 0.209,-0.535 0.282,-0.535ZM0.422,-0.303C0.419,-0.341 0.41,-0.372 0.397,-0.395C0.373,-0.437 0.333,-0.458 0.277,-0.458C0.236,-0.458 0.203,-0.443 0.175,-0.414C0.148,-0.385 0.133,-0.348 0.132,-0.303L0.422,-0.303Z" style="fill-rule:nonzero;"/>
            </g>
            <g transform="matrix(28.2274,0,0,28.2274,414.321,457.536)">
                <path d="M0.132,-0.139C0.132,-0.114 0.141,-0.094 0.16,-0.079C0.178,-0.064 0.2,-0.057 0.226,-0.057C0.257,-0.057 0.286,-0.064 0.315,-0.079C0.364,-0.102 0.389,-0.141 0.389,-0.195L0.389,-0.266C0.378,-0.259 0.364,-0.254 0.347,-0.249C0.33,-0.244 0.314,-0.241 0.297,-0.239L0.244,-0.232C0.212,-0.228 0.188,-0.222 0.172,-0.212C0.145,-0.197 0.132,-0.173 0.132,-0.139ZM0.345,-0.317C0.365,-0.319 0.378,-0.328 0.385,-0.342C0.389,-0.35 0.391,-0.361 0.391,-0.376C0.391,-0.406 0.38,-0.428 0.359,-0.441C0.338,-0.455 0.307,-0.461 0.268,-0.461C0.222,-0.461 0.189,-0.449 0.17,-0.424C0.159,-0.411 0.152,-0.39 0.149,-0.363L0.067,-0.363C0.069,-0.428 0.089,-0.473 0.13,-0.498C0.17,-0.523 0.216,-0.536 0.27,-0.536C0.331,-0.536 0.381,-0.524 0.419,-0.5C0.458,-0.477 0.477,-0.441 0.477,-0.391L0.477,-0.09C0.477,-0.081 0.478,-0.073 0.482,-0.068C0.486,-0.062 0.494,-0.06 0.506,-0.06C0.51,-0.06 0.514,-0.06 0.519,-0.06C0.524,-0.061 0.529,-0.062 0.535,-0.063L0.535,0.002C0.521,0.006 0.511,0.009 0.503,0.01C0.496,0.011 0.486,0.011 0.474,0.011C0.444,0.011 0.422,0 0.408,-0.021C0.401,-0.032 0.396,-0.049 0.393,-0.069C0.375,-0.046 0.349,-0.026 0.316,-0.008C0.282,0.009 0.245,0.018 0.205,0.018C0.157,0.018 0.117,0.003 0.086,-0.027C0.055,-0.056 0.04,-0.093 0.04,-0.137C0.04,-0.186 0.055,-0.223 0.085,-0.25C0.116,-0.277 0.155,-0.293 0.205,-0.299L0.345,-0.317Z" style="fill-rule:nonzero;"/>
            </g>
            <g transform="matrix(28.2274,0,0,28.2274,430.016,457.536)">
                <path d="M0.12,-0.255C0.12,-0.199 0.132,-0.153 0.156,-0.115C0.18,-0.077 0.218,-0.058 0.27,-0.058C0.311,-0.058 0.344,-0.076 0.37,-0.111C0.397,-0.146 0.41,-0.196 0.41,-0.261C0.41,-0.327 0.396,-0.376 0.369,-0.408C0.342,-0.44 0.309,-0.456 0.269,-0.456C0.225,-0.456 0.189,-0.439 0.161,-0.405C0.134,-0.371 0.12,-0.321 0.12,-0.255ZM0.252,-0.532C0.292,-0.532 0.326,-0.524 0.353,-0.507C0.369,-0.497 0.386,-0.48 0.406,-0.456L0.406,-0.72L0.491,-0.72L0.491,-0L0.412,-0L0.412,-0.073C0.391,-0.041 0.367,-0.017 0.339,-0.003C0.311,0.011 0.279,0.019 0.243,0.019C0.184,0.019 0.134,-0.006 0.091,-0.055C0.049,-0.104 0.027,-0.169 0.027,-0.25C0.027,-0.327 0.047,-0.393 0.086,-0.448C0.125,-0.504 0.18,-0.532 0.252,-0.532Z" style="fill-rule:nonzero;"/>
            </g>
            <g transform="matrix(28.2274,0,0,28.2274,455.486,457.536)">
                <path d="M0.271,-0.699C0.361,-0.699 0.426,-0.662 0.467,-0.587C0.498,-0.53 0.514,-0.451 0.514,-0.351C0.514,-0.256 0.5,-0.177 0.471,-0.115C0.43,-0.026 0.363,0.019 0.27,0.019C0.186,0.019 0.124,-0.017 0.083,-0.09C0.048,-0.151 0.031,-0.233 0.031,-0.335C0.031,-0.415 0.042,-0.483 0.062,-0.54C0.1,-0.646 0.17,-0.699 0.271,-0.699ZM0.27,-0.061C0.315,-0.061 0.351,-0.081 0.378,-0.122C0.405,-0.162 0.419,-0.237 0.419,-0.347C0.419,-0.427 0.409,-0.492 0.39,-0.543C0.37,-0.594 0.332,-0.62 0.276,-0.62C0.224,-0.62 0.186,-0.596 0.162,-0.547C0.138,-0.498 0.126,-0.427 0.126,-0.332C0.126,-0.261 0.134,-0.203 0.149,-0.16C0.173,-0.094 0.213,-0.061 0.27,-0.061Z" style="fill-rule:nonzero;"/>
            </g>
            <g transform="matrix(28.2274,0,0,28.2274,348.185,503.43)">
                <path d="M0.132,-0.139C0.132,-0.114 0.141,-0.094 0.16,-0.079C0.178,-0.064 0.2,-0.057 0.226,-0.057C0.257,-0.057 0.286,-0.064 0.315,-0.079C0.364,-0.102 0.389,-0.141 0.389,-0.195L0.389,-0.266C0.378,-0.259 0.364,-0.254 0.347,-0.249C0.33,-0.244 0.314,-0.241 0.297,-0.239L0.244,-0.232C0.212,-0.228 0.188,-0.222 0.172,-0.212C0.145,-0.197 0.132,-0.173 0.132,-0.139ZM0.345,-0.317C0.365,-0.319 0.378,-0.328 0.385,-0.342C0.389,-0.35 0.391,-0.361 0.391,-0.376C0.391,-0.406 0.38,-0.428 0.359,-0.441C0.338,-0.455 0.307,-0.461 0.268,-0.461C0.222,-0.461 0.189,-0.449 0.17,-0.424C0.159,-0.411 0.152,-0.39 0.149,-0.363L0.067,-0.363C0.069,-0.428 0.089,-0.473 0.13,-0.498C0.17,-0.523 0.216,-0.536 0.27,-0.536C0.331,-0.536 0.381,-0.524 0.419,-0.5C0.458,-0.477 0.477,-0.441 0.477,-0.391L0.477,-0.09C0.477,-0.081 0.478,-0.073 0.482,-0.068C0.486,-0.062 0.494,-0.06 0.506,-0.06C0.51,-0.06 0.514,-0.06 0.519,-0.06C0.524,-0.061 0.529,-0.062 0.535,-0.063L0.535,0.002C0.521,0.006 0.511,0.009 0.503,0.01C0.496,0.011 0.486,0.011 0.474,0.011C0.444,0.011 0.422,0 0.408,-0.021C0.401,-0.032 0.396,-0.049 0.393,-0.069C0.375,-0.046 0.349,-0.026 0.316,-0.008C0.282,0.009 0.245,0.018 0.205,0.018C0.157,0.018 0.117,0.003 0.086,-0.027C0.055,-0.056 0.04,-0.093 0.04,-0.137C0.04,-0.186 0.055,-0.223 0.085,-0.25C0.116,-0.277 0.155,-0.293 0.205,-0.299L0.345,-0.317Z" style="fill-rule:nonzero;"/>
            </g>
            <g transform="matrix(28.2274,0,0,28.2274,365.194,503.43)">
                <path d="M0.111,-0.516L0.213,-0.516L0.213,-0.41L0.111,-0.41L0.111,-0.516ZM0.111,-0.106L0.213,-0.106L0.213,-0L0.111,-0L0.111,-0.106Z" style="fill-rule:nonzero;"/>
            </g>
            <g transform="matrix(28.2274,0,0,28.2274,380.912,503.43)">
                <path d="M0.124,-0.717L0.259,-0.134L0.421,-0.717L0.526,-0.717L0.688,-0.134L0.824,-0.717L0.93,-0.717L0.742,-0L0.64,-0L0.474,-0.595L0.308,-0L0.206,-0L0.018,-0.717L0.124,-0.717Z" style="fill-rule:nonzero;"/>
            </g>
            <g transform="matrix(28.2274,0,0,28.2274,408.864,503.43)">
                <path d="M0.063,-0.722L0.25,-0.722L0.25,-0.65L0.146,-0.65L0.146,0.125L0.25,0.125L0.25,0.197L0.063,0.197L0.063,-0.722Z" style="fill-rule:nonzero;"/>
            </g>
            <g transform="matrix(28.2274,0,0,28.2274,418.016,503.43)">
                <path d="M0.015,-0.523L0.128,-0.523L0.249,-0.339L0.37,-0.523L0.477,-0.521L0.301,-0.268L0.485,-0L0.373,-0L0.243,-0.196L0.117,-0L0.005,-0L0.189,-0.268L0.015,-0.523Z" style="fill-rule:nonzero;"/>
            </g>
            <g transform="matrix(28.2274,0,0,28.2274,433.44,503.43)">
                <path d="M0.023,0.125L0.127,0.125L0.127,-0.65L0.023,-0.65L0.023,-0.722L0.21,-0.722L0.21,0.197L0.023,0.197L0.023,0.125Z" style="fill-rule:nonzero;"/>
            </g>
            <g transform="matrix(28.2274,0,0,28.2274,442.592,503.43)">
                <path d="M0.554,-0.401L0.554,-0.319L0.045,-0.319L0.045,-0.401L0.554,-0.401ZM0.554,-0.192L0.554,-0.108L0.045,-0.108L0.045,-0.192L0.554,-0.192Z" style="fill-rule:nonzero;"/>
            </g>
            <g transform="matrix(28.2274,0,0,28.2274,460.387,503.43)">
                <path d="M0.096,-0.495L0.096,-0.563C0.159,-0.569 0.203,-0.579 0.229,-0.594C0.254,-0.608 0.272,-0.642 0.285,-0.696L0.354,-0.696L0.354,-0L0.26,-0L0.26,-0.495L0.096,-0.495Z" style="fill-rule:nonzero;"/>
            </g>
            <g transform="matrix(28.2274,0,0,28.2274,347.647,610.533)">
                <path d="M0.058,-0.72L0.143,-0.72L0.143,-0.459C0.162,-0.485 0.185,-0.504 0.212,-0.517C0.239,-0.53 0.268,-0.537 0.299,-0.537C0.364,-0.537 0.417,-0.514 0.457,-0.469C0.498,-0.425 0.518,-0.359 0.518,-0.271C0.518,-0.189 0.498,-0.12 0.458,-0.065C0.418,-0.011 0.362,0.017 0.292,0.017C0.252,0.017 0.218,0.007 0.191,-0.012C0.175,-0.024 0.157,-0.042 0.139,-0.067L0.139,-0L0.058,-0L0.058,-0.72ZM0.286,-0.061C0.334,-0.061 0.369,-0.08 0.393,-0.118C0.416,-0.155 0.428,-0.205 0.428,-0.267C0.428,-0.322 0.416,-0.368 0.393,-0.404C0.369,-0.44 0.334,-0.458 0.289,-0.458C0.249,-0.458 0.213,-0.443 0.183,-0.414C0.153,-0.384 0.138,-0.335 0.138,-0.267C0.138,-0.218 0.144,-0.178 0.157,-0.147C0.18,-0.09 0.223,-0.061 0.286,-0.061Z" style="fill-rule:nonzero;"/>
            </g>
            <g transform="matrix(28.2274,0,0,28.2274,364.809,610.533)">
                <path d="M0.111,-0.516L0.213,-0.516L0.213,-0.41L0.111,-0.41L0.111,-0.516ZM0.111,-0.106L0.213,-0.106L0.213,-0L0.111,-0L0.111,-0.106Z" style="fill-rule:nonzero;"/>
            </g>
            <g transform="matrix(28.2274,0,0,28.2274,381.452,610.533)">
                <path d="M0.124,-0.717L0.259,-0.134L0.421,-0.717L0.526,-0.717L0.688,-0.134L0.824,-0.717L0.93,-0.717L0.742,-0L0.64,-0L0.474,-0.595L0.308,-0L0.206,-0L0.018,-0.717L0.124,-0.717Z" style="fill-rule:nonzero;"/>
            </g>
            <g transform="matrix(28.2274,0,0,28.2274,409.558,610.533)">
                <path d="M0.063,-0.722L0.25,-0.722L0.25,-0.65L0.146,-0.65L0.146,0.125L0.25,0.125L0.25,0.197L0.063,0.197L0.063,-0.722Z" style="fill-rule:nonzero;"/>
            </g>
            <g transform="matrix(28.2274,0,0,28.2274,418.864,610.533)">
                <path d="M0.391,-0.523L0.488,-0.523C0.476,-0.489 0.448,-0.413 0.406,-0.293C0.374,-0.204 0.347,-0.13 0.326,-0.074C0.275,0.06 0.239,0.141 0.218,0.17C0.197,0.2 0.162,0.214 0.111,0.214C0.098,0.214 0.089,0.214 0.082,0.213C0.076,0.212 0.067,0.21 0.058,0.208L0.058,0.127C0.073,0.132 0.084,0.134 0.091,0.135C0.098,0.136 0.104,0.137 0.109,0.137C0.125,0.137 0.137,0.134 0.145,0.129C0.152,0.123 0.159,0.117 0.164,0.109C0.166,0.106 0.172,0.093 0.182,0.069C0.192,0.045 0.199,0.027 0.204,0.015L0.01,-0.523L0.11,-0.523L0.25,-0.097L0.391,-0.523Z" style="fill-rule:nonzero;"/>
            </g>
            <g transform="matrix(28.2274,0,0,28.2274,434.442,610.533)">
                <path d="M0.023,0.125L0.127,0.125L0.127,-0.65L0.023,-0.65L0.023,-0.722L0.21,-0.722L0.21,0.197L0.023,0.197L0.023,0.125Z" style="fill-rule:nonzero;"/>
            </g>
            <g transform="matrix(28.2274,0,0,28.2274,443.748,610.533)">
                <path d="M0.554,-0.401L0.554,-0.319L0.045,-0.319L0.045,-0.401L0.554,-0.401ZM0.554,-0.192L0.554,-0.108L0.045,-0.108L0.045,-0.192L0.554,-0.192Z" style="fill-rule:nonzero;"/>
            </g>
            <g transform="matrix(28.2274,0,0,28.2274,461.697,610.533)">
                <path d="M0.096,-0.495L0.096,-0.563C0.159,-0.569 0.203,-0.579 0.229,-0.594C0.254,-0.608 0.272,-0.642 0.285,-0.696L0.354,-0.696L0.354,-0L0.26,-0L0.26,-0.495L0.096,-0.495Z" style="fill-rule:nonzero;"/>
            </g>
        </g>
        <g transform="matrix(1,0,0,1,1267.89,1419.63)">
            <g transform="matrix(28.2274,0,0,28.2274,400.385,468.552)">
                <path d="M0.266,-0.538C0.325,-0.538 0.373,-0.524 0.41,-0.495C0.447,-0.466 0.469,-0.417 0.477,-0.347L0.391,-0.347C0.386,-0.379 0.374,-0.406 0.355,-0.427C0.337,-0.449 0.307,-0.459 0.266,-0.459C0.21,-0.459 0.17,-0.432 0.146,-0.377C0.13,-0.342 0.123,-0.298 0.123,-0.246C0.123,-0.194 0.134,-0.15 0.156,-0.114C0.178,-0.078 0.213,-0.06 0.26,-0.06C0.297,-0.06 0.326,-0.071 0.347,-0.094C0.368,-0.116 0.383,-0.146 0.391,-0.185L0.477,-0.185C0.467,-0.116 0.442,-0.065 0.403,-0.033C0.364,-0.001 0.314,0.015 0.253,0.015C0.185,0.015 0.131,-0.01 0.09,-0.06C0.049,-0.11 0.029,-0.172 0.029,-0.247C0.029,-0.339 0.051,-0.41 0.096,-0.461C0.14,-0.513 0.197,-0.538 0.266,-0.538Z" style="fill-rule:nonzero;"/>
            </g>
            <g transform="matrix(28.2274,0,0,28.2274,415.501,468.552)">
                <path d="M0.111,-0.516L0.213,-0.516L0.213,-0.41L0.111,-0.41L0.111,-0.516ZM0.111,-0.106L0.213,-0.106L0.213,-0L0.111,-0L0.111,-0.106Z" style="fill-rule:nonzero;"/>
            </g>
            <g transform="matrix(28.2274,0,0,28.2274,432.034,468.552)">
                <path d="M0.41,-0.389C0.455,-0.389 0.491,-0.398 0.518,-0.416C0.544,-0.434 0.558,-0.467 0.558,-0.515C0.558,-0.566 0.539,-0.601 0.502,-0.619C0.482,-0.629 0.456,-0.634 0.422,-0.634L0.185,-0.634L0.185,-0.389L0.41,-0.389ZM0.088,-0.717L0.42,-0.717C0.475,-0.717 0.52,-0.709 0.555,-0.693C0.623,-0.663 0.656,-0.606 0.656,-0.524C0.656,-0.481 0.647,-0.446 0.63,-0.418C0.612,-0.391 0.587,-0.369 0.555,-0.353C0.583,-0.341 0.604,-0.326 0.618,-0.308C0.633,-0.289 0.64,-0.259 0.642,-0.217L0.646,-0.121C0.646,-0.094 0.649,-0.073 0.652,-0.06C0.658,-0.037 0.669,-0.023 0.684,-0.016L0.684,-0L0.564,-0C0.561,-0.006 0.559,-0.014 0.557,-0.024C0.555,-0.034 0.553,-0.053 0.552,-0.081L0.546,-0.2C0.544,-0.247 0.526,-0.278 0.494,-0.294C0.475,-0.303 0.446,-0.308 0.406,-0.308L0.185,-0.308L0.185,-0L0.088,-0L0.088,-0.717Z" style="fill-rule:nonzero;"/>
            </g>
            <g transform="matrix(28.2274,0,0,28.2274,453.421,468.552)">
                <path d="M0.063,-0.722L0.25,-0.722L0.25,-0.65L0.146,-0.65L0.146,0.125L0.25,0.125L0.25,0.197L0.063,0.197L0.063,-0.722Z" style="fill-rule:nonzero;"/>
            </g>
            <g transform="matrix(28.2274,0,0,28.2274,462.266,468.552)">
                <path d="M0.391,-0.523L0.488,-0.523C0.476,-0.489 0.448,-0.413 0.406,-0.293C0.374,-0.204 0.347,-0.13 0.326,-0.074C0.275,0.06 0.239,0.141 0.218,0.17C0.197,0.2 0.162,0.214 0.111,0.214C0.098,0.214 0.089,0.214 0.082,0.213C0.076,0.212 0.067,0.21 0.058,0.208L0.058,0.127C0.073,0.132 0.084,0.134 0.091,0.135C0.098,0.136 0.104,0.137 0.109,0.137C0.125,0.137 0.137,0.134 0.145,0.129C0.152,0.123 0.159,0.117 0.164,0.109C0.166,0.106 0.172,0.093 0.182,0.069C0.192,0.045 0.199,0.027 0.204,0.015L0.01,-0.523L0.11,-0.523L0.25,-0.097L0.391,-0.523Z" style="fill-rule:nonzero;"/>
            </g>
            <g transform="matrix(28.2274,0,0,28.2274,477.382,468.552)">
                <path d="M0.023,0.125L0.127,0.125L0.127,-0.65L0.023,-0.65L0.023,-0.722L0.21,-0.722L0.21,0.197L0.023,0.197L0.023,0.125Z" style="fill-rule:nonzero;"/>
            </g>
            <g transform="matrix(28.2274,0,0,28.2274,486.226,468.552)">
                <path d="M0.554,-0.401L0.554,-0.319L0.045,-0.319L0.045,-0.401L0.554,-0.401ZM0.554,-0.192L0.554,-0.108L0.045,-0.108L0.045,-0.192L0.554,-0.192Z" style="fill-rule:nonzero;"/>
            </g>
            <g transform="matrix(28.2274,0,0,28.2274,503.713,468.552)">
                <path d="M0.096,-0.495L0.096,-0.563C0.159,-0.569 0.203,-0.579 0.229,-0.594C0.254,-0.608 0.272,-0.642 0.285,-0.696L0.354,-0.696L0.354,-0L0.26,-0L0.26,-0.495L0.096,-0.495Z" style="fill-rule:nonzero;"/>
            </g>
        </g>
        <g transform="matrix(1,0,0,1,1270.25,1384.75)">
            <g transform="matrix(28.2274,0,0,28.2274,401.131,457.536)">
                <path d="M0.598,-0.717L0.598,-0.632L0.356,-0.632L0.356,-0L0.258,-0L0.258,-0.632L0.016,-0.632L0.016,-0.717L0.598,-0.717Z" style="fill-rule:nonzero;"/>
            </g>
            <g transform="matrix(28.2274,0,0,28.2274,418.37,457.536)">
                <path d="M0.064,-0.72L0.152,-0.72L0.152,-0.452C0.173,-0.479 0.192,-0.497 0.208,-0.508C0.237,-0.526 0.272,-0.536 0.314,-0.536C0.39,-0.536 0.442,-0.509 0.469,-0.456C0.483,-0.427 0.491,-0.387 0.491,-0.335L0.491,-0L0.4,-0L0.4,-0.33C0.4,-0.368 0.396,-0.396 0.386,-0.414C0.37,-0.443 0.34,-0.457 0.296,-0.457C0.259,-0.457 0.226,-0.444 0.197,-0.419C0.167,-0.394 0.152,-0.347 0.152,-0.277L0.152,-0L0.064,-0L0.064,-0.72Z" style="fill-rule:nonzero;"/>
            </g>
            <g transform="matrix(28.2274,0,0,28.2274,434.065,457.536)">
                <path d="M0.067,-0.523L0.15,-0.523L0.15,-0.433C0.157,-0.45 0.174,-0.472 0.201,-0.497C0.227,-0.522 0.258,-0.535 0.293,-0.535C0.295,-0.535 0.297,-0.535 0.301,-0.534C0.305,-0.534 0.312,-0.533 0.321,-0.532L0.321,-0.439C0.316,-0.44 0.311,-0.441 0.307,-0.441C0.302,-0.442 0.298,-0.442 0.292,-0.442C0.248,-0.442 0.214,-0.428 0.19,-0.399C0.167,-0.371 0.155,-0.338 0.155,-0.301L0.155,-0L0.067,-0L0.067,-0.523Z" style="fill-rule:nonzero;"/>
            </g>
            <g transform="matrix(28.2274,0,0,28.2274,443.462,457.536)">
                <path d="M0.282,-0.535C0.319,-0.535 0.355,-0.526 0.39,-0.509C0.425,-0.491 0.451,-0.469 0.47,-0.441C0.487,-0.415 0.499,-0.384 0.505,-0.349C0.51,-0.325 0.513,-0.286 0.513,-0.233L0.129,-0.233C0.131,-0.18 0.144,-0.138 0.167,-0.106C0.19,-0.074 0.227,-0.058 0.276,-0.058C0.322,-0.058 0.358,-0.073 0.386,-0.103C0.401,-0.121 0.412,-0.141 0.419,-0.164L0.505,-0.164C0.503,-0.145 0.496,-0.123 0.483,-0.1C0.47,-0.076 0.455,-0.057 0.439,-0.042C0.413,-0.016 0.38,0.002 0.34,0.011C0.319,0.016 0.295,0.019 0.269,0.019C0.203,0.019 0.148,-0.005 0.103,-0.052C0.058,-0.1 0.035,-0.166 0.035,-0.251C0.035,-0.335 0.058,-0.404 0.104,-0.456C0.149,-0.508 0.209,-0.535 0.282,-0.535ZM0.422,-0.303C0.419,-0.341 0.41,-0.372 0.397,-0.395C0.373,-0.437 0.333,-0.458 0.277,-0.458C0.236,-0.458 0.203,-0.443 0.175,-0.414C0.148,-0.385 0.133,-0.348 0.132,-0.303L0.422,-0.303Z" style="fill-rule:nonzero;"/>
            </g>
            <g transform="matrix(28.2274,0,0,28.2274,459.157,457.536)">
                <path d="M0.132,-0.139C0.132,-0.114 0.141,-0.094 0.16,-0.079C0.178,-0.064 0.2,-0.057 0.226,-0.057C0.257,-0.057 0.286,-0.064 0.315,-0.079C0.364,-0.102 0.389,-0.141 0.389,-0.195L0.389,-0.266C0.378,-0.259 0.364,-0.254 0.347,-0.249C0.33,-0.244 0.314,-0.241 0.297,-0.239L0.244,-0.232C0.212,-0.228 0.188,-0.222 0.172,-0.212C0.145,-0.197 0.132,-0.173 0.132,-0.139ZM0.345,-0.317C0.365,-0.319 0.378,-0.328 0.385,-0.342C0.389,-0.35 0.391,-0.361 0.391,-0.376C0.391,-0.406 0.38,-0.428 0.359,-0.441C0.338,-0.455 0.307,-0.461 0.268,-0.461C0.222,-0.461 0.189,-0.449 0.17,-0.424C0.159,-0.411 0.152,-0.39 0.149,-0.363L0.067,-0.363C0.069,-0.428 0.089,-0.473 0.13,-0.498C0.17,-0.523 0.216,-0.536 0.27,-0.536C0.331,-0.536 0.381,-0.524 0.419,-0.5C0.458,-0.477 0.477,-0.441 0.477,-0.391L0.477,-0.09C0.477,-0.081 0.478,-0.073 0.482,-0.068C0.486,-0.062 0.494,-0.06 0.506,-0.06C0.51,-0.06 0.514,-0.06 0.519,-0.06C0.524,-0.061 0.529,-0.062 0.535,-0.063L0.535,0.002C0.521,0.006 0.511,0.009 0.503,0.01C0.496,0.011 0.486,0.011 0.474,0.011C0.444,0.011 0.422,0 0.408,-0.021C0.401,-0.032 0.396,-0.049 0.393,-0.069C0.375,-0.046 0.349,-0.026 0.316,-0.008C0.282,0.009 0.245,0.018 0.205,0.018C0.157,0.018 0.117,0.003 0.086,-0.027C0.055,-0.056 0.04,-0.093 0.04,-0.137C0.04,-0.186 0.055,-0.223 0.085,-0.25C0.116,-0.277 0.155,-0.293 0.205,-0.299L0.345,-0.317Z" style="fill-rule:nonzero;"/>
            </g>
            <g transform="matrix(28.2274,0,0,28.2274,474.852,457.536)">
                <path d="M0.12,-0.255C0.12,-0.199 0.132,-0.153 0.156,-0.115C0.18,-0.077 0.218,-0.058 0.27,-0.058C0.311,-0.058 0.344,-0.076 0.37,-0.111C0.397,-0.146 0.41,-0.196 0.41,-0.261C0.41,-0.327 0.396,-0.376 0.369,-0.408C0.342,-0.44 0.309,-0.456 0.269,-0.456C0.225,-0.456 0.189,-0.439 0.161,-0.405C0.134,-0.371 0.12,-0.321 0.12,-0.255ZM0.252,-0.532C0.292,-0.532 0.326,-0.524 0.353,-0.507C0.369,-0.497 0.386,-0.48 0.406,-0.456L0.406,-0.72L0.491,-0.72L0.491,-0L0.412,-0L0.412,-0.073C0.391,-0.041 0.367,-0.017 0.339,-0.003C0.311,0.011 0.279,0.019 0.243,0.019C0.184,0.019 0.134,-0.006 0.091,-0.055C0.049,-0.104 0.027,-0.169 0.027,-0.25C0.027,-0.327 0.047,-0.393 0.086,-0.448C0.125,-0.504 0.18,-0.532 0.252,-0.532Z" style="fill-rule:nonzero;"/>
            </g>
            <g transform="matrix(28.2274,0,0,28.2274,500.322,457.536)">
                <path d="M0.096,-0.495L0.096,-0.563C0.159,-0.569 0.203,-0.579 0.229,-0.594C0.254,-0.608 0.272,-0.642 0.285,-0.696L0.354,-0.696L0.354,-0L0.26,-0L0.26,-0.495L0.096,-0.495Z" style="fill-rule:nonzero;"/>
            </g>
        </g>
        <g transform="matrix(1,0,0,1,1267.06,1501.03)">
            <g transform="matrix(28.2274,0,0,28.2274,400.126,494.257)">
                <path d="M0.12,-0.255C0.12,-0.199 0.132,-0.153 0.156,-0.115C0.18,-0.077 0.218,-0.058 0.27,-0.058C0.311,-0.058 0.344,-0.076 0.37,-0.111C0.397,-0.146 0.41,-0.196 0.41,-0.261C0.41,-0.327 0.396,-0.376 0.369,-0.408C0.342,-0.44 0.309,-0.456 0.269,-0.456C0.225,-0.456 0.189,-0.439 0.161,-0.405C0.134,-0.371 0.12,-0.321 0.12,-0.255ZM0.252,-0.532C0.292,-0.532 0.326,-0.524 0.353,-0.507C0.369,-0.497 0.386,-0.48 0.406,-0.456L0.406,-0.72L0.491,-0.72L0.491,-0L0.412,-0L0.412,-0.073C0.391,-0.041 0.367,-0.017 0.339,-0.003C0.311,0.011 0.279,0.019 0.243,0.019C0.184,0.019 0.134,-0.006 0.091,-0.055C0.049,-0.104 0.027,-0.169 0.027,-0.25C0.027,-0.327 0.047,-0.393 0.086,-0.448C0.125,-0.504 0.18,-0.532 0.252,-0.532Z" style="fill-rule:nonzero;"/>
            </g>
            <g transform="matrix(28.2274,0,0,28.2274,416.908,494.257)">
                <path d="M0.111,-0.516L0.213,-0.516L0.213,-0.41L0.111,-0.41L0.111,-0.516ZM0.111,-0.106L0.213,-0.106L0.213,-0L0.111,-0L0.111,-0.106Z" style="fill-rule:nonzero;"/>
            </g>
            <g transform="matrix(28.2274,0,0,28.2274,433.931,494.257)">
                <path d="M0.41,-0.389C0.455,-0.389 0.491,-0.398 0.518,-0.416C0.544,-0.434 0.558,-0.467 0.558,-0.515C0.558,-0.566 0.539,-0.601 0.502,-0.619C0.482,-0.629 0.456,-0.634 0.422,-0.634L0.185,-0.634L0.185,-0.389L0.41,-0.389ZM0.088,-0.717L0.42,-0.717C0.475,-0.717 0.52,-0.709 0.555,-0.693C0.623,-0.663 0.656,-0.606 0.656,-0.524C0.656,-0.481 0.647,-0.446 0.63,-0.418C0.612,-0.391 0.587,-0.369 0.555,-0.353C0.583,-0.341 0.604,-0.326 0.618,-0.308C0.633,-0.289 0.64,-0.259 0.642,-0.217L0.646,-0.121C0.646,-0.094 0.649,-0.073 0.652,-0.06C0.658,-0.037 0.669,-0.023 0.684,-0.016L0.684,-0L0.564,-0C0.561,-0.006 0.559,-0.014 0.557,-0.024C0.555,-0.034 0.553,-0.053 0.552,-0.081L0.546,-0.2C0.544,-0.247 0.526,-0.278 0.494,-0.294C0.475,-0.303 0.446,-0.308 0.406,-0.308L0.185,-0.308L0.185,-0L0.088,-0L0.088,-0.717Z" style="fill-rule:nonzero;"/>
            </g>
            <g transform="matrix(28.2274,0,0,28.2274,455.4,494.257)">
                <path d="M0.063,-0.722L0.25,-0.722L0.25,-0.65L0.146,-0.65L0.146,0.125L0.25,0.125L0.25,0.197L0.063,0.197L0.063,-0.722Z" style="fill-rule:nonzero;"/>
            </g>
            <g transform="matrix(28.2274,0,0,28.2274,464.326,494.257)">
                <path d="M0.015,-0.523L0.128,-0.523L0.249,-0.339L0.37,-0.523L0.477,-0.521L0.301,-0.268L0.485,-0L0.373,-0L0.243,-0.196L0.117,-0L0.005,-0L0.189,-0.268L0.015,-0.523Z" style="fill-rule:nonzero;"/>
            </g>
            <g transform="matrix(28.2274,0,0,28.2274,479.524,494.257)">
                <path d="M0.023,0.125L0.127,0.125L0.127,-0.65L0.023,-0.65L0.023,-0.722L0.21,-0.722L0.21,0.197L0.023,0.197L0.023,0.125Z" style="fill-rule:nonzero;"/>
            </g>
            <g transform="matrix(28.2274,0,0,28.2274,488.45,494.257)">
                <path d="M0.554,-0.401L0.554,-0.319L0.045,-0.319L0.045,-0.401L0.554,-0.401ZM0.554,-0.192L0.554,-0.108L0.045,-0.108L0.045,-0.192L0.554,-0.192Z" style="fill-rule:nonzero;"/>
            </g>
            <g transform="matrix(28.2274,0,0,28.2274,506.019,494.257)">
                <path d="M0.271,-0.699C0.361,-0.699 0.426,-0.662 0.467,-0.587C0.498,-0.53 0.514,-0.451 0.514,-0.351C0.514,-0.256 0.5,-0.177 0.471,-0.115C0.43,-0.026 0.363,0.019 0.27,0.019C0.186,0.019 0.124,-0.017 0.083,-0.09C0.048,-0.151 0.031,-0.233 0.031,-0.335C0.031,-0.415 0.042,-0.483 0.062,-0.54C0.1,-0.646 0.17,-0.699 0.271,-0.699ZM0.27,-0.061C0.315,-0.061 0.351,-0.081 0.378,-0.122C0.405,-0.162 0.419,-0.237 0.419,-0.347C0.419,-0.427 0.409,-0.492 0.39,-0.543C0.37,-0.594 0.332,-0.62 0.276,-0.62C0.224,-0.62 0.186,-0.596 0.162,-0.547C0.138,-0.498 0.126,-0.427 0.126,-0.332C0.126,-0.261 0.134,-0.203 0.149,-0.16C0.173,-0.094 0.213,-0.061 0.27,-0.061Z" style="fill-rule:nonzero;"/>
            </g>
        </g>
        <g transform="matrix(1,0,0,1,1119.65,1458.88)">
            <g transform="matrix(28.2274,0,0,28.2274,353.573,480.945)">
                <path d="M0.285,-0.059C0.326,-0.059 0.36,-0.076 0.387,-0.111C0.415,-0.145 0.428,-0.196 0.428,-0.265C0.428,-0.306 0.422,-0.342 0.41,-0.372C0.387,-0.43 0.346,-0.458 0.285,-0.458C0.224,-0.458 0.183,-0.428 0.16,-0.367C0.148,-0.335 0.142,-0.293 0.142,-0.243C0.142,-0.203 0.148,-0.168 0.16,-0.14C0.183,-0.086 0.225,-0.059 0.285,-0.059ZM0.058,-0.521L0.143,-0.521L0.143,-0.451C0.161,-0.475 0.18,-0.493 0.201,-0.506C0.23,-0.526 0.265,-0.536 0.305,-0.536C0.364,-0.536 0.415,-0.513 0.456,-0.468C0.497,-0.422 0.518,-0.357 0.518,-0.273C0.518,-0.159 0.488,-0.078 0.429,-0.029C0.391,0.002 0.347,0.018 0.297,0.018C0.257,0.018 0.224,0.009 0.198,-0.008C0.182,-0.018 0.165,-0.035 0.146,-0.059L0.146,0.208L0.058,0.208L0.058,-0.521Z" style="fill-rule:nonzero;"/>
            </g>
            <g transform="matrix(28.2274,0,0,28.2274,369.902,480.945)">
                <path d="M0.272,-0.057C0.33,-0.057 0.37,-0.079 0.392,-0.123C0.413,-0.167 0.424,-0.216 0.424,-0.27C0.424,-0.319 0.417,-0.359 0.401,-0.389C0.376,-0.437 0.333,-0.461 0.273,-0.461C0.219,-0.461 0.18,-0.441 0.156,-0.4C0.131,-0.359 0.119,-0.309 0.119,-0.251C0.119,-0.196 0.131,-0.149 0.156,-0.112C0.18,-0.075 0.219,-0.057 0.272,-0.057ZM0.275,-0.538C0.343,-0.538 0.4,-0.516 0.446,-0.471C0.493,-0.426 0.516,-0.36 0.516,-0.272C0.516,-0.188 0.496,-0.118 0.455,-0.063C0.414,-0.008 0.35,0.019 0.264,0.019C0.192,0.019 0.135,-0.005 0.092,-0.054C0.05,-0.103 0.029,-0.168 0.029,-0.25C0.029,-0.338 0.051,-0.408 0.096,-0.46C0.14,-0.512 0.2,-0.538 0.275,-0.538Z" style="fill-rule:nonzero;"/>
            </g>
        </g>
        <g transform="matrix(1,0,0,1,1214.13,1441.6)">
            <g transform="matrix(28.2274,0,0,28.2274,383.41,475.488)">
                <path d="M0.067,-0.523L0.15,-0.523L0.15,-0.433C0.157,-0.45 0.174,-0.472 0.201,-0.497C0.227,-0.522 0.258,-0.535 0.293,-0.535C0.295,-0.535 0.297,-0.535 0.301,-0.534C0.305,-0.534 0.312,-0.533 0.321,-0.532L0.321,-0.439C0.316,-0.44 0.311,-0.441 0.307,-0.441C0.302,-0.442 0.298,-0.442 0.292,-0.442C0.248,-0.442 0.214,-0.428 0.19,-0.399C0.167,-0.371 0.155,-0.338 0.155,-0.301L0.155,-0L0.067,-0L0.067,-0.523Z" style="fill:rgb(255,0,0);fill-rule:nonzero;"/>
            </g>
            <g transform="matrix(28.2274,0,0,28.2274,393.65,475.488)">
                <path d="M0.086,-0.603C0.088,-0.639 0.094,-0.666 0.105,-0.683C0.126,-0.713 0.166,-0.728 0.224,-0.728C0.23,-0.728 0.235,-0.727 0.241,-0.727C0.247,-0.727 0.254,-0.726 0.261,-0.726L0.261,-0.646C0.252,-0.646 0.246,-0.647 0.241,-0.647C0.237,-0.647 0.234,-0.647 0.23,-0.647C0.203,-0.647 0.187,-0.64 0.182,-0.626C0.177,-0.612 0.174,-0.577 0.174,-0.521L0.261,-0.521L0.261,-0.451L0.173,-0.451L0.173,-0L0.086,-0L0.086,-0.451L0.014,-0.451L0.014,-0.521L0.086,-0.521L0.086,-0.603Z" style="fill:rgb(255,0,0);fill-rule:nonzero;"/>
            </g>
        </g>
        <g transform="matrix(1,0,0,1,1321.2,1459.52)">
            <g transform="matrix(28.2274,0,0,28.2274,417.223,481.149)">
                <path d="M0.285,-0.059C0.326,-0.059 0.36,-0.076 0.387,-0.111C0.415,-0.145 0.428,-0.196 0.428,-0.265C0.428,-0.306 0.422,-0.342 0.41,-0.372C0.387,-0.43 0.346,-0.458 0.285,-0.458C0.224,-0.458 0.183,-0.428 0.16,-0.367C0.148,-0.335 0.142,-0.293 0.142,-0.243C0.142,-0.203 0.148,-0.168 0.16,-0.14C0.183,-0.086 0.225,-0.059 0.285,-0.059ZM0.058,-0.521L0.143,-0.521L0.143,-0.451C0.161,-0.475 0.18,-0.493 0.201,-0.506C0.23,-0.526 0.265,-0.536 0.305,-0.536C0.364,-0.536 0.415,-0.513 0.456,-0.468C0.497,-0.422 0.518,-0.357 0.518,-0.273C0.518,-0.159 0.488,-0.078 0.429,-0.029C0.391,0.002 0.347,0.018 0.297,0.018C0.257,0.018 0.224,0.009 0.198,-0.008C0.182,-0.018 0.165,-0.035 0.146,-0.059L0.146,0.208L0.058,0.208L0.058,-0.521Z" style="fill-rule:nonzero;"/>
            </g>
            <g transform="matrix(28.2274,0,0,28.2274,433.524,481.149)">
                <path d="M0.272,-0.057C0.33,-0.057 0.37,-0.079 0.392,-0.123C0.413,-0.167 0.424,-0.216 0.424,-0.27C0.424,-0.319 0.417,-0.359 0.401,-0.389C0.376,-0.437 0.333,-0.461 0.273,-0.461C0.219,-0.461 0.18,-0.441 0.156,-0.4C0.131,-0.359 0.119,-0.309 0.119,-0.251C0.119,-0.196 0.131,-0.149 0.156,-0.112C0.18,-0.075 0.219,-0.057 0.272,-0.057ZM0.275,-0.538C0.343,-0.538 0.4,-0.516 0.446,-0.471C0.493,-0.426 0.516,-0.36 0.516,-0.272C0.516,-0.188 0.496,-0.118 0.455,-0.063C0.414,-0.008 0.35,0.019 0.264,0.019C0.192,0.019 0.135,-0.005 0.092,-0.054C0.05,-0.103 0.029,-0.168 0.029,-0.25C0.029,-0.338 0.051,-0.408 0.096,-0.46C0.14,-0.512 0.2,-0.538 0.275,-0.538Z" style="fill-rule:nonzero;"/>
            </g>
        </g>
        <g transform="matrix(1,0,0,1,1243.52,1503.45)">
            <g transform="matrix(28.2274,0,0,28.2274,392.692,495.022)">
                <path d="M0.067,-0.523L0.15,-0.523L0.15,-0.433C0.157,-0.45 0.174,-0.472 0.201,-0.497C0.227,-0.522 0.258,-0.535 0.293,-0.535C0.295,-0.535 0.297,-0.535 0.301,-0.534C0.305,-0.534 0.312,-0.533 0.321,-0.532L0.321,-0.439C0.316,-0.44 0.311,-0.441 0.307,-0.441C0.302,-0.442 0.298,-0.442 0.292,-0.442C0.248,-0.442 0.214,-0.428 0.19,-0.399C0.167,-0.371 0.155,-0.338 0.155,-0.301L0.155,-0L0.067,-0L0.067,-0.523Z" style="fill:rgb(255,0,0);fill-rule:nonzero;"/>
            </g>
            <g transform="matrix(28.2274,0,0,28.2274,402.932,495.022)">
                <path d="M0.086,-0.603C0.088,-0.639 0.094,-0.666 0.105,-0.683C0.126,-0.713 0.166,-0.728 0.224,-0.728C0.23,-0.728 0.235,-0.727 0.241,-0.727C0.247,-0.727 0.254,-0.726 0.261,-0.726L0.261,-0.646C0.252,-0.646 0.246,-0.647 0.241,-0.647C0.237,-0.647 0.234,-0.647 0.23,-0.647C0.203,-0.647 0.187,-0.64 0.182,-0.626C0.177,-0.612 0.174,-0.577 0.174,-0.521L0.261,-0.521L0.261,-0.451L0.173,-0.451L0.173,-0L0.086,-0L0.086,-0.451L0.014,-0.451L0.014,-0.521L0.086,-0.521L0.086,-0.603Z" style="fill:rgb(255,0,0);fill-rule:nonzero;"/>
            </g>
        </g>
    </g>
</svg>
