<?xml version="1.0" encoding="iso-8859-1"?>
<!-- Generator: Adobe Illustrator 19.0.0, SVG Export Plug-In . SVG Version: 6.00 Build 0)  -->
<svg version="1.1" id="Layer_1" xmlns="http://www.w3.org/2000/svg" xmlns:xlink="http://www.w3.org/1999/xlink" x="0px" y="0px"
	 viewBox="0 0 512.001 512.001" style="enable-background:new 0 0 512.001 512.001;" xml:space="preserve">
<g>
	<path style="fill:#91CF96;" d="M403.136,19.258c-46.763-19.721-102.793,7.253-125.141,60.237
		c-5.137,12.186-9.301,24.832-9.361,48.512c0.06,0,0.111-0.009,0.162-0.009c57.48,0,106.103,41.532,122.274,100.122
		c22.716-27.964,44.314-48.887,56.269-77.218C469.687,97.918,449.898,38.978,403.136,19.258"/>
	<path style="fill:#5ABA63;" d="M388.44,324.268c5.316-17.067,8.354-35.285,8.354-53.333c0-80.119-57.301-142.933-128-142.933
		c-70.69,0-128,63.351-128,143.471c0,18.048,3.046,35.729,8.363,52.796H388.44z"/>
	<path style="fill:#91CF96;" d="M184.138,163.761c-15.121-10.377-21.623-14.293-28.817-17.22
		c-35.473-14.421-74.556-0.742-87.287,30.566c-12.74,31.3,5.7,68.378,41.173,82.799c7.45,3.029,15.104,4.813,31.616,10.999
		C140.968,227.855,157.727,189.796,184.138,163.761"/>
	<path style="fill:#7F5B53;" d="M439.465,344.981c0,7.415-6.007,13.423-13.423,13.423H111.554c-7.415,0-13.423-6.007-13.423-13.423
		v-7.296c0-7.407,6.007-13.414,13.423-13.414h314.487c7.415,0,13.423,6.007,13.423,13.414V344.981z"/>
	<polygon style="fill:#AF8066;" points="362.665,503.468 174.931,503.468 123.731,358.401 413.865,358.401 	"/>
	<g>
		<path style="fill:#5ABA63;" d="M337.073,59.735c-2.901,0-5.726-1.476-7.322-4.139l-25.6-42.667
			c-2.432-4.045-1.118-9.284,2.918-11.708c4.045-2.432,9.284-1.118,11.708,2.918l25.6,42.667c2.432,4.045,1.118,9.284-2.918,11.708
			C340.085,59.342,338.567,59.735,337.073,59.735"/>
		<path style="fill:#5ABA63;" d="M362.673,102.401c-0.691,0-1.382-0.077-2.082-0.256c-4.565-1.143-7.347-5.777-6.204-10.351
			l8.533-34.133c1.143-4.565,5.786-7.339,10.351-6.204c4.565,1.143,7.347,5.777,6.204,10.351l-8.533,34.133
			C369.969,99.816,366.496,102.401,362.673,102.401"/>
		<path style="fill:#5ABA63;" d="M439.473,119.468c-3.132,0-6.144-1.724-7.646-4.719c-2.108-4.215-0.393-9.335,3.823-11.452
			l34.133-17.067c4.224-2.116,9.344-0.393,11.452,3.823c2.108,4.215,0.393,9.335-3.823,11.452l-34.133,17.067
			C442.059,119.178,440.753,119.468,439.473,119.468"/>
		<path style="fill:#5ABA63;" d="M413.865,59.735c-2.185,0-4.369-0.836-6.033-2.5c-3.337-3.337-3.337-8.73,0-12.066l34.133-34.133
			c3.337-3.337,8.73-3.337,12.066,0s3.337,8.73,0,12.066l-34.133,34.133C418.234,58.899,416.049,59.735,413.865,59.735"/>
		<path style="fill:#5ABA63;" d="M379.723,153.601c-3.823,0-7.296-2.586-8.269-6.46c-1.143-4.574,1.638-9.207,6.204-10.351
			l34.133-8.533c4.565-1.152,9.207,1.638,10.351,6.204c1.143,4.574-1.638,9.207-6.204,10.351l-34.133,8.533
			C381.105,153.525,380.414,153.601,379.723,153.601"/>
	</g>
	<g>
		<path style="fill:#91CF96;" d="M226.131,273.068c-2.185,0-4.369-0.836-6.033-2.5l-25.6-25.6c-3.337-3.337-3.337-8.73,0-12.066
			c3.337-3.337,8.73-3.337,12.066,0l25.6,25.6c3.337,3.337,3.337,8.73,0,12.066C230.5,272.232,228.316,273.068,226.131,273.068"/>
		<path style="fill:#91CF96;" d="M311.473,247.468c-0.555,0-1.118-0.051-1.681-0.171c-4.625-0.922-7.62-5.419-6.69-10.035
			l8.533-42.667c0.913-4.625,5.402-7.629,10.035-6.69c4.625,0.922,7.62,5.419,6.69,10.035l-8.533,42.667
			C319.025,244.661,315.458,247.468,311.473,247.468"/>
		<path style="fill:#91CF96;" d="M234.665,170.672c-3.575,0-6.903-2.261-8.098-5.837l-17.067-51.2
			c-1.493-4.471,0.93-9.301,5.402-10.795c4.48-1.502,9.301,0.93,10.795,5.393l17.067,51.2c1.493,4.471-0.93,9.301-5.402,10.795
			C236.465,170.527,235.552,170.672,234.665,170.672"/>
	</g>
	<g>
		<path style="fill:#5ABA63;" d="M123.723,170.668c-3.985,0-7.552-2.807-8.354-6.861l-8.533-42.667
			c-0.93-4.617,2.065-9.114,6.69-10.035c4.651-0.93,9.122,2.074,10.035,6.69l8.533,42.667c0.93,4.617-2.065,9.114-6.69,10.035
			C124.841,170.617,124.277,170.668,123.723,170.668"/>
		<path style="fill:#5ABA63;" d="M81.065,204.801H38.398c-4.71,0-8.533-3.823-8.533-8.533s3.823-8.533,8.533-8.533h42.667
			c4.71,0,8.533,3.823,8.533,8.533S85.775,204.801,81.065,204.801"/>
		<path style="fill:#5ABA63;" d="M81.056,281.601c-1.775,0-3.575-0.555-5.111-1.707c-3.772-2.825-4.531-8.175-1.707-11.947
			l25.6-34.133c2.825-3.763,8.166-4.531,11.947-1.707c3.772,2.825,4.531,8.175,1.707,11.947l-25.6,34.133
			C86.21,280.424,83.65,281.601,81.056,281.601"/>
	</g>
	<path style="fill:#91CF96;" d="M371.207,290.135c-2.756,0-5.461-1.331-7.108-3.797c-2.611-3.925-1.553-9.225,2.364-11.836
		l51.2-34.133c3.917-2.62,9.216-1.562,11.836,2.364c2.611,3.925,1.553,9.225-2.364,11.836l-51.2,34.133
		C374.475,289.674,372.828,290.135,371.207,290.135"/>
	<path style="fill:#D9AA94;" d="M382.401,447.548l-16.631-9.634c-6.972-4.181-15.821-3.499-22.059,1.707l-12.979,10.812
		c-7.049,5.879-15.676,9.967-24.849,10.351c-8.704,0.367-16.512-2.099-20.924-7.407l-33.229-35.243
		c-10.129-10.129-18.313-10.624-33.314-4.437c-8.815,3.635-16.384,12.971-26.419,12.971c-12.134,0-20.83-4.557-25.6-8.533
		l-31.13-27.051l39.663,112.384h187.733L382.401,447.548z"/>
	<path style="fill:#7F5B53;" d="M422.398,512.001H106.665c-4.71,0-8.533-3.823-8.533-8.533c0-4.71,3.823-8.533,8.533-8.533h315.733
		c4.71,0,8.533,3.823,8.533,8.533C430.931,508.179,427.108,512.001,422.398,512.001"/>
</g>
<g>
</g>
<g>
</g>
<g>
</g>
<g>
</g>
<g>
</g>
<g>
</g>
<g>
</g>
<g>
</g>
<g>
</g>
<g>
</g>
<g>
</g>
<g>
</g>
<g>
</g>
<g>
</g>
<g>
</g>
</svg>
