<svg xmlns="http://www.w3.org/2000/svg" viewBox="0 0 512.001 512.001"><defs/><path fill="#91cf96" d="M403.136 19.258C356.373-.463 300.343 26.511 277.995 79.495c-5.137 12.186-9.301 24.832-9.361 48.512.06 0 .111-.009.162-.009 57.48 0 106.103 41.532 122.274 100.122 22.716-27.964 44.314-48.887 56.269-77.218 22.348-52.984 2.559-111.924-44.203-131.644"/><path fill="#5aba63" d="M388.44 324.268c5.316-17.067 8.354-35.285 8.354-53.333 0-80.119-57.301-142.933-128-142.933-70.69 0-128 63.351-128 143.471 0 18.048 3.046 35.729 8.363 52.796H388.44z"/><path fill="#91cf96" d="M184.138 163.761c-15.121-10.377-21.623-14.293-28.817-17.22-35.473-14.421-74.556-.742-87.287 30.566-12.74 31.3 5.7 68.378 41.173 82.799 7.45 3.029 15.104 4.813 31.616 10.999.145-43.05 16.904-81.109 43.315-107.144"/><path fill="#7f5b53" d="M439.465 344.981c0 7.415-6.007 13.423-13.423 13.423H111.554c-7.415 0-13.423-6.007-13.423-13.423v-7.296c0-7.407 6.007-13.414 13.423-13.414h314.487c7.415 0 13.423 6.007 13.423 13.414v7.296z"/><path fill="#af8066" d="M362.665 503.468H174.931l-51.2-145.067h290.134z"/><g fill="#5aba63"><path d="M337.073 59.735c-2.901 0-5.726-1.476-7.322-4.139l-25.6-42.667c-2.432-4.045-1.118-9.284 2.918-11.708 4.045-2.432 9.284-1.118 11.708 2.918l25.6 42.667c2.432 4.045 1.118 9.284-2.918 11.708-1.374.828-2.892 1.221-4.386 1.221M362.673 102.401c-.691 0-1.382-.077-2.082-.256-4.565-1.143-7.347-5.777-6.204-10.351l8.533-34.133c1.143-4.565 5.786-7.339 10.351-6.204 4.565 1.143 7.347 5.777 6.204 10.351l-8.533 34.133c-.973 3.875-4.446 6.46-8.269 6.46M439.473 119.468c-3.132 0-6.144-1.724-7.646-4.719-2.108-4.215-.393-9.335 3.823-11.452l34.133-17.067c4.224-2.116 9.344-.393 11.452 3.823 2.108 4.215.393 9.335-3.823 11.452l-34.133 17.067c-1.22.606-2.526.896-3.806.896M413.865 59.735c-2.185 0-4.369-.836-6.033-2.5-3.337-3.337-3.337-8.73 0-12.066l34.133-34.133c3.337-3.337 8.73-3.337 12.066 0s3.337 8.73 0 12.066l-34.133 34.133c-1.664 1.664-3.849 2.5-6.033 2.5M379.723 153.601c-3.823 0-7.296-2.586-8.269-6.46-1.143-4.574 1.638-9.207 6.204-10.351l34.133-8.533c4.565-1.152 9.207 1.638 10.351 6.204 1.143 4.574-1.638 9.207-6.204 10.351l-34.133 8.533c-.7.18-1.391.256-2.082.256"/></g><g fill="#91cf96"><path d="M226.131 273.068c-2.185 0-4.369-.836-6.033-2.5l-25.6-25.6c-3.337-3.337-3.337-8.73 0-12.066 3.337-3.337 8.73-3.337 12.066 0l25.6 25.6c3.337 3.337 3.337 8.73 0 12.066-1.664 1.664-3.848 2.5-6.033 2.5M311.473 247.468c-.555 0-1.118-.051-1.681-.171-4.625-.922-7.62-5.419-6.69-10.035l8.533-42.667c.913-4.625 5.402-7.629 10.035-6.69 4.625.922 7.62 5.419 6.69 10.035l-8.533 42.667c-.802 4.054-4.369 6.861-8.354 6.861M234.665 170.672c-3.575 0-6.903-2.261-8.098-5.837l-17.067-51.2c-1.493-4.471.93-9.301 5.402-10.795 4.48-1.502 9.301.93 10.795 5.393l17.067 51.2c1.493 4.471-.93 9.301-5.402 10.795-.897.299-1.81.444-2.697.444"/></g><g fill="#5aba63"><path d="M123.723 170.668c-3.985 0-7.552-2.807-8.354-6.861l-8.533-42.667c-.93-4.617 2.065-9.114 6.69-10.035 4.651-.93 9.122 2.074 10.035 6.69l8.533 42.667c.93 4.617-2.065 9.114-6.69 10.035-.563.12-1.127.171-1.681.171M81.065 204.801H38.398c-4.71 0-8.533-3.823-8.533-8.533s3.823-8.533 8.533-8.533h42.667c4.71 0 8.533 3.823 8.533 8.533s-3.823 8.533-8.533 8.533M81.056 281.601c-1.775 0-3.575-.555-5.111-1.707-3.772-2.825-4.531-8.175-1.707-11.947l25.6-34.133c2.825-3.763 8.166-4.531 11.947-1.707 3.772 2.825 4.531 8.175 1.707 11.947l-25.6 34.133c-1.682 2.237-4.242 3.414-6.836 3.414"/></g><path fill="#91cf96" d="M371.207 290.135c-2.756 0-5.461-1.331-7.108-3.797-2.611-3.925-1.553-9.225 2.364-11.836l51.2-34.133c3.917-2.62 9.216-1.562 11.836 2.364 2.611 3.925 1.553 9.225-2.364 11.836l-51.2 34.133c-1.46.972-3.107 1.433-4.728 1.433"/><path fill="#d9aa94" d="M382.401 447.548l-16.631-9.634c-6.972-4.181-15.821-3.499-22.059 1.707l-12.979 10.812c-7.049 5.879-15.676 9.967-24.849 10.351-8.704.367-16.512-2.099-20.924-7.407l-33.229-35.243c-10.129-10.129-18.313-10.624-33.314-4.437-8.815 3.635-16.384 12.971-26.419 12.971-12.134 0-20.83-4.557-25.6-8.533l-31.13-27.051 39.663 112.384h187.733l19.738-55.92z"/><path fill="#7f5b53" d="M422.398 512.001H106.665c-4.71 0-8.533-3.823-8.533-8.533 0-4.71 3.823-8.533 8.533-8.533h315.733c4.71 0 8.533 3.823 8.533 8.533 0 4.711-3.823 8.533-8.533 8.533"/></svg>