<svg viewBox="0 0 519.214415972 128.14008" width="519.214415972pt" height="128.14008pt" xmlns="http://www.w3.org/2000/svg" xmlns:xlink="http://www.w3.org/1999/xlink" xmlns:h5="http://www.w3.org/1999/xhtml"><path fill="#ffffff" fill-rule="nonzero" d="M 0 0v 128.14008h 519.214415972v -128.14008Z "/><g transform="matrix(1 0 0 -1 1 66.82004)"><use xlink:href="#g6DBFE2DA1D27E4D54C97E6F7579A935B" x="0" y="0" fill="#000000" fill-rule="nonzero"/></g><g transform="matrix(1 0 0 -1 10.427 66.82004)"><use xlink:href="#gEFD6A37741EDB46D1C5C1B0AEAB33C8D" x="0" y="0" fill="#000000" fill-rule="nonzero"/><use xlink:href="#g6BE3C26FC5C2EF394923021E65FF3629" x="5.298046875" y="0" fill="#000000" fill-rule="nonzero"/><use xlink:href="#gC74EE0AF2B149D895BF9573AF08C8170" x="10.59609375" y="0" fill="#000000" fill-rule="nonzero"/><use xlink:href="#gA3E8761BC1767EAE1C4DC702DAD043D4" x="15.894140625" y="0" fill="#000000" fill-rule="nonzero"/><use xlink:href="#g2D4F233067A158DA7E2B00C615A24811" x="21.1921875" y="0" fill="#000000" fill-rule="nonzero"/><use xlink:href="#g4F21559D411E52A0427C66D0631BE87E" x="26.490234375" y="0" fill="#000000" fill-rule="nonzero"/><use xlink:href="#gC74EE0AF2B149D895BF9573AF08C8170" x="31.78828125" y="0" fill="#000000" fill-rule="nonzero"/><use xlink:href="#gEFD6A37741EDB46D1C5C1B0AEAB33C8D" x="42.384375" y="0" fill="#000000" fill-rule="nonzero"/></g><g transform="matrix(1 0 0 -1 58.109421875 66.82004)"><use xlink:href="#g64283A02AA4F1AAA5170B8A659D3972B" x="0" y="0" fill="#000000" fill-rule="nonzero"/></g><g transform="matrix(1 0 0 -1 63.917421875 66.82004)"><use xlink:href="#gFF1EC1E3625C6E3C8EE7A324B4F795C4" x="0" y="0" fill="#000000" fill-rule="nonzero"/></g><g transform="matrix(1 0 0 -1 72.86746875 66.82004)"><use xlink:href="#g661B36513DCEC8B17F1DD8AE5C54E18F" x="0" y="0" fill="#000000" fill-rule="nonzero"/></g><g transform="matrix(1 0 0 -1 77.75146875 66.82004)"><use xlink:href="#gFF1EC1E3625C6E3C8EE7A324B4F795C4" x="0" y="0" fill="#000000" fill-rule="nonzero"/></g><g transform="matrix(1 0 0 -1 86.701515625 66.82004)"><use xlink:href="#g4D6D0CA498010ACD5A22795F1AD38996" x="0" y="0" fill="#000000" fill-rule="nonzero"/></g><g transform="matrix(1 0 0 -1 92.982515625 66.82004)"/><g transform="matrix(1 0 0 -1 96.634515625 66.82004)"><use xlink:href="#g8DD35590E5062F6A5840D8194DA80E6F" x="0" y="0" fill="#000000" fill-rule="nonzero"/></g><g transform="matrix(1 0 0 -1 102.464515625 66.82004)"/><g transform="matrix(1 0 0 -1 106.116515625 66.82004)"><use xlink:href="#g4AA9066DE258008E649636F009E5714C" x="0" y="0" fill="#000000" fill-rule="nonzero"/></g><g transform="matrix(1 0 0 -1 115.068071181 66.82004)"><use xlink:href="#g2389F7618E8CE27CC7151A1D8E5DEAD4" x="0" y="0" fill="#000000" fill-rule="nonzero"/></g><g transform="matrix(1 0 0 -1 126.681626736 127.14008)"><use xlink:href="#gBEAA5D980B1B6CD6E7BE74B68F1EC637" x="0" y="0" fill="#000000" fill-rule="nonzero"/><use xlink:href="#g58DE70B0DC67996A6062DF732675B06F" x="0" y="7.927580994" fill="#000000" fill-rule="nonzero"/><use xlink:href="#g58DE70B0DC67996A6062DF732675B06F" x="0" y="15.724956596" fill="#000000" fill-rule="nonzero"/><use xlink:href="#g58DE70B0DC67996A6062DF732675B06F" x="0" y="23.522332199" fill="#000000" fill-rule="nonzero"/><use xlink:href="#g58DE70B0DC67996A6062DF732675B06F" x="0" y="31.319707801" fill="#000000" fill-rule="nonzero"/><use xlink:href="#g58DE70B0DC67996A6062DF732675B06F" x="0" y="39.117083404" fill="#000000" fill-rule="nonzero"/><use xlink:href="#g58DE70B0DC67996A6062DF732675B06F" x="0" y="46.914459006" fill="#000000" fill-rule="nonzero"/><use xlink:href="#g2CD4E04A0D30BF0BCB592B65901BFCD" x="0" y="54.82004" fill="#000000" fill-rule="nonzero"/><use xlink:href="#g58DE70B0DC67996A6062DF732675B06F" x="0" y="70.997620994" fill="#000000" fill-rule="nonzero"/><use xlink:href="#g58DE70B0DC67996A6062DF732675B06F" x="0" y="78.794996596" fill="#000000" fill-rule="nonzero"/><use xlink:href="#g58DE70B0DC67996A6062DF732675B06F" x="0" y="86.592372199" fill="#000000" fill-rule="nonzero"/><use xlink:href="#g58DE70B0DC67996A6062DF732675B06F" x="0" y="94.389747801" fill="#000000" fill-rule="nonzero"/><use xlink:href="#g58DE70B0DC67996A6062DF732675B06F" x="0" y="102.187123404" fill="#000000" fill-rule="nonzero"/><use xlink:href="#g58DE70B0DC67996A6062DF732675B06F" x="0" y="109.984499006" fill="#000000" fill-rule="nonzero"/><use xlink:href="#g87E37713B4483662E5048B1608E6EC95" x="0" y="117.89008" fill="#000000" fill-rule="nonzero"/></g><g transform="matrix(1 0 0 -1 136.603626736 14.96164)"><use xlink:href="#g4AA9066DE258008E649636F009E5714C" x="0" y="0" fill="#000000" fill-rule="nonzero"/></g><g transform="matrix(1 0 0 -1 146.151626736 14.96164)"><use xlink:href="#gEFD6A37741EDB46D1C5C1B0AEAB33C8D" x="0" y="0" fill="#000000" fill-rule="nonzero"/><use xlink:href="#g753B405C8BCF0E1C48C693507077AE03" x="5.298046875" y="0" fill="#000000" fill-rule="nonzero"/><use xlink:href="#g8E43F24E687DFBB5D1E5526D8DC9339C" x="10.59609375" y="0" fill="#000000" fill-rule="nonzero"/><use xlink:href="#gEFA11BCBF584E95CF54C8F85D9D572D2" x="15.894140625" y="0" fill="#000000" fill-rule="nonzero"/><use xlink:href="#g18B0C645192E85FDD6BFE6E13B16D837" x="21.1921875" y="0" fill="#000000" fill-rule="nonzero"/><use xlink:href="#g675CA31BB2862F44F71394188EA0CA51" x="26.490234375" y="0" fill="#000000" fill-rule="nonzero"/></g><g transform="matrix(1 0 0 -1 181.591907986 14.96164)"><use xlink:href="#g675CA31BB2862F44F71394188EA0CA51" x="0" y="0" fill="#000000" fill-rule="nonzero"/><use xlink:href="#gEB5263C984B3A13E014F4FD81EEB98D5" x="5.298046875" y="0" fill="#000000" fill-rule="nonzero"/><use xlink:href="#gA8CD33D70EBD9AD4A6F72B95DF4DE014" x="10.59609375" y="0" fill="#000000" fill-rule="nonzero"/><use xlink:href="#g4666C3926E6A15F65572DD76E569736D" x="15.894140625" y="0" fill="#000000" fill-rule="nonzero"/></g><g transform="matrix(1 0 0 -1 202.784095486 14.96164)"><use xlink:href="#gFF1EC1E3625C6E3C8EE7A324B4F795C4" x="0" y="0" fill="#000000" fill-rule="nonzero"/></g><g transform="matrix(1 0 0 -1 211.734142361 14.96164)"><use xlink:href="#gD9181C58C134A18FD40559388A025E62" x="0" y="0" fill="#000000" fill-rule="nonzero"/></g><g transform="matrix(1 0 0 -1 276.216142361 14.96164)"><use xlink:href="#g8081A8237C24C95555CB26B7002BAA27" x="0" y="0" fill="#000000" fill-rule="nonzero"/><use xlink:href="#g42BE19054016F7BAE28890E34266D9C4" x="3.058" y="0" fill="#000000" fill-rule="nonzero"/></g><g transform="matrix(1 0 0 -1 286.292142361 14.96164)"><use xlink:href="#g4D6D0CA498010ACD5A22795F1AD38996" x="0" y="0" fill="#000000" fill-rule="nonzero"/></g><g transform="matrix(1 0 0 -1 295.628697917 14.96164)"><use xlink:href="#g2389F7618E8CE27CC7151A1D8E5DEAD4" x="0" y="0" fill="#000000" fill-rule="nonzero"/></g><g transform="matrix(1 0 0 -1 307.242253472 14.96164)"><use xlink:href="#g7A75113CED2D41C4AEDB752ABDB169EA" x="0" y="0" fill="#000000" fill-rule="nonzero"/><use xlink:href="#g11189D36A8ED0A9E003DFD239176016" x="5.298046875" y="0" fill="#000000" fill-rule="nonzero"/><use xlink:href="#g7C3292C458A46A58B9B9833BA97D9587" x="10.59609375" y="0" fill="#000000" fill-rule="nonzero"/><use xlink:href="#gB75E13C86ADCA88662C5D7AC943163C3" x="15.894140625" y="0" fill="#000000" fill-rule="nonzero"/></g><g transform="matrix(1 0 0 -1 136.603626736 28.11764)"><use xlink:href="#g4AA9066DE258008E649636F009E5714C" x="0" y="0" fill="#000000" fill-rule="nonzero"/></g><g transform="matrix(1 0 0 -1 146.151626736 28.11764)"><use xlink:href="#gEFD6A37741EDB46D1C5C1B0AEAB33C8D" x="0" y="0" fill="#000000" fill-rule="nonzero"/><use xlink:href="#g753B405C8BCF0E1C48C693507077AE03" x="5.298046875" y="0" fill="#000000" fill-rule="nonzero"/><use xlink:href="#g8E43F24E687DFBB5D1E5526D8DC9339C" x="10.59609375" y="0" fill="#000000" fill-rule="nonzero"/><use xlink:href="#gEFA11BCBF584E95CF54C8F85D9D572D2" x="15.894140625" y="0" fill="#000000" fill-rule="nonzero"/><use xlink:href="#g18B0C645192E85FDD6BFE6E13B16D837" x="21.1921875" y="0" fill="#000000" fill-rule="nonzero"/><use xlink:href="#g675CA31BB2862F44F71394188EA0CA51" x="26.490234375" y="0" fill="#000000" fill-rule="nonzero"/></g><g transform="matrix(1 0 0 -1 181.591907986 28.11764)"><use xlink:href="#g92EECDEFF4D0B4B994490A05B493B814" x="0" y="0" fill="#000000" fill-rule="nonzero"/><use xlink:href="#g8E43F24E687DFBB5D1E5526D8DC9339C" x="5.298046875" y="0" fill="#000000" fill-rule="nonzero"/><use xlink:href="#g1A903C34409188F68C004DCF51BB982B" x="10.59609375" y="0" fill="#000000" fill-rule="nonzero"/><use xlink:href="#g4F21559D411E52A0427C66D0631BE87E" x="15.894140625" y="0" fill="#000000" fill-rule="nonzero"/></g><g transform="matrix(1 0 0 -1 202.784095486 28.11764)"><use xlink:href="#gFF1EC1E3625C6E3C8EE7A324B4F795C4" x="0" y="0" fill="#000000" fill-rule="nonzero"/></g><g transform="matrix(1 0 0 -1 211.734142361 28.11764)"><use xlink:href="#gD9181C58C134A18FD40559388A025E62" x="0" y="0" fill="#000000" fill-rule="nonzero"/></g><g transform="matrix(1 0 0 -1 276.216142361 28.11764)"><use xlink:href="#g8081A8237C24C95555CB26B7002BAA27" x="0" y="0" fill="#000000" fill-rule="nonzero"/><use xlink:href="#g42BE19054016F7BAE28890E34266D9C4" x="3.058" y="0" fill="#000000" fill-rule="nonzero"/></g><g transform="matrix(1 0 0 -1 286.292142361 28.11764)"><use xlink:href="#g4D6D0CA498010ACD5A22795F1AD38996" x="0" y="0" fill="#000000" fill-rule="nonzero"/></g><g transform="matrix(1 0 0 -1 295.628697917 28.11764)"><use xlink:href="#g2389F7618E8CE27CC7151A1D8E5DEAD4" x="0" y="0" fill="#000000" fill-rule="nonzero"/></g><g transform="matrix(1 0 0 -1 307.242253472 28.11764)"><use xlink:href="#g51312D5A75BF1E93D7C6B5CCB301AC0" x="0" y="0" fill="#000000" fill-rule="nonzero"/><use xlink:href="#g7E7E6665B7F0AE46660C9C20644DB79" x="5.298046875" y="0" fill="#000000" fill-rule="nonzero"/><use xlink:href="#g7E7E6665B7F0AE46660C9C20644DB79" x="10.59609375" y="0" fill="#000000" fill-rule="nonzero"/><use xlink:href="#g11189D36A8ED0A9E003DFD239176016" x="15.894140625" y="0" fill="#000000" fill-rule="nonzero"/><use xlink:href="#g281310CBD5B670ABC4C91FC64E8D0C6A" x="21.1921875" y="0" fill="#000000" fill-rule="nonzero"/><use xlink:href="#gB75E13C86ADCA88662C5D7AC943163C3" x="26.490234375" y="0" fill="#000000" fill-rule="nonzero"/></g><g transform="matrix(1 0 0 -1 136.603626736 41.27364)"><use xlink:href="#g6DBFE2DA1D27E4D54C97E6F7579A935B" x="0" y="0" fill="#000000" fill-rule="nonzero"/></g><g transform="matrix(1 0 0 -1 142.378626736 41.27364)"/><g transform="matrix(1 0 0 -1 146.030626736 41.27364)"><use xlink:href="#g1570446F77F9A6C1B85605F46F92409E" x="0" y="0" fill="#000000" fill-rule="nonzero"/></g><g transform="matrix(1 0 0 -1 154.808626736 41.27364)"><use xlink:href="#g521F2DDE78882B32DB463695F98C5705" x="0" y="0" fill="#000000" fill-rule="nonzero"/><use xlink:href="#g82D23B6D5370404661A1780E66CA09E" x="5.298046875" y="0" fill="#000000" fill-rule="nonzero"/><use xlink:href="#g11B715B086B5896FA56CD5C2E567D0DB" x="10.59609375" y="0" fill="#000000" fill-rule="nonzero"/><use xlink:href="#gC9CF2B268112D692AA5AABDD5E57E12A" x="15.894140625" y="0" fill="#000000" fill-rule="nonzero"/><use xlink:href="#g11189D36A8ED0A9E003DFD239176016" x="21.1921875" y="0" fill="#000000" fill-rule="nonzero"/></g><g transform="matrix(1 0 0 -1 184.950861111 41.27364)"><use xlink:href="#g8DD35590E5062F6A5840D8194DA80E6F" x="0" y="0" fill="#000000" fill-rule="nonzero"/></g><g transform="matrix(1 0 0 -1 190.637861111 43.99064)"><use xlink:href="#gBFCC2410A697C41E2DD3187C83DA8F3" x="0" y="0" fill="#000000" fill-rule="nonzero"/></g><g transform="matrix(1 0 0 -1 195.635161111 41.27364)"><use xlink:href="#g4AA9066DE258008E649636F009E5714C" x="0" y="0" fill="#000000" fill-rule="nonzero"/></g><g transform="matrix(1 0 0 -1 201.366161111 43.99064)"><use xlink:href="#gBFCC2410A697C41E2DD3187C83DA8F3" x="0" y="0" fill="#000000" fill-rule="nonzero"/></g><g transform="matrix(1 0 0 -1 206.363461111 41.27364)"><use xlink:href="#gD9181C58C134A18FD40559388A025E62" x="0" y="0" fill="#000000" fill-rule="nonzero"/></g><g transform="matrix(1 0 0 -1 212.644461111 43.99064)"><use xlink:href="#gBFCC2410A697C41E2DD3187C83DA8F3" x="0" y="0" fill="#000000" fill-rule="nonzero"/></g><g transform="matrix(1 0 0 -1 276.216142361 41.27364)"><use xlink:href="#g8081A8237C24C95555CB26B7002BAA27" x="0" y="0" fill="#000000" fill-rule="nonzero"/><use xlink:href="#g42BE19054016F7BAE28890E34266D9C4" x="3.058" y="0" fill="#000000" fill-rule="nonzero"/></g><g transform="matrix(1 0 0 -1 286.292142361 41.27364)"><use xlink:href="#g4D6D0CA498010ACD5A22795F1AD38996" x="0" y="0" fill="#000000" fill-rule="nonzero"/></g><g transform="matrix(1 0 0 -1 295.628697917 41.27364)"><use xlink:href="#g2389F7618E8CE27CC7151A1D8E5DEAD4" x="0" y="0" fill="#000000" fill-rule="nonzero"/></g><g transform="matrix(1 0 0 -1 307.242253472 41.27364)"><use xlink:href="#g521F2DDE78882B32DB463695F98C5705" x="0" y="0" fill="#000000" fill-rule="nonzero"/><use xlink:href="#g82D23B6D5370404661A1780E66CA09E" x="5.298046875" y="0" fill="#000000" fill-rule="nonzero"/><use xlink:href="#g11B715B086B5896FA56CD5C2E567D0DB" x="10.59609375" y="0" fill="#000000" fill-rule="nonzero"/><use xlink:href="#gC9CF2B268112D692AA5AABDD5E57E12A" x="15.894140625" y="0" fill="#000000" fill-rule="nonzero"/><use xlink:href="#g11189D36A8ED0A9E003DFD239176016" x="21.1921875" y="0" fill="#000000" fill-rule="nonzero"/></g><g transform="matrix(1 0 0 -1 337.384487847 41.27364)"><use xlink:href="#g30C36184EAFBF77DBD046B786F3331E" x="0" y="0" fill="#000000" fill-rule="nonzero"/><use xlink:href="#g7A15C53874C56177CC9533530FA2B070" x="7.942" y="0" fill="#000000" fill-rule="nonzero"/><use xlink:href="#g661B36513DCEC8B17F1DD8AE5C54E18F" x="14.058" y="0" fill="#000000" fill-rule="nonzero"/><use xlink:href="#g30A11840F6D1B58D63FF228F63DFF50C" x="18.942" y="0" fill="#000000" fill-rule="nonzero"/><use xlink:href="#g661B36513DCEC8B17F1DD8AE5C54E18F" x="23.254" y="0" fill="#000000" fill-rule="nonzero"/></g><g transform="matrix(1 0 0 -1 369.174487847 41.27364)"><use xlink:href="#g7FDD4349A49914F62F30F23AE9794251" x="0" y="0" fill="#000000" fill-rule="nonzero"/></g><g transform="matrix(1 0 0 -1 379.118487847 41.27364)"><use xlink:href="#gB29CE2C0E4ED383285A85CCC21F60B8F" x="0" y="0" fill="#000000" fill-rule="nonzero"/><use xlink:href="#g29E03738ED4E50AEAB304FB0E05CE245" x="5.5" y="0" fill="#000000" fill-rule="nonzero"/><use xlink:href="#g29E03738ED4E50AEAB304FB0E05CE245" x="11.616" y="0" fill="#000000" fill-rule="nonzero"/><use xlink:href="#g30A11840F6D1B58D63FF228F63DFF50C" x="17.732" y="0" fill="#000000" fill-rule="nonzero"/><use xlink:href="#g661B36513DCEC8B17F1DD8AE5C54E18F" x="22.044" y="0" fill="#000000" fill-rule="nonzero"/><use xlink:href="#g3496F6D22D5A0120AA23058869EF1B09" x="26.928" y="0" fill="#000000" fill-rule="nonzero"/><use xlink:href="#g8081A8237C24C95555CB26B7002BAA27" x="32.736" y="0" fill="#000000" fill-rule="nonzero"/><use xlink:href="#gB29CE2C0E4ED383285A85CCC21F60B8F" x="35.794" y="0" fill="#000000" fill-rule="nonzero"/><use xlink:href="#gE4D46F1D17F1B65EB6D4E3B2291CCF8F" x="41.294" y="0" fill="#000000" fill-rule="nonzero"/><use xlink:href="#g661B36513DCEC8B17F1DD8AE5C54E18F" x="45.573" y="0" fill="#000000" fill-rule="nonzero"/><use xlink:href="#g316D45BB6425B2B3622251A815E109FB" x="50.457" y="0" fill="#000000" fill-rule="nonzero"/></g><g transform="matrix(1 0 0 -1 437.561487847 41.27364)"><use xlink:href="#g521F2DDE78882B32DB463695F98C5705" x="0" y="0" fill="#000000" fill-rule="nonzero"/><use xlink:href="#g82D23B6D5370404661A1780E66CA09E" x="5.298046875" y="0" fill="#000000" fill-rule="nonzero"/><use xlink:href="#g360B7012FB5D77E140EC2FBBBED66DC1" x="10.59609375" y="0" fill="#000000" fill-rule="nonzero"/></g><g transform="matrix(1 0 0 -1 453.455628472 41.27364)"><use xlink:href="#g9C5E01F97914784D6046F24928CB3533" x="0" y="0" fill="#000000" fill-rule="nonzero"/></g><g transform="matrix(1 0 0 -1 457.734628472 41.27364)"><use xlink:href="#g7FDD4349A49914F62F30F23AE9794251" x="0" y="0" fill="#000000" fill-rule="nonzero"/></g><g transform="matrix(1 0 0 -1 464.026628472 41.27364)"><use xlink:href="#gF2E9DE7382F8BB82A14E9A8C0CA6C0F0" x="0" y="0" fill="#000000" fill-rule="nonzero"/></g><g transform="matrix(1 0 0 -1 468.917961806 41.27364)"><use xlink:href="#gE9FB6D24CF34BB489DEF6497581F7D30" x="0" y="0" fill="#000000" fill-rule="nonzero"/><use xlink:href="#gC9CF2B268112D692AA5AABDD5E57E12A" x="5.298046875" y="0" fill="#000000" fill-rule="nonzero"/><use xlink:href="#g11B715B086B5896FA56CD5C2E567D0DB" x="10.59609375" y="0" fill="#000000" fill-rule="nonzero"/><use xlink:href="#g11B715B086B5896FA56CD5C2E567D0DB" x="15.894140625" y="0" fill="#000000" fill-rule="nonzero"/></g><g transform="matrix(1 0 0 -1 490.110149306 41.27364)"><use xlink:href="#gF2E9DE7382F8BB82A14E9A8C0CA6C0F0" x="0" y="0" fill="#000000" fill-rule="nonzero"/></g><g transform="matrix(1 0 0 -1 495.001482639 41.27364)"><use xlink:href="#gCB4E91739EACE7368E3223F2D0EF6CCC" x="0" y="0" fill="#000000" fill-rule="nonzero"/></g><g transform="matrix(1 0 0 -1 500.160482639 41.27364)"><use xlink:href="#gF2E9DE7382F8BB82A14E9A8C0CA6C0F0" x="0" y="0" fill="#000000" fill-rule="nonzero"/></g><g transform="matrix(1 0 0 -1 505.051815972 41.27364)"><use xlink:href="#g6A7F5A83C1AD46379FEDFD85DC0924EE" x="0" y="0" fill="#000000" fill-rule="nonzero"/></g><g transform="matrix(1 0 0 -1 508.329815972 43.99064)"><use xlink:href="#gB4F8E97E8EFD98CA94EE40D9890E0542" x="0" y="0" fill="#000000" fill-rule="nonzero"/></g><g transform="matrix(1 0 0 -1 513.935415972 41.27364)"><use xlink:href="#g44903F1336FFA3AC82F2FDAECC383B22" x="0" y="0" fill="#000000" fill-rule="nonzero"/></g><g transform="matrix(1 0 0 -1 276.216142361 54.49564)"/><g transform="translate(283.520142361 46.26764)"><g transform="matrix(1 0 0 -1 0 8.228)"><use xlink:href="#g7FDD4349A49914F62F30F23AE9794251" x="0" y="0" fill="#000000" fill-rule="nonzero"/></g><g transform="matrix(1 0 0 -1 6.292 5.049)"><use xlink:href="#g24C97E338F6D0205BFA2AEE81EF0C1DC" x="0" y="0" fill="#000000" fill-rule="nonzero"/></g><g transform="matrix(1 0 0 -1 13.6939 8.228)"><use xlink:href="#gB29CE2C0E4ED383285A85CCC21F60B8F" x="0" y="0" fill="#000000" fill-rule="nonzero"/><use xlink:href="#g29E03738ED4E50AEAB304FB0E05CE245" x="5.5" y="0" fill="#000000" fill-rule="nonzero"/><use xlink:href="#g29E03738ED4E50AEAB304FB0E05CE245" x="11.616" y="0" fill="#000000" fill-rule="nonzero"/><use xlink:href="#g30A11840F6D1B58D63FF228F63DFF50C" x="17.732" y="0" fill="#000000" fill-rule="nonzero"/><use xlink:href="#g661B36513DCEC8B17F1DD8AE5C54E18F" x="22.044" y="0" fill="#000000" fill-rule="nonzero"/><use xlink:href="#g3496F6D22D5A0120AA23058869EF1B09" x="26.928" y="0" fill="#000000" fill-rule="nonzero"/><use xlink:href="#g8081A8237C24C95555CB26B7002BAA27" x="32.736" y="0" fill="#000000" fill-rule="nonzero"/><use xlink:href="#gB29CE2C0E4ED383285A85CCC21F60B8F" x="35.794" y="0" fill="#000000" fill-rule="nonzero"/><use xlink:href="#gE4D46F1D17F1B65EB6D4E3B2291CCF8F" x="41.294" y="0" fill="#000000" fill-rule="nonzero"/><use xlink:href="#g661B36513DCEC8B17F1DD8AE5C54E18F" x="45.573" y="0" fill="#000000" fill-rule="nonzero"/><use xlink:href="#g316D45BB6425B2B3622251A815E109FB" x="50.457" y="0" fill="#000000" fill-rule="nonzero"/></g><g transform="matrix(1 0 0 -1 72.1369 8.228)"><use xlink:href="#g521F2DDE78882B32DB463695F98C5705" x="0" y="0" fill="#000000" fill-rule="nonzero"/><use xlink:href="#g82D23B6D5370404661A1780E66CA09E" x="5.298046875" y="0" fill="#000000" fill-rule="nonzero"/><use xlink:href="#g360B7012FB5D77E140EC2FBBBED66DC1" x="10.59609375" y="0" fill="#000000" fill-rule="nonzero"/></g><g transform="matrix(1 0 0 -1 88.031040625 8.228)"><use xlink:href="#g9C5E01F97914784D6046F24928CB3533" x="0" y="0" fill="#000000" fill-rule="nonzero"/></g><g transform="matrix(1 0 0 -1 92.310040625 8.228)"><use xlink:href="#g7FDD4349A49914F62F30F23AE9794251" x="0" y="0" fill="#000000" fill-rule="nonzero"/></g><g transform="matrix(1 0 0 -1 98.602040625 8.228)"><use xlink:href="#gF2E9DE7382F8BB82A14E9A8C0CA6C0F0" x="0" y="0" fill="#000000" fill-rule="nonzero"/></g><g transform="matrix(1 0 0 -1 103.493373958 8.228)"><use xlink:href="#gE9FB6D24CF34BB489DEF6497581F7D30" x="0" y="0" fill="#000000" fill-rule="nonzero"/><use xlink:href="#gC9CF2B268112D692AA5AABDD5E57E12A" x="5.298046875" y="0" fill="#000000" fill-rule="nonzero"/><use xlink:href="#g11B715B086B5896FA56CD5C2E567D0DB" x="10.59609375" y="0" fill="#000000" fill-rule="nonzero"/><use xlink:href="#g11B715B086B5896FA56CD5C2E567D0DB" x="15.894140625" y="0" fill="#000000" fill-rule="nonzero"/></g><g transform="matrix(1 0 0 -1 124.685561458 8.228)"><use xlink:href="#gF2E9DE7382F8BB82A14E9A8C0CA6C0F0" x="0" y="0" fill="#000000" fill-rule="nonzero"/></g><g transform="matrix(1 0 0 -1 129.576894792 8.228)"><use xlink:href="#gCB4E91739EACE7368E3223F2D0EF6CCC" x="0" y="0" fill="#000000" fill-rule="nonzero"/></g><g transform="matrix(1 0 0 -1 134.735894792 8.228)"><use xlink:href="#gF2E9DE7382F8BB82A14E9A8C0CA6C0F0" x="0" y="0" fill="#000000" fill-rule="nonzero"/></g><g transform="matrix(1 0 0 -1 139.627228125 8.228)"><use xlink:href="#g6A7F5A83C1AD46379FEDFD85DC0924EE" x="0" y="0" fill="#000000" fill-rule="nonzero"/></g><g transform="matrix(1 0 0 -1 142.905228125 10.945)"><use xlink:href="#gB4F8E97E8EFD98CA94EE40D9890E0542" x="0" y="0" fill="#000000" fill-rule="nonzero"/></g><g transform="matrix(1 0 0 -1 148.510828125 8.228)"><use xlink:href="#g44903F1336FFA3AC82F2FDAECC383B22" x="0" y="0" fill="#000000" fill-rule="nonzero"/></g><g transform="matrix(1 0 0 -1 152.789828125 8.228)"/><g transform="matrix(1 0 0 -1 163.789828125 8.228)"/><g transform="matrix(1 0 0 -1 174.789828125 8.228)"><use xlink:href="#g7FDD4349A49914F62F30F23AE9794251" x="0" y="0" fill="#000000" fill-rule="nonzero"/></g><g transform="matrix(1 0 0 -1 181.081828125 5.049)"><use xlink:href="#g24C97E338F6D0205BFA2AEE81EF0C1DC" x="0" y="0" fill="#000000" fill-rule="nonzero"/></g><g transform="matrix(1 0 0 -1 184.831728125 8.228)"><use xlink:href="#gF2E9DE7382F8BB82A14E9A8C0CA6C0F0" x="0" y="0" fill="#000000" fill-rule="nonzero"/></g><g transform="matrix(1 0 0 -1 189.723061458 8.228)"><use xlink:href="#g6A7F5A83C1AD46379FEDFD85DC0924EE" x="0" y="0" fill="#000000" fill-rule="nonzero"/></g><g transform="matrix(1 0 0 -1 193.001061458 10.945)"><use xlink:href="#gB4F8E97E8EFD98CA94EE40D9890E0542" x="0" y="0" fill="#000000" fill-rule="nonzero"/></g><g transform="matrix(1 0 0 -1 197.990661458 8.7197)"><use xlink:href="#g8A57EFEDB933FFFB4BE025C76B616669" x="0" y="0" fill="#000000" fill-rule="nonzero"/></g><g transform="matrix(1 0 0 -1 205.379361458 8.228)"><use xlink:href="#g42BE19054016F7BAE28890E34266D9C4" x="0" y="0" fill="#000000" fill-rule="nonzero"/><use xlink:href="#g30A11840F6D1B58D63FF228F63DFF50C" x="3.366" y="0" fill="#000000" fill-rule="nonzero"/><use xlink:href="#g661B36513DCEC8B17F1DD8AE5C54E18F" x="7.678" y="0" fill="#000000" fill-rule="nonzero"/><use xlink:href="#g316D45BB6425B2B3622251A815E109FB" x="12.562" y="0" fill="#000000" fill-rule="nonzero"/><use xlink:href="#g7A15C53874C56177CC9533530FA2B070" x="16.896" y="0" fill="#000000" fill-rule="nonzero"/></g><g transform="matrix(1 0 0 -1 0 24.552)"><use xlink:href="#g8DD35590E5062F6A5840D8194DA80E6F" x="0" y="0" fill="#000000" fill-rule="nonzero"/></g><g transform="matrix(1 0 0 -1 5.687 27.269)"><use xlink:href="#gBFCC2410A697C41E2DD3187C83DA8F3" x="0" y="0" fill="#000000" fill-rule="nonzero"/></g><g transform="matrix(1 0 0 -1 13.739855556 24.552)"><use xlink:href="#g2389F7618E8CE27CC7151A1D8E5DEAD4" x="0" y="0" fill="#000000" fill-rule="nonzero"/></g><g transform="matrix(1 0 0 -1 25.353411111 24.552)"><use xlink:href="#g8DD35590E5062F6A5840D8194DA80E6F" x="0" y="0" fill="#000000" fill-rule="nonzero"/></g><g transform="matrix(1 0 0 -1 31.183411111 24.552)"><use xlink:href="#gC3FFEC7494DDA89C73345AE5B896CB0C" x="0" y="0" fill="#000000" fill-rule="nonzero"/></g><g transform="matrix(1 0 0 -1 34.307411111 24.552)"><use xlink:href="#g7FDD4349A49914F62F30F23AE9794251" x="0" y="0" fill="#000000" fill-rule="nonzero"/></g><g transform="matrix(1 0 0 -1 43.654966667 24.552)"><use xlink:href="#gAD3130B59A76219CC465C1A9B30EF0EE" x="0" y="0" fill="#000000" fill-rule="nonzero"/></g><g transform="matrix(1 0 0 -1 57.457522222 24.552)"><use xlink:href="#g7FDD4349A49914F62F30F23AE9794251" x="0" y="0" fill="#000000" fill-rule="nonzero"/></g><g transform="matrix(1 0 0 -1 63.749522222 21.373)"><use xlink:href="#g24C97E338F6D0205BFA2AEE81EF0C1DC" x="0" y="0" fill="#000000" fill-rule="nonzero"/></g><g transform="matrix(1 0 0 -1 67.499422222 24.552)"><use xlink:href="#gF7909E3CC0A06A4ECCF849B728E5A97E" x="0" y="0" fill="#000000" fill-rule="nonzero"/></g><g transform="matrix(1 0 0 -1 0 40.832)"><use xlink:href="#gD9181C58C134A18FD40559388A025E62" x="0" y="0" fill="#000000" fill-rule="nonzero"/></g><g transform="matrix(1 0 0 -1 6.281 43.549)"><use xlink:href="#gBFCC2410A697C41E2DD3187C83DA8F3" x="0" y="0" fill="#000000" fill-rule="nonzero"/></g><g transform="matrix(1 0 0 -1 14.333855556 40.832)"><use xlink:href="#g2389F7618E8CE27CC7151A1D8E5DEAD4" x="0" y="0" fill="#000000" fill-rule="nonzero"/></g><g transform="matrix(1 0 0 -1 25.947411111 40.832)"><use xlink:href="#gD9181C58C134A18FD40559388A025E62" x="0" y="0" fill="#000000" fill-rule="nonzero"/></g><g transform="matrix(1 0 0 -1 32.492411111 40.832)"><use xlink:href="#gC3FFEC7494DDA89C73345AE5B896CB0C" x="0" y="0" fill="#000000" fill-rule="nonzero"/></g><g transform="matrix(1 0 0 -1 35.616411111 40.832)"><use xlink:href="#g6A7F5A83C1AD46379FEDFD85DC0924EE" x="0" y="0" fill="#000000" fill-rule="nonzero"/></g><g transform="matrix(1 0 0 -1 38.894411111 43.549)"><use xlink:href="#gB4F8E97E8EFD98CA94EE40D9890E0542" x="0" y="0" fill="#000000" fill-rule="nonzero"/></g><g transform="matrix(1 0 0 -1 43.884011111 41.3237)"><use xlink:href="#g8A57EFEDB933FFFB4BE025C76B616669" x="0" y="0" fill="#000000" fill-rule="nonzero"/></g><g transform="matrix(1 0 0 -1 50.676266667 40.832)"><use xlink:href="#gAD3130B59A76219CC465C1A9B30EF0EE" x="0" y="0" fill="#000000" fill-rule="nonzero"/></g><g transform="matrix(1 0 0 -1 64.478822222 40.832)"><use xlink:href="#g2F860E3C418A9398BD0A0D6F00ED0578" x="0" y="0" fill="#000000" fill-rule="nonzero"/></g><g transform="matrix(1 0 0 -1 73.036822222 40.832)"><use xlink:href="#gF7909E3CC0A06A4ECCF849B728E5A97E" x="0" y="0" fill="#000000" fill-rule="nonzero"/></g><g transform="matrix(1 0 0 -1 0 56.54)"><use xlink:href="#g4AA9066DE258008E649636F009E5714C" x="0" y="0" fill="#000000" fill-rule="nonzero"/></g><g transform="matrix(1 0 0 -1 5.731 59.257)"><use xlink:href="#gBFCC2410A697C41E2DD3187C83DA8F3" x="0" y="0" fill="#000000" fill-rule="nonzero"/></g><g transform="matrix(1 0 0 -1 13.783855556 56.54)"><use xlink:href="#g2389F7618E8CE27CC7151A1D8E5DEAD4" x="0" y="0" fill="#000000" fill-rule="nonzero"/></g><g transform="matrix(1 0 0 -1 25.397411111 56.54)"><use xlink:href="#gB3A9917DB6D66B13D3CDFF1EBB5097D1" x="0" y="0" fill="#000000" fill-rule="nonzero"/></g><g transform="matrix(1 0 0 -1 31.810411111 56.54)"/><g transform="matrix(1 0 0 -1 35.462411111 56.54)"><use xlink:href="#g1570446F77F9A6C1B85605F46F92409E" x="0" y="0" fill="#000000" fill-rule="nonzero"/></g><g transform="matrix(1 0 0 -1 40.588411111 53.361)"><use xlink:href="#g24C97E338F6D0205BFA2AEE81EF0C1DC" x="0" y="0" fill="#000000" fill-rule="nonzero"/></g><g transform="matrix(1 0 0 -1 44.338311111 56.54)"><use xlink:href="#g8AF8F2BC2B33BC6B311ED96E17728B80" x="0" y="0" fill="#000000" fill-rule="nonzero"/></g><g transform="matrix(1 0 0 -1 47.396311111 56.54)"/><g transform="matrix(1 0 0 -1 51.048311111 56.54)"><use xlink:href="#g4AA9066DE258008E649636F009E5714C" x="0" y="0" fill="#000000" fill-rule="nonzero"/></g><g transform="matrix(1 0 0 -1 60.596311111 56.54)"><use xlink:href="#gEFD6A37741EDB46D1C5C1B0AEAB33C8D" x="0" y="0" fill="#000000" fill-rule="nonzero"/><use xlink:href="#g6BE3C26FC5C2EF394923021E65FF3629" x="5.298046875" y="0" fill="#000000" fill-rule="nonzero"/><use xlink:href="#gC74EE0AF2B149D895BF9573AF08C8170" x="10.59609375" y="0" fill="#000000" fill-rule="nonzero"/><use xlink:href="#gA3E8761BC1767EAE1C4DC702DAD043D4" x="15.894140625" y="0" fill="#000000" fill-rule="nonzero"/><use xlink:href="#g2D4F233067A158DA7E2B00C615A24811" x="21.1921875" y="0" fill="#000000" fill-rule="nonzero"/><use xlink:href="#g4F21559D411E52A0427C66D0631BE87E" x="26.490234375" y="0" fill="#000000" fill-rule="nonzero"/><use xlink:href="#gC74EE0AF2B149D895BF9573AF08C8170" x="31.78828125" y="0" fill="#000000" fill-rule="nonzero"/><use xlink:href="#gEFD6A37741EDB46D1C5C1B0AEAB33C8D" x="42.384375" y="0" fill="#000000" fill-rule="nonzero"/></g><g transform="matrix(1 0 0 -1 108.278732986 56.54)"><use xlink:href="#g7FDD4349A49914F62F30F23AE9794251" x="0" y="0" fill="#000000" fill-rule="nonzero"/></g><g transform="matrix(1 0 0 -1 114.570732986 53.361)"><use xlink:href="#g24C97E338F6D0205BFA2AEE81EF0C1DC" x="0" y="0" fill="#000000" fill-rule="nonzero"/></g><g transform="matrix(1 0 0 -1 118.320632986 56.54)"><use xlink:href="#gFF1EC1E3625C6E3C8EE7A324B4F795C4" x="0" y="0" fill="#000000" fill-rule="nonzero"/></g><g transform="matrix(1 0 0 -1 127.270679861 56.54)"><use xlink:href="#g1570446F77F9A6C1B85605F46F92409E" x="0" y="0" fill="#000000" fill-rule="nonzero"/></g><g transform="matrix(1 0 0 -1 132.396679861 53.361)"><use xlink:href="#g24C97E338F6D0205BFA2AEE81EF0C1DC" x="0" y="0" fill="#000000" fill-rule="nonzero"/></g><g transform="matrix(1 0 0 -1 136.146579861 56.54)"><use xlink:href="#gFF1EC1E3625C6E3C8EE7A324B4F795C4" x="0" y="0" fill="#000000" fill-rule="nonzero"/></g></g><g transform="matrix(1 0 0 -1 136.603626736 117.04164)"><use xlink:href="#g8CAF94BAEF81D91CC1530A3D4F0B18EF" x="0" y="0" fill="#000000" fill-rule="nonzero"/><use xlink:href="#g313E46022A35FE004C34D0F33FA6CF9" x="5.39" y="0" fill="#000000" fill-rule="nonzero"/><use xlink:href="#g6A7F5A83C1AD46379FEDFD85DC0924EE" x="10.725" y="0" fill="#000000" fill-rule="nonzero"/><use xlink:href="#gFCA8B7969079D7A79412C4845E7994CD" x="14.003" y="0" fill="#000000" fill-rule="nonzero"/></g><g transform="matrix(1 0 0 -1 159.978626736 117.04164)"><use xlink:href="#gEFD6A37741EDB46D1C5C1B0AEAB33C8D" x="0" y="0" fill="#000000" fill-rule="nonzero"/><use xlink:href="#g6BE3C26FC5C2EF394923021E65FF3629" x="5.298046875" y="0" fill="#000000" fill-rule="nonzero"/><use xlink:href="#gC74EE0AF2B149D895BF9573AF08C8170" x="10.59609375" y="0" fill="#000000" fill-rule="nonzero"/><use xlink:href="#gA3E8761BC1767EAE1C4DC702DAD043D4" x="15.894140625" y="0" fill="#000000" fill-rule="nonzero"/><use xlink:href="#g2D4F233067A158DA7E2B00C615A24811" x="21.1921875" y="0" fill="#000000" fill-rule="nonzero"/><use xlink:href="#g4F21559D411E52A0427C66D0631BE87E" x="26.490234375" y="0" fill="#000000" fill-rule="nonzero"/><use xlink:href="#gC74EE0AF2B149D895BF9573AF08C8170" x="31.78828125" y="0" fill="#000000" fill-rule="nonzero"/><use xlink:href="#gEFD6A37741EDB46D1C5C1B0AEAB33C8D" x="42.384375" y="0" fill="#000000" fill-rule="nonzero"/></g><g transform="matrix(1 0 0 -1 207.661048611 117.04164)"><use xlink:href="#g64283A02AA4F1AAA5170B8A659D3972B" x="0" y="0" fill="#000000" fill-rule="nonzero"/></g><g transform="matrix(1 0 0 -1 213.469048611 117.04164)"><use xlink:href="#gFF1EC1E3625C6E3C8EE7A324B4F795C4" x="0" y="0" fill="#000000" fill-rule="nonzero"/></g><g transform="matrix(1 0 0 -1 222.419095486 117.04164)"><use xlink:href="#g661B36513DCEC8B17F1DD8AE5C54E18F" x="0" y="0" fill="#000000" fill-rule="nonzero"/></g><g transform="matrix(1 0 0 -1 227.303095486 117.04164)"><use xlink:href="#gFF1EC1E3625C6E3C8EE7A324B4F795C4" x="0" y="0" fill="#000000" fill-rule="nonzero"/></g><g transform="matrix(1 0 0 -1 236.253142361 117.04164)"><use xlink:href="#g4D6D0CA498010ACD5A22795F1AD38996" x="0" y="0" fill="#000000" fill-rule="nonzero"/></g><g transform="matrix(1 0 0 -1 242.534142361 117.04164)"/><g transform="matrix(1 0 0 -1 246.186142361 117.04164)"><use xlink:href="#g8DD35590E5062F6A5840D8194DA80E6F" x="0" y="0" fill="#000000" fill-rule="nonzero"/></g><g transform="matrix(1 0 0 -1 252.016142361 117.04164)"/><g transform="matrix(1 0 0 -1 255.668142361 117.04164)"><use xlink:href="#g4AA9066DE258008E649636F009E5714C" x="0" y="0" fill="#000000" fill-rule="nonzero"/></g><g transform="matrix(1 0 0 -1 261.564142361 117.04164)"/><g transform="matrix(1 0 0 -1 276.216142361 117.04164)"><use xlink:href="#g8081A8237C24C95555CB26B7002BAA27" x="0" y="0" fill="#000000" fill-rule="nonzero"/><use xlink:href="#g42BE19054016F7BAE28890E34266D9C4" x="3.058" y="0" fill="#000000" fill-rule="nonzero"/></g><g transform="matrix(1 0 0 -1 286.292142361 117.04164)"><use xlink:href="#g4D6D0CA498010ACD5A22795F1AD38996" x="0" y="0" fill="#000000" fill-rule="nonzero"/></g><g transform="matrix(1 0 0 -1 295.628697917 117.04164)"><use xlink:href="#g2389F7618E8CE27CC7151A1D8E5DEAD4" x="0" y="0" fill="#000000" fill-rule="nonzero"/></g><g transform="matrix(1 0 0 -1 307.242253472 117.04164)"><use xlink:href="#gA26959CC7A08E8EC12D9E5FDB3CAF766" x="0" y="0" fill="#000000" fill-rule="nonzero"/><use xlink:href="#g42E72C06CADF56A793607B8210F158C5" x="5.298046875" y="0" fill="#000000" fill-rule="nonzero"/><use xlink:href="#g42E72C06CADF56A793607B8210F158C5" x="10.59609375" y="0" fill="#000000" fill-rule="nonzero"/></g><g transform="matrix(1 0 0 -1 323.136394097 117.04164)"><use xlink:href="#g1191ED62F436B58C75B652BB46FBF60F" x="0" y="0" fill="#000000" fill-rule="nonzero"/></g><g transform="matrix(1 0 0 -1 328.174394097 117.04164)"><use xlink:href="#g3BAF23AB431BDA7FCE4D7083470CFBD3" x="0" y="0" fill="#000000" fill-rule="nonzero"/><use xlink:href="#gBA5B8536F66C0740646C0BF4438FCF64" x="5.5" y="0" fill="#000000" fill-rule="nonzero"/></g><g transform="matrix(1 0 0 -1 339.790394097 117.04164)"><use xlink:href="#gF2E9DE7382F8BB82A14E9A8C0CA6C0F0" x="0" y="0" fill="#000000" fill-rule="nonzero"/></g><g transform="matrix(1 0 0 -1 344.681727431 117.04164)"><use xlink:href="#g4D6D0CA498010ACD5A22795F1AD38996" x="0" y="0" fill="#000000" fill-rule="nonzero"/></g><g transform="matrix(1 0 0 -1 350.379727431 119.75864)"><use xlink:href="#gBFCC2410A697C41E2DD3187C83DA8F3" x="0" y="0" fill="#000000" fill-rule="nonzero"/></g><g transform="matrix(1 0 0 -1 355.377027431 117.04164)"><use xlink:href="#gF2E9DE7382F8BB82A14E9A8C0CA6C0F0" x="0" y="0" fill="#000000" fill-rule="nonzero"/></g><g transform="matrix(1 0 0 -1 360.268360764 117.04164)"><use xlink:href="#g6A7F5A83C1AD46379FEDFD85DC0924EE" x="0" y="0" fill="#000000" fill-rule="nonzero"/></g><g transform="matrix(1 0 0 -1 363.546360764 119.75864)"><use xlink:href="#gA18F762FFFFE399C9BA1DB0D10B3D31E" x="0" y="0" fill="#000000" fill-rule="nonzero"/></g><g transform="matrix(1 0 0 -1 369.082660764 117.04164)"><use xlink:href="#g90C70798A55D47911C9509EA3A2AC8D8" x="0" y="0" fill="#000000" fill-rule="nonzero"/></g><defs><symbol id="g6DBFE2DA1D27E4D54C97E6F7579A935B" overflow="visible"><path d="M 0 0m 5.467 7.337c 0 0.121 -0.066 0.176 -0.209 0.176l -1.419 -0.033l -1.441 0.033c -0.176 0.011 -0.264 -0.077 -0.264 -0.264c 0 -0.11 0.121 -0.165 0.352 -0.165c 0.473 0 0.704 -0.055 0.704 -0.154c 0 -0.055 -0.011 -0.11 -0.022 -0.165l -1.463 -5.863c -0.055 -0.242 -0.165 -0.385 -0.33 -0.44c -0.077 -0.022 -0.275 -0.033 -0.616 -0.033c -0.275 0 -0.385 -0.011 -0.385 -0.264c 0 -0.11 0.066 -0.165 0.209 -0.165l 1.408 0.033l 1.452 -0.033c 0.176 -0.011 0.264 0.077 0.264 0.253c 0 0.176 -0.132 0.176 -0.374 0.176c -0.429 0 -0.693 -0.022 -0.693 0.154c 0 0.055 0.011 0.132 0.044 0.242l 1.452 5.797c 0.055 0.231 0.165 0.374 0.33 0.429c 0.077 0.022 0.275 0.033 0.616 0.033c 0.264 0 0.385 0.011 0.385 0.253Z "/></symbol><symbol id="gEFD6A37741EDB46D1C5C1B0AEAB33C8D" overflow="visible"><path d="M 0 0m 3.802734375 6.67734375q -0.571484375 -0.9796875 -0.852929688 -1.952929688q -0.281445313 -0.973242188 -0.281445313 -1.961523438q 0 -0.983984375 0.281445313 -1.959375q 0.281445313 -0.975390625 0.852929688 -1.963671875h -0.6875q -0.648828125 1.02265625 -0.966796875 1.991601563q -0.31796875 0.968945313 -0.31796875 1.931445313q 0 0.958203125 0.31796875 1.929296875q 0.31796875 0.97109375 0.966796875 1.98515625h 0.6875Z "/></symbol><symbol id="g6BE3C26FC5C2EF394923021E65FF3629" overflow="visible"><path d="M 0 0m 2.745703125 1.74453125q 0 -0.5328125 0.195507813 -0.803515625q 0.195507813 -0.270703125 0.577929688 -0.270703125h 0.923828125v -0.6703125h -1.001171875q -0.708984375 0 -1.097851563 0.45546875q -0.388867188 0.45546875 -0.388867188 1.2890625v 4.369921875h -1.267578125v 0.61875h 2.058203125v -4.988671875Z "/></symbol><symbol id="gC74EE0AF2B149D895BF9573AF08C8170" overflow="visible"><path d="M 0 0m 3.01640625 2.419140625h -0.262109375q -0.691796875 0 -1.041992188 -0.242773438q -0.350195313 -0.242773438 -0.350195313 -0.724023438q 0 -0.433984375 0.262109375 -0.674609375q 0.262109375 -0.240625 0.726171875 -0.240625q 0.653125 0 1.026953125 0.453320313q 0.373828125 0.453320313 0.378125 1.252539063v 0.176171875h -0.7390625Z m 1.533984375 0.3265625v -2.745703125h -0.794921875v 0.71328125q -0.253515625 -0.4296875 -0.638085938 -0.633789063q -0.384570313 -0.204101563 -0.934570313 -0.204101563q -0.734765625 0 -1.173046875 0.414648438q -0.43828125 0.414648438 -0.43828125 1.110742188q 0 0.803515625 0.539257813 1.2203125q 0.539257813 0.416796875 1.583398438 0.416796875h 1.061328125v 0.124609375q -0.004296875 0.57578125 -0.2921875 0.835742188q -0.287890625 0.259960938 -0.91953125 0.259960938q -0.40390625 0 -0.81640625 -0.116015625q -0.4125 -0.116015625 -0.803515625 -0.339453125v 0.790625q 0.43828125 0.167578125 0.840039063 0.251367188q 0.401757813 0.083789063 0.779882813 0.083789063q 0.597265625 0 1.020507813 -0.176171875q 0.423242188 -0.176171875 0.685351563 -0.528515625q 0.16328125 -0.21484375 0.23203125 -0.530664063q 0.06875 -0.315820313 0.06875 -0.947460938Z "/></symbol><symbol id="gA3E8761BC1767EAE1C4DC702DAD043D4" overflow="visible"><path d="M 0 0m 2.9046875 4.32265625q 0.14609375 0.309375 0.371679688 0.457617188q 0.225585938 0.148242188 0.543554688 0.148242188q 0.580078125 0 0.818554688 -0.449023438q 0.238476563 -0.449023438 0.238476563 -1.690820313v -2.788671875h -0.721875v 2.754296875q 0 1.018359375 -0.113867188 1.265429688q -0.113867188 0.247070313 -0.414648438 0.247070313q -0.34375 0 -0.470507813 -0.264257813q -0.126757813 -0.264257813 -0.126757813 -1.248242188v -2.754296875h -0.721875v 2.754296875q 0 1.03125 -0.122460938 1.271875q -0.122460938 0.240625 -0.440429688 0.240625q -0.313671875 0 -0.436132813 -0.264257813q -0.122460938 -0.264257813 -0.122460938 -1.248242188v -2.754296875h -0.717578125v 4.8125h 0.717578125v -0.4125q 0.141796875 0.2578125 0.354492188 0.393164063q 0.212695313 0.135351563 0.483398438 0.135351563q 0.3265625 0 0.543554688 -0.150390625q 0.216992188 -0.150390625 0.337304688 -0.45546875Z "/></symbol><symbol id="g2D4F233067A158DA7E2B00C615A24811" overflow="visible"><path d="M 0 0m 3.94453125 2.401953125q 0 0.91953125 -0.2921875 1.387890625q -0.2921875 0.468359375 -0.863671875 0.468359375q -0.57578125 0 -0.872265625 -0.470507813q -0.296484375 -0.470507813 -0.296484375 -1.385742188q 0 -0.9109375 0.296484375 -1.38359375q 0.296484375 -0.47265625 0.872265625 -0.47265625q 0.571484375 0 0.863671875 0.468359375q 0.2921875 0.468359375 0.2921875 1.387890625Z m -2.324609375 1.79609375q 0.1890625 0.35234375 0.522070313 0.54140625q 0.333007813 0.1890625 0.771289063 0.1890625q 0.86796875 0 1.36640625 -0.668164063q 0.4984375 -0.668164063 0.4984375 -1.841210938q 0 -1.190234375 -0.500585938 -1.866992188q -0.500585938 -0.676757813 -1.372851563 -0.676757813q -0.4296875 0 -0.758398438 0.186914063q -0.328710938 0.186914063 -0.526367188 0.543554688v -0.605859375h -0.790625v 6.6859375h 0.790625v -2.487890625Z "/></symbol><symbol id="g4F21559D411E52A0427C66D0631BE87E" overflow="visible"><path d="M 0 0m 3.68671875 4.198046875v 2.487890625h 0.790625v -6.6859375h -0.790625v 0.605859375q -0.19765625 -0.356640625 -0.526367188 -0.543554688q -0.328710938 -0.186914063 -0.758398438 -0.186914063q -0.872265625 0 -1.372851563 0.676757813q -0.500585938 0.676757813 -0.500585938 1.866992188q 0 1.173046875 0.502734375 1.841210938q 0.502734375 0.668164063 1.370703125 0.668164063q 0.433984375 0 0.76484375 -0.186914063q 0.330859375 -0.186914063 0.519921875 -0.543554688Z m -2.324609375 -1.79609375q 0 -0.91953125 0.2921875 -1.387890625q 0.2921875 -0.468359375 0.863671875 -0.468359375q 0.571484375 0 0.870117188 0.47265625q 0.298632813 0.47265625 0.298632813 1.38359375q 0 0.915234375 -0.298632813 1.385742188q -0.298632813 0.470507813 -0.870117188 0.470507813q -0.571484375 0 -0.863671875 -0.468359375q -0.2921875 -0.468359375 -0.2921875 -1.387890625Z "/></symbol><symbol id="g64283A02AA4F1AAA5170B8A659D3972B" overflow="visible"><path d="M 0 0m 4.598 0.033c 0.253 0.011 0.616 0 1.078 -0.033v 0.418c -0.583 0 -0.803 0.011 -1.034 0.319l -1.43 1.848c 0.473 0.583 0.792 0.979 0.968 1.188c 0.308 0.352 0.737 0.539 1.298 0.55v 0.418c -0.308 -0.022 -0.616 -0.033 -0.924 -0.033c -0.407 0 -0.77 0.011 -1.089 0.033v -0.418c 0.209 -0.022 0.319 -0.121 0.319 -0.297c 0 -0.099 -0.055 -0.22 -0.154 -0.352l -0.638 -0.792l -0.814 1.045c -0.055 0.077 -0.088 0.132 -0.088 0.165c 0 0.143 0.132 0.22 0.385 0.231v 0.418l -1.221 -0.033c -0.286 -0.011 -0.638 0 -1.067 0.033v -0.418c 0.396 0 0.649 -0.033 0.759 -0.088c 0.11 -0.055 0.286 -0.242 0.528 -0.561l 1.045 -1.364c -0.539 -0.693 -0.869 -1.111 -0.99 -1.254c -0.352 -0.429 -0.814 -0.638 -1.397 -0.638v -0.418c 0.407 0.033 0.715 0.044 0.946 0.033l 1.067 -0.033v 0.418c -0.209 0.033 -0.308 0.132 -0.308 0.297c 0 0.044 0.011 0.099 0.033 0.154c 0.066 0.143 0.363 0.517 0.891 1.144l 0.792 -1.034c 0.121 -0.154 0.187 -0.264 0.22 -0.33c 0 -0.143 -0.132 -0.22 -0.396 -0.231v -0.418Z "/></symbol><symbol id="gFF1EC1E3625C6E3C8EE7A324B4F795C4" overflow="visible"><path d="M 0 0m 1.4953125 6.67734375h 0.6875q 0.648828125 -1.0140625 0.966796875 -1.98515625q 0.31796875 -0.97109375 0.31796875 -1.929296875q 0 -0.966796875 -0.31796875 -1.937890625q -0.31796875 -0.97109375 -0.966796875 -1.98515625h -0.6875q 0.571484375 0.996875 0.852929688 1.972265625q 0.281445313 0.975390625 0.281445313 1.95078125q 0 0.9796875 -0.281445313 1.955078125q -0.281445313 0.975390625 -0.852929688 1.959375Z "/></symbol><symbol id="g661B36513DCEC8B17F1DD8AE5C54E18F" overflow="visible"><path d="M 0 0m 4.565 2.761c 0 1.265 -0.737 2.167 -1.969 2.167c -0.66 0 -1.21 -0.253 -1.661 -0.77c -0.418 -0.484 -0.627 -1.067 -0.627 -1.738c 0 -0.693 0.231 -1.276 0.693 -1.782c 0.462 -0.506 1.034 -0.759 1.716 -0.759c 0.627 0 1.111 0.22 1.441 0.649c 0.275 0.363 0.407 0.627 0.407 0.803c 0 0.11 -0.066 0.165 -0.187 0.165c -0.088 0 -0.143 -0.055 -0.176 -0.176c -0.242 -0.726 -0.715 -1.089 -1.419 -1.089c -0.495 0 -0.88 0.231 -1.177 0.704c -0.209 0.341 -0.308 0.858 -0.319 1.562h 2.97c 0.242 0 0.308 0.022 0.308 0.264Z m -0.979 1.078c 0.121 -0.363 0.176 -0.715 0.176 -1.034h -2.464c 0.033 0.726 0.22 1.221 0.55 1.474c 0.275 0.22 0.517 0.33 0.748 0.33c 0.495 0 0.825 -0.253 0.99 -0.77Z "/></symbol><symbol id="g4D6D0CA498010ACD5A22795F1AD38996" overflow="visible"><path d="M 0 0m 5.764 4.158c 0.143 0.275 0.209 0.418 0.209 0.429c 0 0.099 -0.055 0.154 -0.176 0.154c -0.077 0 -0.132 -0.033 -0.165 -0.099c -0.385 -0.715 -0.836 -1.727 -1.364 -3.036c -0.044 0.726 -0.187 1.408 -0.429 2.035c -0.319 0.814 -0.814 1.221 -1.485 1.221c -0.693 0 -1.298 -0.462 -1.606 -0.891c -0.363 -0.517 -0.55 -0.902 -0.55 -1.144c 0 -0.099 0.088 -0.154 0.275 -0.154l 0.055 0.077c 0.187 0.572 0.506 0.935 0.957 1.089c 0.308 0.099 0.55 0.154 0.726 0.154c 1.144 0 1.716 -0.902 1.716 -2.717c 0 -0.429 -0.044 -0.781 -0.132 -1.056c -0.374 -1.221 -0.561 -2.002 -0.561 -2.343c 0 -0.165 0.066 -0.242 0.187 -0.242c 0.132 0 0.264 0.231 0.385 0.682c 0.187 0.704 0.319 1.331 0.396 1.881c 0.033 0.165 0.055 0.308 0.088 0.407c 0.396 1.232 0.891 2.42 1.474 3.553Z "/></symbol><symbol id="g8DD35590E5062F6A5840D8194DA80E6F" overflow="visible"><path d="M 0 0m 3.971 4.862c -1.243 0 -2.277 -1.342 -2.552 -2.442l -1.056 -4.279c -0.022 -0.088 -0.033 -0.143 -0.033 -0.176c 0 -0.231 0.11 -0.341 0.341 -0.341c 0.165 0 0.308 0.088 0.418 0.253l 0.671 2.629c 0.253 -0.429 0.605 -0.649 1.056 -0.649c 0.726 0 1.364 0.352 1.925 1.067c 0.517 0.671 0.781 1.386 0.781 2.123c 0 1.001 -0.583 1.815 -1.551 1.815Z m -0.022 -0.33c 0.473 0 0.704 -0.341 0.704 -1.023c 0 -0.297 -0.066 -0.682 -0.187 -1.177c -0.242 -0.935 -0.583 -1.562 -1.012 -1.892c -0.231 -0.176 -0.44 -0.264 -0.649 -0.264c -0.209 0 -0.396 0.077 -0.539 0.22c -0.231 0.231 -0.341 0.473 -0.341 0.704c 0.011 0.077 0.033 0.209 0.077 0.396c 0.253 1.045 0.473 1.716 0.649 2.024c 0.385 0.671 0.814 1.012 1.298 1.012Z "/></symbol><symbol id="g4AA9066DE258008E649636F009E5714C" overflow="visible"><path d="M 0 0m 4.499 3.883c 0 -0.286 0.154 -0.429 0.451 -0.429c 0.385 0 0.638 0.341 0.638 0.715c 0 0.429 -0.352 0.726 -0.781 0.726c -0.495 0 -1.023 -0.33 -1.606 -0.979c -0.451 -0.495 -0.814 -0.814 -1.111 -0.957l 1.111 4.51c -0.022 0.099 -0.044 0.165 -0.187 0.165c -0.352 0 -1.188 -0.099 -1.32 -0.11c -0.165 -0.022 -0.242 -0.099 -0.242 -0.264c 0 -0.11 0.099 -0.165 0.297 -0.165c 0.209 0 0.495 0.011 0.495 -0.143l -1.595 -6.479c -0.033 -0.121 -0.044 -0.198 -0.044 -0.242c 0 -0.231 0.121 -0.352 0.352 -0.352c 0.187 0 0.33 0.088 0.407 0.253c 0.055 0.099 0.253 0.88 0.605 2.354c 0.572 -0.055 1.177 -0.33 1.177 -0.88c 0 -0.165 -0.077 -0.495 -0.077 -0.605c 0 -0.627 0.407 -1.122 1.034 -1.122c 0.638 0 1.067 0.572 1.287 1.716c 0 0.099 -0.055 0.154 -0.165 0.154c -0.099 0 -0.165 -0.077 -0.198 -0.231c -0.242 -0.869 -0.539 -1.309 -0.902 -1.309c -0.198 0 -0.297 0.154 -0.297 0.462c 0 0.176 0.132 0.77 0.132 0.946c 0 0.627 -0.506 1.012 -1.529 1.166c 0.253 0.176 0.539 0.429 0.847 0.759c 0.308 0.33 0.528 0.539 0.671 0.66c 0.297 0.242 0.583 0.363 0.836 0.363c 0.11 0 0.198 -0.022 0.264 -0.066c -0.297 -0.055 -0.55 -0.33 -0.55 -0.616Z "/></symbol><symbol id="g2389F7618E8CE27CC7151A1D8E5DEAD4" overflow="visible"><path d="M 0 0m 7.678 4.037h -6.798c -0.176 0 -0.264 -0.088 -0.264 -0.253c 0 -0.165 0.088 -0.253 0.264 -0.253h 6.798c 0.176 0 0.264 0.088 0.264 0.253c 0 0.132 -0.121 0.253 -0.264 0.253Z m 0 -2.068h -6.798c -0.176 0 -0.264 -0.088 -0.264 -0.253c 0 -0.165 0.088 -0.253 0.264 -0.253h 6.798c 0.176 0 0.264 0.088 0.264 0.253c 0 0.143 -0.121 0.253 -0.264 0.253Z "/></symbol><symbol id="gBEAA5D980B1B6CD6E7BE74B68F1EC637" overflow="visible"><path d="M 0 0m 7.953 0c 0.209 0 0.319 0.11 0.319 0.33c 0 0.143 -0.066 0.242 -0.209 0.297c -0.682 0.253 -1.276 0.715 -1.771 1.397c -0.495 0.682 -0.737 1.386 -0.737 2.101v 4.125h -1.188v -4.125c 0 -0.869 0.374 -1.705 1.133 -2.519c 0.671 -0.737 1.452 -1.265 2.343 -1.584c 0.044 -0.011 0.077 -0.022 0.11 -0.022Z "/></symbol><symbol id="g58DE70B0DC67996A6062DF732675B06F" overflow="visible"><path d="M 0 0m 4.367 0h 1.188v 8.228h -1.188Z "/></symbol><symbol id="g2CD4E04A0D30BF0BCB592B65901BFCD" overflow="visible"><path d="M 0 0m 2.75 8.25c 1.298 0.704 2.805 2.299 2.805 4.103v 4.147h -1.188v -4.147c 0 -0.781 -0.231 -1.529 -0.704 -2.266c -0.495 -0.759 -1.089 -1.276 -1.804 -1.529c -0.143 -0.055 -0.209 -0.154 -0.209 -0.308c 0 -0.154 0.066 -0.253 0.209 -0.308c 0.715 -0.253 1.309 -0.77 1.804 -1.529c 0.473 -0.737 0.704 -1.485 0.704 -2.266v -4.147h 1.188v 4.147c 0 1.804 -1.507 3.399 -2.805 4.103Z "/></symbol><symbol id="g87E37713B4483662E5048B1608E6EC95" overflow="visible"><path d="M 0 0m 8.063 7.623c 0.143 0.055 0.209 0.154 0.209 0.297c 0 0.22 -0.11 0.33 -0.319 0.33c -0.033 0 -0.066 -0.011 -0.11 -0.022c -0.891 -0.319 -1.672 -0.847 -2.343 -1.584c -0.759 -0.814 -1.133 -1.65 -1.133 -2.519v -4.125h 1.188v 4.125c 0 0.715 0.242 1.419 0.737 2.101c 0.495 0.682 1.089 1.144 1.771 1.397Z "/></symbol><symbol id="g753B405C8BCF0E1C48C693507077AE03" overflow="visible"><path d="M 0 0m 4.558984375 0.244921875q -0.31796875 -0.184765625 -0.655273438 -0.277148438q -0.337304688 -0.092382813 -0.689648438 -0.092382813q -1.1171875 0 -1.746679688 0.6703125q -0.629492188 0.6703125 -0.629492188 1.85625q 0 1.1859375 0.629492188 1.85625q 0.629492188 0.6703125 1.746679688 0.6703125q 0.348046875 0 0.67890625 -0.090234375q 0.330859375 -0.090234375 0.666015625 -0.279296875v -0.829296875q -0.313671875 0.279296875 -0.629492188 0.40390625q -0.315820313 0.124609375 -0.715429688 0.124609375q -0.743359375 0 -1.14296875 -0.48125q -0.399609375 -0.48125 -0.399609375 -1.375q 0 -0.889453125 0.401757813 -1.372851563q 0.401757813 -0.483398438 1.140820313 -0.483398438q 0.4125 0 0.7390625 0.126757813q 0.3265625 0.126757813 0.605859375 0.393164063v -0.820703125Z "/></symbol><symbol id="g8E43F24E687DFBB5D1E5526D8DC9339C" overflow="visible"><path d="M 0 0m 2.646875 4.258203125q -0.6015625 0 -0.9109375 -0.468359375q -0.309375 -0.468359375 -0.309375 -1.387890625q 0 -0.915234375 0.309375 -1.385742188q 0.309375 -0.470507813 0.9109375 -0.470507813q 0.605859375 0 0.915234375 0.470507813q 0.309375 0.470507813 0.309375 1.385742188q 0 0.91953125 -0.309375 1.387890625q -0.309375 0.468359375 -0.915234375 0.468359375Z m 0 0.6703125q 1.001171875 0 1.531835938 -0.648828125q 0.530664063 -0.648828125 0.530664063 -1.877734375q 0 -1.233203125 -0.528515625 -1.879882813q -0.528515625 -0.646679688 -1.533984375 -0.646679688q -1.001171875 0 -1.5296875 0.646679688q -0.528515625 0.646679688 -0.528515625 1.879882813q 0 1.22890625 0.528515625 1.877734375q 0.528515625 0.648828125 1.5296875 0.648828125Z "/></symbol><symbol id="gEFA11BCBF584E95CF54C8F85D9D572D2" overflow="visible"><path d="M 0 0m 4.516015625 2.98203125v -2.98203125h -0.794921875v 2.98203125q 0 0.648828125 -0.227734375 0.95390625q -0.227734375 0.305078125 -0.71328125 0.305078125q -0.554296875 0 -0.852929688 -0.393164063q -0.298632813 -0.393164063 -0.298632813 -1.127929688v -2.719921875h -0.790625v 4.8125h 0.790625v -0.721875q 0.210546875 0.4125 0.571484375 0.625195313q 0.3609375 0.212695313 0.855078125 0.212695313q 0.734765625 0 1.097851563 -0.483398438q 0.363085938 -0.483398438 0.363085938 -1.463085938Z "/></symbol><symbol id="g18B0C645192E85FDD6BFE6E13B16D837" overflow="visible"><path d="M 0 0m 4.180859375 4.644921875v -0.7734375q -0.339453125 0.19765625 -0.683203125 0.296484375q -0.34375 0.098828125 -0.700390625 0.098828125q -0.537109375 0 -0.801367188 -0.174023438q -0.264257813 -0.174023438 -0.264257813 -0.530664063q 0 -0.322265625 0.19765625 -0.48125q 0.19765625 -0.158984375 0.983984375 -0.309375l 0.31796875 -0.06015625q 0.588671875 -0.11171875 0.891601563 -0.446875q 0.302929688 -0.33515625 0.302929688 -0.872265625q 0 -0.71328125 -0.50703125 -1.115039063q -0.50703125 -0.401757813 -1.409375 -0.401757813q -0.356640625 0 -0.74765625 0.075195313q -0.391015625 0.075195313 -0.846484375 0.225585938v 0.81640625q 0.442578125 -0.227734375 0.846484375 -0.341601563q 0.40390625 -0.113867188 0.76484375 -0.113867188q 0.52421875 0 0.812109375 0.212695313q 0.287890625 0.212695313 0.287890625 0.595117188q 0 0.55 -1.052734375 0.760546875l -0.034375 0.00859375l -0.296484375 0.06015625q -0.683203125 0.133203125 -0.996875 0.449023438q -0.313671875 0.315820313 -0.313671875 0.861523438q 0 0.691796875 0.468359375 1.067773438q 0.468359375 0.375976563 1.336328125 0.375976563q 0.38671875 0 0.743359375 -0.070898438q 0.356640625 -0.070898438 0.700390625 -0.212695313Z "/></symbol><symbol id="g675CA31BB2862F44F71394188EA0CA51" overflow="visible"><path d="M 0 0m 2.63828125 6.17890625v -1.36640625h 1.79609375v -0.614453125h -1.79609375v -2.6125q 0 -0.5328125 0.201953125 -0.743359375q 0.201953125 -0.210546875 0.7046875 -0.210546875h 0.889453125v -0.631640625h -0.966796875q -0.889453125 0 -1.2546875 0.356640625q -0.365234375 0.356640625 -0.365234375 1.22890625v 2.6125h -1.284765625v 0.614453125h 1.284765625v 1.36640625h 0.790625Z "/></symbol><symbol id="gEB5263C984B3A13E014F4FD81EEB98D5" overflow="visible"><path d="M 0 0m 4.962890625 3.819921875q -0.253515625 0.19765625 -0.515625 0.287890625q -0.262109375 0.090234375 -0.57578125 0.090234375q -0.7390625 0 -1.130078125 -0.4640625q -0.391015625 -0.4640625 -0.391015625 -1.340625v -2.393359375h -0.794921875v 4.8125h 0.794921875v -0.941015625q 0.19765625 0.511328125 0.608007813 0.784179688q 0.410351563 0.272851563 0.973242188 0.272851563q 0.2921875 0 0.545703125 -0.073046875q 0.253515625 -0.073046875 0.485546875 -0.227734375v -0.8078125Z "/></symbol><symbol id="gA8CD33D70EBD9AD4A6F72B95DF4DE014" overflow="visible"><path d="M 0 0m 0.837890625 1.821875v 2.98203125h 0.790625v -2.98203125q 0 -0.648828125 0.229882813 -0.95390625q 0.229882813 -0.305078125 0.711132813 -0.305078125q 0.55859375 0 0.855078125 0.393164063q 0.296484375 0.393164063 0.296484375 1.127929688v 2.719921875h 0.794921875v -4.80390625h -0.794921875v 0.721875q -0.210546875 -0.416796875 -0.573632813 -0.631640625q -0.363085938 -0.21484375 -0.848632813 -0.21484375q -0.7390625 0 -1.1 0.483398438q -0.3609375 0.483398438 -0.3609375 1.463085938Z "/></symbol><symbol id="g4666C3926E6A15F65572DD76E569736D" overflow="visible"><path d="M 0 0m 4.778125 2.60390625v -0.38671875h -3.424609375v -0.02578125q 0 -0.786328125 0.410351563 -1.216015625q 0.410351563 -0.4296875 1.158007813 -0.4296875q 0.378125 0 0.790625 0.1203125q 0.4125 0.1203125 0.880859375 0.365234375v -0.786328125q -0.451171875 -0.184765625 -0.870117188 -0.277148438q -0.418945313 -0.092382813 -0.809960938 -0.092382813q -1.121484375 0 -1.753125 0.672460938q -0.631640625 0.672460938 -0.631640625 1.854101563q 0 1.1515625 0.61875 1.8390625q 0.61875 0.6875 1.65 0.6875q 0.91953125 0 1.450195313 -0.623046875q 0.530664063 -0.623046875 0.530664063 -1.7015625Z m -0.790625 0.23203125q -0.0171875 0.69609375 -0.328710938 1.059179688q -0.311523438 0.363085938 -0.895898438 0.363085938q -0.571484375 0 -0.941015625 -0.378125q -0.36953125 -0.378125 -0.43828125 -1.0484375l 2.60390625 0.004296875Z "/></symbol><symbol id="gD9181C58C134A18FD40559388A025E62" overflow="visible"><path d="M 0 0m 5.775 4.741h -2.475c -0.528 0 -1.023 -0.165 -1.474 -0.506c -0.704 -0.539 -1.408 -1.485 -1.408 -2.607c 0 -0.99 0.682 -1.749 1.672 -1.749c 0.737 0 1.397 0.319 1.958 0.957c 0.539 0.616 0.803 1.298 0.803 2.057c 0 0.451 -0.099 0.825 -0.297 1.133h 1.111c 0.385 0 0.572 0.132 0.572 0.407c 0 0.253 -0.187 0.308 -0.462 0.308Z m -4.598 -3.41c 0 0.649 0.154 1.243 0.473 1.771c 0.374 0.616 0.858 0.924 1.463 0.924c 0.638 0 0.957 -0.33 0.957 -1.001c 0 -0.275 -0.055 -0.594 -0.165 -0.968c -0.22 -0.781 -0.583 -1.331 -1.089 -1.628c -0.253 -0.154 -0.495 -0.231 -0.715 -0.231c -0.605 0 -0.924 0.495 -0.924 1.133Z "/></symbol><symbol id="g8081A8237C24C95555CB26B7002BAA27" overflow="visible"><path d="M 0 0m 2.134 6.611c 0 0.33 -0.275 0.616 -0.605 0.616c -0.33 0 -0.616 -0.286 -0.616 -0.616c 0 -0.33 0.275 -0.627 0.605 -0.627c 0.341 0 0.616 0.286 0.616 0.627Z m -0.561 -6.578l 1.144 -0.033v 0.429c -0.363 0 -0.583 0.022 -0.649 0.066c -0.066 0.044 -0.088 0.165 -0.088 0.363v 4.037l -1.573 -0.132v -0.418c 0.363 0 0.594 -0.033 0.671 -0.088c 0.077 -0.055 0.11 -0.209 0.11 -0.462v -2.926c 0 -0.209 -0.033 -0.341 -0.11 -0.385c -0.077 -0.044 -0.319 -0.055 -0.715 -0.055v -0.429Z "/></symbol><symbol id="g42BE19054016F7BAE28890E34266D9C4" overflow="visible"><path d="M 0 0m 2.915 7.755c -0.979 0 -1.705 -0.792 -1.705 -1.771v -1.21h -0.847v -0.418h 0.847v -3.487c 0 -0.209 -0.033 -0.341 -0.11 -0.385c -0.077 -0.044 -0.319 -0.055 -0.726 -0.055v -0.429l 1.265 0.033c 0.462 0.011 0.935 0 1.408 -0.033v 0.429h -0.264c -0.363 0 -0.594 0.022 -0.671 0.077c -0.077 0.055 -0.11 0.187 -0.11 0.385v 3.465h 1.232v 0.418h -1.265v 1.221c 0 0.66 0.341 1.43 0.946 1.43c 0.088 0 0.165 -0.011 0.242 -0.033c -0.165 -0.088 -0.253 -0.242 -0.253 -0.451c 0 -0.341 0.165 -0.517 0.506 -0.517c 0.341 0 0.517 0.176 0.517 0.528c 0 0.495 -0.517 0.803 -1.012 0.803Z "/></symbol><symbol id="g7A75113CED2D41C4AEDB752ABDB169EA" overflow="visible"><path d="M 0 0m 3.2828125 0h -1.267578125v 5.306640625h -1.628515625v 1.10859375h 4.524609375v -1.10859375h -1.628515625v -5.306640625Z "/></symbol><symbol id="g11189D36A8ED0A9E003DFD239176016" overflow="visible"><path d="M 0 0m 4.73515625 0.236328125q -0.43828125 -0.18046875 -0.89375 -0.270703125q -0.45546875 -0.090234375 -0.9625 -0.090234375q -1.207421875 0 -1.845507813 0.646679688q -0.638085938 0.646679688 -0.638085938 1.862695313q 0 1.17734375 0.614453125 1.860546875q 0.614453125 0.683203125 1.67578125 0.683203125q 1.069921875 0 1.660742188 -0.633789063q 0.590820313 -0.633789063 0.590820313 -1.785351563v -0.511328125h -3.261328125q 0.004296875 -0.5671875 0.33515625 -0.846484375q 0.330859375 -0.279296875 0.98828125 -0.279296875q 0.433984375 0 0.855078125 0.124609375q 0.42109375 0.124609375 0.880859375 0.3953125v -1.155859375Z m -1.065625 2.70703125q -0.00859375 0.4984375 -0.255664063 0.754101563q -0.247070313 0.255664063 -0.728320313 0.255664063q -0.433984375 0 -0.691796875 -0.264257813q -0.2578125 -0.264257813 -0.305078125 -0.749804688l 1.980859375 0.004296875Z "/></symbol><symbol id="g7C3292C458A46A58B9B9833BA97D9587" overflow="visible"><path d="M 0 0m 4.258203125 4.662109375v -1.1q -0.348046875 0.2234375 -0.724023438 0.337304688q -0.375976563 0.113867188 -0.754101563 0.113867188q -0.42109375 0 -0.6359375 -0.122460938q -0.21484375 -0.122460938 -0.21484375 -0.363085938q 0 -0.34375 0.91953125 -0.55859375l 0.047265625 -0.012890625l 0.3609375 -0.0859375q 0.6875 -0.16328125 1.007617188 -0.526367188q 0.320117188 -0.363085938 0.320117188 -0.981835938q 0 -0.743359375 -0.487695313 -1.115039063q -0.487695313 -0.371679688 -1.467382813 -0.371679688q -0.433984375 0 -0.889453125 0.075195313q -0.45546875 0.075195313 -0.923828125 0.225585938v 1.1q 0.416796875 -0.236328125 0.848632813 -0.3609375q 0.431835938 -0.124609375 0.835742188 -0.124609375q 0.442578125 0 0.6703125 0.12890625q 0.227734375 0.12890625 0.227734375 0.373828125q 0 0.240625 -0.161132813 0.36953125q -0.161132813 0.12890625 -0.766992188 0.275l -0.348046875 0.07734375q -0.721875 0.16328125 -1.052734375 0.511328125q -0.330859375 0.348046875 -0.330859375 0.932421875q 0 0.69609375 0.502734375 1.0828125q 0.502734375 0.38671875 1.413671875 0.38671875q 0.408203125 0 0.814257813 -0.066601563q 0.406054688 -0.066601563 0.788476563 -0.199804688Z "/></symbol><symbol id="gB75E13C86ADCA88662C5D7AC943163C3" overflow="visible"><path d="M 0 0m 2.96484375 6.17890625v -1.36640625h 1.645703125v -0.966796875h -1.645703125v -2.27734375q 0 -0.322265625 0.156835938 -0.461914063q 0.156835938 -0.139648438 0.522070313 -0.139648438h 0.966796875v -0.966796875h -1.05703125q -1.0828125 0 -1.465234375 0.345898438q -0.382421875 0.345898438 -0.382421875 1.282617188v 2.2171875h -1.22890625v 0.966796875h 1.22890625v 1.36640625h 1.258984375Z "/></symbol><symbol id="g92EECDEFF4D0B4B994490A05B493B814" overflow="visible"><path d="M 0 0m 0.4296875 4.8125h 0.820703125l 1.396484375 -4.0390625l 1.40078125 4.0390625h 0.820703125l -1.71015625 -4.8125h -1.018359375l -1.71015625 4.8125Z "/></symbol><symbol id="g1A903C34409188F68C004DCF51BB982B" overflow="visible"><path d="M 0 0m 1.1 4.8125h 2.023828125v -4.198046875h 1.568359375v -0.614453125h -3.92734375v 0.614453125h 1.568359375v 3.58359375h -1.233203125v 0.614453125Z m 1.233203125 1.8734375h 0.790625v -1.001171875h -0.790625v 1.001171875Z "/></symbol><symbol id="g51312D5A75BF1E93D7C6B5CCB301AC0" overflow="visible"><path d="M 0 0m 4.71796875 0h -3.99609375v 6.415234375h 3.99609375v -1.1171875h -2.728515625v -1.38359375h 2.470703125v -1.1171875h -2.470703125v -1.680078125h 2.728515625v -1.1171875Z "/></symbol><symbol id="g7E7E6665B7F0AE46660C9C20644DB79" overflow="visible"><path d="M 0 0m 3.175390625 5.23359375v -0.42109375h 1.478125v -0.966796875h -1.478125v -3.845703125h -1.258984375v 3.845703125h -1.16875v 0.966796875h 1.16875v 0.33515625q 0 0.86796875 0.3609375 1.203125q 0.3609375 0.33515625 1.340625 0.33515625h 1.035546875v -0.966796875h -0.983984375q -0.28359375 0 -0.384570313 -0.103125q -0.100976563 -0.103125 -0.109570313 -0.382421875Z "/></symbol><symbol id="g281310CBD5B670ABC4C91FC64E8D0C6A" overflow="visible"><path d="M 0 0m 4.558984375 0.244921875q -0.31796875 -0.184765625 -0.683203125 -0.277148438q -0.365234375 -0.092382813 -0.786328125 -0.092382813q -1.112890625 0 -1.740234375 0.6703125q -0.62734375 0.6703125 -0.62734375 1.85625q 0 1.190234375 0.631640625 1.862695313q 0.631640625 0.672460938 1.74453125 0.672460938q 0.38671875 0 0.745507813 -0.090234375q 0.358789063 -0.090234375 0.715429688 -0.279296875v -1.1515625q -0.275 0.236328125 -0.603710938 0.363085938q -0.328710938 0.126757813 -0.681054688 0.126757813q -0.614453125 0 -0.9453125 -0.391015625q -0.330859375 -0.391015625 -0.330859375 -1.112890625q 0 -0.721875 0.330859375 -1.10859375q 0.330859375 -0.38671875 0.9453125 -0.38671875q 0.365234375 0 0.683203125 0.122460938q 0.31796875 0.122460938 0.6015625 0.371679688v -1.155859375Z "/></symbol><symbol id="g1570446F77F9A6C1B85605F46F92409E" overflow="visible"><path d="M 0 0m 1.364 1.419c 0 0.264 0.055 0.627 0.165 1.078h 0.539c 0.715 0 1.265 0.088 1.661 0.253c 0.363 0.154 0.605 0.374 0.726 0.649c 0.077 0.187 0.11 0.363 0.11 0.506c 0 0.605 -0.572 0.957 -1.188 0.957c -0.429 0 -0.858 -0.11 -1.287 -0.33c -0.847 -0.44 -1.584 -1.441 -1.584 -2.651c 0 -1.122 0.649 -2.002 1.738 -2.002c 0.583 0 1.1 0.143 1.551 0.418c 0.374 0.231 0.649 0.462 0.825 0.693c 0.077 0.099 0.11 0.176 0.11 0.209c 0 0.121 -0.055 0.187 -0.176 0.187c -0.055 0 -0.11 -0.044 -0.176 -0.132c -0.363 -0.484 -0.814 -0.792 -1.331 -0.924c -0.341 -0.088 -0.594 -0.132 -0.781 -0.132c -0.627 0 -0.902 0.594 -0.902 1.221Z m 2.761 2.486c 0 -0.726 -0.704 -1.089 -2.123 -1.089h -0.385c 0.209 0.726 0.517 1.21 0.935 1.441c 0.33 0.187 0.605 0.286 0.825 0.286c 0.396 0 0.748 -0.242 0.748 -0.638Z "/></symbol><symbol id="g521F2DDE78882B32DB463695F98C5705" overflow="visible"><path d="M 0 0m 2.646875 1.05703125l 1.130078125 5.358203125h 1.276171875l -1.525390625 -6.415234375h -1.757421875l -1.525390625 6.415234375h 1.276171875l 1.12578125 -5.358203125Z "/></symbol><symbol id="g82D23B6D5370404661A1780E66CA09E" overflow="visible"><path d="M 0 0m 3.0078125 2.26015625q -0.7046875 0 -0.983984375 -0.18046875q -0.279296875 -0.18046875 -0.279296875 -0.61875q 0 -0.3265625 0.193359375 -0.519921875q 0.193359375 -0.193359375 0.52421875 -0.193359375q 0.4984375 0 0.7734375 0.375976563q 0.275 0.375976563 0.275 1.050585938v 0.0859375h -0.502734375Z m 1.753125 0.485546875v -2.745703125h -1.250390625v 0.537109375q -0.227734375 -0.31796875 -0.584375 -0.48984375q -0.356640625 -0.171875 -0.786328125 -0.171875q -0.820703125 0 -1.278320313 0.433984375q -0.457617188 0.433984375 -0.457617188 1.21171875q 0 0.8421875 0.545703125 1.243945313q 0.545703125 0.401757813 1.688671875 0.401757813h 0.872265625v 0.210546875q 0 0.305078125 -0.221289063 0.461914063q -0.221289063 0.156835938 -0.650976563 0.156835938q -0.451171875 0 -0.874414063 -0.113867188q -0.423242188 -0.113867188 -0.883007813 -0.363085938v 1.07421875q 0.416796875 0.171875 0.846484375 0.253515625q 0.4296875 0.081640625 0.9109375 0.081640625q 1.173046875 0 1.647851563 -0.476953125q 0.474804688 -0.476953125 0.474804688 -1.705859375Z "/></symbol><symbol id="g11B715B086B5896FA56CD5C2E567D0DB" overflow="visible"><path d="M 0 0m 1.662890625 2.006640625v 3.7125h -1.276171875v 0.966796875h 2.53515625v -4.679296875q 0 -0.5671875 0.176171875 -0.803515625q 0.176171875 -0.236328125 0.597265625 -0.236328125h 1.00546875v -0.966796875h -1.3578125q -0.898046875 0 -1.2890625 0.4640625q -0.391015625 0.4640625 -0.391015625 1.542578125Z "/></symbol><symbol id="gC9CF2B268112D692AA5AABDD5E57E12A" overflow="visible"><path d="M 0 0m 0.6875 1.680078125v 3.132421875h 1.258984375v -2.9390625q 0 -0.519921875 0.14609375 -0.743359375q 0.14609375 -0.2234375 0.485546875 -0.2234375q 0.339453125 0 0.530664063 0.30078125q 0.191210938 0.30078125 0.191210938 0.8421875v 2.762890625h 1.258984375v -4.8125h -1.258984375v 0.71328125q -0.133203125 -0.399609375 -0.453320313 -0.61875q -0.320117188 -0.219140625 -0.771289063 -0.219140625q -0.6875 0 -1.037695313 0.45546875q -0.350195313 0.45546875 -0.350195313 1.34921875Z "/></symbol><symbol id="gBFCC2410A697C41E2DD3187C83DA8F3" overflow="visible"><path d="M 0 0m 2.3331 5.1128c -0.3311 -0.3234 -0.8239 -0.4851 -1.4938 -0.4851v -0.3388c 0.4543 0 0.8162 0.0693 1.0934 0.2002v -3.8346c 0 -0.1001 -0.0077 -0.1617 -0.0308 -0.1925c -0.0385 -0.0847 -0.2695 -0.1309 -0.693 -0.1309h -0.3157v -0.3311l 1.3706 0.0308l 1.3783 -0.0308v 0.3311h -0.3157c -0.4235 0 -0.6545 0.0462 -0.7007 0.1309c -0.0154 0.0308 -0.0231 0.0924 -0.0231 0.1925v 4.2119c 0 0.2079 -0.0308 0.2464 -0.2695 0.2464Z "/></symbol><symbol id="g30C36184EAFBF77DBD046B786F3331E" overflow="visible"><path d="M 0 0m 6.82 3.652c 0.154 0.429 0.462 0.66 0.913 0.671v 0.418c -0.341 -0.033 -0.627 -0.044 -0.836 -0.033l -1.056 0.033v -0.418c 0.418 -0.011 0.627 -0.176 0.627 -0.484c 0 -0.044 -0.011 -0.11 -0.044 -0.209l -0.957 -2.651l -1.034 2.904c -0.033 0.099 -0.044 0.154 -0.044 0.187c 0 0.165 0.209 0.253 0.638 0.253v 0.418l -1.177 -0.033c -0.22 -0.011 -0.561 0 -1.012 0.033v -0.418c 0.385 0 0.616 -0.055 0.693 -0.154c 0.033 -0.033 0.121 -0.22 0.242 -0.561l -0.891 -2.486l -0.99 2.772c -0.033 0.099 -0.055 0.154 -0.055 0.176c 0 0.165 0.22 0.253 0.649 0.253v 0.418l -1.232 -0.033l -1.056 0.033v -0.418c 0.539 0 0.682 0.011 0.803 -0.352l 1.375 -3.828c 0.066 -0.176 0.154 -0.264 0.264 -0.264c 0.121 0 0.209 0.077 0.264 0.242l 1.056 2.948l 1.067 -2.959c 0.055 -0.154 0.143 -0.231 0.264 -0.231c 0.077 0.011 0.165 0.088 0.253 0.231Z "/></symbol><symbol id="g7A15C53874C56177CC9533530FA2B070" overflow="visible"><path d="M 0 0m 3.454 4.565c 0.495 0 0.748 -0.385 0.748 -1.166v -2.53c 0 -0.209 -0.033 -0.341 -0.11 -0.385c -0.077 -0.044 -0.319 -0.055 -0.726 -0.055v -0.429l 1.265 0.033l 1.254 -0.033v 0.429c -0.352 0 -0.583 0.011 -0.693 0.044c -0.11 0.033 -0.154 0.11 -0.154 0.231v 2.079c 0 0.528 -0.011 0.891 -0.044 1.1c -0.11 0.671 -0.605 1.012 -1.474 1.012c -0.671 0 -1.177 -0.308 -1.518 -0.924v 3.663l -1.65 -0.121v -0.418c 0.396 0 0.638 -0.033 0.726 -0.099c 0.088 -0.066 0.121 -0.22 0.121 -0.473v -5.654c 0 -0.209 -0.044 -0.341 -0.121 -0.385c -0.077 -0.044 -0.319 -0.055 -0.726 -0.055v -0.429l 1.265 0.033l 1.254 -0.033v 0.429c -0.407 0 -0.638 0.011 -0.715 0.055c -0.077 0.044 -0.121 0.176 -0.121 0.385v 2.002c 0 0.891 0.561 1.694 1.419 1.694Z "/></symbol><symbol id="g30A11840F6D1B58D63FF228F63DFF50C" overflow="visible"><path d="M 0 0m 4.004 4.158c 0 0.429 -0.407 0.704 -0.836 0.704c -0.561 0 -0.99 -0.33 -1.276 -1.001v 1.001l -1.584 -0.121v -0.418c 0.385 0 0.616 -0.033 0.704 -0.099c 0.088 -0.066 0.132 -0.209 0.132 -0.462v -2.893c 0 -0.209 -0.033 -0.341 -0.11 -0.385c -0.077 -0.044 -0.319 -0.066 -0.726 -0.066v -0.418l 1.265 0.033c 0.462 0.011 0.935 0 1.408 -0.033v 0.418h -0.264c -0.363 0 -0.594 0.033 -0.671 0.088c -0.077 0.055 -0.11 0.187 -0.11 0.385v 1.661c 0 0.473 0.088 0.902 0.253 1.265c 0.22 0.473 0.539 0.715 0.968 0.726c -0.11 -0.11 -0.165 -0.242 -0.165 -0.396c 0 -0.341 0.165 -0.506 0.506 -0.506c 0.297 0 0.506 0.231 0.506 0.517Z "/></symbol><symbol id="g7FDD4349A49914F62F30F23AE9794251" overflow="visible"><path d="M 0 0m 5.797 4.103c 0 0.506 -0.495 0.759 -1.045 0.759c -0.473 0 -0.847 -0.253 -1.133 -0.759c -0.231 0.506 -0.616 0.759 -1.177 0.759c -0.539 0 -0.979 -0.253 -1.331 -0.748c -0.297 -0.429 -0.451 -0.748 -0.451 -0.957c 0 -0.099 0.055 -0.154 0.165 -0.154c 0.099 0 0.165 0.055 0.187 0.154c 0.209 0.638 0.671 1.386 1.408 1.386c 0.363 0 0.539 -0.231 0.539 -0.682c 0 -0.231 -0.198 -1.089 -0.583 -2.563c -0.187 -0.737 -0.517 -1.1 -0.99 -1.1c -0.154 0 -0.297 0.033 -0.418 0.088c 0.286 0.11 0.429 0.308 0.429 0.594c 0 0.286 -0.143 0.429 -0.44 0.429c -0.363 0 -0.638 -0.308 -0.638 -0.671c 0 -0.506 0.517 -0.759 1.056 -0.759c 0.462 0 0.836 0.253 1.133 0.759c 0.209 -0.506 0.605 -0.759 1.177 -0.759c 0.528 0 0.968 0.253 1.32 0.748c 0.297 0.429 0.451 0.748 0.451 0.957c 0 0.099 -0.055 0.154 -0.165 0.154c -0.099 0 -0.154 -0.055 -0.187 -0.154c -0.187 -0.627 -0.682 -1.386 -1.397 -1.386c -0.363 0 -0.55 0.22 -0.55 0.671c 0 0.143 0.055 0.451 0.176 0.946l 0.374 1.485c 0.209 0.825 0.55 1.243 1.034 1.243c 0.154 0 0.297 -0.033 0.418 -0.088c -0.297 -0.099 -0.44 -0.297 -0.44 -0.594c 0 -0.286 0.154 -0.429 0.451 -0.429c 0.352 0 0.627 0.319 0.627 0.671Z "/></symbol><symbol id="gB29CE2C0E4ED383285A85CCC21F60B8F" overflow="visible"><path d="M 0 0m 5.313 1.001v 0.649h -0.352v -0.649c 0 -0.429 -0.121 -0.649 -0.352 -0.649c -0.22 0 -0.352 0.275 -0.352 0.495v 2.167c 0 0.385 -0.044 0.671 -0.121 0.869c -0.264 0.649 -1.023 1.045 -1.793 1.045c -0.847 0 -1.683 -0.473 -1.683 -1.265c 0 -0.363 0.187 -0.55 0.55 -0.55c 0.363 0 0.539 0.176 0.539 0.539c 0 0.319 -0.165 0.506 -0.506 0.539c 0.242 0.275 0.605 0.418 1.078 0.418c 0.682 0 1.1 -0.627 1.1 -1.342v -0.363c -0.858 -0.055 -1.507 -0.187 -1.958 -0.396c -0.737 -0.341 -1.111 -0.814 -1.111 -1.441c 0 -0.286 0.11 -0.528 0.319 -0.715c 0.352 -0.319 0.836 -0.473 1.452 -0.473c 0.649 0 1.111 0.275 1.397 0.836c 0.077 -0.418 0.385 -0.781 0.858 -0.781c 0.583 0 0.935 0.462 0.935 1.067Z m -3.113 -0.803c -0.506 0 -0.924 0.374 -0.924 0.88c 0 1.023 1.067 1.463 2.145 1.518v -1.045c 0 -0.737 -0.484 -1.353 -1.221 -1.353Z "/></symbol><symbol id="g29E03738ED4E50AEAB304FB0E05CE245" overflow="visible"><path d="M 0 0m 3.278 -0.121c 0.682 0 1.265 0.242 1.738 0.737c 0.473 0.495 0.715 1.078 0.715 1.771c 0 0.671 -0.22 1.265 -0.671 1.76c -0.451 0.495 -1.001 0.748 -1.672 0.748c -0.539 0 -1.023 -0.209 -1.43 -0.638v 3.377l -1.65 -0.121v -0.418c 0.396 0 0.638 -0.033 0.726 -0.099c 0.088 -0.066 0.121 -0.22 0.121 -0.473v -6.523h 0.341l 0.363 0.638c 0.352 -0.506 0.825 -0.759 1.419 -0.759Z m -0.044 0.33c -0.451 0 -0.825 0.209 -1.1 0.638c -0.099 0.143 -0.143 0.297 -0.143 0.44v 2.233c 0 0.143 0.033 0.264 0.11 0.374c 0.319 0.451 0.726 0.671 1.243 0.671c 0.451 0 0.814 -0.22 1.1 -0.671c 0.198 -0.33 0.297 -0.825 0.297 -1.496c 0 -1.188 -0.418 -2.189 -1.507 -2.189Z "/></symbol><symbol id="g3496F6D22D5A0120AA23058869EF1B09" overflow="visible"><path d="M 0 0m 4.268 3.894c 0 -0.055 -0.022 -0.132 -0.066 -0.242l -1.056 -2.651l -1.177 2.915c -0.044 0.099 -0.066 0.154 -0.066 0.165c 0 0.165 0.209 0.242 0.627 0.242v 0.418l -1.232 -0.033c -0.264 -0.011 -0.627 0 -1.089 0.033v -0.418c 0.616 0 0.715 0.022 0.869 -0.374l 1.562 -3.839c 0.055 -0.154 0.143 -0.231 0.264 -0.231c 0.121 0 0.209 0.077 0.264 0.231l 1.419 3.509c 0.044 0.121 0.088 0.22 0.143 0.308c 0.154 0.264 0.44 0.396 0.858 0.396v 0.418c -0.363 -0.033 -0.649 -0.044 -0.858 -0.033l -0.979 0.033v -0.418c 0.319 -0.011 0.517 -0.143 0.517 -0.429Z "/></symbol><symbol id="gE4D46F1D17F1B65EB6D4E3B2291CCF8F" overflow="visible"><path d="M 0 0m 3.652 1.386v 0.66h -0.352v -0.638c 0 -0.55 -0.198 -1.166 -0.682 -1.166c -0.451 0 -0.671 0.374 -0.671 1.122v 2.981h 1.529v 0.418h -1.529v 2.002h -0.352c -0.011 -0.363 -0.044 -0.682 -0.121 -0.968c -0.187 -0.726 -0.616 -1.1 -1.265 -1.133v -0.319h 0.913v -2.959c 0 -0.649 0.198 -1.067 0.583 -1.276c 0.297 -0.154 0.572 -0.231 0.847 -0.231c 0.726 0 1.1 0.726 1.1 1.507Z "/></symbol><symbol id="g316D45BB6425B2B3622251A815E109FB" overflow="visible"><path d="M 0 0m 3.96 1.43c 0 0.836 -0.572 1.364 -1.705 1.584c -0.517 0.099 -0.847 0.22 -1.023 0.341c -0.176 0.121 -0.264 0.297 -0.264 0.506c 0 0.517 0.385 0.77 1.155 0.77c 0.748 0 1.155 -0.418 1.21 -1.265c 0.011 -0.088 0.066 -0.132 0.176 -0.132c 0.121 0 0.187 0.099 0.187 0.297v 1.089c 0 0.209 -0.055 0.308 -0.165 0.308c -0.121 0 -0.286 -0.198 -0.396 -0.286c -0.275 0.187 -0.616 0.286 -1.012 0.286c -0.979 0 -1.76 -0.44 -1.76 -1.375c 0 -0.374 0.154 -0.693 0.473 -0.946c 0.385 -0.319 0.748 -0.385 1.441 -0.506c 0.715 -0.143 1.078 -0.462 1.078 -0.957c 0 -0.627 -0.385 -0.946 -1.166 -0.946c -0.759 0 -1.243 0.506 -1.452 1.507c -0.033 0.143 -0.088 0.22 -0.187 0.22c -0.121 0 -0.187 -0.11 -0.187 -0.319v -1.419c 0 -0.209 0.055 -0.308 0.165 -0.308c 0.033 0 0.088 0.033 0.176 0.11c 0.198 0.176 0.11 0.143 0.308 0.341c 0.319 -0.297 0.715 -0.451 1.177 -0.451c 1.045 0 1.771 0.539 1.771 1.551Z "/></symbol><symbol id="g360B7012FB5D77E140EC2FBBBED66DC1" overflow="visible"><path d="M 0 0m 4.945703125 3.484765625q -0.20625 0.1890625 -0.483398438 0.28359375q -0.277148438 0.09453125 -0.608007813 0.09453125q -0.399609375 0 -0.698242188 -0.139648438q -0.298632813 -0.139648438 -0.461914063 -0.406054688q -0.103125 -0.16328125 -0.143945313 -0.3953125q -0.040820313 -0.23203125 -0.040820313 -0.7046875v -2.2171875h -1.258984375v 4.8125h 1.258984375v -0.74765625q 0.184765625 0.4125 0.5671875 0.638085938q 0.382421875 0.225585938 0.89375 0.225585938q 0.2578125 0 0.504882813 -0.062304688q 0.247070313 -0.062304688 0.470507813 -0.182617188v -1.198828125Z "/></symbol><symbol id="g9C5E01F97914784D6046F24928CB3533" overflow="visible"><path d="M 0 0m 3.498 -2.728c 0.099 0 0.154 0.055 0.154 0.154c 0 0.033 -0.022 0.077 -0.055 0.121c -0.572 0.44 -1.034 1.166 -1.375 2.167c -0.297 0.869 -0.451 1.727 -0.451 2.574v 0.924c 0 0.847 0.154 1.705 0.451 2.574c 0.341 1.001 0.803 1.727 1.375 2.167c 0.033 0.033 0.055 0.077 0.055 0.121c 0 0.099 -0.055 0.154 -0.154 0.154c -0.011 0 -0.044 -0.011 -0.077 -0.033c -0.66 -0.506 -1.21 -1.254 -1.661 -2.255c -0.429 -0.957 -0.649 -1.859 -0.649 -2.728v -0.924c 0 -0.869 0.22 -1.771 0.649 -2.728c 0.451 -1.001 1.001 -1.749 1.661 -2.255c 0.033 -0.022 0.066 -0.033 0.077 -0.033Z "/></symbol><symbol id="gF2E9DE7382F8BB82A14E9A8C0CA6C0F0" overflow="visible"><path d="M 0 0m 1.529 1.166c -0.352 0 -0.583 -0.264 -0.583 -0.616c 0 -0.33 0.253 -0.605 0.583 -0.605c 0.154 0 0.286 0.044 0.385 0.143l 0.011 -0.088c 0 -0.693 -0.231 -1.287 -0.693 -1.76c -0.077 -0.088 -0.121 -0.154 -0.121 -0.198c 0 -0.11 0.044 -0.165 0.143 -0.165c 0.099 0 0.231 0.132 0.418 0.385c 0.374 0.528 0.561 1.111 0.561 1.738c 0 0.583 -0.198 1.166 -0.704 1.166Z "/></symbol><symbol id="gE9FB6D24CF34BB489DEF6497581F7D30" overflow="visible"><path d="M 0 0m 4.601953125 3.123828125v -3.123828125h -1.250390625v 2.93046875q 0 0.52421875 -0.148242188 0.749804688q -0.148242188 0.225585938 -0.483398438 0.225585938q -0.339453125 0 -0.534960938 -0.305078125q -0.195507813 -0.305078125 -0.195507813 -0.846484375v -2.754296875h -1.250390625v 4.8125h 1.250390625v -0.721875q 0.133203125 0.399609375 0.45546875 0.61875q 0.322265625 0.219140625 0.777734375 0.219140625q 0.683203125 0 1.03125 -0.453320313q 0.348046875 -0.453320313 0.348046875 -1.351367188Z "/></symbol><symbol id="gCB4E91739EACE7368E3223F2D0EF6CCC" overflow="visible"><path d="M 0 0m 4.62 3.894c 0 0.627 -0.638 0.968 -1.32 0.968c -0.693 0 -1.188 -0.209 -1.485 -0.627c -0.253 -0.363 -0.385 -0.693 -0.385 -0.99c 0 -0.583 0.385 -0.957 1.144 -1.122c 0.319 -0.055 0.561 -0.132 0.748 -0.22c 0.231 -0.099 0.341 -0.286 0.341 -0.55c 0 -0.198 -0.088 -0.418 -0.275 -0.671c -0.231 -0.319 -0.638 -0.484 -1.221 -0.484c -0.594 0 -0.979 0.165 -1.155 0.484c 0.352 -0.011 0.649 0.275 0.649 0.627c 0 0.275 -0.143 0.418 -0.44 0.418c -0.396 0 -0.649 -0.363 -0.649 -0.759c 0 -0.726 0.792 -1.089 1.584 -1.089c 0.825 0 1.419 0.242 1.771 0.737c 0.297 0.407 0.44 0.77 0.44 1.1c 0 0.473 -0.231 0.825 -0.682 1.056c -0.341 0.121 -0.605 0.198 -0.77 0.231c -0.385 0.099 -0.781 0.132 -0.781 0.605c 0 0.583 0.55 0.935 1.166 0.935c 0.462 0 0.759 -0.143 0.902 -0.418c -0.242 -0.044 -0.495 -0.253 -0.495 -0.528c 0 -0.231 0.121 -0.352 0.374 -0.352c 0.341 0 0.539 0.308 0.539 0.649Z "/></symbol><symbol id="g6A7F5A83C1AD46379FEDFD85DC0924EE" overflow="visible"><path d="M 0 0m 1.903 6.952l -1.364 -5.643c -0.033 -0.154 -0.055 -0.286 -0.055 -0.385c 0 -0.583 0.429 -1.045 1.012 -1.045c 0.539 0 0.924 0.572 1.155 1.716c 0 0.099 -0.055 0.154 -0.176 0.154c -0.088 0 -0.154 -0.077 -0.187 -0.231c -0.22 -0.869 -0.473 -1.309 -0.77 -1.309c -0.187 0 -0.275 0.154 -0.275 0.451c 0 0.165 0.022 0.341 0.066 0.517l 1.529 6.292v 0.044c -0.033 0.077 -0.099 0.121 -0.176 0.121c -0.352 0 -1.166 -0.099 -1.298 -0.11c -0.165 -0.022 -0.242 -0.11 -0.242 -0.275c 0 -0.099 0.099 -0.154 0.308 -0.154c 0.187 0 0.473 0 0.473 -0.143Z "/></symbol><symbol id="gB4F8E97E8EFD98CA94EE40D9890E0542" overflow="visible"><path d="M 0 0m 4.4891 2.8105c 0 0.3927 -0.4004 0.5852 -0.8162 0.5852c -0.3465 0 -0.6314 -0.1694 -0.847 -0.5082c -0.1848 0.3388 -0.4928 0.5082 -0.9163 0.5082c -0.2849 0 -0.5852 -0.1232 -0.8855 -0.3773c -0.3157 -0.2618 -0.4774 -0.5313 -0.4774 -0.8085c 0 -0.0847 0.0539 -0.1309 0.154 -0.1309c 0.0847 0 0.1386 0.0462 0.1771 0.1463c 0.1386 0.4158 0.5159 0.9009 1.0087 0.9009c 0.2849 0 0.4235 -0.154 0.4235 -0.4697c 0 -0.1001 -0.0539 -0.3619 -0.154 -0.7854l -0.2618 -1.0318c -0.0693 -0.2926 -0.3542 -0.6468 -0.6853 -0.6468c -0.1309 0 -0.2464 0.0231 -0.3388 0.077c 0.154 0.0693 0.2926 0.2387 0.2926 0.4158c 0 0.1848 -0.1463 0.3157 -0.3311 0.3157c -0.2618 0 -0.462 -0.231 -0.462 -0.4928c 0 -0.385 0.4081 -0.5852 0.8239 -0.5852c 0.3542 0 0.6391 0.1694 0.847 0.5082c 0.1848 -0.3388 0.4851 -0.5082 0.9086 -0.5082c 0.4235 0 0.7623 0.1694 1.0241 0.5082c 0.2233 0.3003 0.3388 0.5313 0.3388 0.6776c 0 0.0847 -0.0462 0.1309 -0.1463 0.1309c -0.0847 0 -0.1463 -0.0539 -0.1771 -0.154c -0.1309 -0.4081 -0.5236 -0.8932 -1.0087 -0.8932c -0.2849 0 -0.4312 0.154 -0.4312 0.462c 0 0.1155 0.1309 0.693 0.3927 1.7171c 0.1309 0.5005 0.3619 0.7546 0.7084 0.7546l 0.0693 -0.0077c 0.0924 0 0.1848 -0.0231 0.2695 -0.0616c -0.1925 -0.0847 -0.2849 -0.2233 -0.2849 -0.4235c 0 -0.1848 0.1463 -0.3157 0.3311 -0.3157c 0.2618 0 0.4543 0.231 0.4543 0.4928Z "/></symbol><symbol id="g44903F1336FFA3AC82F2FDAECC383B22" overflow="visible"><path d="M 0 0m 0.858 -2.695c 0.66 0.506 1.21 1.254 1.661 2.255c 0.429 0.957 0.649 1.859 0.649 2.728v 0.924c 0 0.869 -0.22 1.771 -0.649 2.728c -0.451 1.001 -1.001 1.749 -1.661 2.255c -0.033 0.022 -0.066 0.033 -0.077 0.033c -0.099 0 -0.154 -0.055 -0.154 -0.154c 0 -0.044 0.022 -0.088 0.055 -0.121c 0.572 -0.44 1.034 -1.166 1.375 -2.167c 0.297 -0.869 0.451 -1.727 0.451 -2.574v -0.924c 0 -0.847 -0.154 -1.705 -0.451 -2.574c -0.341 -1.001 -0.803 -1.727 -1.375 -2.167c -0.033 -0.044 -0.055 -0.088 -0.055 -0.121c 0 -0.099 0.055 -0.154 0.154 -0.154c 0.011 0 0.044 0.011 0.077 0.033Z "/></symbol><symbol id="g24C97E338F6D0205BFA2AEE81EF0C1DC" overflow="visible"><path d="M 0 0m 2.1868 4.2273c -0.1925 0 -0.3234 -0.077 -0.3927 -0.2387l -1.2936 -3.2494h 0.3465l 1.7094 2.8259c 0.0385 0.0693 0.0616 0.1463 0.0616 0.231c 0 0.231 -0.2002 0.4312 -0.4312 0.4312Z "/></symbol><symbol id="g8A57EFEDB933FFFB4BE025C76B616669" overflow="visible"><path d="M 0 0m 1.8755 3.487c -0.1595 0 -0.2695 -0.0715 -0.33 -0.209l -1.1055 -2.761h 0.2915l 1.452 2.409c 0.0385 0.066 0.055 0.132 0.055 0.1925c 0 0.198 -0.165 0.3685 -0.363 0.3685Z "/></symbol><symbol id="gC3FFEC7494DDA89C73345AE5B896CB0C" overflow="visible"><path d="M 0 0m 2.563 -2.222h -0.814v 9.944h 0.814c 0.165 0 0.253 0.088 0.253 0.264c 0 0.176 -0.088 0.264 -0.253 0.264h -1.309v -11h 1.309c 0.165 0 0.253 0.088 0.253 0.264c 0 0.132 -0.121 0.264 -0.253 0.264Z "/></symbol><symbol id="gAD3130B59A76219CC465C1A9B30EF0EE" overflow="visible"><path d="M 0 0m 10.01 2.574c 0.077 0.033 0.121 0.099 0.121 0.176c 0 0.077 -0.044 0.143 -0.121 0.176c -0.528 0.176 -1.023 0.55 -1.485 1.122c -0.308 0.385 -0.517 0.836 -0.616 1.353c -0.033 0.143 -0.121 0.209 -0.264 0.209c -0.176 0 -0.264 -0.088 -0.264 -0.275l 0.011 -0.022v -0.011c 0.187 -0.957 0.671 -1.716 1.474 -2.288h -7.722v 2.332c 0 0.176 -0.088 0.264 -0.264 0.264c -0.176 0 -0.264 -0.088 -0.264 -0.264v -5.192c 0 -0.187 0.088 -0.275 0.264 -0.275c 0.176 0 0.264 0.088 0.264 0.275v 2.332h 7.722c -0.803 -0.572 -1.287 -1.331 -1.474 -2.288v -0.011l -0.011 -0.022c 0 -0.187 0.088 -0.275 0.264 -0.275c 0.143 0 0.231 0.066 0.264 0.209c 0.099 0.517 0.308 0.968 0.616 1.353c 0.462 0.572 0.957 0.946 1.485 1.122Z "/></symbol><symbol id="gF7909E3CC0A06A4ECCF849B728E5A97E" overflow="visible"><path d="M 0 0m 0.495 -2.75h 1.309v 11h -1.309c -0.165 0 -0.253 -0.088 -0.253 -0.264c 0 -0.176 0.088 -0.264 0.253 -0.264h 0.814v -9.944h -0.814c -0.165 0 -0.253 -0.088 -0.253 -0.264c 0 -0.176 0.088 -0.264 0.253 -0.264Z "/></symbol><symbol id="g2F860E3C418A9398BD0A0D6F00ED0578" overflow="visible"><path d="M 0 0m 7.821 6.567c -0.055 0 -0.121 -0.033 -0.176 -0.088l -1.122 -1.111c -0.638 0.55 -1.386 0.825 -2.244 0.825c -0.957 0 -1.771 -0.33 -2.442 -1.001c -0.671 -0.671 -1.001 -1.485 -1.001 -2.442c 0 -0.858 0.275 -1.606 0.825 -2.244l -1.111 -1.122c -0.055 -0.055 -0.088 -0.121 -0.088 -0.176c 0 -0.132 0.143 -0.275 0.275 -0.275c 0.055 0 0.121 0.033 0.176 0.088l 1.122 1.111c 0.638 -0.55 1.386 -0.825 2.244 -0.825c 0.957 0 1.771 0.33 2.442 1.001c 0.671 0.671 1.001 1.485 1.001 2.442c 0 0.858 -0.275 1.606 -0.825 2.244l 1.111 1.122c 0.055 0.055 0.088 0.121 0.088 0.176c 0 0.132 -0.143 0.275 -0.275 0.275Z m -1.298 -1.947c 0.451 -0.539 0.682 -1.166 0.682 -1.87c 0 -0.814 -0.275 -1.496 -0.847 -2.068c -0.572 -0.572 -1.265 -0.858 -2.079 -0.858c -0.715 0 -1.331 0.231 -1.87 0.682Z m -2.244 1.056c 0.715 0 1.331 -0.231 1.87 -0.682l -4.114 -4.114c -0.451 0.539 -0.682 1.166 -0.682 1.87c 0 0.814 0.275 1.496 0.847 2.068c 0.572 0.572 1.265 0.858 2.079 0.858Z "/></symbol><symbol id="gB3A9917DB6D66B13D3CDFF1EBB5097D1" overflow="visible"><path d="M 0 0m 0.946 -0.143c 0.121 0 0.253 0.077 0.396 0.242l 2.563 3.036c 0.385 -1.056 0.671 -1.848 0.858 -2.387c 0.121 -0.341 0.198 -0.539 0.253 -0.616c 0.121 -0.165 0.33 -0.253 0.616 -0.253h 0.231c 0.11 0.011 0.165 0.055 0.165 0.154c 0 0.022 -0.022 0.066 -0.066 0.121c -0.077 0.077 -0.154 0.242 -0.242 0.495l -2.211 6.182c -0.187 0.539 -0.638 0.803 -1.353 0.803c -0.165 0 -0.242 -0.055 -0.242 -0.165c 0 -0.077 0.066 -0.132 0.187 -0.165c 0.154 -0.044 0.253 -0.099 0.308 -0.165c 0.077 -0.088 0.187 -0.308 0.308 -0.66l 1.045 -2.937l -2.97 -2.959c -0.143 -0.143 -0.209 -0.264 -0.209 -0.363c 0 -0.198 0.165 -0.363 0.363 -0.363Z "/></symbol><symbol id="g8AF8F2BC2B33BC6B311ED96E17728B80" overflow="visible"><path d="M 0 0m 2.112 0.583c 0 0.319 -0.264 0.583 -0.583 0.583c -0.319 0 -0.583 -0.264 -0.583 -0.583c 0 -0.319 0.264 -0.583 0.583 -0.583c 0.319 0 0.583 0.264 0.583 0.583Z "/></symbol><symbol id="g8CAF94BAEF81D91CC1530A3D4F0B18EF" overflow="visible"><path d="M 0 0m 6.072 6.963c 0 0.484 -0.473 0.792 -0.99 0.792c -0.682 0 -1.155 -0.44 -1.408 -1.309c -0.055 -0.198 -0.176 -0.759 -0.352 -1.683h -0.715c -0.242 0 -0.363 -0.011 -0.363 -0.242c 0 -0.121 0.11 -0.176 0.341 -0.176h 0.66l -0.803 -4.257c -0.121 -0.627 -0.231 -1.089 -0.33 -1.397c -0.132 -0.407 -0.319 -0.616 -0.561 -0.616c -0.165 0 -0.297 0.044 -0.418 0.121c 0.352 0.055 0.528 0.264 0.528 0.616c 0 0.286 -0.143 0.429 -0.44 0.429c -0.374 0 -0.638 -0.33 -0.638 -0.704c 0 -0.484 0.451 -0.792 0.968 -0.792c 0.275 0 0.528 0.11 0.737 0.341c 0.352 0.363 0.627 0.88 0.825 1.573c 0.121 0.429 0.231 0.847 0.308 1.265l 0.638 3.421h 0.902c 0.253 0 0.363 0.011 0.363 0.264c 0 0.099 -0.11 0.154 -0.33 0.154h -0.847c 0.066 0.451 0.374 2.112 0.473 2.321c 0.11 0.231 0.264 0.341 0.462 0.341c 0.165 0 0.308 -0.044 0.429 -0.121c -0.341 -0.077 -0.517 -0.275 -0.517 -0.616c 0 -0.286 0.143 -0.429 0.44 -0.429c 0.374 0 0.638 0.33 0.638 0.704Z "/></symbol><symbol id="g313E46022A35FE004C34D0F33FA6CF9" overflow="visible"><path d="M 0 0m 3.388 4.862c -0.759 0 -1.452 -0.33 -2.046 -0.979c -0.594 -0.649 -0.891 -1.364 -0.891 -2.134c 0 -1.056 0.715 -1.87 1.771 -1.87c 0.77 0 1.452 0.33 2.046 0.979c 0.594 0.649 0.891 1.353 0.891 2.134c 0 1.067 -0.704 1.87 -1.771 1.87Z m 0.891 -1.452c 0 -0.253 -0.055 -0.605 -0.165 -1.067c -0.231 -0.913 -0.605 -1.54 -1.122 -1.881c -0.264 -0.176 -0.517 -0.264 -0.759 -0.264c -0.594 0 -0.902 0.517 -0.902 1.144c 0 0.638 0.374 1.826 0.627 2.222c 0.418 0.649 0.891 0.979 1.419 0.979c 0.594 0 0.902 -0.506 0.902 -1.133Z "/></symbol><symbol id="gFCA8B7969079D7A79412C4845E7994CD" overflow="visible"><path d="M 0 0m 4.719 6.952l -0.649 -2.673c -0.231 0.407 -0.55 0.616 -0.979 0.616c -0.715 0 -1.342 -0.363 -1.892 -1.1c -0.506 -0.682 -0.759 -1.397 -0.759 -2.134c 0 -0.968 0.561 -1.782 1.485 -1.782c 0.473 0 0.935 0.253 1.375 0.77c 0.121 -0.418 0.495 -0.77 1.012 -0.77c 0.759 0 1.001 0.902 1.166 1.716c 0 0.099 -0.055 0.154 -0.165 0.154c -0.099 0 -0.165 -0.077 -0.198 -0.231c -0.22 -0.869 -0.484 -1.309 -0.781 -1.309c -0.187 0 -0.286 0.154 -0.286 0.451c 0 0.165 0.022 0.341 0.066 0.517l 1.562 6.292v 0.044c -0.033 0.077 -0.099 0.121 -0.187 0.121c -0.253 0 -0.715 -0.044 -1.375 -0.121c -0.121 -0.011 -0.187 -0.099 -0.187 -0.253c 0 -0.11 0.099 -0.165 0.297 -0.165c 0.209 0 0.495 0.011 0.495 -0.143Z m -0.968 -2.816c 0.11 -0.231 0.165 -0.385 0.165 -0.484c -0.011 -0.044 -0.022 -0.099 -0.033 -0.176l -0.539 -2.134c -0.033 -0.121 -0.11 -0.253 -0.209 -0.385c -0.407 -0.495 -0.803 -0.748 -1.188 -0.748c -0.429 0 -0.649 0.33 -0.649 0.979c 0 0.264 0.066 0.66 0.198 1.188c 0.231 0.935 0.561 1.573 0.968 1.914c 0.22 0.187 0.429 0.275 0.638 0.275c 0.297 0 0.517 -0.143 0.649 -0.429Z "/></symbol><symbol id="gA26959CC7A08E8EC12D9E5FDB3CAF766" overflow="visible"><path d="M 0 0m 2.646875 5.255078125l -0.597265625 -2.625390625h 1.198828125l -0.6015625 2.625390625Z m -0.7734375 1.16015625h 1.551171875l 1.731640625 -6.415234375h -1.267578125l -0.3953125 1.585546875h -1.697265625l -0.38671875 -1.585546875h -1.267578125l 1.731640625 6.415234375Z "/></symbol><symbol id="g42E72C06CADF56A793607B8210F158C5" overflow="visible"><path d="M 0 0m 1.89921875 0.67890625v -2.509375h -1.2546875v 6.64296875h 1.2546875v -0.721875q 0.19765625 0.416796875 0.519921875 0.62734375q 0.322265625 0.210546875 0.75625 0.210546875q 0.825 0 1.28046875 -0.66171875q 0.45546875 -0.66171875 0.45546875 -1.86484375q 0 -1.2203125 -0.461914063 -1.8734375q -0.461914063 -0.653125 -1.316992188 -0.653125q -0.38671875 0 -0.693945313 0.199804688q -0.307226563 0.199804688 -0.539257813 0.603710938Z m 1.753125 1.731640625q 0 0.69609375 -0.23203125 1.09140625q -0.23203125 0.3953125 -0.640234375 0.3953125q -0.408203125 0 -0.64453125 -0.3953125q -0.236328125 -0.3953125 -0.236328125 -1.09140625q 0 -0.69609375 0.236328125 -1.09140625q 0.236328125 -0.3953125 0.64453125 -0.3953125q 0.408203125 0 0.640234375 0.3953125q 0.23203125 0.3953125 0.23203125 1.09140625Z "/></symbol><symbol id="g1191ED62F436B58C75B652BB46FBF60F" overflow="visible"><path d="M 0 0m 4.18 -3.817c 0.11 0 0.165 0.055 0.165 0.165c 0 0.055 -0.022 0.099 -0.055 0.132c -0.671 0.517 -1.21 1.364 -1.617 2.552c -0.352 1.023 -0.528 2.035 -0.528 3.014v 1.408c 0 0.979 0.176 1.991 0.528 3.014c 0.407 1.188 0.946 2.035 1.617 2.552c 0.033 0.033 0.055 0.077 0.055 0.132c 0 0.11 -0.055 0.165 -0.165 0.165c -0.022 0 -0.055 -0.011 -0.088 -0.033c -0.77 -0.583 -1.408 -1.463 -1.914 -2.64c -0.495 -1.111 -0.737 -2.178 -0.737 -3.19v -1.408c 0 -1.012 0.242 -2.079 0.737 -3.19c 0.506 -1.177 1.144 -2.057 1.914 -2.64c 0.033 -0.022 0.066 -0.033 0.088 -0.033Z "/></symbol><symbol id="g3BAF23AB431BDA7FCE4D7083470CFBD3" overflow="visible"><path d="M 0 0m 2.739 -0.121c 0.682 0 1.254 0.242 1.727 0.726c 0.473 0.484 0.715 1.067 0.715 1.749c 0 0.693 -0.231 1.298 -0.693 1.804c -0.462 0.506 -1.045 0.77 -1.738 0.77c -0.693 0 -1.265 -0.264 -1.738 -0.77c -0.473 -0.506 -0.704 -1.111 -0.704 -1.804c 0 -0.682 0.231 -1.265 0.704 -1.749c 0.473 -0.484 1.056 -0.726 1.727 -0.726Z m 0.011 0.352c -0.528 0 -0.924 0.231 -1.199 0.704c -0.176 0.308 -0.264 0.814 -0.264 1.507c 0 0.671 0.088 1.155 0.253 1.463c 0.264 0.473 0.66 0.704 1.199 0.704c 0.517 0 0.913 -0.231 1.188 -0.682c 0.187 -0.308 0.275 -0.803 0.275 -1.485c 0 -1.276 -0.374 -2.211 -1.452 -2.211Z "/></symbol><symbol id="gBA5B8536F66C0740646C0BF4438FCF64" overflow="visible"><path d="M 0 0m 3.278 -0.143c 0.682 0 1.265 0.242 1.738 0.737c 0.473 0.495 0.715 1.078 0.715 1.771c 0 0.671 -0.22 1.243 -0.649 1.727c -0.451 0.517 -1.001 0.77 -1.661 0.77c -0.561 0 -1.045 -0.22 -1.463 -0.649v 0.649l -1.65 -0.121v -0.418c 0.407 0 0.649 -0.022 0.726 -0.077c 0.077 -0.055 0.121 -0.198 0.121 -0.429v -5.082c 0 -0.209 -0.044 -0.341 -0.121 -0.385c -0.077 -0.044 -0.319 -0.055 -0.726 -0.055v -0.429l 1.254 0.033l 1.265 -0.033v 0.429c -0.407 0 -0.638 0.011 -0.715 0.055c -0.077 0.044 -0.121 0.176 -0.121 0.385v 1.749c 0.242 -0.341 0.715 -0.627 1.287 -0.627Z m 0.066 4.642c 0.451 0 0.803 -0.253 1.078 -0.759c 0.209 -0.429 0.319 -0.88 0.319 -1.375c 0 -0.517 -0.121 -0.99 -0.363 -1.419c -0.286 -0.517 -0.671 -0.77 -1.144 -0.77c -0.462 0 -0.825 0.22 -1.1 0.649c -0.099 0.143 -0.143 0.286 -0.143 0.429v 2.409c 0.319 0.561 0.77 0.836 1.353 0.836Z "/></symbol><symbol id="gA18F762FFFFE399C9BA1DB0D10B3D31E" overflow="visible"><path d="M 0 0m 4.6662 3.0877c 0.0231 0.0462 0.0385 0.0847 0.0385 0.1078c 0 0.0847 -0.0539 0.1232 -0.154 0.1232c -0.0693 0 -0.1155 -0.0154 -0.1386 -0.0539c -0.3542 -0.616 -0.6776 -1.3013 -0.9625 -2.0559c -0.0539 0.5005 -0.2541 1.1242 -0.462 1.5015c -0.2618 0.4543 -0.6237 0.6853 -1.0934 0.6853c -0.3927 0 -0.7469 -0.1463 -1.0703 -0.4466c -0.2002 -0.1925 -0.5621 -0.6853 -0.5621 -0.9548c 0 -0.0847 0.0539 -0.1232 0.154 -0.1232c 0.077 0 0.1309 0.0539 0.1694 0.154c 0.1386 0.4004 0.6622 0.7007 1.2012 0.7007c 0.9009 0 1.3552 -0.6545 1.3552 -1.9712c 0 -0.2464 -0.0154 -0.4235 -0.0539 -0.539c -0.2695 -0.8624 -0.4004 -1.4091 -0.4004 -1.6478c 0 -0.1463 0.0539 -0.2156 0.154 -0.2156c 0.0308 0 0.0539 0.0077 0.077 0.0154c 0.0693 0.0231 0.1386 0.1617 0.2156 0.4004c 0.1463 0.4851 0.2387 0.9548 0.2926 1.4168c 0.0231 0.2233 0.231 0.77 0.616 1.6478c 0.1771 0.4158 0.385 0.8316 0.6237 1.2551Z "/></symbol><symbol id="g90C70798A55D47911C9509EA3A2AC8D8" overflow="visible"><path d="M 0 0m 0.946 -3.784c 0.77 0.583 1.408 1.463 1.914 2.64c 0.495 1.111 0.737 2.178 0.737 3.19v 1.408c 0 1.012 -0.242 2.079 -0.737 3.19c -0.506 1.177 -1.144 2.057 -1.914 2.64c -0.033 0.022 -0.066 0.033 -0.088 0.033c -0.11 0 -0.165 -0.055 -0.165 -0.165c 0 -0.055 0.022 -0.099 0.055 -0.132c 0.671 -0.517 1.21 -1.364 1.617 -2.552c 0.352 -1.023 0.528 -2.035 0.528 -3.014v -1.408c 0 -0.979 -0.176 -1.991 -0.528 -3.014c -0.407 -1.188 -0.946 -2.035 -1.617 -2.552c -0.033 -0.033 -0.055 -0.077 -0.055 -0.132c 0 -0.11 0.055 -0.165 0.165 -0.165c 0.022 0 0.055 0.011 0.088 0.033Z "/></symbol></defs></svg>