<svg viewBox="0 0 397.1118875 43.2368" width="397.1118875pt" height="43.2368pt" xmlns="http://www.w3.org/2000/svg" xmlns:xlink="http://www.w3.org/1999/xlink" xmlns:h5="http://www.w3.org/1999/xhtml"><path fill="#ffffff" fill-rule="nonzero" d="M 0 0v 43.2368h 397.1118875v -43.2368Z "/><g transform="matrix(1 0 0 -1 1 24.3684)"><use xlink:href="#g46F76533A45DB4C11A9843577693DDC7" x="0" y="0" fill="#000000" fill-rule="nonzero"/><use xlink:href="#g1EF7D0770C42778A4BEBEDA87EE7829A" x="5.335" y="0" fill="#000000" fill-rule="nonzero"/><use xlink:href="#gCB4E91739EACE7368E3223F2D0EF6CCC" x="9.13" y="0" fill="#000000" fill-rule="nonzero"/><use xlink:href="#g1EF7D0770C42778A4BEBEDA87EE7829A" x="14.289" y="0" fill="#000000" fill-rule="nonzero"/><use xlink:href="#g293C48F3C6D5CEB2943C0E5CE10C76D3" x="18.084" y="0" fill="#000000" fill-rule="nonzero"/></g><g transform="matrix(1 0 0 -1 23.055 24.3684)"><use xlink:href="#g9C5E01F97914784D6046F24928CB3533" x="0" y="0" fill="#000000" fill-rule="nonzero"/></g><g transform="matrix(1 0 0 -1 27.334 24.3684)"><use xlink:href="#g92AE00E454ABE2A3B4DC14B5CA8FBE9" x="0" y="0" fill="#000000" fill-rule="nonzero"/><use xlink:href="#g42E72C06CADF56A793607B8210F158C5" x="5.298046875" y="0" fill="#000000" fill-rule="nonzero"/><use xlink:href="#gE9FB6D24CF34BB489DEF6497581F7D30" x="10.59609375" y="0" fill="#000000" fill-rule="nonzero"/><use xlink:href="#g96818725DD91C4F0FF90130D23331B7" x="15.894140625" y="0" fill="#000000" fill-rule="nonzero"/></g><g transform="matrix(1 0 0 -1 48.5261875 24.3684)"><use xlink:href="#g9C5E01F97914784D6046F24928CB3533" x="0" y="0" fill="#000000" fill-rule="nonzero"/></g><g transform="matrix(1 0 0 -1 52.8051875 24.3684)"><use xlink:href="#g1570446F77F9A6C1B85605F46F92409E" x="0" y="0" fill="#000000" fill-rule="nonzero"/></g><g transform="matrix(1 0 0 -1 57.9311875 24.3684)"><use xlink:href="#gF2E9DE7382F8BB82A14E9A8C0CA6C0F0" x="0" y="0" fill="#000000" fill-rule="nonzero"/></g><g transform="matrix(1 0 0 -1 62.822520833 24.3684)"><use xlink:href="#g8DD35590E5062F6A5840D8194DA80E6F" x="0" y="0" fill="#000000" fill-rule="nonzero"/></g><g transform="matrix(1 0 0 -1 68.652520833 24.3684)"><use xlink:href="#gF2E9DE7382F8BB82A14E9A8C0CA6C0F0" x="0" y="0" fill="#000000" fill-rule="nonzero"/></g><g transform="matrix(1 0 0 -1 73.543854167 24.3684)"><use xlink:href="#g6A7F5A83C1AD46379FEDFD85DC0924EE" x="0" y="0" fill="#000000" fill-rule="nonzero"/></g><g transform="matrix(1 0 0 -1 76.821854167 27.0854)"><use xlink:href="#gC5D2F11606059683B8CADF95C716D01F" x="0" y="0" fill="#000000" fill-rule="nonzero"/></g><g transform="matrix(1 0 0 -1 81.611254167 24.3684)"><use xlink:href="#g44903F1336FFA3AC82F2FDAECC383B22" x="0" y="0" fill="#000000" fill-rule="nonzero"/></g><g transform="matrix(1 0 0 -1 85.890254167 24.3684)"><use xlink:href="#gF2E9DE7382F8BB82A14E9A8C0CA6C0F0" x="0" y="0" fill="#000000" fill-rule="nonzero"/></g><g transform="matrix(1 0 0 -1 90.7815875 24.3684)"><use xlink:href="#g4D6D0CA498010ACD5A22795F1AD38996" x="0" y="0" fill="#000000" fill-rule="nonzero"/></g><g transform="matrix(1 0 0 -1 97.0625875 24.3684)"><use xlink:href="#gF2E9DE7382F8BB82A14E9A8C0CA6C0F0" x="0" y="0" fill="#000000" fill-rule="nonzero"/></g><g transform="matrix(1 0 0 -1 101.953920833 24.3684)"><use xlink:href="#g4AA9066DE258008E649636F009E5714C" x="0" y="0" fill="#000000" fill-rule="nonzero"/></g><g transform="matrix(1 0 0 -1 107.849920833 24.3684)"><use xlink:href="#gF2E9DE7382F8BB82A14E9A8C0CA6C0F0" x="0" y="0" fill="#000000" fill-rule="nonzero"/></g><g transform="matrix(1 0 0 -1 112.741254167 24.3684)"><use xlink:href="#gD9181C58C134A18FD40559388A025E62" x="0" y="0" fill="#000000" fill-rule="nonzero"/></g><g transform="matrix(1 0 0 -1 119.286254167 24.3684)"><use xlink:href="#g44903F1336FFA3AC82F2FDAECC383B22" x="0" y="0" fill="#000000" fill-rule="nonzero"/></g><g transform="matrix(1 0 0 -1 126.620809722 24.3684)"><use xlink:href="#g2389F7618E8CE27CC7151A1D8E5DEAD4" x="0" y="0" fill="#000000" fill-rule="nonzero"/></g><g transform="matrix(1 0 0 -1 138.234365278 42.2368)"><use xlink:href="#gBEAA5D980B1B6CD6E7BE74B68F1EC637" x="0" y="0" fill="#000000" fill-rule="nonzero"/><use xlink:href="#g58DE70B0DC67996A6062DF732675B06F" x="0" y="6.1952" fill="#000000" fill-rule="nonzero"/><use xlink:href="#g2CD4E04A0D30BF0BCB592B65901BFCD" x="0" y="12.3684" fill="#000000" fill-rule="nonzero"/><use xlink:href="#g58DE70B0DC67996A6062DF732675B06F" x="0" y="26.8136" fill="#000000" fill-rule="nonzero"/><use xlink:href="#g87E37713B4483662E5048B1608E6EC95" x="0" y="32.9868" fill="#000000" fill-rule="nonzero"/></g><g transform="matrix(1 0 0 -1 148.156365278 11.1024)"><use xlink:href="#g6DBFE2DA1D27E4D54C97E6F7579A935B" x="0" y="0" fill="#000000" fill-rule="nonzero"/></g><g transform="matrix(1 0 0 -1 153.931365278 11.1024)"/><g transform="matrix(1 0 0 -1 157.583365278 11.1024)"><use xlink:href="#g1570446F77F9A6C1B85605F46F92409E" x="0" y="0" fill="#000000" fill-rule="nonzero"/></g><g transform="matrix(1 0 0 -1 162.709365278 11.1024)"/><g transform="matrix(1 0 0 -1 166.361365278 11.1024)"><use xlink:href="#g4D6D0CA498010ACD5A22795F1AD38996" x="0" y="0" fill="#000000" fill-rule="nonzero"/></g><g transform="matrix(1 0 0 -1 172.642365278 11.1024)"/><g transform="matrix(1 0 0 -1 176.294365278 11.1024)"><use xlink:href="#g8DD35590E5062F6A5840D8194DA80E6F" x="0" y="0" fill="#000000" fill-rule="nonzero"/></g><g transform="matrix(1 0 0 -1 182.124365278 11.1024)"/><g transform="matrix(1 0 0 -1 185.776365278 11.1024)"><use xlink:href="#g4AA9066DE258008E649636F009E5714C" x="0" y="0" fill="#000000" fill-rule="nonzero"/></g><g transform="matrix(1 0 0 -1 191.507365278 13.8194)"><use xlink:href="#gBFCC2410A697C41E2DD3187C83DA8F3" x="0" y="0" fill="#000000" fill-rule="nonzero"/></g><g transform="matrix(1 0 0 -1 196.504665278 11.1024)"/><g transform="matrix(1 0 0 -1 200.156665278 11.1024)"><use xlink:href="#gD9181C58C134A18FD40559388A025E62" x="0" y="0" fill="#000000" fill-rule="nonzero"/></g><g transform="matrix(1 0 0 -1 206.701665278 11.1024)"/><g transform="matrix(1 0 0 -1 221.353665278 11.1024)"><use xlink:href="#g8081A8237C24C95555CB26B7002BAA27" x="0" y="0" fill="#000000" fill-rule="nonzero"/><use xlink:href="#g42BE19054016F7BAE28890E34266D9C4" x="3.058" y="0" fill="#000000" fill-rule="nonzero"/></g><g transform="matrix(1 0 0 -1 231.429665278 11.1024)"><use xlink:href="#gD9181C58C134A18FD40559388A025E62" x="0" y="0" fill="#000000" fill-rule="nonzero"/></g><g transform="matrix(1 0 0 -1 237.974665278 11.1024)"><use xlink:href="#g9C5E01F97914784D6046F24928CB3533" x="0" y="0" fill="#000000" fill-rule="nonzero"/></g><g transform="matrix(1 0 0 -1 242.253665278 11.1024)"><use xlink:href="#g6A7F5A83C1AD46379FEDFD85DC0924EE" x="0" y="0" fill="#000000" fill-rule="nonzero"/></g><g transform="matrix(1 0 0 -1 245.531665278 13.8194)"><use xlink:href="#gC5D2F11606059683B8CADF95C716D01F" x="0" y="0" fill="#000000" fill-rule="nonzero"/></g><g transform="matrix(1 0 0 -1 250.321065278 11.1024)"><use xlink:href="#g44903F1336FFA3AC82F2FDAECC383B22" x="0" y="0" fill="#000000" fill-rule="nonzero"/></g><g transform="matrix(1 0 0 -1 257.655620833 11.1024)"><use xlink:href="#g2389F7618E8CE27CC7151A1D8E5DEAD4" x="0" y="0" fill="#000000" fill-rule="nonzero"/></g><g transform="matrix(1 0 0 -1 269.269176389 11.1024)"><use xlink:href="#gC9CF2B268112D692AA5AABDD5E57E12A" x="0" y="0" fill="#000000" fill-rule="nonzero"/><use xlink:href="#gE9FB6D24CF34BB489DEF6497581F7D30" x="5.298046875" y="0" fill="#000000" fill-rule="nonzero"/><use xlink:href="#g63B965801B083A4B7FC462DA5A8A0C4F" x="10.59609375" y="0" fill="#000000" fill-rule="nonzero"/><use xlink:href="#gC7D47DC372E107A289A7A7112EBE55E9" x="15.894140625" y="0" fill="#000000" fill-rule="nonzero"/><use xlink:href="#g7C3292C458A46A58B9B9833BA97D9587" x="21.1921875" y="0" fill="#000000" fill-rule="nonzero"/><use xlink:href="#gC7D47DC372E107A289A7A7112EBE55E9" x="26.490234375" y="0" fill="#000000" fill-rule="nonzero"/><use xlink:href="#gB75E13C86ADCA88662C5D7AC943163C3" x="31.78828125" y="0" fill="#000000" fill-rule="nonzero"/><use xlink:href="#g11189D36A8ED0A9E003DFD239176016" x="37.086328125" y="0" fill="#000000" fill-rule="nonzero"/><use xlink:href="#g96818725DD91C4F0FF90130D23331B7" x="42.384375" y="0" fill="#000000" fill-rule="nonzero"/></g><g transform="matrix(1 0 0 -1 221.353665278 24.3464)"><use xlink:href="#g30C36184EAFBF77DBD046B786F3331E" x="0" y="0" fill="#000000" fill-rule="nonzero"/><use xlink:href="#g7A15C53874C56177CC9533530FA2B070" x="7.942" y="0" fill="#000000" fill-rule="nonzero"/><use xlink:href="#g661B36513DCEC8B17F1DD8AE5C54E18F" x="14.058" y="0" fill="#000000" fill-rule="nonzero"/><use xlink:href="#g30A11840F6D1B58D63FF228F63DFF50C" x="18.942" y="0" fill="#000000" fill-rule="nonzero"/><use xlink:href="#g661B36513DCEC8B17F1DD8AE5C54E18F" x="23.254" y="0" fill="#000000" fill-rule="nonzero"/></g><g transform="matrix(1 0 0 -1 253.143665278 24.3464)"><use xlink:href="#g4AA9066DE258008E649636F009E5714C" x="0" y="0" fill="#000000" fill-rule="nonzero"/></g><g transform="matrix(1 0 0 -1 258.874665278 27.0634)"><use xlink:href="#gBFCC2410A697C41E2DD3187C83DA8F3" x="0" y="0" fill="#000000" fill-rule="nonzero"/></g><g transform="matrix(1 0 0 -1 266.927520833 24.3464)"><use xlink:href="#g2389F7618E8CE27CC7151A1D8E5DEAD4" x="0" y="0" fill="#000000" fill-rule="nonzero"/></g><g transform="matrix(1 0 0 -1 278.541076389 24.3464)"><use xlink:href="#gB3A9917DB6D66B13D3CDFF1EBB5097D1" x="0" y="0" fill="#000000" fill-rule="nonzero"/></g><g transform="matrix(1 0 0 -1 284.954076389 24.3464)"/><g transform="matrix(1 0 0 -1 288.606076389 24.3464)"><use xlink:href="#g1570446F77F9A6C1B85605F46F92409E" x="0" y="0" fill="#000000" fill-rule="nonzero"/></g><g transform="matrix(1 0 0 -1 293.732076389 21.1674)"><use xlink:href="#g24C97E338F6D0205BFA2AEE81EF0C1DC" x="0" y="0" fill="#000000" fill-rule="nonzero"/></g><g transform="matrix(1 0 0 -1 297.481976389 24.3464)"/><g transform="matrix(1 0 0 -1 301.133976389 24.3464)"><use xlink:href="#gD9181C58C134A18FD40559388A025E62" x="0" y="0" fill="#000000" fill-rule="nonzero"/></g><g transform="matrix(1 0 0 -1 307.414976389 27.0634)"><use xlink:href="#gBFCC2410A697C41E2DD3187C83DA8F3" x="0" y="0" fill="#000000" fill-rule="nonzero"/></g><g transform="matrix(1 0 0 -1 312.412276389 24.3464)"/><g transform="matrix(1 0 0 -1 316.064276389 24.3464)"><use xlink:href="#g8AF8F2BC2B33BC6B311ED96E17728B80" x="0" y="0" fill="#000000" fill-rule="nonzero"/></g><g transform="matrix(1 0 0 -1 319.122276389 24.3464)"/><g transform="matrix(1 0 0 -1 322.774276389 24.3464)"><use xlink:href="#g4AA9066DE258008E649636F009E5714C" x="0" y="0" fill="#000000" fill-rule="nonzero"/></g><g transform="matrix(1 0 0 -1 328.670276389 24.3464)"/><g transform="matrix(1 0 0 -1 332.322276389 24.3464)"><use xlink:href="#g1570446F77F9A6C1B85605F46F92409E" x="0" y="0" fill="#000000" fill-rule="nonzero"/></g><g transform="matrix(1 0 0 -1 337.448276389 21.1674)"><use xlink:href="#g24C97E338F6D0205BFA2AEE81EF0C1DC" x="0" y="0" fill="#000000" fill-rule="nonzero"/></g><g transform="matrix(1 0 0 -1 341.198176389 24.3464)"/><g transform="matrix(1 0 0 -1 344.850176389 24.3464)"><use xlink:href="#gD9181C58C134A18FD40559388A025E62" x="0" y="0" fill="#000000" fill-rule="nonzero"/></g><g transform="matrix(1 0 0 -1 351.131176389 27.0634)"><use xlink:href="#gBFCC2410A697C41E2DD3187C83DA8F3" x="0" y="0" fill="#000000" fill-rule="nonzero"/></g><g transform="matrix(1 0 0 -1 356.128476389 24.3464)"><use xlink:href="#gC3FFEC7494DDA89C73345AE5B896CB0C" x="0" y="0" fill="#000000" fill-rule="nonzero"/></g><g transform="matrix(1 0 0 -1 359.252476389 24.3464)"><use xlink:href="#g6A7F5A83C1AD46379FEDFD85DC0924EE" x="0" y="0" fill="#000000" fill-rule="nonzero"/></g><g transform="matrix(1 0 0 -1 362.530476389 27.0634)"><use xlink:href="#gC5D2F11606059683B8CADF95C716D01F" x="0" y="0" fill="#000000" fill-rule="nonzero"/></g><g transform="matrix(1 0 0 -1 370.375431944 24.3464)"><use xlink:href="#gAD3130B59A76219CC465C1A9B30EF0EE" x="0" y="0" fill="#000000" fill-rule="nonzero"/></g><g transform="matrix(1 0 0 -1 384.1779875 24.3464)"><use xlink:href="#g1570446F77F9A6C1B85605F46F92409E" x="0" y="0" fill="#000000" fill-rule="nonzero"/></g><g transform="matrix(1 0 0 -1 389.3039875 21.1674)"><use xlink:href="#g24C97E338F6D0205BFA2AEE81EF0C1DC" x="0" y="0" fill="#000000" fill-rule="nonzero"/></g><g transform="matrix(1 0 0 -1 393.0538875 24.3464)"><use xlink:href="#gF7909E3CC0A06A4ECCF849B728E5A97E" x="0" y="0" fill="#000000" fill-rule="nonzero"/></g><g transform="matrix(1 0 0 -1 148.156365278 37.5684)"><use xlink:href="#g4AA9066DE258008E649636F009E5714C" x="0" y="0" fill="#000000" fill-rule="nonzero"/></g><g transform="matrix(1 0 0 -1 154.052365278 37.5684)"/><g transform="matrix(1 0 0 -1 157.704365278 37.5684)"><use xlink:href="#g1570446F77F9A6C1B85605F46F92409E" x="0" y="0" fill="#000000" fill-rule="nonzero"/></g><g transform="matrix(1 0 0 -1 162.830365278 34.3894)"><use xlink:href="#g24C97E338F6D0205BFA2AEE81EF0C1DC" x="0" y="0" fill="#000000" fill-rule="nonzero"/></g><g transform="matrix(1 0 0 -1 166.580265278 37.5684)"/><g transform="matrix(1 0 0 -1 170.232265278 37.5684)"><use xlink:href="#g4D6D0CA498010ACD5A22795F1AD38996" x="0" y="0" fill="#000000" fill-rule="nonzero"/></g><g transform="matrix(1 0 0 -1 221.353665278 37.5684)"><use xlink:href="#g3BAF23AB431BDA7FCE4D7083470CFBD3" x="0" y="0" fill="#000000" fill-rule="nonzero"/><use xlink:href="#gE4D46F1D17F1B65EB6D4E3B2291CCF8F" x="5.5" y="0" fill="#000000" fill-rule="nonzero"/><use xlink:href="#g7A15C53874C56177CC9533530FA2B070" x="9.779" y="0" fill="#000000" fill-rule="nonzero"/><use xlink:href="#g661B36513DCEC8B17F1DD8AE5C54E18F" x="15.895" y="0" fill="#000000" fill-rule="nonzero"/><use xlink:href="#g30A11840F6D1B58D63FF228F63DFF50C" x="20.779" y="0" fill="#000000" fill-rule="nonzero"/><use xlink:href="#g30C36184EAFBF77DBD046B786F3331E" x="25.091" y="0" fill="#000000" fill-rule="nonzero"/><use xlink:href="#g8081A8237C24C95555CB26B7002BAA27" x="33.033" y="0" fill="#000000" fill-rule="nonzero"/><use xlink:href="#g316D45BB6425B2B3622251A815E109FB" x="36.091" y="0" fill="#000000" fill-rule="nonzero"/><use xlink:href="#g661B36513DCEC8B17F1DD8AE5C54E18F" x="40.425" y="0" fill="#000000" fill-rule="nonzero"/><use xlink:href="#gF2E9DE7382F8BB82A14E9A8C0CA6C0F0" x="45.309" y="0" fill="#000000" fill-rule="nonzero"/><use xlink:href="#g30C36184EAFBF77DBD046B786F3331E" x="52.019" y="0" fill="#000000" fill-rule="nonzero"/><use xlink:href="#g7A15C53874C56177CC9533530FA2B070" x="59.961" y="0" fill="#000000" fill-rule="nonzero"/><use xlink:href="#g661B36513DCEC8B17F1DD8AE5C54E18F" x="66.077" y="0" fill="#000000" fill-rule="nonzero"/><use xlink:href="#g30A11840F6D1B58D63FF228F63DFF50C" x="70.961" y="0" fill="#000000" fill-rule="nonzero"/><use xlink:href="#g661B36513DCEC8B17F1DD8AE5C54E18F" x="75.273" y="0" fill="#000000" fill-rule="nonzero"/></g><g transform="matrix(1 0 0 -1 305.162665278 37.5684)"><use xlink:href="#g1570446F77F9A6C1B85605F46F92409E" x="0" y="0" fill="#000000" fill-rule="nonzero"/></g><g transform="matrix(1 0 0 -1 310.288665278 34.3894)"><use xlink:href="#g24C97E338F6D0205BFA2AEE81EF0C1DC" x="0" y="0" fill="#000000" fill-rule="nonzero"/></g><g transform="matrix(1 0 0 -1 317.094120833 37.5684)"><use xlink:href="#g2389F7618E8CE27CC7151A1D8E5DEAD4" x="0" y="0" fill="#000000" fill-rule="nonzero"/></g><g transform="matrix(1 0 0 -1 328.707676389 37.5684)"><use xlink:href="#gD9181C58C134A18FD40559388A025E62" x="0" y="0" fill="#000000" fill-rule="nonzero"/></g><g transform="matrix(1 0 0 -1 335.252676389 37.5684)"><use xlink:href="#g9C5E01F97914784D6046F24928CB3533" x="0" y="0" fill="#000000" fill-rule="nonzero"/></g><g transform="matrix(1 0 0 -1 339.531676389 37.5684)"><use xlink:href="#g6A7F5A83C1AD46379FEDFD85DC0924EE" x="0" y="0" fill="#000000" fill-rule="nonzero"/></g><g transform="matrix(1 0 0 -1 342.809676389 40.2854)"><use xlink:href="#gC5D2F11606059683B8CADF95C716D01F" x="0" y="0" fill="#000000" fill-rule="nonzero"/></g><g transform="matrix(1 0 0 -1 347.599076389 37.5684)"><use xlink:href="#g44903F1336FFA3AC82F2FDAECC383B22" x="0" y="0" fill="#000000" fill-rule="nonzero"/></g><defs><symbol id="g46F76533A45DB4C11A9843577693DDC7" overflow="visible"><path d="M 0 0m 4.059 4.301c 0 -0.088 0.099 -0.231 0.275 -0.451c 0.176 -0.22 0.264 -0.473 0.264 -0.759c 0 -0.319 -0.154 -0.858 -0.473 -1.617c -0.231 -0.528 -0.759 -1.276 -1.408 -1.276c -0.506 0 -0.759 0.297 -0.759 0.902c 0 0.429 0.209 1.188 0.627 2.277c 0.088 0.231 0.132 0.418 0.132 0.55c 0 0.55 -0.374 0.935 -0.924 0.935c -0.484 0 -0.869 -0.275 -1.144 -0.825c -0.22 -0.451 -0.33 -0.737 -0.33 -0.88c 0 -0.099 0.055 -0.154 0.176 -0.154c 0.143 0 0.165 0.066 0.209 0.22c 0.253 0.88 0.605 1.32 1.056 1.32c 0.143 0 0.22 -0.099 0.22 -0.308c 0 -0.176 -0.055 -0.418 -0.176 -0.737c -0.407 -1.089 -0.616 -1.826 -0.616 -2.233c 0 -0.561 0.187 -0.946 0.561 -1.155c 0.297 -0.154 0.605 -0.231 0.924 -0.231c 0.979 0 1.661 1.056 1.947 1.903c 0.352 1.034 0.528 1.793 0.528 2.277c 0 0.539 -0.176 0.803 -0.517 0.803c -0.275 0 -0.572 -0.286 -0.572 -0.561Z "/></symbol><symbol id="g1EF7D0770C42778A4BEBEDA87EE7829A" overflow="visible"><path d="M 0 0m 3.124 6.831c 0 0.297 -0.143 0.44 -0.44 0.44c -0.308 0 -0.616 -0.308 -0.616 -0.616c 0 -0.297 0.154 -0.44 0.451 -0.44c 0.308 0 0.605 0.308 0.605 0.616Z m -0.275 -5.313c -0.242 -0.869 -0.594 -1.309 -1.045 -1.309c -0.143 0 -0.22 0.099 -0.22 0.308c 0 0.187 0.319 1.133 0.968 2.849c 0.088 0.253 0.132 0.451 0.132 0.594c 0 0.539 -0.374 0.935 -0.913 0.935c -0.473 0 -0.847 -0.275 -1.122 -0.836c -0.22 -0.451 -0.33 -0.748 -0.33 -0.891c 0 -0.099 0.055 -0.143 0.176 -0.143c 0.143 0 0.165 0.066 0.209 0.22c 0.253 0.88 0.594 1.32 1.034 1.32c 0.143 0 0.22 -0.099 0.22 -0.308c 0 -0.154 -0.033 -0.33 -0.11 -0.539c -0.253 -0.693 -0.517 -1.43 -0.737 -2.013c -0.165 -0.44 -0.253 -0.737 -0.253 -0.891c 0 -0.539 0.396 -0.935 0.924 -0.935c 0.473 0 0.847 0.275 1.122 0.825c 0.209 0.429 0.319 0.726 0.319 0.891c 0 0.099 -0.055 0.154 -0.176 0.154c -0.033 0 -0.198 -0.099 -0.198 -0.231Z "/></symbol><symbol id="gCB4E91739EACE7368E3223F2D0EF6CCC" overflow="visible"><path d="M 0 0m 4.62 3.894c 0 0.627 -0.638 0.968 -1.32 0.968c -0.693 0 -1.188 -0.209 -1.485 -0.627c -0.253 -0.363 -0.385 -0.693 -0.385 -0.99c 0 -0.583 0.385 -0.957 1.144 -1.122c 0.319 -0.055 0.561 -0.132 0.748 -0.22c 0.231 -0.099 0.341 -0.286 0.341 -0.55c 0 -0.198 -0.088 -0.418 -0.275 -0.671c -0.231 -0.319 -0.638 -0.484 -1.221 -0.484c -0.594 0 -0.979 0.165 -1.155 0.484c 0.352 -0.011 0.649 0.275 0.649 0.627c 0 0.275 -0.143 0.418 -0.44 0.418c -0.396 0 -0.649 -0.363 -0.649 -0.759c 0 -0.726 0.792 -1.089 1.584 -1.089c 0.825 0 1.419 0.242 1.771 0.737c 0.297 0.407 0.44 0.77 0.44 1.1c 0 0.473 -0.231 0.825 -0.682 1.056c -0.341 0.121 -0.605 0.198 -0.77 0.231c -0.385 0.099 -0.781 0.132 -0.781 0.605c 0 0.583 0.55 0.935 1.166 0.935c 0.462 0 0.759 -0.143 0.902 -0.418c -0.242 -0.044 -0.495 -0.253 -0.495 -0.528c 0 -0.231 0.121 -0.352 0.374 -0.352c 0.341 0 0.539 0.308 0.539 0.649Z "/></symbol><symbol id="g293C48F3C6D5CEB2943C0E5CE10C76D3" overflow="visible"><path d="M 0 0m 3.63 4.609c 0 0.099 -0.11 0.154 -0.341 0.154h -0.891c 0.286 1.144 0.429 1.738 0.429 1.782c 0 0.231 -0.121 0.341 -0.352 0.341c -0.253 0 -0.407 -0.143 -0.473 -0.429l -0.407 -1.694h -0.979c -0.242 0 -0.363 -0.011 -0.363 -0.242c 0 -0.121 0.11 -0.176 0.341 -0.176h 0.891c -0.539 -2.145 -0.803 -3.278 -0.803 -3.421c 0 -0.616 0.418 -1.045 1.034 -1.045c 0.418 0 0.781 0.187 1.1 0.572c 0.264 0.319 0.451 0.627 0.572 0.924c 0.044 0.121 0.066 0.187 0.066 0.22c 0 0.099 -0.055 0.154 -0.165 0.154c -0.088 0 -0.154 -0.055 -0.198 -0.176c -0.374 -0.913 -0.825 -1.364 -1.364 -1.364c -0.187 0 -0.286 0.154 -0.286 0.451c 0 0.165 0.022 0.341 0.066 0.517l 0.781 3.168h 0.979c 0.286 0 0.363 0.022 0.363 0.264Z "/></symbol><symbol id="g9C5E01F97914784D6046F24928CB3533" overflow="visible"><path d="M 0 0m 3.498 -2.728c 0.099 0 0.154 0.055 0.154 0.154c 0 0.033 -0.022 0.077 -0.055 0.121c -0.572 0.44 -1.034 1.166 -1.375 2.167c -0.297 0.869 -0.451 1.727 -0.451 2.574v 0.924c 0 0.847 0.154 1.705 0.451 2.574c 0.341 1.001 0.803 1.727 1.375 2.167c 0.033 0.033 0.055 0.077 0.055 0.121c 0 0.099 -0.055 0.154 -0.154 0.154c -0.011 0 -0.044 -0.011 -0.077 -0.033c -0.66 -0.506 -1.21 -1.254 -1.661 -2.255c -0.429 -0.957 -0.649 -1.859 -0.649 -2.728v -0.924c 0 -0.869 0.22 -1.771 0.649 -2.728c 0.451 -1.001 1.001 -1.749 1.661 -2.255c 0.033 -0.022 0.066 -0.033 0.077 -0.033Z "/></symbol><symbol id="g92AE00E454ABE2A3B4DC14B5CA8FBE9" overflow="visible"><path d="M 0 0m 2.646875 5.392578125q -0.485546875 0 -0.708984375 -0.517773438q -0.2234375 -0.517773438 -0.2234375 -1.673632813q 0 -1.1515625 0.2234375 -1.669335938q 0.2234375 -0.517773438 0.708984375 -0.517773438q 0.48984375 0 0.71328125 0.517773438q 0.2234375 0.517773438 0.2234375 1.669335938q 0 1.155859375 -0.2234375 1.673632813q -0.2234375 0.517773438 -0.71328125 0.517773438Z m -2.2515625 -2.19140625q 0 1.645703125 0.569335938 2.487890625q 0.569335938 0.8421875 1.682226563 0.8421875q 1.1171875 0 1.686523438 -0.8421875q 0.569335938 -0.8421875 0.569335938 -2.487890625q 0 -1.64140625 -0.569335938 -2.48359375q -0.569335938 -0.8421875 -1.686523438 -0.8421875q -1.112890625 0 -1.682226563 0.8421875q -0.569335938 0.8421875 -0.569335938 2.48359375Z "/></symbol><symbol id="g42E72C06CADF56A793607B8210F158C5" overflow="visible"><path d="M 0 0m 1.89921875 0.67890625v -2.509375h -1.2546875v 6.64296875h 1.2546875v -0.721875q 0.19765625 0.416796875 0.519921875 0.62734375q 0.322265625 0.210546875 0.75625 0.210546875q 0.825 0 1.28046875 -0.66171875q 0.45546875 -0.66171875 0.45546875 -1.86484375q 0 -1.2203125 -0.461914063 -1.8734375q -0.461914063 -0.653125 -1.316992188 -0.653125q -0.38671875 0 -0.693945313 0.199804688q -0.307226563 0.199804688 -0.539257813 0.603710938Z m 1.753125 1.731640625q 0 0.69609375 -0.23203125 1.09140625q -0.23203125 0.3953125 -0.640234375 0.3953125q -0.408203125 0 -0.64453125 -0.3953125q -0.236328125 -0.3953125 -0.236328125 -1.09140625q 0 -0.69609375 0.236328125 -1.09140625q 0.236328125 -0.3953125 0.64453125 -0.3953125q 0.408203125 0 0.640234375 0.3953125q 0.23203125 0.3953125 0.23203125 1.09140625Z "/></symbol><symbol id="gE9FB6D24CF34BB489DEF6497581F7D30" overflow="visible"><path d="M 0 0m 4.601953125 3.123828125v -3.123828125h -1.250390625v 2.93046875q 0 0.52421875 -0.148242188 0.749804688q -0.148242188 0.225585938 -0.483398438 0.225585938q -0.339453125 0 -0.534960938 -0.305078125q -0.195507813 -0.305078125 -0.195507813 -0.846484375v -2.754296875h -1.250390625v 4.8125h 1.250390625v -0.721875q 0.133203125 0.399609375 0.45546875 0.61875q 0.322265625 0.219140625 0.777734375 0.219140625q 0.683203125 0 1.03125 -0.453320313q 0.348046875 -0.453320313 0.348046875 -1.351367188Z "/></symbol><symbol id="g96818725DD91C4F0FF90130D23331B7" overflow="visible"><path d="M 0 0m 3.398828125 4.129296875v 2.556640625h 1.2546875v -6.6859375h -1.2546875v 0.71328125q -0.201953125 -0.416796875 -0.522070313 -0.62734375q -0.320117188 -0.210546875 -0.754101563 -0.210546875q -0.825 0 -1.28046875 0.66171875q -0.45546875 0.66171875 -0.45546875 1.86484375q 0 1.2203125 0.461914063 1.8734375q 0.461914063 0.653125 1.316992188 0.653125q 0.38671875 0 0.693945313 -0.199804688q 0.307226563 -0.199804688 0.539257813 -0.599414063Z m -1.753125 -1.7359375q 0 -0.69609375 0.23203125 -1.09140625q 0.23203125 -0.3953125 0.640234375 -0.3953125q 0.408203125 0 0.64453125 0.3953125q 0.236328125 0.3953125 0.236328125 1.09140625q 0 0.69609375 -0.236328125 1.09140625q -0.236328125 0.3953125 -0.64453125 0.3953125q -0.408203125 0 -0.640234375 -0.3953125q -0.23203125 -0.3953125 -0.23203125 -1.09140625Z "/></symbol><symbol id="g1570446F77F9A6C1B85605F46F92409E" overflow="visible"><path d="M 0 0m 1.364 1.419c 0 0.264 0.055 0.627 0.165 1.078h 0.539c 0.715 0 1.265 0.088 1.661 0.253c 0.363 0.154 0.605 0.374 0.726 0.649c 0.077 0.187 0.11 0.363 0.11 0.506c 0 0.605 -0.572 0.957 -1.188 0.957c -0.429 0 -0.858 -0.11 -1.287 -0.33c -0.847 -0.44 -1.584 -1.441 -1.584 -2.651c 0 -1.122 0.649 -2.002 1.738 -2.002c 0.583 0 1.1 0.143 1.551 0.418c 0.374 0.231 0.649 0.462 0.825 0.693c 0.077 0.099 0.11 0.176 0.11 0.209c 0 0.121 -0.055 0.187 -0.176 0.187c -0.055 0 -0.11 -0.044 -0.176 -0.132c -0.363 -0.484 -0.814 -0.792 -1.331 -0.924c -0.341 -0.088 -0.594 -0.132 -0.781 -0.132c -0.627 0 -0.902 0.594 -0.902 1.221Z m 2.761 2.486c 0 -0.726 -0.704 -1.089 -2.123 -1.089h -0.385c 0.209 0.726 0.517 1.21 0.935 1.441c 0.33 0.187 0.605 0.286 0.825 0.286c 0.396 0 0.748 -0.242 0.748 -0.638Z "/></symbol><symbol id="gF2E9DE7382F8BB82A14E9A8C0CA6C0F0" overflow="visible"><path d="M 0 0m 1.529 1.166c -0.352 0 -0.583 -0.264 -0.583 -0.616c 0 -0.33 0.253 -0.605 0.583 -0.605c 0.154 0 0.286 0.044 0.385 0.143l 0.011 -0.088c 0 -0.693 -0.231 -1.287 -0.693 -1.76c -0.077 -0.088 -0.121 -0.154 -0.121 -0.198c 0 -0.11 0.044 -0.165 0.143 -0.165c 0.099 0 0.231 0.132 0.418 0.385c 0.374 0.528 0.561 1.111 0.561 1.738c 0 0.583 -0.198 1.166 -0.704 1.166Z "/></symbol><symbol id="g8DD35590E5062F6A5840D8194DA80E6F" overflow="visible"><path d="M 0 0m 3.971 4.862c -1.243 0 -2.277 -1.342 -2.552 -2.442l -1.056 -4.279c -0.022 -0.088 -0.033 -0.143 -0.033 -0.176c 0 -0.231 0.11 -0.341 0.341 -0.341c 0.165 0 0.308 0.088 0.418 0.253l 0.671 2.629c 0.253 -0.429 0.605 -0.649 1.056 -0.649c 0.726 0 1.364 0.352 1.925 1.067c 0.517 0.671 0.781 1.386 0.781 2.123c 0 1.001 -0.583 1.815 -1.551 1.815Z m -0.022 -0.33c 0.473 0 0.704 -0.341 0.704 -1.023c 0 -0.297 -0.066 -0.682 -0.187 -1.177c -0.242 -0.935 -0.583 -1.562 -1.012 -1.892c -0.231 -0.176 -0.44 -0.264 -0.649 -0.264c -0.209 0 -0.396 0.077 -0.539 0.22c -0.231 0.231 -0.341 0.473 -0.341 0.704c 0.011 0.077 0.033 0.209 0.077 0.396c 0.253 1.045 0.473 1.716 0.649 2.024c 0.385 0.671 0.814 1.012 1.298 1.012Z "/></symbol><symbol id="g6A7F5A83C1AD46379FEDFD85DC0924EE" overflow="visible"><path d="M 0 0m 1.903 6.952l -1.364 -5.643c -0.033 -0.154 -0.055 -0.286 -0.055 -0.385c 0 -0.583 0.429 -1.045 1.012 -1.045c 0.539 0 0.924 0.572 1.155 1.716c 0 0.099 -0.055 0.154 -0.176 0.154c -0.088 0 -0.154 -0.077 -0.187 -0.231c -0.22 -0.869 -0.473 -1.309 -0.77 -1.309c -0.187 0 -0.275 0.154 -0.275 0.451c 0 0.165 0.022 0.341 0.066 0.517l 1.529 6.292v 0.044c -0.033 0.077 -0.099 0.121 -0.176 0.121c -0.352 0 -1.166 -0.099 -1.298 -0.11c -0.165 -0.022 -0.242 -0.11 -0.242 -0.275c 0 -0.099 0.099 -0.154 0.308 -0.154c 0.187 0 0.473 0 0.473 -0.143Z "/></symbol><symbol id="gC5D2F11606059683B8CADF95C716D01F" overflow="visible"><path d="M 0 0m 3.6498 0.9702c -0.0462 0 -0.0924 -0.0308 -0.1386 -0.0924c -0.3927 -0.4543 -0.924 -0.6853 -1.5862 -0.6853c -0.4851 0 -0.7315 0.2926 -0.7315 0.8855c 0 0.1617 0.0308 0.3773 0.0847 0.6468h 0.4543c 1.2705 0 1.9096 0.3234 1.9096 0.9779c 0 0.4543 -0.4774 0.693 -0.9625 0.693c -0.3234 0 -0.6468 -0.077 -0.9702 -0.2233c -0.6237 -0.2849 -1.1935 -0.9471 -1.1935 -1.7941c 0 -0.847 0.5467 -1.4553 1.3937 -1.4553c 0.4774 0 0.8855 0.0924 1.2243 0.2772c 0.1771 0.1001 0.6776 0.4235 0.6776 0.6083c 0 0.0693 -0.0924 0.1617 -0.1617 0.1617Z m -0.3927 1.7325c 0 -0.4697 -0.5236 -0.7084 -1.5708 -0.7084h -0.3311c 0.1463 0.4851 0.3773 0.8085 0.7007 0.9548c 0.2541 0.1155 0.462 0.1771 0.6237 0.1771c 0.2926 0 0.5775 -0.1463 0.5775 -0.4235Z "/></symbol><symbol id="g44903F1336FFA3AC82F2FDAECC383B22" overflow="visible"><path d="M 0 0m 0.858 -2.695c 0.66 0.506 1.21 1.254 1.661 2.255c 0.429 0.957 0.649 1.859 0.649 2.728v 0.924c 0 0.869 -0.22 1.771 -0.649 2.728c -0.451 1.001 -1.001 1.749 -1.661 2.255c -0.033 0.022 -0.066 0.033 -0.077 0.033c -0.099 0 -0.154 -0.055 -0.154 -0.154c 0 -0.044 0.022 -0.088 0.055 -0.121c 0.572 -0.44 1.034 -1.166 1.375 -2.167c 0.297 -0.869 0.451 -1.727 0.451 -2.574v -0.924c 0 -0.847 -0.154 -1.705 -0.451 -2.574c -0.341 -1.001 -0.803 -1.727 -1.375 -2.167c -0.033 -0.044 -0.055 -0.088 -0.055 -0.121c 0 -0.099 0.055 -0.154 0.154 -0.154c 0.011 0 0.044 0.011 0.077 0.033Z "/></symbol><symbol id="g4D6D0CA498010ACD5A22795F1AD38996" overflow="visible"><path d="M 0 0m 5.764 4.158c 0.143 0.275 0.209 0.418 0.209 0.429c 0 0.099 -0.055 0.154 -0.176 0.154c -0.077 0 -0.132 -0.033 -0.165 -0.099c -0.385 -0.715 -0.836 -1.727 -1.364 -3.036c -0.044 0.726 -0.187 1.408 -0.429 2.035c -0.319 0.814 -0.814 1.221 -1.485 1.221c -0.693 0 -1.298 -0.462 -1.606 -0.891c -0.363 -0.517 -0.55 -0.902 -0.55 -1.144c 0 -0.099 0.088 -0.154 0.275 -0.154l 0.055 0.077c 0.187 0.572 0.506 0.935 0.957 1.089c 0.308 0.099 0.55 0.154 0.726 0.154c 1.144 0 1.716 -0.902 1.716 -2.717c 0 -0.429 -0.044 -0.781 -0.132 -1.056c -0.374 -1.221 -0.561 -2.002 -0.561 -2.343c 0 -0.165 0.066 -0.242 0.187 -0.242c 0.132 0 0.264 0.231 0.385 0.682c 0.187 0.704 0.319 1.331 0.396 1.881c 0.033 0.165 0.055 0.308 0.088 0.407c 0.396 1.232 0.891 2.42 1.474 3.553Z "/></symbol><symbol id="g4AA9066DE258008E649636F009E5714C" overflow="visible"><path d="M 0 0m 4.499 3.883c 0 -0.286 0.154 -0.429 0.451 -0.429c 0.385 0 0.638 0.341 0.638 0.715c 0 0.429 -0.352 0.726 -0.781 0.726c -0.495 0 -1.023 -0.33 -1.606 -0.979c -0.451 -0.495 -0.814 -0.814 -1.111 -0.957l 1.111 4.51c -0.022 0.099 -0.044 0.165 -0.187 0.165c -0.352 0 -1.188 -0.099 -1.32 -0.11c -0.165 -0.022 -0.242 -0.099 -0.242 -0.264c 0 -0.11 0.099 -0.165 0.297 -0.165c 0.209 0 0.495 0.011 0.495 -0.143l -1.595 -6.479c -0.033 -0.121 -0.044 -0.198 -0.044 -0.242c 0 -0.231 0.121 -0.352 0.352 -0.352c 0.187 0 0.33 0.088 0.407 0.253c 0.055 0.099 0.253 0.88 0.605 2.354c 0.572 -0.055 1.177 -0.33 1.177 -0.88c 0 -0.165 -0.077 -0.495 -0.077 -0.605c 0 -0.627 0.407 -1.122 1.034 -1.122c 0.638 0 1.067 0.572 1.287 1.716c 0 0.099 -0.055 0.154 -0.165 0.154c -0.099 0 -0.165 -0.077 -0.198 -0.231c -0.242 -0.869 -0.539 -1.309 -0.902 -1.309c -0.198 0 -0.297 0.154 -0.297 0.462c 0 0.176 0.132 0.77 0.132 0.946c 0 0.627 -0.506 1.012 -1.529 1.166c 0.253 0.176 0.539 0.429 0.847 0.759c 0.308 0.33 0.528 0.539 0.671 0.66c 0.297 0.242 0.583 0.363 0.836 0.363c 0.11 0 0.198 -0.022 0.264 -0.066c -0.297 -0.055 -0.55 -0.33 -0.55 -0.616Z "/></symbol><symbol id="gD9181C58C134A18FD40559388A025E62" overflow="visible"><path d="M 0 0m 5.775 4.741h -2.475c -0.528 0 -1.023 -0.165 -1.474 -0.506c -0.704 -0.539 -1.408 -1.485 -1.408 -2.607c 0 -0.99 0.682 -1.749 1.672 -1.749c 0.737 0 1.397 0.319 1.958 0.957c 0.539 0.616 0.803 1.298 0.803 2.057c 0 0.451 -0.099 0.825 -0.297 1.133h 1.111c 0.385 0 0.572 0.132 0.572 0.407c 0 0.253 -0.187 0.308 -0.462 0.308Z m -4.598 -3.41c 0 0.649 0.154 1.243 0.473 1.771c 0.374 0.616 0.858 0.924 1.463 0.924c 0.638 0 0.957 -0.33 0.957 -1.001c 0 -0.275 -0.055 -0.594 -0.165 -0.968c -0.22 -0.781 -0.583 -1.331 -1.089 -1.628c -0.253 -0.154 -0.495 -0.231 -0.715 -0.231c -0.605 0 -0.924 0.495 -0.924 1.133Z "/></symbol><symbol id="g2389F7618E8CE27CC7151A1D8E5DEAD4" overflow="visible"><path d="M 0 0m 7.678 4.037h -6.798c -0.176 0 -0.264 -0.088 -0.264 -0.253c 0 -0.165 0.088 -0.253 0.264 -0.253h 6.798c 0.176 0 0.264 0.088 0.264 0.253c 0 0.132 -0.121 0.253 -0.264 0.253Z m 0 -2.068h -6.798c -0.176 0 -0.264 -0.088 -0.264 -0.253c 0 -0.165 0.088 -0.253 0.264 -0.253h 6.798c 0.176 0 0.264 0.088 0.264 0.253c 0 0.143 -0.121 0.253 -0.264 0.253Z "/></symbol><symbol id="gBEAA5D980B1B6CD6E7BE74B68F1EC637" overflow="visible"><path d="M 0 0m 7.953 0c 0.209 0 0.319 0.11 0.319 0.33c 0 0.143 -0.066 0.242 -0.209 0.297c -0.682 0.253 -1.276 0.715 -1.771 1.397c -0.495 0.682 -0.737 1.386 -0.737 2.101v 4.125h -1.188v -4.125c 0 -0.869 0.374 -1.705 1.133 -2.519c 0.671 -0.737 1.452 -1.265 2.343 -1.584c 0.044 -0.011 0.077 -0.022 0.11 -0.022Z "/></symbol><symbol id="g58DE70B0DC67996A6062DF732675B06F" overflow="visible"><path d="M 0 0m 4.367 0h 1.188v 8.228h -1.188Z "/></symbol><symbol id="g2CD4E04A0D30BF0BCB592B65901BFCD" overflow="visible"><path d="M 0 0m 2.75 8.25c 1.298 0.704 2.805 2.299 2.805 4.103v 4.147h -1.188v -4.147c 0 -0.781 -0.231 -1.529 -0.704 -2.266c -0.495 -0.759 -1.089 -1.276 -1.804 -1.529c -0.143 -0.055 -0.209 -0.154 -0.209 -0.308c 0 -0.154 0.066 -0.253 0.209 -0.308c 0.715 -0.253 1.309 -0.77 1.804 -1.529c 0.473 -0.737 0.704 -1.485 0.704 -2.266v -4.147h 1.188v 4.147c 0 1.804 -1.507 3.399 -2.805 4.103Z "/></symbol><symbol id="g87E37713B4483662E5048B1608E6EC95" overflow="visible"><path d="M 0 0m 8.063 7.623c 0.143 0.055 0.209 0.154 0.209 0.297c 0 0.22 -0.11 0.33 -0.319 0.33c -0.033 0 -0.066 -0.011 -0.11 -0.022c -0.891 -0.319 -1.672 -0.847 -2.343 -1.584c -0.759 -0.814 -1.133 -1.65 -1.133 -2.519v -4.125h 1.188v 4.125c 0 0.715 0.242 1.419 0.737 2.101c 0.495 0.682 1.089 1.144 1.771 1.397Z "/></symbol><symbol id="g6DBFE2DA1D27E4D54C97E6F7579A935B" overflow="visible"><path d="M 0 0m 5.467 7.337c 0 0.121 -0.066 0.176 -0.209 0.176l -1.419 -0.033l -1.441 0.033c -0.176 0.011 -0.264 -0.077 -0.264 -0.264c 0 -0.11 0.121 -0.165 0.352 -0.165c 0.473 0 0.704 -0.055 0.704 -0.154c 0 -0.055 -0.011 -0.11 -0.022 -0.165l -1.463 -5.863c -0.055 -0.242 -0.165 -0.385 -0.33 -0.44c -0.077 -0.022 -0.275 -0.033 -0.616 -0.033c -0.275 0 -0.385 -0.011 -0.385 -0.264c 0 -0.11 0.066 -0.165 0.209 -0.165l 1.408 0.033l 1.452 -0.033c 0.176 -0.011 0.264 0.077 0.264 0.253c 0 0.176 -0.132 0.176 -0.374 0.176c -0.429 0 -0.693 -0.022 -0.693 0.154c 0 0.055 0.011 0.132 0.044 0.242l 1.452 5.797c 0.055 0.231 0.165 0.374 0.33 0.429c 0.077 0.022 0.275 0.033 0.616 0.033c 0.264 0 0.385 0.011 0.385 0.253Z "/></symbol><symbol id="gBFCC2410A697C41E2DD3187C83DA8F3" overflow="visible"><path d="M 0 0m 2.3331 5.1128c -0.3311 -0.3234 -0.8239 -0.4851 -1.4938 -0.4851v -0.3388c 0.4543 0 0.8162 0.0693 1.0934 0.2002v -3.8346c 0 -0.1001 -0.0077 -0.1617 -0.0308 -0.1925c -0.0385 -0.0847 -0.2695 -0.1309 -0.693 -0.1309h -0.3157v -0.3311l 1.3706 0.0308l 1.3783 -0.0308v 0.3311h -0.3157c -0.4235 0 -0.6545 0.0462 -0.7007 0.1309c -0.0154 0.0308 -0.0231 0.0924 -0.0231 0.1925v 4.2119c 0 0.2079 -0.0308 0.2464 -0.2695 0.2464Z "/></symbol><symbol id="g8081A8237C24C95555CB26B7002BAA27" overflow="visible"><path d="M 0 0m 2.134 6.611c 0 0.33 -0.275 0.616 -0.605 0.616c -0.33 0 -0.616 -0.286 -0.616 -0.616c 0 -0.33 0.275 -0.627 0.605 -0.627c 0.341 0 0.616 0.286 0.616 0.627Z m -0.561 -6.578l 1.144 -0.033v 0.429c -0.363 0 -0.583 0.022 -0.649 0.066c -0.066 0.044 -0.088 0.165 -0.088 0.363v 4.037l -1.573 -0.132v -0.418c 0.363 0 0.594 -0.033 0.671 -0.088c 0.077 -0.055 0.11 -0.209 0.11 -0.462v -2.926c 0 -0.209 -0.033 -0.341 -0.11 -0.385c -0.077 -0.044 -0.319 -0.055 -0.715 -0.055v -0.429Z "/></symbol><symbol id="g42BE19054016F7BAE28890E34266D9C4" overflow="visible"><path d="M 0 0m 2.915 7.755c -0.979 0 -1.705 -0.792 -1.705 -1.771v -1.21h -0.847v -0.418h 0.847v -3.487c 0 -0.209 -0.033 -0.341 -0.11 -0.385c -0.077 -0.044 -0.319 -0.055 -0.726 -0.055v -0.429l 1.265 0.033c 0.462 0.011 0.935 0 1.408 -0.033v 0.429h -0.264c -0.363 0 -0.594 0.022 -0.671 0.077c -0.077 0.055 -0.11 0.187 -0.11 0.385v 3.465h 1.232v 0.418h -1.265v 1.221c 0 0.66 0.341 1.43 0.946 1.43c 0.088 0 0.165 -0.011 0.242 -0.033c -0.165 -0.088 -0.253 -0.242 -0.253 -0.451c 0 -0.341 0.165 -0.517 0.506 -0.517c 0.341 0 0.517 0.176 0.517 0.528c 0 0.495 -0.517 0.803 -1.012 0.803Z "/></symbol><symbol id="gC9CF2B268112D692AA5AABDD5E57E12A" overflow="visible"><path d="M 0 0m 0.6875 1.680078125v 3.132421875h 1.258984375v -2.9390625q 0 -0.519921875 0.14609375 -0.743359375q 0.14609375 -0.2234375 0.485546875 -0.2234375q 0.339453125 0 0.530664063 0.30078125q 0.191210938 0.30078125 0.191210938 0.8421875v 2.762890625h 1.258984375v -4.8125h -1.258984375v 0.71328125q -0.133203125 -0.399609375 -0.453320313 -0.61875q -0.320117188 -0.219140625 -0.771289063 -0.219140625q -0.6875 0 -1.037695313 0.45546875q -0.350195313 0.45546875 -0.350195313 1.34921875Z "/></symbol><symbol id="g63B965801B083A4B7FC462DA5A8A0C4F" overflow="visible"><path d="M 0 0m 4.954296875 4.8125l -1.5296875 -4.8125h -1.551171875l -1.5296875 4.8125h 1.276171875l 1.026953125 -3.75546875l 1.03125 3.75546875h 1.276171875Z "/></symbol><symbol id="gC7D47DC372E107A289A7A7112EBE55E9" overflow="visible"><path d="M 0 0m 0.949609375 4.8125h 2.4921875v -3.845703125h 1.5640625v -0.966796875h -4.39140625v 0.966796875h 1.568359375v 2.87890625h -1.233203125v 0.966796875Z m 1.233203125 2.341796875h 1.258984375v -1.46953125h -1.258984375v 1.46953125Z "/></symbol><symbol id="g7C3292C458A46A58B9B9833BA97D9587" overflow="visible"><path d="M 0 0m 4.258203125 4.662109375v -1.1q -0.348046875 0.2234375 -0.724023438 0.337304688q -0.375976563 0.113867188 -0.754101563 0.113867188q -0.42109375 0 -0.6359375 -0.122460938q -0.21484375 -0.122460938 -0.21484375 -0.363085938q 0 -0.34375 0.91953125 -0.55859375l 0.047265625 -0.012890625l 0.3609375 -0.0859375q 0.6875 -0.16328125 1.007617188 -0.526367188q 0.320117188 -0.363085938 0.320117188 -0.981835938q 0 -0.743359375 -0.487695313 -1.115039063q -0.487695313 -0.371679688 -1.467382813 -0.371679688q -0.433984375 0 -0.889453125 0.075195313q -0.45546875 0.075195313 -0.923828125 0.225585938v 1.1q 0.416796875 -0.236328125 0.848632813 -0.3609375q 0.431835938 -0.124609375 0.835742188 -0.124609375q 0.442578125 0 0.6703125 0.12890625q 0.227734375 0.12890625 0.227734375 0.373828125q 0 0.240625 -0.161132813 0.36953125q -0.161132813 0.12890625 -0.766992188 0.275l -0.348046875 0.07734375q -0.721875 0.16328125 -1.052734375 0.511328125q -0.330859375 0.348046875 -0.330859375 0.932421875q 0 0.69609375 0.502734375 1.0828125q 0.502734375 0.38671875 1.413671875 0.38671875q 0.408203125 0 0.814257813 -0.066601563q 0.406054688 -0.066601563 0.788476563 -0.199804688Z "/></symbol><symbol id="gB75E13C86ADCA88662C5D7AC943163C3" overflow="visible"><path d="M 0 0m 2.96484375 6.17890625v -1.36640625h 1.645703125v -0.966796875h -1.645703125v -2.27734375q 0 -0.322265625 0.156835938 -0.461914063q 0.156835938 -0.139648438 0.522070313 -0.139648438h 0.966796875v -0.966796875h -1.05703125q -1.0828125 0 -1.465234375 0.345898438q -0.382421875 0.345898438 -0.382421875 1.282617188v 2.2171875h -1.22890625v 0.966796875h 1.22890625v 1.36640625h 1.258984375Z "/></symbol><symbol id="g11189D36A8ED0A9E003DFD239176016" overflow="visible"><path d="M 0 0m 4.73515625 0.236328125q -0.43828125 -0.18046875 -0.89375 -0.270703125q -0.45546875 -0.090234375 -0.9625 -0.090234375q -1.207421875 0 -1.845507813 0.646679688q -0.638085938 0.646679688 -0.638085938 1.862695313q 0 1.17734375 0.614453125 1.860546875q 0.614453125 0.683203125 1.67578125 0.683203125q 1.069921875 0 1.660742188 -0.633789063q 0.590820313 -0.633789063 0.590820313 -1.785351563v -0.511328125h -3.261328125q 0.004296875 -0.5671875 0.33515625 -0.846484375q 0.330859375 -0.279296875 0.98828125 -0.279296875q 0.433984375 0 0.855078125 0.124609375q 0.42109375 0.124609375 0.880859375 0.3953125v -1.155859375Z m -1.065625 2.70703125q -0.00859375 0.4984375 -0.255664063 0.754101563q -0.247070313 0.255664063 -0.728320313 0.255664063q -0.433984375 0 -0.691796875 -0.264257813q -0.2578125 -0.264257813 -0.305078125 -0.749804688l 1.980859375 0.004296875Z "/></symbol><symbol id="g30C36184EAFBF77DBD046B786F3331E" overflow="visible"><path d="M 0 0m 6.82 3.652c 0.154 0.429 0.462 0.66 0.913 0.671v 0.418c -0.341 -0.033 -0.627 -0.044 -0.836 -0.033l -1.056 0.033v -0.418c 0.418 -0.011 0.627 -0.176 0.627 -0.484c 0 -0.044 -0.011 -0.11 -0.044 -0.209l -0.957 -2.651l -1.034 2.904c -0.033 0.099 -0.044 0.154 -0.044 0.187c 0 0.165 0.209 0.253 0.638 0.253v 0.418l -1.177 -0.033c -0.22 -0.011 -0.561 0 -1.012 0.033v -0.418c 0.385 0 0.616 -0.055 0.693 -0.154c 0.033 -0.033 0.121 -0.22 0.242 -0.561l -0.891 -2.486l -0.99 2.772c -0.033 0.099 -0.055 0.154 -0.055 0.176c 0 0.165 0.22 0.253 0.649 0.253v 0.418l -1.232 -0.033l -1.056 0.033v -0.418c 0.539 0 0.682 0.011 0.803 -0.352l 1.375 -3.828c 0.066 -0.176 0.154 -0.264 0.264 -0.264c 0.121 0 0.209 0.077 0.264 0.242l 1.056 2.948l 1.067 -2.959c 0.055 -0.154 0.143 -0.231 0.264 -0.231c 0.077 0.011 0.165 0.088 0.253 0.231Z "/></symbol><symbol id="g7A15C53874C56177CC9533530FA2B070" overflow="visible"><path d="M 0 0m 3.454 4.565c 0.495 0 0.748 -0.385 0.748 -1.166v -2.53c 0 -0.209 -0.033 -0.341 -0.11 -0.385c -0.077 -0.044 -0.319 -0.055 -0.726 -0.055v -0.429l 1.265 0.033l 1.254 -0.033v 0.429c -0.352 0 -0.583 0.011 -0.693 0.044c -0.11 0.033 -0.154 0.11 -0.154 0.231v 2.079c 0 0.528 -0.011 0.891 -0.044 1.1c -0.11 0.671 -0.605 1.012 -1.474 1.012c -0.671 0 -1.177 -0.308 -1.518 -0.924v 3.663l -1.65 -0.121v -0.418c 0.396 0 0.638 -0.033 0.726 -0.099c 0.088 -0.066 0.121 -0.22 0.121 -0.473v -5.654c 0 -0.209 -0.044 -0.341 -0.121 -0.385c -0.077 -0.044 -0.319 -0.055 -0.726 -0.055v -0.429l 1.265 0.033l 1.254 -0.033v 0.429c -0.407 0 -0.638 0.011 -0.715 0.055c -0.077 0.044 -0.121 0.176 -0.121 0.385v 2.002c 0 0.891 0.561 1.694 1.419 1.694Z "/></symbol><symbol id="g661B36513DCEC8B17F1DD8AE5C54E18F" overflow="visible"><path d="M 0 0m 4.565 2.761c 0 1.265 -0.737 2.167 -1.969 2.167c -0.66 0 -1.21 -0.253 -1.661 -0.77c -0.418 -0.484 -0.627 -1.067 -0.627 -1.738c 0 -0.693 0.231 -1.276 0.693 -1.782c 0.462 -0.506 1.034 -0.759 1.716 -0.759c 0.627 0 1.111 0.22 1.441 0.649c 0.275 0.363 0.407 0.627 0.407 0.803c 0 0.11 -0.066 0.165 -0.187 0.165c -0.088 0 -0.143 -0.055 -0.176 -0.176c -0.242 -0.726 -0.715 -1.089 -1.419 -1.089c -0.495 0 -0.88 0.231 -1.177 0.704c -0.209 0.341 -0.308 0.858 -0.319 1.562h 2.97c 0.242 0 0.308 0.022 0.308 0.264Z m -0.979 1.078c 0.121 -0.363 0.176 -0.715 0.176 -1.034h -2.464c 0.033 0.726 0.22 1.221 0.55 1.474c 0.275 0.22 0.517 0.33 0.748 0.33c 0.495 0 0.825 -0.253 0.99 -0.77Z "/></symbol><symbol id="g30A11840F6D1B58D63FF228F63DFF50C" overflow="visible"><path d="M 0 0m 4.004 4.158c 0 0.429 -0.407 0.704 -0.836 0.704c -0.561 0 -0.99 -0.33 -1.276 -1.001v 1.001l -1.584 -0.121v -0.418c 0.385 0 0.616 -0.033 0.704 -0.099c 0.088 -0.066 0.132 -0.209 0.132 -0.462v -2.893c 0 -0.209 -0.033 -0.341 -0.11 -0.385c -0.077 -0.044 -0.319 -0.066 -0.726 -0.066v -0.418l 1.265 0.033c 0.462 0.011 0.935 0 1.408 -0.033v 0.418h -0.264c -0.363 0 -0.594 0.033 -0.671 0.088c -0.077 0.055 -0.11 0.187 -0.11 0.385v 1.661c 0 0.473 0.088 0.902 0.253 1.265c 0.22 0.473 0.539 0.715 0.968 0.726c -0.11 -0.11 -0.165 -0.242 -0.165 -0.396c 0 -0.341 0.165 -0.506 0.506 -0.506c 0.297 0 0.506 0.231 0.506 0.517Z "/></symbol><symbol id="gB3A9917DB6D66B13D3CDFF1EBB5097D1" overflow="visible"><path d="M 0 0m 0.946 -0.143c 0.121 0 0.253 0.077 0.396 0.242l 2.563 3.036c 0.385 -1.056 0.671 -1.848 0.858 -2.387c 0.121 -0.341 0.198 -0.539 0.253 -0.616c 0.121 -0.165 0.33 -0.253 0.616 -0.253h 0.231c 0.11 0.011 0.165 0.055 0.165 0.154c 0 0.022 -0.022 0.066 -0.066 0.121c -0.077 0.077 -0.154 0.242 -0.242 0.495l -2.211 6.182c -0.187 0.539 -0.638 0.803 -1.353 0.803c -0.165 0 -0.242 -0.055 -0.242 -0.165c 0 -0.077 0.066 -0.132 0.187 -0.165c 0.154 -0.044 0.253 -0.099 0.308 -0.165c 0.077 -0.088 0.187 -0.308 0.308 -0.66l 1.045 -2.937l -2.97 -2.959c -0.143 -0.143 -0.209 -0.264 -0.209 -0.363c 0 -0.198 0.165 -0.363 0.363 -0.363Z "/></symbol><symbol id="g24C97E338F6D0205BFA2AEE81EF0C1DC" overflow="visible"><path d="M 0 0m 2.1868 4.2273c -0.1925 0 -0.3234 -0.077 -0.3927 -0.2387l -1.2936 -3.2494h 0.3465l 1.7094 2.8259c 0.0385 0.0693 0.0616 0.1463 0.0616 0.231c 0 0.231 -0.2002 0.4312 -0.4312 0.4312Z "/></symbol><symbol id="g8AF8F2BC2B33BC6B311ED96E17728B80" overflow="visible"><path d="M 0 0m 2.112 0.583c 0 0.319 -0.264 0.583 -0.583 0.583c -0.319 0 -0.583 -0.264 -0.583 -0.583c 0 -0.319 0.264 -0.583 0.583 -0.583c 0.319 0 0.583 0.264 0.583 0.583Z "/></symbol><symbol id="gC3FFEC7494DDA89C73345AE5B896CB0C" overflow="visible"><path d="M 0 0m 2.563 -2.222h -0.814v 9.944h 0.814c 0.165 0 0.253 0.088 0.253 0.264c 0 0.176 -0.088 0.264 -0.253 0.264h -1.309v -11h 1.309c 0.165 0 0.253 0.088 0.253 0.264c 0 0.132 -0.121 0.264 -0.253 0.264Z "/></symbol><symbol id="gAD3130B59A76219CC465C1A9B30EF0EE" overflow="visible"><path d="M 0 0m 10.01 2.574c 0.077 0.033 0.121 0.099 0.121 0.176c 0 0.077 -0.044 0.143 -0.121 0.176c -0.528 0.176 -1.023 0.55 -1.485 1.122c -0.308 0.385 -0.517 0.836 -0.616 1.353c -0.033 0.143 -0.121 0.209 -0.264 0.209c -0.176 0 -0.264 -0.088 -0.264 -0.275l 0.011 -0.022v -0.011c 0.187 -0.957 0.671 -1.716 1.474 -2.288h -7.722v 2.332c 0 0.176 -0.088 0.264 -0.264 0.264c -0.176 0 -0.264 -0.088 -0.264 -0.264v -5.192c 0 -0.187 0.088 -0.275 0.264 -0.275c 0.176 0 0.264 0.088 0.264 0.275v 2.332h 7.722c -0.803 -0.572 -1.287 -1.331 -1.474 -2.288v -0.011l -0.011 -0.022c 0 -0.187 0.088 -0.275 0.264 -0.275c 0.143 0 0.231 0.066 0.264 0.209c 0.099 0.517 0.308 0.968 0.616 1.353c 0.462 0.572 0.957 0.946 1.485 1.122Z "/></symbol><symbol id="gF7909E3CC0A06A4ECCF849B728E5A97E" overflow="visible"><path d="M 0 0m 0.495 -2.75h 1.309v 11h -1.309c -0.165 0 -0.253 -0.088 -0.253 -0.264c 0 -0.176 0.088 -0.264 0.253 -0.264h 0.814v -9.944h -0.814c -0.165 0 -0.253 -0.088 -0.253 -0.264c 0 -0.176 0.088 -0.264 0.253 -0.264Z "/></symbol><symbol id="g3BAF23AB431BDA7FCE4D7083470CFBD3" overflow="visible"><path d="M 0 0m 2.739 -0.121c 0.682 0 1.254 0.242 1.727 0.726c 0.473 0.484 0.715 1.067 0.715 1.749c 0 0.693 -0.231 1.298 -0.693 1.804c -0.462 0.506 -1.045 0.77 -1.738 0.77c -0.693 0 -1.265 -0.264 -1.738 -0.77c -0.473 -0.506 -0.704 -1.111 -0.704 -1.804c 0 -0.682 0.231 -1.265 0.704 -1.749c 0.473 -0.484 1.056 -0.726 1.727 -0.726Z m 0.011 0.352c -0.528 0 -0.924 0.231 -1.199 0.704c -0.176 0.308 -0.264 0.814 -0.264 1.507c 0 0.671 0.088 1.155 0.253 1.463c 0.264 0.473 0.66 0.704 1.199 0.704c 0.517 0 0.913 -0.231 1.188 -0.682c 0.187 -0.308 0.275 -0.803 0.275 -1.485c 0 -1.276 -0.374 -2.211 -1.452 -2.211Z "/></symbol><symbol id="gE4D46F1D17F1B65EB6D4E3B2291CCF8F" overflow="visible"><path d="M 0 0m 3.652 1.386v 0.66h -0.352v -0.638c 0 -0.55 -0.198 -1.166 -0.682 -1.166c -0.451 0 -0.671 0.374 -0.671 1.122v 2.981h 1.529v 0.418h -1.529v 2.002h -0.352c -0.011 -0.363 -0.044 -0.682 -0.121 -0.968c -0.187 -0.726 -0.616 -1.1 -1.265 -1.133v -0.319h 0.913v -2.959c 0 -0.649 0.198 -1.067 0.583 -1.276c 0.297 -0.154 0.572 -0.231 0.847 -0.231c 0.726 0 1.1 0.726 1.1 1.507Z "/></symbol><symbol id="g316D45BB6425B2B3622251A815E109FB" overflow="visible"><path d="M 0 0m 3.96 1.43c 0 0.836 -0.572 1.364 -1.705 1.584c -0.517 0.099 -0.847 0.22 -1.023 0.341c -0.176 0.121 -0.264 0.297 -0.264 0.506c 0 0.517 0.385 0.77 1.155 0.77c 0.748 0 1.155 -0.418 1.21 -1.265c 0.011 -0.088 0.066 -0.132 0.176 -0.132c 0.121 0 0.187 0.099 0.187 0.297v 1.089c 0 0.209 -0.055 0.308 -0.165 0.308c -0.121 0 -0.286 -0.198 -0.396 -0.286c -0.275 0.187 -0.616 0.286 -1.012 0.286c -0.979 0 -1.76 -0.44 -1.76 -1.375c 0 -0.374 0.154 -0.693 0.473 -0.946c 0.385 -0.319 0.748 -0.385 1.441 -0.506c 0.715 -0.143 1.078 -0.462 1.078 -0.957c 0 -0.627 -0.385 -0.946 -1.166 -0.946c -0.759 0 -1.243 0.506 -1.452 1.507c -0.033 0.143 -0.088 0.22 -0.187 0.22c -0.121 0 -0.187 -0.11 -0.187 -0.319v -1.419c 0 -0.209 0.055 -0.308 0.165 -0.308c 0.033 0 0.088 0.033 0.176 0.11c 0.198 0.176 0.11 0.143 0.308 0.341c 0.319 -0.297 0.715 -0.451 1.177 -0.451c 1.045 0 1.771 0.539 1.771 1.551Z "/></symbol></defs></svg>