<svg viewBox="0 0 496.571355208 166.076" width="496.571355208pt" height="166.076pt" xmlns="http://www.w3.org/2000/svg" xmlns:xlink="http://www.w3.org/1999/xlink" xmlns:h5="http://www.w3.org/1999/xhtml"><path fill="#ffffff" fill-rule="nonzero" d="M 0 0v 166.076h 496.571355208v -166.076Z "/><g transform="matrix(1 0 0 -1 80.907666667 11.593)"><use xlink:href="#g6DBFE2DA1D27E4D54C97E6F7579A935B" x="0" y="0" fill="#000000" fill-rule="nonzero"/></g><g transform="matrix(1 0 0 -1 100.282333333 11.593)"><use xlink:href="#g14F6315C9310A7C69BA3091CBBC14ACB" x="0" y="0" fill="#000000" fill-rule="nonzero"/></g><g transform="matrix(1 0 0 -1 112.250333333 11.593)"><use xlink:href="#gBA224E517FED02B5D6EE58F51B447F43" x="0" y="0" fill="#000000" fill-rule="nonzero"/><use xlink:href="#g7FDD4349A49914F62F30F23AE9794251" x="8.118" y="0" fill="#000000" fill-rule="nonzero"/><use xlink:href="#gB7D1E2CC5BEFB1BAD32905121AEF9EA" x="14.41" y="0" fill="#000000" fill-rule="nonzero"/></g><g transform="matrix(1 0 0 -1 135.248888889 11.593)"><use xlink:href="#g2545E4CB64D1E59A4AB219E37D3D7569" x="0" y="0" fill="#000000" fill-rule="nonzero"/></g><g transform="matrix(1 0 0 -1 149.304444444 11.593)"><use xlink:href="#g9AF2FCDC7D502736E115E482D897EFF2" x="0" y="0" fill="#000000" fill-rule="nonzero"/><use xlink:href="#g313E46022A35FE004C34D0F33FA6CF9" x="7.865" y="0" fill="#000000" fill-rule="nonzero"/><use xlink:href="#g40312A8C9E1756A6E92487C50DAD2A" x="13.2" y="0" fill="#000000" fill-rule="nonzero"/><use xlink:href="#g293C48F3C6D5CEB2943C0E5CE10C76D3" x="19.8" y="0" fill="#000000" fill-rule="nonzero"/><use xlink:href="#g1570446F77F9A6C1B85605F46F92409E" x="23.771" y="0" fill="#000000" fill-rule="nonzero"/><use xlink:href="#g7FDD4349A49914F62F30F23AE9794251" x="28.897" y="0" fill="#000000" fill-rule="nonzero"/><use xlink:href="#g293C48F3C6D5CEB2943C0E5CE10C76D3" x="35.189" y="0" fill="#000000" fill-rule="nonzero"/></g><g transform="matrix(1 0 0 -1 191.52 11.593)"><use xlink:href="#g2545E4CB64D1E59A4AB219E37D3D7569" x="0" y="0" fill="#000000" fill-rule="nonzero"/></g><g transform="matrix(1 0 0 -1 205.575555556 11.593)"><use xlink:href="#gBA224E517FED02B5D6EE58F51B447F43" x="0" y="0" fill="#000000" fill-rule="nonzero"/><use xlink:href="#g40312A8C9E1756A6E92487C50DAD2A" x="8.118" y="0" fill="#000000" fill-rule="nonzero"/><use xlink:href="#g46F76533A45DB4C11A9843577693DDC7" x="14.718" y="0" fill="#000000" fill-rule="nonzero"/></g><g transform="matrix(1 0 0 -1 228.684111111 11.593)"><use xlink:href="#g2545E4CB64D1E59A4AB219E37D3D7569" x="0" y="0" fill="#000000" fill-rule="nonzero"/></g><g transform="matrix(1 0 0 -1 242.739666667 11.593)"><use xlink:href="#g9AF2FCDC7D502736E115E482D897EFF2" x="0" y="0" fill="#000000" fill-rule="nonzero"/><use xlink:href="#g313E46022A35FE004C34D0F33FA6CF9" x="7.865" y="0" fill="#000000" fill-rule="nonzero"/><use xlink:href="#g40312A8C9E1756A6E92487C50DAD2A" x="13.2" y="0" fill="#000000" fill-rule="nonzero"/><use xlink:href="#g293C48F3C6D5CEB2943C0E5CE10C76D3" x="19.8" y="0" fill="#000000" fill-rule="nonzero"/><use xlink:href="#g1EF7D0770C42778A4BEBEDA87EE7829A" x="23.771" y="0" fill="#000000" fill-rule="nonzero"/><use xlink:href="#g40312A8C9E1756A6E92487C50DAD2A" x="27.566" y="0" fill="#000000" fill-rule="nonzero"/><use xlink:href="#gDC39A12901406B45C6719653B0A52F5" x="34.166" y="0" fill="#000000" fill-rule="nonzero"/><use xlink:href="#g224B0EF8FD52A606488E12FCAA597AD9" x="40.458" y="0" fill="#000000" fill-rule="nonzero"/><use xlink:href="#g293C48F3C6D5CEB2943C0E5CE10C76D3" x="46.277" y="0" fill="#000000" fill-rule="nonzero"/><use xlink:href="#g1EF7D0770C42778A4BEBEDA87EE7829A" x="50.248" y="0" fill="#000000" fill-rule="nonzero"/><use xlink:href="#g313E46022A35FE004C34D0F33FA6CF9" x="54.043" y="0" fill="#000000" fill-rule="nonzero"/><use xlink:href="#g40312A8C9E1756A6E92487C50DAD2A" x="59.378" y="0" fill="#000000" fill-rule="nonzero"/></g><g transform="matrix(1 0 0 -1 311.773222222 11.593)"><use xlink:href="#g2545E4CB64D1E59A4AB219E37D3D7569" x="0" y="0" fill="#000000" fill-rule="nonzero"/></g><g transform="matrix(1 0 0 -1 325.828777778 11.593)"><use xlink:href="#gEEE1F44BC4E494A64DA9023FB4CE224F" x="0" y="0" fill="#000000" fill-rule="nonzero"/><use xlink:href="#g293C48F3C6D5CEB2943C0E5CE10C76D3" x="6.743" y="0" fill="#000000" fill-rule="nonzero"/><use xlink:href="#g313E46022A35FE004C34D0F33FA6CF9" x="10.714" y="0" fill="#000000" fill-rule="nonzero"/><use xlink:href="#g48A08B2AB87B0C0252D7C6679420B3F2" x="16.049" y="0" fill="#000000" fill-rule="nonzero"/><use xlink:href="#g1570446F77F9A6C1B85605F46F92409E" x="21.01" y="0" fill="#000000" fill-rule="nonzero"/></g><g transform="matrix(1 0 0 -1 355.020333333 11.593)"><use xlink:href="#g2545E4CB64D1E59A4AB219E37D3D7569" x="0" y="0" fill="#000000" fill-rule="nonzero"/></g><g transform="matrix(1 0 0 -1 369.075888889 11.593)"><use xlink:href="#gBA224E517FED02B5D6EE58F51B447F43" x="0" y="0" fill="#000000" fill-rule="nonzero"/><use xlink:href="#g7FDD4349A49914F62F30F23AE9794251" x="8.118" y="0" fill="#000000" fill-rule="nonzero"/><use xlink:href="#gB7D1E2CC5BEFB1BAD32905121AEF9EA" x="14.41" y="0" fill="#000000" fill-rule="nonzero"/></g><g transform="matrix(1 0 0 -1 52.469 25.266)"><use xlink:href="#gE1FF9BD7B5D515E1F257D961F0CA237F" x="0" y="0" fill="#000000" fill-rule="nonzero"/><use xlink:href="#g313E46022A35FE004C34D0F33FA6CF9" x="7.491" y="0" fill="#000000" fill-rule="nonzero"/><use xlink:href="#g40FE25E54F5492ED24B9F95C84D97EA9" x="12.826" y="0" fill="#000000" fill-rule="nonzero"/></g><g transform="matrix(1 0 0 -1 80.880166667 25.266)"><use xlink:href="#g8DD35590E5062F6A5840D8194DA80E6F" x="0" y="0" fill="#000000" fill-rule="nonzero"/></g><g transform="matrix(1 0 0 -1 100.282333333 25.266)"><use xlink:href="#g14F6315C9310A7C69BA3091CBBC14ACB" x="0" y="0" fill="#000000" fill-rule="nonzero"/></g><g transform="matrix(1 0 0 -1 112.250333333 25.266)"><use xlink:href="#gB10462D61E960E78377922E9E90F19A6" x="0" y="0" fill="#000000" fill-rule="nonzero"/><use xlink:href="#g224B0EF8FD52A606488E12FCAA597AD9" x="6.413" y="0" fill="#000000" fill-rule="nonzero"/><use xlink:href="#g48A08B2AB87B0C0252D7C6679420B3F2" x="12.232" y="0" fill="#000000" fill-rule="nonzero"/></g><g transform="matrix(1 0 0 -1 132.498888889 25.266)"><use xlink:href="#g2545E4CB64D1E59A4AB219E37D3D7569" x="0" y="0" fill="#000000" fill-rule="nonzero"/></g><g transform="matrix(1 0 0 -1 146.554444444 25.266)"><use xlink:href="#gB10462D61E960E78377922E9E90F19A6" x="0" y="0" fill="#000000" fill-rule="nonzero"/><use xlink:href="#g224B0EF8FD52A606488E12FCAA597AD9" x="6.413" y="0" fill="#000000" fill-rule="nonzero"/><use xlink:href="#g48A08B2AB87B0C0252D7C6679420B3F2" x="12.232" y="0" fill="#000000" fill-rule="nonzero"/></g><g transform="matrix(1 0 0 -1 43.922 38.939)"><use xlink:href="#gEEE1F44BC4E494A64DA9023FB4CE224F" x="0" y="0" fill="#000000" fill-rule="nonzero"/><use xlink:href="#g293C48F3C6D5CEB2943C0E5CE10C76D3" x="6.743" y="0" fill="#000000" fill-rule="nonzero"/><use xlink:href="#g313E46022A35FE004C34D0F33FA6CF9" x="10.714" y="0" fill="#000000" fill-rule="nonzero"/><use xlink:href="#g48A08B2AB87B0C0252D7C6679420B3F2" x="16.049" y="0" fill="#000000" fill-rule="nonzero"/><use xlink:href="#g1570446F77F9A6C1B85605F46F92409E" x="21.01" y="0" fill="#000000" fill-rule="nonzero"/></g><g transform="matrix(1 0 0 -1 80.522666667 38.939)"><use xlink:href="#gD9181C58C134A18FD40559388A025E62" x="0" y="0" fill="#000000" fill-rule="nonzero"/></g><g transform="matrix(1 0 0 -1 100.282333333 38.939)"><use xlink:href="#g14F6315C9310A7C69BA3091CBBC14ACB" x="0" y="0" fill="#000000" fill-rule="nonzero"/></g><g transform="matrix(1 0 0 -1 112.250333333 38.939)"><use xlink:href="#g9C5E01F97914784D6046F24928CB3533" x="0" y="0" fill="#000000" fill-rule="nonzero"/></g><g transform="matrix(1 0 0 -1 116.529333333 38.939)"><use xlink:href="#gE1FF9BD7B5D515E1F257D961F0CA237F" x="0" y="0" fill="#000000" fill-rule="nonzero"/><use xlink:href="#g313E46022A35FE004C34D0F33FA6CF9" x="7.491" y="0" fill="#000000" fill-rule="nonzero"/><use xlink:href="#g40FE25E54F5492ED24B9F95C84D97EA9" x="12.826" y="0" fill="#000000" fill-rule="nonzero"/></g><g transform="matrix(1 0 0 -1 134.118333333 41.656)"><use xlink:href="#gB4F8E97E8EFD98CA94EE40D9890E0542" x="0" y="0" fill="#000000" fill-rule="nonzero"/></g><g transform="matrix(1 0 0 -1 142.779488889 38.939)"><use xlink:href="#g2545E4CB64D1E59A4AB219E37D3D7569" x="0" y="0" fill="#000000" fill-rule="nonzero"/></g><g transform="matrix(1 0 0 -1 156.835044444 38.939)"><use xlink:href="#gB10462D61E960E78377922E9E90F19A6" x="0" y="0" fill="#000000" fill-rule="nonzero"/><use xlink:href="#g224B0EF8FD52A606488E12FCAA597AD9" x="6.413" y="0" fill="#000000" fill-rule="nonzero"/><use xlink:href="#g48A08B2AB87B0C0252D7C6679420B3F2" x="12.232" y="0" fill="#000000" fill-rule="nonzero"/><use xlink:href="#gEC6B2960E55C4FDFB3A9FE64AB857D49" x="17.193" y="0" fill="#000000" fill-rule="nonzero"/><use xlink:href="#g6A7F5A83C1AD46379FEDFD85DC0924EE" x="24.266" y="0" fill="#000000" fill-rule="nonzero"/><use xlink:href="#g224B0EF8FD52A606488E12FCAA597AD9" x="27.544" y="0" fill="#000000" fill-rule="nonzero"/><use xlink:href="#g734CD247DFD60109D2311950C7F0F6FA" x="33.363" y="0" fill="#000000" fill-rule="nonzero"/><use xlink:href="#gCB4E91739EACE7368E3223F2D0EF6CCC" x="38.61" y="0" fill="#000000" fill-rule="nonzero"/></g><g transform="matrix(1 0 0 -1 200.604044444 38.939)"><use xlink:href="#g44903F1336FFA3AC82F2FDAECC383B22" x="0" y="0" fill="#000000" fill-rule="nonzero"/></g><g transform="matrix(1 0 0 -1 207.327488889 38.939)"><use xlink:href="#g2F39271B45DAA385DCDAA0BAA9F6EC02" x="0" y="0" fill="#000000" fill-rule="nonzero"/></g><g transform="matrix(1 0 0 -1 218.329933333 38.939)"><use xlink:href="#g1191ED62F436B58C75B652BB46FBF60F" x="0" y="0" fill="#000000" fill-rule="nonzero"/></g><g transform="matrix(1 0 0 -1 223.367933333 38.939)"><use xlink:href="#gE1FF9BD7B5D515E1F257D961F0CA237F" x="0" y="0" fill="#000000" fill-rule="nonzero"/><use xlink:href="#g313E46022A35FE004C34D0F33FA6CF9" x="7.491" y="0" fill="#000000" fill-rule="nonzero"/><use xlink:href="#g40FE25E54F5492ED24B9F95C84D97EA9" x="12.826" y="0" fill="#000000" fill-rule="nonzero"/></g><g transform="matrix(1 0 0 -1 240.956933333 41.656)"><use xlink:href="#g7058399F9FB7CD69929F2864C4EDB984" x="0" y="0" fill="#000000" fill-rule="nonzero"/></g><g transform="matrix(1 0 0 -1 249.156088889 38.939)"><use xlink:href="#g2545E4CB64D1E59A4AB219E37D3D7569" x="0" y="0" fill="#000000" fill-rule="nonzero"/></g><g transform="matrix(1 0 0 -1 263.211644444 38.939)"><use xlink:href="#g9AF2FCDC7D502736E115E482D897EFF2" x="0" y="0" fill="#000000" fill-rule="nonzero"/><use xlink:href="#g313E46022A35FE004C34D0F33FA6CF9" x="7.865" y="0" fill="#000000" fill-rule="nonzero"/><use xlink:href="#g40312A8C9E1756A6E92487C50DAD2A" x="13.2" y="0" fill="#000000" fill-rule="nonzero"/><use xlink:href="#g293C48F3C6D5CEB2943C0E5CE10C76D3" x="19.8" y="0" fill="#000000" fill-rule="nonzero"/><use xlink:href="#g1570446F77F9A6C1B85605F46F92409E" x="23.771" y="0" fill="#000000" fill-rule="nonzero"/><use xlink:href="#g7FDD4349A49914F62F30F23AE9794251" x="28.897" y="0" fill="#000000" fill-rule="nonzero"/><use xlink:href="#g293C48F3C6D5CEB2943C0E5CE10C76D3" x="35.189" y="0" fill="#000000" fill-rule="nonzero"/><use xlink:href="#gEC6B2960E55C4FDFB3A9FE64AB857D49" x="39.16" y="0" fill="#000000" fill-rule="nonzero"/><use xlink:href="#g6A7F5A83C1AD46379FEDFD85DC0924EE" x="46.233" y="0" fill="#000000" fill-rule="nonzero"/><use xlink:href="#g224B0EF8FD52A606488E12FCAA597AD9" x="49.511" y="0" fill="#000000" fill-rule="nonzero"/><use xlink:href="#g734CD247DFD60109D2311950C7F0F6FA" x="55.33" y="0" fill="#000000" fill-rule="nonzero"/><use xlink:href="#gCB4E91739EACE7368E3223F2D0EF6CCC" x="60.577" y="0" fill="#000000" fill-rule="nonzero"/></g><g transform="matrix(1 0 0 -1 328.947644444 38.939)"><use xlink:href="#g90C70798A55D47911C9509EA3A2AC8D8" x="0" y="0" fill="#000000" fill-rule="nonzero"/></g><g transform="matrix(1 0 0 -1 336.430088889 38.939)"><use xlink:href="#g2F39271B45DAA385DCDAA0BAA9F6EC02" x="0" y="0" fill="#000000" fill-rule="nonzero"/></g><g transform="matrix(1 0 0 -1 347.432533333 38.939)"><use xlink:href="#g9C5E01F97914784D6046F24928CB3533" x="0" y="0" fill="#000000" fill-rule="nonzero"/></g><g transform="matrix(1 0 0 -1 351.711533333 38.939)"><use xlink:href="#gE1FF9BD7B5D515E1F257D961F0CA237F" x="0" y="0" fill="#000000" fill-rule="nonzero"/><use xlink:href="#g313E46022A35FE004C34D0F33FA6CF9" x="7.491" y="0" fill="#000000" fill-rule="nonzero"/><use xlink:href="#g40FE25E54F5492ED24B9F95C84D97EA9" x="12.826" y="0" fill="#000000" fill-rule="nonzero"/></g><g transform="matrix(1 0 0 -1 369.300533333 41.656)"><use xlink:href="#gC5D2F11606059683B8CADF95C716D01F" x="0" y="0" fill="#000000" fill-rule="nonzero"/></g><g transform="matrix(1 0 0 -1 377.145488889 38.939)"><use xlink:href="#g2545E4CB64D1E59A4AB219E37D3D7569" x="0" y="0" fill="#000000" fill-rule="nonzero"/></g><g transform="matrix(1 0 0 -1 391.201044444 38.939)"><use xlink:href="#gBA224E517FED02B5D6EE58F51B447F43" x="0" y="0" fill="#000000" fill-rule="nonzero"/><use xlink:href="#g7FDD4349A49914F62F30F23AE9794251" x="8.118" y="0" fill="#000000" fill-rule="nonzero"/><use xlink:href="#gB7D1E2CC5BEFB1BAD32905121AEF9EA" x="14.41" y="0" fill="#000000" fill-rule="nonzero"/></g><g transform="matrix(1 0 0 -1 413.588488889 38.939)"><use xlink:href="#g9BF42A7FD200FCC695B69F38EC5E6DDA" x="0" y="0" fill="#000000" fill-rule="nonzero"/></g><g transform="matrix(1 0 0 -1 423.369933333 38.939)"><use xlink:href="#gC8E481438285A0E013830E0AE21DE9E1" x="0" y="0" fill="#000000" fill-rule="nonzero"/></g><g transform="matrix(1 0 0 -1 428.869933333 38.939)"><use xlink:href="#gC9CF2B268112D692AA5AABDD5E57E12A" x="0" y="0" fill="#000000" fill-rule="nonzero"/><use xlink:href="#gE9FB6D24CF34BB489DEF6497581F7D30" x="5.298046875" y="0" fill="#000000" fill-rule="nonzero"/><use xlink:href="#g63B965801B083A4B7FC462DA5A8A0C4F" x="10.59609375" y="0" fill="#000000" fill-rule="nonzero"/><use xlink:href="#gC7D47DC372E107A289A7A7112EBE55E9" x="15.894140625" y="0" fill="#000000" fill-rule="nonzero"/><use xlink:href="#g7C3292C458A46A58B9B9833BA97D9587" x="21.1921875" y="0" fill="#000000" fill-rule="nonzero"/><use xlink:href="#gC7D47DC372E107A289A7A7112EBE55E9" x="26.490234375" y="0" fill="#000000" fill-rule="nonzero"/><use xlink:href="#gB75E13C86ADCA88662C5D7AC943163C3" x="31.78828125" y="0" fill="#000000" fill-rule="nonzero"/><use xlink:href="#g11189D36A8ED0A9E003DFD239176016" x="37.086328125" y="0" fill="#000000" fill-rule="nonzero"/><use xlink:href="#g96818725DD91C4F0FF90130D23331B7" x="42.384375" y="0" fill="#000000" fill-rule="nonzero"/></g><g transform="matrix(1 0 0 -1 476.552355208 38.939)"><use xlink:href="#gDCF33896590FB4FA75025AD13DB0C7CC" x="0" y="0" fill="#000000" fill-rule="nonzero"/></g><g transform="matrix(1 0 0 -1 482.052355208 38.939)"><use xlink:href="#g44903F1336FFA3AC82F2FDAECC383B22" x="0" y="0" fill="#000000" fill-rule="nonzero"/></g><g transform="matrix(1 0 0 -1 4.08 52.612)"><use xlink:href="#g9AF2FCDC7D502736E115E482D897EFF2" x="0" y="0" fill="#000000" fill-rule="nonzero"/><use xlink:href="#g313E46022A35FE004C34D0F33FA6CF9" x="7.865" y="0" fill="#000000" fill-rule="nonzero"/><use xlink:href="#g40312A8C9E1756A6E92487C50DAD2A" x="13.2" y="0" fill="#000000" fill-rule="nonzero"/><use xlink:href="#g293C48F3C6D5CEB2943C0E5CE10C76D3" x="19.8" y="0" fill="#000000" fill-rule="nonzero"/><use xlink:href="#g1EF7D0770C42778A4BEBEDA87EE7829A" x="23.771" y="0" fill="#000000" fill-rule="nonzero"/><use xlink:href="#g40312A8C9E1756A6E92487C50DAD2A" x="27.566" y="0" fill="#000000" fill-rule="nonzero"/><use xlink:href="#gDC39A12901406B45C6719653B0A52F5" x="34.166" y="0" fill="#000000" fill-rule="nonzero"/><use xlink:href="#g224B0EF8FD52A606488E12FCAA597AD9" x="40.458" y="0" fill="#000000" fill-rule="nonzero"/><use xlink:href="#g293C48F3C6D5CEB2943C0E5CE10C76D3" x="46.277" y="0" fill="#000000" fill-rule="nonzero"/><use xlink:href="#g1EF7D0770C42778A4BEBEDA87EE7829A" x="50.248" y="0" fill="#000000" fill-rule="nonzero"/><use xlink:href="#g313E46022A35FE004C34D0F33FA6CF9" x="54.043" y="0" fill="#000000" fill-rule="nonzero"/><use xlink:href="#g40312A8C9E1756A6E92487C50DAD2A" x="59.378" y="0" fill="#000000" fill-rule="nonzero"/></g><g transform="matrix(1 0 0 -1 80.847166667 52.612)"><use xlink:href="#g4AA9066DE258008E649636F009E5714C" x="0" y="0" fill="#000000" fill-rule="nonzero"/></g><g transform="matrix(1 0 0 -1 100.282333333 52.612)"><use xlink:href="#g14F6315C9310A7C69BA3091CBBC14ACB" x="0" y="0" fill="#000000" fill-rule="nonzero"/></g><g transform="matrix(1 0 0 -1 112.250333333 52.612)"><use xlink:href="#gBA224E517FED02B5D6EE58F51B447F43" x="0" y="0" fill="#000000" fill-rule="nonzero"/><use xlink:href="#g7FDD4349A49914F62F30F23AE9794251" x="8.118" y="0" fill="#000000" fill-rule="nonzero"/><use xlink:href="#gB7D1E2CC5BEFB1BAD32905121AEF9EA" x="14.41" y="0" fill="#000000" fill-rule="nonzero"/></g><g transform="matrix(1 0 0 -1 135.248888889 52.612)"><use xlink:href="#g2545E4CB64D1E59A4AB219E37D3D7569" x="0" y="0" fill="#000000" fill-rule="nonzero"/></g><g transform="matrix(1 0 0 -1 149.304444444 52.612)"><use xlink:href="#gEEE1F44BC4E494A64DA9023FB4CE224F" x="0" y="0" fill="#000000" fill-rule="nonzero"/><use xlink:href="#g293C48F3C6D5CEB2943C0E5CE10C76D3" x="6.743" y="0" fill="#000000" fill-rule="nonzero"/><use xlink:href="#g313E46022A35FE004C34D0F33FA6CF9" x="10.714" y="0" fill="#000000" fill-rule="nonzero"/><use xlink:href="#g48A08B2AB87B0C0252D7C6679420B3F2" x="16.049" y="0" fill="#000000" fill-rule="nonzero"/><use xlink:href="#g1570446F77F9A6C1B85605F46F92409E" x="21.01" y="0" fill="#000000" fill-rule="nonzero"/></g><g transform="matrix(1 0 0 -1 178.496 52.612)"><use xlink:href="#g2545E4CB64D1E59A4AB219E37D3D7569" x="0" y="0" fill="#000000" fill-rule="nonzero"/></g><g transform="matrix(1 0 0 -1 192.551555556 52.612)"><use xlink:href="#gBA224E517FED02B5D6EE58F51B447F43" x="0" y="0" fill="#000000" fill-rule="nonzero"/><use xlink:href="#g7FDD4349A49914F62F30F23AE9794251" x="8.118" y="0" fill="#000000" fill-rule="nonzero"/><use xlink:href="#gB7D1E2CC5BEFB1BAD32905121AEF9EA" x="14.41" y="0" fill="#000000" fill-rule="nonzero"/></g><g transform="matrix(1 0 0 -1 26.289 66.285)"><use xlink:href="#gB10462D61E960E78377922E9E90F19A6" x="0" y="0" fill="#000000" fill-rule="nonzero"/><use xlink:href="#g224B0EF8FD52A606488E12FCAA597AD9" x="6.413" y="0" fill="#000000" fill-rule="nonzero"/><use xlink:href="#g48A08B2AB87B0C0252D7C6679420B3F2" x="12.232" y="0" fill="#000000" fill-rule="nonzero"/><use xlink:href="#gEC6B2960E55C4FDFB3A9FE64AB857D49" x="17.193" y="0" fill="#000000" fill-rule="nonzero"/><use xlink:href="#g6A7F5A83C1AD46379FEDFD85DC0924EE" x="24.266" y="0" fill="#000000" fill-rule="nonzero"/><use xlink:href="#g224B0EF8FD52A606488E12FCAA597AD9" x="27.544" y="0" fill="#000000" fill-rule="nonzero"/><use xlink:href="#g734CD247DFD60109D2311950C7F0F6FA" x="33.363" y="0" fill="#000000" fill-rule="nonzero"/><use xlink:href="#gCB4E91739EACE7368E3223F2D0EF6CCC" x="38.61" y="0" fill="#000000" fill-rule="nonzero"/></g><g transform="matrix(1 0 0 -1 76.218 66.285)"><use xlink:href="#gCB4E91739EACE7368E3223F2D0EF6CCC" x="0" y="0" fill="#000000" fill-rule="nonzero"/></g><g transform="matrix(1 0 0 -1 81.377 66.285)"><use xlink:href="#gF2E9DE7382F8BB82A14E9A8C0CA6C0F0" x="0" y="0" fill="#000000" fill-rule="nonzero"/></g><g transform="matrix(1 0 0 -1 86.268333333 66.285)"><use xlink:href="#g48A08B2AB87B0C0252D7C6679420B3F2" x="0" y="0" fill="#000000" fill-rule="nonzero"/></g><g transform="matrix(1 0 0 -1 97.532333333 66.285)"><use xlink:href="#g558A5C375901DE965B1BCC9FC1C0BEA4" x="0" y="0" fill="#000000" fill-rule="nonzero"/></g><g transform="matrix(1 0 0 -1 112.250333333 66.285)"><use xlink:href="#gC8E481438285A0E013830E0AE21DE9E1" x="0" y="0" fill="#000000" fill-rule="nonzero"/></g><g transform="matrix(1 0 0 -1 117.750333333 66.285)"><use xlink:href="#g360B7012FB5D77E140EC2FBBBED66DC1" x="0" y="0" fill="#000000" fill-rule="nonzero"/><use xlink:href="#g11189D36A8ED0A9E003DFD239176016" x="5.298046875" y="0" fill="#000000" fill-rule="nonzero"/><use xlink:href="#g7E7E6665B7F0AE46660C9C20644DB79" x="10.59609375" y="0" fill="#000000" fill-rule="nonzero"/></g><g transform="matrix(1 0 0 -1 133.644473958 66.285)"><use xlink:href="#gF2E9DE7382F8BB82A14E9A8C0CA6C0F0" x="0" y="0" fill="#000000" fill-rule="nonzero"/></g><g transform="matrix(1 0 0 -1 138.535807292 66.285)"><use xlink:href="#g82D23B6D5370404661A1780E66CA09E" x="0" y="0" fill="#000000" fill-rule="nonzero"/><use xlink:href="#g7C3292C458A46A58B9B9833BA97D9587" x="5.298046875" y="0" fill="#000000" fill-rule="nonzero"/><use xlink:href="#g7C3292C458A46A58B9B9833BA97D9587" x="10.59609375" y="0" fill="#000000" fill-rule="nonzero"/><use xlink:href="#gC7D47DC372E107A289A7A7112EBE55E9" x="15.894140625" y="0" fill="#000000" fill-rule="nonzero"/><use xlink:href="#g94BCA02B566503DA7C3B222020565AB9" x="21.1921875" y="0" fill="#000000" fill-rule="nonzero"/><use xlink:href="#gE9FB6D24CF34BB489DEF6497581F7D30" x="26.490234375" y="0" fill="#000000" fill-rule="nonzero"/></g><g transform="matrix(1 0 0 -1 170.324088542 66.285)"><use xlink:href="#gDCF33896590FB4FA75025AD13DB0C7CC" x="0" y="0" fill="#000000" fill-rule="nonzero"/></g><g transform="matrix(1 0 0 -1 4.322 79.958)"><use xlink:href="#g9AF2FCDC7D502736E115E482D897EFF2" x="0" y="0" fill="#000000" fill-rule="nonzero"/><use xlink:href="#g313E46022A35FE004C34D0F33FA6CF9" x="7.865" y="0" fill="#000000" fill-rule="nonzero"/><use xlink:href="#g40312A8C9E1756A6E92487C50DAD2A" x="13.2" y="0" fill="#000000" fill-rule="nonzero"/><use xlink:href="#g293C48F3C6D5CEB2943C0E5CE10C76D3" x="19.8" y="0" fill="#000000" fill-rule="nonzero"/><use xlink:href="#g1570446F77F9A6C1B85605F46F92409E" x="23.771" y="0" fill="#000000" fill-rule="nonzero"/><use xlink:href="#g7FDD4349A49914F62F30F23AE9794251" x="28.897" y="0" fill="#000000" fill-rule="nonzero"/><use xlink:href="#g293C48F3C6D5CEB2943C0E5CE10C76D3" x="35.189" y="0" fill="#000000" fill-rule="nonzero"/><use xlink:href="#gEC6B2960E55C4FDFB3A9FE64AB857D49" x="39.16" y="0" fill="#000000" fill-rule="nonzero"/><use xlink:href="#g6A7F5A83C1AD46379FEDFD85DC0924EE" x="46.233" y="0" fill="#000000" fill-rule="nonzero"/><use xlink:href="#g224B0EF8FD52A606488E12FCAA597AD9" x="49.511" y="0" fill="#000000" fill-rule="nonzero"/><use xlink:href="#g734CD247DFD60109D2311950C7F0F6FA" x="55.33" y="0" fill="#000000" fill-rule="nonzero"/><use xlink:href="#gCB4E91739EACE7368E3223F2D0EF6CCC" x="60.577" y="0" fill="#000000" fill-rule="nonzero"/></g><g transform="matrix(1 0 0 -1 97.532333333 79.958)"><use xlink:href="#g558A5C375901DE965B1BCC9FC1C0BEA4" x="0" y="0" fill="#000000" fill-rule="nonzero"/></g><g transform="matrix(1 0 0 -1 112.250333333 79.958)"><use xlink:href="#gC8E481438285A0E013830E0AE21DE9E1" x="0" y="0" fill="#000000" fill-rule="nonzero"/></g><g transform="matrix(1 0 0 -1 117.750333333 79.958)"><use xlink:href="#gC7D47DC372E107A289A7A7112EBE55E9" x="0" y="0" fill="#000000" fill-rule="nonzero"/><use xlink:href="#gE9FB6D24CF34BB489DEF6497581F7D30" x="5.298046875" y="0" fill="#000000" fill-rule="nonzero"/><use xlink:href="#g11B715B086B5896FA56CD5C2E567D0DB" x="10.59609375" y="0" fill="#000000" fill-rule="nonzero"/><use xlink:href="#gC7D47DC372E107A289A7A7112EBE55E9" x="15.894140625" y="0" fill="#000000" fill-rule="nonzero"/><use xlink:href="#gE9FB6D24CF34BB489DEF6497581F7D30" x="21.1921875" y="0" fill="#000000" fill-rule="nonzero"/><use xlink:href="#g11189D36A8ED0A9E003DFD239176016" x="26.490234375" y="0" fill="#000000" fill-rule="nonzero"/><use xlink:href="#g96818725DD91C4F0FF90130D23331B7" x="31.78828125" y="0" fill="#000000" fill-rule="nonzero"/></g><g transform="matrix(1 0 0 -1 154.836661458 79.958)"><use xlink:href="#gDCF33896590FB4FA75025AD13DB0C7CC" x="0" y="0" fill="#000000" fill-rule="nonzero"/></g><g transform="matrix(1 0 0 -1 27.906 93.631)"><use xlink:href="#g93668732B0E42348DDA57839D5743AC6" x="0" y="0" fill="#000000" fill-rule="nonzero"/><use xlink:href="#gB7D1E2CC5BEFB1BAD32905121AEF9EA" x="8.393" y="0" fill="#000000" fill-rule="nonzero"/><use xlink:href="#g1570446F77F9A6C1B85605F46F92409E" x="13.926" y="0" fill="#000000" fill-rule="nonzero"/><use xlink:href="#g48A08B2AB87B0C0252D7C6679420B3F2" x="19.052" y="0" fill="#000000" fill-rule="nonzero"/><use xlink:href="#g224B0EF8FD52A606488E12FCAA597AD9" x="24.013" y="0" fill="#000000" fill-rule="nonzero"/><use xlink:href="#g40312A8C9E1756A6E92487C50DAD2A" x="29.832" y="0" fill="#000000" fill-rule="nonzero"/><use xlink:href="#gFCA8B7969079D7A79412C4845E7994CD" x="36.432" y="0" fill="#000000" fill-rule="nonzero"/></g><g transform="matrix(1 0 0 -1 78.361166667 93.631)"><use xlink:href="#g313E46022A35FE004C34D0F33FA6CF9" x="0" y="0" fill="#000000" fill-rule="nonzero"/><use xlink:href="#gB7D1E2CC5BEFB1BAD32905121AEF9EA" x="5.335" y="0" fill="#000000" fill-rule="nonzero"/></g><g transform="matrix(1 0 0 -1 97.532333333 93.631)"><use xlink:href="#g2389F7618E8CE27CC7151A1D8E5DEAD4" x="0" y="0" fill="#000000" fill-rule="nonzero"/></g><g transform="matrix(1 0 0 -1 112.250333333 93.631)"><use xlink:href="#g92AE00E454ABE2A3B4DC14B5CA8FBE9" x="0" y="0" fill="#000000" fill-rule="nonzero"/><use xlink:href="#g42E72C06CADF56A793607B8210F158C5" x="5.298046875" y="0" fill="#000000" fill-rule="nonzero"/><use xlink:href="#gE9FB6D24CF34BB489DEF6497581F7D30" x="10.59609375" y="0" fill="#000000" fill-rule="nonzero"/><use xlink:href="#g96818725DD91C4F0FF90130D23331B7" x="15.894140625" y="0" fill="#000000" fill-rule="nonzero"/></g><g transform="matrix(1 0 0 -1 133.442520833 93.631)"><use xlink:href="#g9C5E01F97914784D6046F24928CB3533" x="0" y="0" fill="#000000" fill-rule="nonzero"/></g><g transform="matrix(1 0 0 -1 137.721520833 93.631)"><use xlink:href="#gBA224E517FED02B5D6EE58F51B447F43" x="0" y="0" fill="#000000" fill-rule="nonzero"/><use xlink:href="#g7FDD4349A49914F62F30F23AE9794251" x="8.118" y="0" fill="#000000" fill-rule="nonzero"/><use xlink:href="#gB7D1E2CC5BEFB1BAD32905121AEF9EA" x="14.41" y="0" fill="#000000" fill-rule="nonzero"/></g><g transform="matrix(1 0 0 -1 157.664520833 93.631)"><use xlink:href="#gF2E9DE7382F8BB82A14E9A8C0CA6C0F0" x="0" y="0" fill="#000000" fill-rule="nonzero"/></g><g transform="matrix(1 0 0 -1 162.555854167 93.631)"><use xlink:href="#gBA224E517FED02B5D6EE58F51B447F43" x="0" y="0" fill="#000000" fill-rule="nonzero"/><use xlink:href="#g40312A8C9E1756A6E92487C50DAD2A" x="8.118" y="0" fill="#000000" fill-rule="nonzero"/><use xlink:href="#g46F76533A45DB4C11A9843577693DDC7" x="14.718" y="0" fill="#000000" fill-rule="nonzero"/></g><g transform="matrix(1 0 0 -1 182.608854167 93.631)"><use xlink:href="#gF2E9DE7382F8BB82A14E9A8C0CA6C0F0" x="0" y="0" fill="#000000" fill-rule="nonzero"/></g><g transform="matrix(1 0 0 -1 187.5001875 93.631)"><use xlink:href="#gE1FF9BD7B5D515E1F257D961F0CA237F" x="0" y="0" fill="#000000" fill-rule="nonzero"/><use xlink:href="#g313E46022A35FE004C34D0F33FA6CF9" x="7.491" y="0" fill="#000000" fill-rule="nonzero"/><use xlink:href="#g40FE25E54F5492ED24B9F95C84D97EA9" x="12.826" y="0" fill="#000000" fill-rule="nonzero"/></g><g transform="matrix(1 0 0 -1 205.0891875 96.348)"><use xlink:href="#gC5D2F11606059683B8CADF95C716D01F" x="0" y="0" fill="#000000" fill-rule="nonzero"/></g><g transform="matrix(1 0 0 -1 209.8785875 93.631)"><use xlink:href="#g44903F1336FFA3AC82F2FDAECC383B22" x="0" y="0" fill="#000000" fill-rule="nonzero"/></g><g transform="matrix(1 0 0 -1 52.865 107.304)"><use xlink:href="#gB10462D61E960E78377922E9E90F19A6" x="0" y="0" fill="#000000" fill-rule="nonzero"/><use xlink:href="#g224B0EF8FD52A606488E12FCAA597AD9" x="6.413" y="0" fill="#000000" fill-rule="nonzero"/><use xlink:href="#g48A08B2AB87B0C0252D7C6679420B3F2" x="12.232" y="0" fill="#000000" fill-rule="nonzero"/></g><g transform="matrix(1 0 0 -1 80.649166667 107.304)"><use xlink:href="#g7FDD4349A49914F62F30F23AE9794251" x="0" y="0" fill="#000000" fill-rule="nonzero"/></g><g transform="matrix(1 0 0 -1 97.532333333 107.304)"><use xlink:href="#g2389F7618E8CE27CC7151A1D8E5DEAD4" x="0" y="0" fill="#000000" fill-rule="nonzero"/></g><g transform="matrix(1 0 0 -1 112.250333333 107.304)"><use xlink:href="#g521F2DDE78882B32DB463695F98C5705" x="0" y="0" fill="#000000" fill-rule="nonzero"/><use xlink:href="#g82D23B6D5370404661A1780E66CA09E" x="5.298046875" y="0" fill="#000000" fill-rule="nonzero"/><use xlink:href="#g360B7012FB5D77E140EC2FBBBED66DC1" x="10.59609375" y="0" fill="#000000" fill-rule="nonzero"/></g><g transform="matrix(1 0 0 -1 128.144473958 107.304)"><use xlink:href="#g9C5E01F97914784D6046F24928CB3533" x="0" y="0" fill="#000000" fill-rule="nonzero"/></g><g transform="matrix(1 0 0 -1 132.423473958 107.304)"><use xlink:href="#g6DBFE2DA1D27E4D54C97E6F7579A935B" x="0" y="0" fill="#000000" fill-rule="nonzero"/><use xlink:href="#gFCA8B7969079D7A79412C4845E7994CD" x="4.84" y="0" fill="#000000" fill-rule="nonzero"/><use xlink:href="#g1570446F77F9A6C1B85605F46F92409E" x="10.56" y="0" fill="#000000" fill-rule="nonzero"/><use xlink:href="#g40312A8C9E1756A6E92487C50DAD2A" x="15.686" y="0" fill="#000000" fill-rule="nonzero"/><use xlink:href="#g293C48F3C6D5CEB2943C0E5CE10C76D3" x="22.286" y="0" fill="#000000" fill-rule="nonzero"/><use xlink:href="#g1EF7D0770C42778A4BEBEDA87EE7829A" x="26.257" y="0" fill="#000000" fill-rule="nonzero"/><use xlink:href="#g8CAF94BAEF81D91CC1530A3D4F0B18EF" x="30.052" y="0" fill="#000000" fill-rule="nonzero"/><use xlink:href="#g1EF7D0770C42778A4BEBEDA87EE7829A" x="35.442" y="0" fill="#000000" fill-rule="nonzero"/><use xlink:href="#g1570446F77F9A6C1B85605F46F92409E" x="39.237" y="0" fill="#000000" fill-rule="nonzero"/><use xlink:href="#g48A08B2AB87B0C0252D7C6679420B3F2" x="44.363" y="0" fill="#000000" fill-rule="nonzero"/></g><g transform="matrix(1 0 0 -1 181.747473958 107.304)"><use xlink:href="#gF2E9DE7382F8BB82A14E9A8C0CA6C0F0" x="0" y="0" fill="#000000" fill-rule="nonzero"/></g><g transform="matrix(1 0 0 -1 186.638807292 107.304)"><use xlink:href="#g93668732B0E42348DDA57839D5743AC6" x="0" y="0" fill="#000000" fill-rule="nonzero"/><use xlink:href="#gB7D1E2CC5BEFB1BAD32905121AEF9EA" x="8.393" y="0" fill="#000000" fill-rule="nonzero"/><use xlink:href="#g1570446F77F9A6C1B85605F46F92409E" x="13.926" y="0" fill="#000000" fill-rule="nonzero"/><use xlink:href="#g48A08B2AB87B0C0252D7C6679420B3F2" x="19.052" y="0" fill="#000000" fill-rule="nonzero"/><use xlink:href="#g224B0EF8FD52A606488E12FCAA597AD9" x="24.013" y="0" fill="#000000" fill-rule="nonzero"/><use xlink:href="#g40312A8C9E1756A6E92487C50DAD2A" x="29.832" y="0" fill="#000000" fill-rule="nonzero"/><use xlink:href="#gFCA8B7969079D7A79412C4845E7994CD" x="36.432" y="0" fill="#000000" fill-rule="nonzero"/></g><g transform="matrix(1 0 0 -1 231.235251736 107.304)"><use xlink:href="#g9BF42A7FD200FCC695B69F38EC5E6DDA" x="0" y="0" fill="#000000" fill-rule="nonzero"/></g><g transform="matrix(1 0 0 -1 241.016696181 107.304)"><use xlink:href="#gC8E481438285A0E013830E0AE21DE9E1" x="0" y="0" fill="#000000" fill-rule="nonzero"/></g><g transform="matrix(1 0 0 -1 246.516696181 107.304)"><use xlink:href="#gE9FB6D24CF34BB489DEF6497581F7D30" x="0" y="0" fill="#000000" fill-rule="nonzero"/><use xlink:href="#gC9CF2B268112D692AA5AABDD5E57E12A" x="5.298046875" y="0" fill="#000000" fill-rule="nonzero"/><use xlink:href="#g11B715B086B5896FA56CD5C2E567D0DB" x="10.59609375" y="0" fill="#000000" fill-rule="nonzero"/><use xlink:href="#g11B715B086B5896FA56CD5C2E567D0DB" x="15.894140625" y="0" fill="#000000" fill-rule="nonzero"/></g><g transform="matrix(1 0 0 -1 267.708883681 107.304)"><use xlink:href="#gDCF33896590FB4FA75025AD13DB0C7CC" x="0" y="0" fill="#000000" fill-rule="nonzero"/></g><g transform="matrix(1 0 0 -1 273.208883681 107.304)"><use xlink:href="#gF2E9DE7382F8BB82A14E9A8C0CA6C0F0" x="0" y="0" fill="#000000" fill-rule="nonzero"/></g><g transform="matrix(1 0 0 -1 278.100217014 107.304)"><use xlink:href="#gB10462D61E960E78377922E9E90F19A6" x="0" y="0" fill="#000000" fill-rule="nonzero"/><use xlink:href="#g224B0EF8FD52A606488E12FCAA597AD9" x="6.413" y="0" fill="#000000" fill-rule="nonzero"/><use xlink:href="#g48A08B2AB87B0C0252D7C6679420B3F2" x="12.232" y="0" fill="#000000" fill-rule="nonzero"/><use xlink:href="#gEC6B2960E55C4FDFB3A9FE64AB857D49" x="17.193" y="0" fill="#000000" fill-rule="nonzero"/><use xlink:href="#g6A7F5A83C1AD46379FEDFD85DC0924EE" x="24.266" y="0" fill="#000000" fill-rule="nonzero"/><use xlink:href="#g224B0EF8FD52A606488E12FCAA597AD9" x="27.544" y="0" fill="#000000" fill-rule="nonzero"/><use xlink:href="#g734CD247DFD60109D2311950C7F0F6FA" x="33.363" y="0" fill="#000000" fill-rule="nonzero"/><use xlink:href="#gCB4E91739EACE7368E3223F2D0EF6CCC" x="38.61" y="0" fill="#000000" fill-rule="nonzero"/></g><g transform="matrix(1 0 0 -1 321.869217014 107.304)"><use xlink:href="#gF2E9DE7382F8BB82A14E9A8C0CA6C0F0" x="0" y="0" fill="#000000" fill-rule="nonzero"/></g><g transform="matrix(1 0 0 -1 326.760550347 107.304)"><use xlink:href="#gE1FF9BD7B5D515E1F257D961F0CA237F" x="0" y="0" fill="#000000" fill-rule="nonzero"/><use xlink:href="#g313E46022A35FE004C34D0F33FA6CF9" x="7.491" y="0" fill="#000000" fill-rule="nonzero"/><use xlink:href="#g40FE25E54F5492ED24B9F95C84D97EA9" x="12.826" y="0" fill="#000000" fill-rule="nonzero"/></g><g transform="matrix(1 0 0 -1 344.349550347 110.021)"><use xlink:href="#gB4F8E97E8EFD98CA94EE40D9890E0542" x="0" y="0" fill="#000000" fill-rule="nonzero"/></g><g transform="matrix(1 0 0 -1 349.955150347 107.304)"><use xlink:href="#g44903F1336FFA3AC82F2FDAECC383B22" x="0" y="0" fill="#000000" fill-rule="nonzero"/></g><g transform="matrix(1 0 0 -1 30.898 120.977)"><use xlink:href="#g9AF2FCDC7D502736E115E482D897EFF2" x="0" y="0" fill="#000000" fill-rule="nonzero"/><use xlink:href="#g313E46022A35FE004C34D0F33FA6CF9" x="7.865" y="0" fill="#000000" fill-rule="nonzero"/><use xlink:href="#g40312A8C9E1756A6E92487C50DAD2A" x="13.2" y="0" fill="#000000" fill-rule="nonzero"/><use xlink:href="#g293C48F3C6D5CEB2943C0E5CE10C76D3" x="19.8" y="0" fill="#000000" fill-rule="nonzero"/><use xlink:href="#g1570446F77F9A6C1B85605F46F92409E" x="23.771" y="0" fill="#000000" fill-rule="nonzero"/><use xlink:href="#g7FDD4349A49914F62F30F23AE9794251" x="28.897" y="0" fill="#000000" fill-rule="nonzero"/><use xlink:href="#g293C48F3C6D5CEB2943C0E5CE10C76D3" x="35.189" y="0" fill="#000000" fill-rule="nonzero"/></g><g transform="matrix(1 0 0 -1 80.654666667 120.977)"><use xlink:href="#g4D6D0CA498010ACD5A22795F1AD38996" x="0" y="0" fill="#000000" fill-rule="nonzero"/></g><g transform="matrix(1 0 0 -1 97.532333333 120.977)"><use xlink:href="#g2389F7618E8CE27CC7151A1D8E5DEAD4" x="0" y="0" fill="#000000" fill-rule="nonzero"/></g><g transform="matrix(1 0 0 -1 112.250333333 120.1499375)"><use xlink:href="#g7A75113CED2D41C4AEDB752ABDB169EA" x="0" y="0" fill="#000000" fill-rule="nonzero"/><use xlink:href="#g11189D36A8ED0A9E003DFD239176016" x="5.298046875" y="0" fill="#000000" fill-rule="nonzero"/><use xlink:href="#g7C3292C458A46A58B9B9833BA97D9587" x="10.59609375" y="0" fill="#000000" fill-rule="nonzero"/><use xlink:href="#gB75E13C86ADCA88662C5D7AC943163C3" x="15.894140625" y="0" fill="#000000" fill-rule="nonzero"/></g><g transform="matrix(1 0 0 -1 100.282333333 134.65)"><use xlink:href="#g9AFD227174B31EC8A3993A1F7D232D54" x="0" y="0" fill="#000000" fill-rule="nonzero"/></g><g transform="matrix(1 0 0 -1 112.250333333 133.8229375)"><use xlink:href="#g51312D5A75BF1E93D7C6B5CCB301AC0" x="0" y="0" fill="#000000" fill-rule="nonzero"/><use xlink:href="#g7E7E6665B7F0AE46660C9C20644DB79" x="5.298046875" y="0" fill="#000000" fill-rule="nonzero"/><use xlink:href="#g7E7E6665B7F0AE46660C9C20644DB79" x="10.59609375" y="0" fill="#000000" fill-rule="nonzero"/><use xlink:href="#g11189D36A8ED0A9E003DFD239176016" x="15.894140625" y="0" fill="#000000" fill-rule="nonzero"/><use xlink:href="#g281310CBD5B670ABC4C91FC64E8D0C6A" x="21.1921875" y="0" fill="#000000" fill-rule="nonzero"/><use xlink:href="#gB75E13C86ADCA88662C5D7AC943163C3" x="26.490234375" y="0" fill="#000000" fill-rule="nonzero"/></g><g transform="matrix(1 0 0 -1 100.282333333 148.323)"><use xlink:href="#g9AFD227174B31EC8A3993A1F7D232D54" x="0" y="0" fill="#000000" fill-rule="nonzero"/></g><g transform="matrix(1 0 0 -1 112.250333333 147.4959375)"><use xlink:href="#g521F2DDE78882B32DB463695F98C5705" x="0" y="0" fill="#000000" fill-rule="nonzero"/><use xlink:href="#g82D23B6D5370404661A1780E66CA09E" x="5.298046875" y="0" fill="#000000" fill-rule="nonzero"/><use xlink:href="#g11B715B086B5896FA56CD5C2E567D0DB" x="10.59609375" y="0" fill="#000000" fill-rule="nonzero"/><use xlink:href="#gC9CF2B268112D692AA5AABDD5E57E12A" x="15.894140625" y="0" fill="#000000" fill-rule="nonzero"/><use xlink:href="#g11189D36A8ED0A9E003DFD239176016" x="21.1921875" y="0" fill="#000000" fill-rule="nonzero"/></g><g transform="matrix(1 0 0 -1 100.282333333 161.996)"><use xlink:href="#g9AFD227174B31EC8A3993A1F7D232D54" x="0" y="0" fill="#000000" fill-rule="nonzero"/></g><g transform="matrix(1 0 0 -1 112.250333333 161.996)"><use xlink:href="#gA26959CC7A08E8EC12D9E5FDB3CAF766" x="0" y="0" fill="#000000" fill-rule="nonzero"/><use xlink:href="#g42E72C06CADF56A793607B8210F158C5" x="5.298046875" y="0" fill="#000000" fill-rule="nonzero"/><use xlink:href="#g42E72C06CADF56A793607B8210F158C5" x="10.59609375" y="0" fill="#000000" fill-rule="nonzero"/></g><g transform="matrix(1 0 0 -1 128.144473958 161.996)"><use xlink:href="#g1191ED62F436B58C75B652BB46FBF60F" x="0" y="0" fill="#000000" fill-rule="nonzero"/></g><g transform="matrix(1 0 0 -1 133.182473958 161.996)"><use xlink:href="#g93668732B0E42348DDA57839D5743AC6" x="0" y="0" fill="#000000" fill-rule="nonzero"/><use xlink:href="#gB7D1E2CC5BEFB1BAD32905121AEF9EA" x="8.393" y="0" fill="#000000" fill-rule="nonzero"/><use xlink:href="#g1570446F77F9A6C1B85605F46F92409E" x="13.926" y="0" fill="#000000" fill-rule="nonzero"/><use xlink:href="#g48A08B2AB87B0C0252D7C6679420B3F2" x="19.052" y="0" fill="#000000" fill-rule="nonzero"/><use xlink:href="#g224B0EF8FD52A606488E12FCAA597AD9" x="24.013" y="0" fill="#000000" fill-rule="nonzero"/><use xlink:href="#g40312A8C9E1756A6E92487C50DAD2A" x="29.832" y="0" fill="#000000" fill-rule="nonzero"/><use xlink:href="#gFCA8B7969079D7A79412C4845E7994CD" x="36.432" y="0" fill="#000000" fill-rule="nonzero"/></g><g transform="matrix(1 0 0 -1 175.334473958 161.996)"><use xlink:href="#gF2E9DE7382F8BB82A14E9A8C0CA6C0F0" x="0" y="0" fill="#000000" fill-rule="nonzero"/></g><g transform="matrix(1 0 0 -1 180.225807292 161.996)"><use xlink:href="#g9AF2FCDC7D502736E115E482D897EFF2" x="0" y="0" fill="#000000" fill-rule="nonzero"/><use xlink:href="#g313E46022A35FE004C34D0F33FA6CF9" x="7.865" y="0" fill="#000000" fill-rule="nonzero"/><use xlink:href="#g40312A8C9E1756A6E92487C50DAD2A" x="13.2" y="0" fill="#000000" fill-rule="nonzero"/><use xlink:href="#g293C48F3C6D5CEB2943C0E5CE10C76D3" x="19.8" y="0" fill="#000000" fill-rule="nonzero"/><use xlink:href="#g1570446F77F9A6C1B85605F46F92409E" x="23.771" y="0" fill="#000000" fill-rule="nonzero"/><use xlink:href="#g7FDD4349A49914F62F30F23AE9794251" x="28.897" y="0" fill="#000000" fill-rule="nonzero"/><use xlink:href="#g293C48F3C6D5CEB2943C0E5CE10C76D3" x="35.189" y="0" fill="#000000" fill-rule="nonzero"/></g><g transform="matrix(1 0 0 -1 219.385807292 161.996)"><use xlink:href="#gF2E9DE7382F8BB82A14E9A8C0CA6C0F0" x="0" y="0" fill="#000000" fill-rule="nonzero"/></g><g transform="matrix(1 0 0 -1 224.277140625 161.996)"><use xlink:href="#gE1FF9BD7B5D515E1F257D961F0CA237F" x="0" y="0" fill="#000000" fill-rule="nonzero"/><use xlink:href="#g313E46022A35FE004C34D0F33FA6CF9" x="7.491" y="0" fill="#000000" fill-rule="nonzero"/><use xlink:href="#g40FE25E54F5492ED24B9F95C84D97EA9" x="12.826" y="0" fill="#000000" fill-rule="nonzero"/></g><g transform="matrix(1 0 0 -1 241.866140625 164.713)"><use xlink:href="#gA18F762FFFFE399C9BA1DB0D10B3D31E" x="0" y="0" fill="#000000" fill-rule="nonzero"/></g><g transform="matrix(1 0 0 -1 247.402440625 161.996)"><use xlink:href="#g90C70798A55D47911C9509EA3A2AC8D8" x="0" y="0" fill="#000000" fill-rule="nonzero"/></g><defs><symbol id="g6DBFE2DA1D27E4D54C97E6F7579A935B" overflow="visible"><path d="M 0 0m 5.467 7.337c 0 0.121 -0.066 0.176 -0.209 0.176l -1.419 -0.033l -1.441 0.033c -0.176 0.011 -0.264 -0.077 -0.264 -0.264c 0 -0.11 0.121 -0.165 0.352 -0.165c 0.473 0 0.704 -0.055 0.704 -0.154c 0 -0.055 -0.011 -0.11 -0.022 -0.165l -1.463 -5.863c -0.055 -0.242 -0.165 -0.385 -0.33 -0.44c -0.077 -0.022 -0.275 -0.033 -0.616 -0.033c -0.275 0 -0.385 -0.011 -0.385 -0.264c 0 -0.11 0.066 -0.165 0.209 -0.165l 1.408 0.033l 1.452 -0.033c 0.176 -0.011 0.264 0.077 0.264 0.253c 0 0.176 -0.132 0.176 -0.374 0.176c -0.429 0 -0.693 -0.022 -0.693 0.154c 0 0.055 0.011 0.132 0.044 0.242l 1.452 5.797c 0.055 0.231 0.165 0.374 0.33 0.429c 0.077 0.022 0.275 0.033 0.616 0.033c 0.264 0 0.385 0.011 0.385 0.253Z "/></symbol><symbol id="g14F6315C9310A7C69BA3091CBBC14ACB" overflow="visible"><path d="M 0 0m 2.112 4.125c 0 0.33 -0.253 0.616 -0.583 0.616c -0.33 0 -0.583 -0.286 -0.583 -0.616c 0 -0.33 0.253 -0.616 0.583 -0.616c 0.33 0 0.583 0.286 0.583 0.616Z m 0 -3.509c 0 0.33 -0.253 0.616 -0.583 0.616c -0.33 0 -0.583 -0.286 -0.583 -0.616c 0 -0.33 0.253 -0.616 0.583 -0.616c 0.33 0 0.583 0.286 0.583 0.616Z "/></symbol><symbol id="gBA224E517FED02B5D6EE58F51B447F43" overflow="visible"><path d="M 0 0m 2.189 7.216c 0 -0.11 0.121 -0.165 0.352 -0.165c 0.44 0 0.66 -0.044 0.66 -0.143c 0 -0.033 -0.022 -0.11 -0.055 -0.253l -1.43 -5.753c -0.055 -0.242 -0.165 -0.385 -0.33 -0.44c -0.077 -0.022 -0.275 -0.033 -0.616 -0.033c -0.242 0 -0.352 -0.022 -0.352 -0.253c 0 -0.121 0.121 -0.176 0.352 -0.176h 5.643c 0.264 0 0.286 0.022 0.374 0.209l 0.44 0.99c 0.297 0.682 0.506 1.188 0.627 1.529c -0.022 0.099 -0.055 0.165 -0.176 0.165c -0.077 0 -0.143 -0.055 -0.187 -0.154c -0.275 -0.649 -0.539 -1.144 -0.803 -1.496c -0.44 -0.594 -1.089 -0.814 -2.123 -0.814h -1.595c -0.11 0 -0.187 0 -0.231 0.011c -0.066 0 -0.099 0.022 -0.099 0.055c 0 0.022 0.022 0.099 0.055 0.242l 0.726 2.937h 1.045c 0.517 0 0.792 -0.066 0.847 -0.209c 0.022 -0.055 0.033 -0.132 0.033 -0.242c 0 -0.143 -0.022 -0.319 -0.077 -0.528c -0.022 -0.055 -0.033 -0.099 -0.033 -0.132c 0 -0.11 0.066 -0.165 0.187 -0.165c 0.099 0 0.165 0.088 0.209 0.253l 0.616 2.552c 0 0.11 -0.055 0.165 -0.176 0.165c -0.088 0 -0.154 -0.077 -0.187 -0.231c -0.11 -0.429 -0.253 -0.704 -0.44 -0.836c -0.187 -0.132 -0.495 -0.198 -0.946 -0.198h -0.968l 0.638 2.563c 0.088 0.374 0.088 0.385 0.55 0.385h 1.529c 0.561 0 0.946 -0.055 1.155 -0.165c 0.308 -0.165 0.462 -0.495 0.462 -0.99c 0 -0.187 -0.011 -0.385 -0.044 -0.572c 0 -0.022 0 -0.055 -0.011 -0.099v -0.099c 0 -0.121 0.055 -0.176 0.165 -0.176c 0.11 0 0.176 0.099 0.198 0.308l 0.22 1.881c 0.033 0.308 -0.044 0.341 -0.341 0.341h -5.489c -0.253 0 -0.374 -0.011 -0.374 -0.264Z "/></symbol><symbol id="g7FDD4349A49914F62F30F23AE9794251" overflow="visible"><path d="M 0 0m 5.797 4.103c 0 0.506 -0.495 0.759 -1.045 0.759c -0.473 0 -0.847 -0.253 -1.133 -0.759c -0.231 0.506 -0.616 0.759 -1.177 0.759c -0.539 0 -0.979 -0.253 -1.331 -0.748c -0.297 -0.429 -0.451 -0.748 -0.451 -0.957c 0 -0.099 0.055 -0.154 0.165 -0.154c 0.099 0 0.165 0.055 0.187 0.154c 0.209 0.638 0.671 1.386 1.408 1.386c 0.363 0 0.539 -0.231 0.539 -0.682c 0 -0.231 -0.198 -1.089 -0.583 -2.563c -0.187 -0.737 -0.517 -1.1 -0.99 -1.1c -0.154 0 -0.297 0.033 -0.418 0.088c 0.286 0.11 0.429 0.308 0.429 0.594c 0 0.286 -0.143 0.429 -0.44 0.429c -0.363 0 -0.638 -0.308 -0.638 -0.671c 0 -0.506 0.517 -0.759 1.056 -0.759c 0.462 0 0.836 0.253 1.133 0.759c 0.209 -0.506 0.605 -0.759 1.177 -0.759c 0.528 0 0.968 0.253 1.32 0.748c 0.297 0.429 0.451 0.748 0.451 0.957c 0 0.099 -0.055 0.154 -0.165 0.154c -0.099 0 -0.154 -0.055 -0.187 -0.154c -0.187 -0.627 -0.682 -1.386 -1.397 -1.386c -0.363 0 -0.55 0.22 -0.55 0.671c 0 0.143 0.055 0.451 0.176 0.946l 0.374 1.485c 0.209 0.825 0.55 1.243 1.034 1.243c 0.154 0 0.297 -0.033 0.418 -0.088c -0.297 -0.099 -0.44 -0.297 -0.44 -0.594c 0 -0.286 0.154 -0.429 0.451 -0.429c 0.352 0 0.627 0.319 0.627 0.671Z "/></symbol><symbol id="gB7D1E2CC5BEFB1BAD32905121AEF9EA" overflow="visible"><path d="M 0 0m 3.905 4.862c -0.484 0 -0.946 -0.253 -1.397 -0.759c -0.121 0.506 -0.462 0.759 -1.001 0.759c -0.451 0 -0.781 -0.363 -1.012 -1.078c -0.11 -0.363 -0.165 -0.572 -0.165 -0.638c 0 -0.099 0.055 -0.154 0.176 -0.154c 0.055 0 0.088 0.011 0.121 0.033c 0.055 0.099 0.088 0.176 0.099 0.253c 0.198 0.836 0.451 1.254 0.748 1.254c 0.198 0 0.297 -0.154 0.297 -0.451c 0 -0.165 -0.022 -0.352 -0.077 -0.55l -1.21 -4.829c -0.099 -0.363 -0.11 -0.407 -0.539 -0.407c -0.198 0 -0.297 -0.088 -0.297 -0.253c 0 -0.121 0.066 -0.176 0.187 -0.176c 0.165 0 0.737 0.033 0.902 0.033c 0.209 0 0.869 -0.033 1.078 -0.033c 0.165 0 0.242 0.088 0.242 0.264c 0 0.11 -0.099 0.165 -0.308 0.165c -0.198 0 -0.495 -0.011 -0.495 0.121c 0 0.143 0.451 1.87 0.495 2.057c 0.22 -0.407 0.55 -0.616 0.99 -0.616c 0.715 0 1.342 0.363 1.892 1.1c 0.506 0.671 0.759 1.386 0.759 2.123c 0 0.957 -0.572 1.782 -1.485 1.782Z m -0.033 -0.33c 0.429 0 0.649 -0.33 0.649 -0.979c 0 -0.297 -0.066 -0.693 -0.187 -1.188c -0.253 -0.957 -0.572 -1.584 -0.957 -1.903c -0.231 -0.187 -0.44 -0.286 -0.649 -0.286c -0.319 0 -0.539 0.143 -0.66 0.44c -0.099 0.231 -0.154 0.396 -0.154 0.484l 0.561 2.299c 0.055 0.242 0.253 0.495 0.561 0.748c 0.308 0.253 0.583 0.385 0.836 0.385Z "/></symbol><symbol id="g2545E4CB64D1E59A4AB219E37D3D7569" overflow="visible"><path d="M 0 0m 10.252 2.574c 0.077 0.033 0.121 0.099 0.121 0.176c 0 0.077 -0.044 0.143 -0.121 0.176c -0.528 0.176 -1.023 0.55 -1.485 1.122c -0.308 0.385 -0.517 0.836 -0.616 1.353c -0.033 0.143 -0.121 0.209 -0.264 0.209c -0.176 0 -0.264 -0.088 -0.264 -0.275l 0.011 -0.022v -0.011c 0.187 -0.957 0.671 -1.716 1.474 -2.288h -8.206c -0.176 0 -0.264 -0.088 -0.264 -0.264c 0 -0.176 0.088 -0.264 0.264 -0.264h 8.206c -0.803 -0.572 -1.287 -1.331 -1.474 -2.288v -0.011l -0.011 -0.022c 0 -0.187 0.088 -0.275 0.264 -0.275c 0.143 0 0.231 0.066 0.264 0.209c 0.099 0.517 0.308 0.968 0.616 1.353c 0.462 0.572 0.957 0.946 1.485 1.122Z "/></symbol><symbol id="g9AF2FCDC7D502736E115E482D897EFF2" overflow="visible"><path d="M 0 0m 1.628 2.398c 0 1.408 0.616 2.838 1.309 3.63c 0.561 0.649 1.529 1.298 2.618 1.298c 1.144 0 1.705 -0.869 1.705 -2.057c 0 -0.099 -0.033 -0.451 -0.033 -0.55c 0 -0.099 0.066 -0.154 0.209 -0.154c 0.055 0 0.099 0.011 0.132 0.022c 0.055 0.077 0.088 0.154 0.11 0.231l 0.682 2.783c 0 0.099 -0.055 0.154 -0.165 0.154c -0.044 0 -0.11 -0.044 -0.198 -0.143l -0.715 -0.803c -0.429 0.627 -1.034 0.946 -1.815 0.946c -0.605 0 -1.199 -0.143 -1.804 -0.418c -1.221 -0.572 -2.112 -1.474 -2.684 -2.706c -0.286 -0.605 -0.429 -1.221 -0.429 -1.848c 0 -0.88 0.275 -1.595 0.836 -2.167c 0.561 -0.572 1.276 -0.858 2.156 -0.858c 0.869 0 1.661 0.319 2.376 0.946c 0.297 0.253 0.55 0.561 0.759 0.902c 0.297 0.495 0.451 0.836 0.451 1.045c 0 0.099 -0.055 0.154 -0.176 0.154c -0.099 0 -0.154 -0.044 -0.176 -0.143c -0.231 -0.715 -0.594 -1.287 -1.089 -1.694c -0.627 -0.517 -1.287 -0.781 -1.969 -0.781c -1.32 0 -2.09 0.891 -2.09 2.211Z "/></symbol><symbol id="g313E46022A35FE004C34D0F33FA6CF9" overflow="visible"><path d="M 0 0m 3.388 4.862c -0.759 0 -1.452 -0.33 -2.046 -0.979c -0.594 -0.649 -0.891 -1.364 -0.891 -2.134c 0 -1.056 0.715 -1.87 1.771 -1.87c 0.77 0 1.452 0.33 2.046 0.979c 0.594 0.649 0.891 1.353 0.891 2.134c 0 1.067 -0.704 1.87 -1.771 1.87Z m 0.891 -1.452c 0 -0.253 -0.055 -0.605 -0.165 -1.067c -0.231 -0.913 -0.605 -1.54 -1.122 -1.881c -0.264 -0.176 -0.517 -0.264 -0.759 -0.264c -0.594 0 -0.902 0.517 -0.902 1.144c 0 0.638 0.374 1.826 0.627 2.222c 0.418 0.649 0.891 0.979 1.419 0.979c 0.594 0 0.902 -0.506 0.902 -1.133Z "/></symbol><symbol id="g40312A8C9E1756A6E92487C50DAD2A" overflow="visible"><path d="M 0 0m 5.907 1.507c -0.253 -0.869 -0.616 -1.309 -1.067 -1.309c -0.143 0 -0.22 0.11 -0.22 0.319c 0 0.154 0.066 0.407 0.198 0.748c 0.44 1.199 0.66 1.991 0.66 2.398c 0 0.77 -0.517 1.199 -1.287 1.199c -0.649 0 -1.21 -0.286 -1.661 -0.869c -0.088 0.484 -0.473 0.869 -1.034 0.869c -0.616 0 -0.858 -0.572 -1.012 -1.067c -0.11 -0.352 -0.165 -0.561 -0.165 -0.638c 0 -0.099 0.055 -0.154 0.176 -0.154c 0.055 0 0.088 0.011 0.121 0.033c 0.055 0.099 0.088 0.176 0.099 0.253c 0.198 0.836 0.451 1.254 0.748 1.254c 0.198 0 0.297 -0.154 0.297 -0.462c 0 -0.143 -0.055 -0.44 -0.176 -0.891l -0.627 -2.497c -0.033 -0.143 -0.099 -0.429 -0.099 -0.484c 0 -0.22 0.121 -0.33 0.363 -0.33c 0.209 0 0.363 0.11 0.44 0.33c 0.022 0.055 0.088 0.33 0.209 0.803l 0.231 0.979l 0.33 1.254c 0.121 0.253 0.308 0.506 0.539 0.77c 0.319 0.352 0.715 0.528 1.188 0.528c 0.363 0 0.539 -0.242 0.539 -0.715c 0 -0.418 -0.231 -1.254 -0.704 -2.508c -0.077 -0.198 -0.11 -0.363 -0.11 -0.506c 0 -0.539 0.407 -0.935 0.935 -0.935c 0.484 0 0.869 0.275 1.144 0.825c 0.209 0.44 0.319 0.737 0.319 0.88c 0 0.099 -0.055 0.154 -0.176 0.154c -0.033 0 -0.198 -0.099 -0.198 -0.231Z "/></symbol><symbol id="g293C48F3C6D5CEB2943C0E5CE10C76D3" overflow="visible"><path d="M 0 0m 3.63 4.609c 0 0.099 -0.11 0.154 -0.341 0.154h -0.891c 0.286 1.144 0.429 1.738 0.429 1.782c 0 0.231 -0.121 0.341 -0.352 0.341c -0.253 0 -0.407 -0.143 -0.473 -0.429l -0.407 -1.694h -0.979c -0.242 0 -0.363 -0.011 -0.363 -0.242c 0 -0.121 0.11 -0.176 0.341 -0.176h 0.891c -0.539 -2.145 -0.803 -3.278 -0.803 -3.421c 0 -0.616 0.418 -1.045 1.034 -1.045c 0.418 0 0.781 0.187 1.1 0.572c 0.264 0.319 0.451 0.627 0.572 0.924c 0.044 0.121 0.066 0.187 0.066 0.22c 0 0.099 -0.055 0.154 -0.165 0.154c -0.088 0 -0.154 -0.055 -0.198 -0.176c -0.374 -0.913 -0.825 -1.364 -1.364 -1.364c -0.187 0 -0.286 0.154 -0.286 0.451c 0 0.165 0.022 0.341 0.066 0.517l 0.781 3.168h 0.979c 0.286 0 0.363 0.022 0.363 0.264Z "/></symbol><symbol id="g1570446F77F9A6C1B85605F46F92409E" overflow="visible"><path d="M 0 0m 1.364 1.419c 0 0.264 0.055 0.627 0.165 1.078h 0.539c 0.715 0 1.265 0.088 1.661 0.253c 0.363 0.154 0.605 0.374 0.726 0.649c 0.077 0.187 0.11 0.363 0.11 0.506c 0 0.605 -0.572 0.957 -1.188 0.957c -0.429 0 -0.858 -0.11 -1.287 -0.33c -0.847 -0.44 -1.584 -1.441 -1.584 -2.651c 0 -1.122 0.649 -2.002 1.738 -2.002c 0.583 0 1.1 0.143 1.551 0.418c 0.374 0.231 0.649 0.462 0.825 0.693c 0.077 0.099 0.11 0.176 0.11 0.209c 0 0.121 -0.055 0.187 -0.176 0.187c -0.055 0 -0.11 -0.044 -0.176 -0.132c -0.363 -0.484 -0.814 -0.792 -1.331 -0.924c -0.341 -0.088 -0.594 -0.132 -0.781 -0.132c -0.627 0 -0.902 0.594 -0.902 1.221Z m 2.761 2.486c 0 -0.726 -0.704 -1.089 -2.123 -1.089h -0.385c 0.209 0.726 0.517 1.21 0.935 1.441c 0.33 0.187 0.605 0.286 0.825 0.286c 0.396 0 0.748 -0.242 0.748 -0.638Z "/></symbol><symbol id="g46F76533A45DB4C11A9843577693DDC7" overflow="visible"><path d="M 0 0m 4.059 4.301c 0 -0.088 0.099 -0.231 0.275 -0.451c 0.176 -0.22 0.264 -0.473 0.264 -0.759c 0 -0.319 -0.154 -0.858 -0.473 -1.617c -0.231 -0.528 -0.759 -1.276 -1.408 -1.276c -0.506 0 -0.759 0.297 -0.759 0.902c 0 0.429 0.209 1.188 0.627 2.277c 0.088 0.231 0.132 0.418 0.132 0.55c 0 0.55 -0.374 0.935 -0.924 0.935c -0.484 0 -0.869 -0.275 -1.144 -0.825c -0.22 -0.451 -0.33 -0.737 -0.33 -0.88c 0 -0.099 0.055 -0.154 0.176 -0.154c 0.143 0 0.165 0.066 0.209 0.22c 0.253 0.88 0.605 1.32 1.056 1.32c 0.143 0 0.22 -0.099 0.22 -0.308c 0 -0.176 -0.055 -0.418 -0.176 -0.737c -0.407 -1.089 -0.616 -1.826 -0.616 -2.233c 0 -0.561 0.187 -0.946 0.561 -1.155c 0.297 -0.154 0.605 -0.231 0.924 -0.231c 0.979 0 1.661 1.056 1.947 1.903c 0.352 1.034 0.528 1.793 0.528 2.277c 0 0.539 -0.176 0.803 -0.517 0.803c -0.275 0 -0.572 -0.286 -0.572 -0.561Z "/></symbol><symbol id="g1EF7D0770C42778A4BEBEDA87EE7829A" overflow="visible"><path d="M 0 0m 3.124 6.831c 0 0.297 -0.143 0.44 -0.44 0.44c -0.308 0 -0.616 -0.308 -0.616 -0.616c 0 -0.297 0.154 -0.44 0.451 -0.44c 0.308 0 0.605 0.308 0.605 0.616Z m -0.275 -5.313c -0.242 -0.869 -0.594 -1.309 -1.045 -1.309c -0.143 0 -0.22 0.099 -0.22 0.308c 0 0.187 0.319 1.133 0.968 2.849c 0.088 0.253 0.132 0.451 0.132 0.594c 0 0.539 -0.374 0.935 -0.913 0.935c -0.473 0 -0.847 -0.275 -1.122 -0.836c -0.22 -0.451 -0.33 -0.748 -0.33 -0.891c 0 -0.099 0.055 -0.143 0.176 -0.143c 0.143 0 0.165 0.066 0.209 0.22c 0.253 0.88 0.594 1.32 1.034 1.32c 0.143 0 0.22 -0.099 0.22 -0.308c 0 -0.154 -0.033 -0.33 -0.11 -0.539c -0.253 -0.693 -0.517 -1.43 -0.737 -2.013c -0.165 -0.44 -0.253 -0.737 -0.253 -0.891c 0 -0.539 0.396 -0.935 0.924 -0.935c 0.473 0 0.847 0.275 1.122 0.825c 0.209 0.429 0.319 0.726 0.319 0.891c 0 0.099 -0.055 0.154 -0.176 0.154c -0.033 0 -0.198 -0.099 -0.198 -0.231Z "/></symbol><symbol id="gDC39A12901406B45C6719653B0A52F5" overflow="visible"><path d="M 0 0m 5.973 1.584c 0 0.099 -0.055 0.154 -0.176 0.154c -0.099 0 -0.154 -0.077 -0.187 -0.231c -0.055 -0.209 -0.11 -0.418 -0.187 -0.627c -0.143 -0.451 -0.341 -0.682 -0.583 -0.682c -0.198 0 -0.297 0.154 -0.297 0.462c 0 0.187 0.077 0.561 0.22 1.111l 0.297 1.166c 0.099 0.396 0.187 0.671 0.253 1.012l 0.066 0.297c 0.022 0.077 0.033 0.132 0.033 0.165c 0 0.22 -0.121 0.33 -0.363 0.33c -0.242 0 -0.396 -0.132 -0.462 -0.407l -0.814 -3.256c -0.011 -0.033 -0.055 -0.11 -0.143 -0.242c -0.176 -0.286 -0.605 -0.638 -1.045 -0.638c -0.418 0 -0.627 0.286 -0.627 0.847c 0 0.451 0.198 1.177 0.583 2.189c 0.121 0.33 0.187 0.561 0.187 0.693c 0 0.55 -0.385 0.935 -0.935 0.935c -0.495 0 -0.88 -0.275 -1.155 -0.825c -0.209 -0.429 -0.319 -0.726 -0.319 -0.88c 0 -0.099 0.055 -0.154 0.176 -0.154c 0.143 0 0.165 0.066 0.209 0.22c 0.253 0.88 0.605 1.32 1.056 1.32c 0.154 0 0.231 -0.11 0.231 -0.319c 0 -0.165 -0.066 -0.396 -0.187 -0.715c -0.418 -1.111 -0.627 -1.881 -0.627 -2.288c 0 -0.847 0.528 -1.342 1.375 -1.342c 0.473 0 0.902 0.22 1.265 0.671c 0.154 -0.451 0.484 -0.671 0.99 -0.671c 0.759 0 0.99 0.891 1.166 1.705Z "/></symbol><symbol id="g224B0EF8FD52A606488E12FCAA597AD9" overflow="visible"><path d="M 0 0m 5.478 1.584c 0 0.099 -0.055 0.154 -0.176 0.154c -0.088 0 -0.154 -0.077 -0.187 -0.231c -0.22 -0.869 -0.484 -1.309 -0.781 -1.309c -0.187 0 -0.286 0.154 -0.286 0.462c 0 0.143 0.044 0.407 0.143 0.792l 0.627 2.475c 0.055 0.209 0.077 0.33 0.077 0.385c 0 0.22 -0.121 0.33 -0.363 0.33c -0.231 0 -0.385 -0.132 -0.462 -0.385c -0.231 0.407 -0.561 0.605 -0.979 0.605c -0.715 0 -1.342 -0.363 -1.892 -1.089c -0.506 -0.682 -0.759 -1.386 -0.759 -2.123c 0 -0.957 0.561 -1.771 1.485 -1.771c 0.473 0 0.935 0.253 1.375 0.759c 0.121 -0.418 0.495 -0.759 1.012 -0.759c 0.759 0 0.99 0.891 1.166 1.705Z m -1.727 2.53c 0.099 -0.231 0.154 -0.385 0.154 -0.484c 0 -0.044 -0.011 -0.099 -0.022 -0.176l -0.539 -2.112c -0.033 -0.121 -0.11 -0.253 -0.209 -0.385c -0.407 -0.506 -0.803 -0.759 -1.188 -0.759c -0.429 0 -0.649 0.33 -0.649 0.979c 0 0.264 0.066 0.66 0.198 1.188c 0.231 0.935 0.561 1.562 0.968 1.903c 0.22 0.187 0.429 0.275 0.638 0.275c 0.297 0 0.517 -0.143 0.649 -0.429Z "/></symbol><symbol id="gEEE1F44BC4E494A64DA9023FB4CE224F" overflow="visible"><path d="M 0 0m 1.463 1.727c 0 0.264 0.033 0.484 0.088 0.66c 0 0.11 -0.055 0.165 -0.176 0.165c -0.055 0 -0.099 -0.022 -0.121 -0.044c -0.055 -0.055 -0.682 -2.42 -0.682 -2.596c 0 -0.099 0.055 -0.154 0.165 -0.154c 0.055 0 0.132 0.055 0.231 0.176l 0.495 0.583c 0.385 -0.506 1.001 -0.759 1.837 -0.759c 0.726 0 1.364 0.297 1.936 0.88c 0.572 0.583 0.858 1.232 0.858 1.958c 0 0.517 -0.176 0.957 -0.539 1.309c -0.165 0.143 -0.385 0.264 -0.66 0.363c -0.253 0.055 -0.495 0.121 -0.737 0.187l -0.726 0.198c -0.363 0.099 -0.638 0.506 -0.638 0.946c 0 0.473 0.187 0.88 0.572 1.232c 0.385 0.352 0.814 0.528 1.287 0.528c 1.012 0 1.518 -0.55 1.518 -1.639c 0 -0.198 -0.044 -0.418 -0.044 -0.605v -0.033c 0.033 -0.077 0.088 -0.121 0.176 -0.121c 0.099 0 0.165 0.088 0.209 0.253l 0.583 2.387c 0 0.099 -0.055 0.154 -0.165 0.154c -0.055 0 -0.132 -0.055 -0.231 -0.176l -0.473 -0.572c -0.308 0.495 -0.825 0.748 -1.562 0.748c -0.693 0 -1.32 -0.264 -1.87 -0.781c -0.572 -0.528 -0.858 -1.133 -0.858 -1.826c 0 -0.792 0.517 -1.419 1.166 -1.595l 1.155 -0.297c 0.594 -0.165 0.968 -0.374 0.968 -1.111c 0 -0.506 -0.198 -0.957 -0.583 -1.353c -0.385 -0.396 -0.825 -0.605 -1.32 -0.605c -1.078 0 -1.859 0.473 -1.859 1.54Z "/></symbol><symbol id="g48A08B2AB87B0C0252D7C6679420B3F2" overflow="visible"><path d="M 0 0m 4.796 4.114c 0 0.462 -0.451 0.748 -0.935 0.748c -0.539 0 -0.99 -0.253 -1.364 -0.77c -0.11 0.429 -0.484 0.77 -1.001 0.77c -0.451 0 -0.781 -0.352 -1.012 -1.067c -0.11 -0.363 -0.165 -0.572 -0.165 -0.638c 0 -0.099 0.055 -0.154 0.176 -0.154c 0.055 0 0.088 0.011 0.121 0.033c 0.055 0.099 0.088 0.176 0.099 0.253c 0.198 0.836 0.451 1.254 0.748 1.254c 0.187 0 0.286 -0.154 0.286 -0.462c 0 -0.143 -0.055 -0.44 -0.165 -0.891l -0.627 -2.497c -0.033 -0.143 -0.099 -0.429 -0.099 -0.484c 0 -0.22 0.121 -0.33 0.352 -0.33c 0.22 0 0.363 0.11 0.44 0.33l 0.209 0.792c 0.121 0.473 0.198 0.781 0.231 0.924l 0.341 1.408c 0.022 0.088 0.11 0.231 0.253 0.44c 0.297 0.418 0.638 0.77 1.177 0.77c 0.132 0 0.242 -0.022 0.341 -0.077c -0.33 -0.099 -0.495 -0.308 -0.495 -0.605c 0 -0.286 0.154 -0.429 0.451 -0.429c 0.363 0 0.638 0.319 0.638 0.682Z "/></symbol><symbol id="gE1FF9BD7B5D515E1F257D961F0CA237F" overflow="visible"><path d="M 0 0m 5.72 7.337c 0 0.121 -0.077 0.176 -0.22 0.176l -1.606 -0.033l -1.441 0.033c -0.165 0.011 -0.253 -0.077 -0.253 -0.264c 0 -0.077 0.033 -0.132 0.099 -0.143c 0.099 -0.011 0.187 -0.022 0.242 -0.022c 0.341 -0.011 0.528 -0.033 0.583 -0.044c 0.055 -0.011 0.088 -0.044 0.088 -0.099c 0 -0.022 -0.011 -0.088 -0.044 -0.198l -1.452 -5.841c -0.066 -0.242 -0.176 -0.385 -0.341 -0.44c -0.066 -0.022 -0.264 -0.033 -0.605 -0.033c -0.231 0 -0.341 -0.088 -0.341 -0.264c 0 -0.11 0.11 -0.165 0.341 -0.165h 5.027c 0.275 0 0.297 0 0.374 0.209l 0.858 2.354c 0.033 0.077 0.044 0.132 0.044 0.165c 0 0.11 -0.055 0.165 -0.176 0.165c -0.11 0 -0.165 -0.099 -0.22 -0.253c -0.209 -0.539 -0.407 -0.946 -0.572 -1.199c -0.407 -0.616 -1.1 -1.012 -2.112 -1.012h -1.023c -0.121 0 -0.198 0 -0.231 0.011c -0.077 0 -0.11 0.022 -0.11 0.055c 0 0.022 0.022 0.099 0.055 0.242l 1.463 5.874c 0.066 0.253 0.209 0.396 0.418 0.451c 0.066 0.011 0.297 0.022 0.693 0.022c 0.308 0 0.462 0 0.462 0.253Z "/></symbol><symbol id="g40FE25E54F5492ED24B9F95C84D97EA9" overflow="visible"><path d="M 0 0m 3.608 3.575c 0 -0.275 0.143 -0.418 0.44 -0.418c 0.396 0 0.649 0.341 0.649 0.737c 0 0.616 -0.649 0.968 -1.309 0.968c -0.759 0 -1.452 -0.33 -2.046 -0.979c -0.594 -0.649 -0.891 -1.364 -0.891 -2.134c 0 -1.078 0.715 -1.87 1.793 -1.87c 0.583 0 1.1 0.143 1.551 0.418c 0.374 0.231 0.649 0.462 0.825 0.693c 0.077 0.099 0.11 0.176 0.11 0.209c 0 0.121 -0.055 0.187 -0.176 0.187c -0.055 0 -0.11 -0.044 -0.176 -0.132c -0.363 -0.484 -0.814 -0.792 -1.331 -0.924c -0.341 -0.088 -0.594 -0.132 -0.781 -0.132c -0.627 0 -0.935 0.385 -0.935 1.144c 0 0.682 0.319 1.672 0.583 2.145c 0.264 0.484 0.825 1.056 1.474 1.056c 0.418 0 0.704 -0.121 0.858 -0.352c -0.341 -0.033 -0.638 -0.253 -0.638 -0.616Z "/></symbol><symbol id="g8DD35590E5062F6A5840D8194DA80E6F" overflow="visible"><path d="M 0 0m 3.971 4.862c -1.243 0 -2.277 -1.342 -2.552 -2.442l -1.056 -4.279c -0.022 -0.088 -0.033 -0.143 -0.033 -0.176c 0 -0.231 0.11 -0.341 0.341 -0.341c 0.165 0 0.308 0.088 0.418 0.253l 0.671 2.629c 0.253 -0.429 0.605 -0.649 1.056 -0.649c 0.726 0 1.364 0.352 1.925 1.067c 0.517 0.671 0.781 1.386 0.781 2.123c 0 1.001 -0.583 1.815 -1.551 1.815Z m -0.022 -0.33c 0.473 0 0.704 -0.341 0.704 -1.023c 0 -0.297 -0.066 -0.682 -0.187 -1.177c -0.242 -0.935 -0.583 -1.562 -1.012 -1.892c -0.231 -0.176 -0.44 -0.264 -0.649 -0.264c -0.209 0 -0.396 0.077 -0.539 0.22c -0.231 0.231 -0.341 0.473 -0.341 0.704c 0.011 0.077 0.033 0.209 0.077 0.396c 0.253 1.045 0.473 1.716 0.649 2.024c 0.385 0.671 0.814 1.012 1.298 1.012Z "/></symbol><symbol id="gB10462D61E960E78377922E9E90F19A6" overflow="visible"><path d="M 0 0m 7.381 7.48c -0.209 0 -0.869 0.033 -1.078 0.033c -0.165 0 -0.253 -0.088 -0.253 -0.253c 0 -0.11 0.077 -0.165 0.22 -0.176c 0.308 -0.011 0.462 -0.121 0.462 -0.308c 0 -0.099 -0.055 -0.231 -0.154 -0.396l -3.278 -5.203l -0.726 5.632c 0 0.187 0.231 0.275 0.704 0.275c 0.22 0 0.319 0.077 0.319 0.264c 0 0.11 -0.066 0.165 -0.198 0.165c -0.242 0 -1.1 -0.033 -1.342 -0.033c -0.22 0 -0.968 0.033 -1.188 0.033c -0.165 0 -0.253 -0.088 -0.253 -0.253c 0 -0.121 0.11 -0.176 0.319 -0.176c 0.187 0 0.319 -0.022 0.407 -0.044c 0.176 -0.055 0.165 -0.077 0.198 -0.286l 0.858 -6.71c 0.033 -0.187 0.121 -0.286 0.264 -0.286c 0.143 0 0.253 0.077 0.341 0.22l 3.916 6.226c 0.253 0.396 0.495 0.649 0.737 0.748c 0.165 0.077 0.374 0.121 0.616 0.132c 0.121 0.011 0.176 0.088 0.187 0.253c 0.011 0.121 -0.055 0.176 -0.187 0.176c -0.165 0 -0.726 -0.033 -0.891 -0.033Z "/></symbol><symbol id="gD9181C58C134A18FD40559388A025E62" overflow="visible"><path d="M 0 0m 5.775 4.741h -2.475c -0.528 0 -1.023 -0.165 -1.474 -0.506c -0.704 -0.539 -1.408 -1.485 -1.408 -2.607c 0 -0.99 0.682 -1.749 1.672 -1.749c 0.737 0 1.397 0.319 1.958 0.957c 0.539 0.616 0.803 1.298 0.803 2.057c 0 0.451 -0.099 0.825 -0.297 1.133h 1.111c 0.385 0 0.572 0.132 0.572 0.407c 0 0.253 -0.187 0.308 -0.462 0.308Z m -4.598 -3.41c 0 0.649 0.154 1.243 0.473 1.771c 0.374 0.616 0.858 0.924 1.463 0.924c 0.638 0 0.957 -0.33 0.957 -1.001c 0 -0.275 -0.055 -0.594 -0.165 -0.968c -0.22 -0.781 -0.583 -1.331 -1.089 -1.628c -0.253 -0.154 -0.495 -0.231 -0.715 -0.231c -0.605 0 -0.924 0.495 -0.924 1.133Z "/></symbol><symbol id="g9C5E01F97914784D6046F24928CB3533" overflow="visible"><path d="M 0 0m 3.498 -2.728c 0.099 0 0.154 0.055 0.154 0.154c 0 0.033 -0.022 0.077 -0.055 0.121c -0.572 0.44 -1.034 1.166 -1.375 2.167c -0.297 0.869 -0.451 1.727 -0.451 2.574v 0.924c 0 0.847 0.154 1.705 0.451 2.574c 0.341 1.001 0.803 1.727 1.375 2.167c 0.033 0.033 0.055 0.077 0.055 0.121c 0 0.099 -0.055 0.154 -0.154 0.154c -0.011 0 -0.044 -0.011 -0.077 -0.033c -0.66 -0.506 -1.21 -1.254 -1.661 -2.255c -0.429 -0.957 -0.649 -1.859 -0.649 -2.728v -0.924c 0 -0.869 0.22 -1.771 0.649 -2.728c 0.451 -1.001 1.001 -1.749 1.661 -2.255c 0.033 -0.022 0.066 -0.033 0.077 -0.033Z "/></symbol><symbol id="gB4F8E97E8EFD98CA94EE40D9890E0542" overflow="visible"><path d="M 0 0m 4.4891 2.8105c 0 0.3927 -0.4004 0.5852 -0.8162 0.5852c -0.3465 0 -0.6314 -0.1694 -0.847 -0.5082c -0.1848 0.3388 -0.4928 0.5082 -0.9163 0.5082c -0.2849 0 -0.5852 -0.1232 -0.8855 -0.3773c -0.3157 -0.2618 -0.4774 -0.5313 -0.4774 -0.8085c 0 -0.0847 0.0539 -0.1309 0.154 -0.1309c 0.0847 0 0.1386 0.0462 0.1771 0.1463c 0.1386 0.4158 0.5159 0.9009 1.0087 0.9009c 0.2849 0 0.4235 -0.154 0.4235 -0.4697c 0 -0.1001 -0.0539 -0.3619 -0.154 -0.7854l -0.2618 -1.0318c -0.0693 -0.2926 -0.3542 -0.6468 -0.6853 -0.6468c -0.1309 0 -0.2464 0.0231 -0.3388 0.077c 0.154 0.0693 0.2926 0.2387 0.2926 0.4158c 0 0.1848 -0.1463 0.3157 -0.3311 0.3157c -0.2618 0 -0.462 -0.231 -0.462 -0.4928c 0 -0.385 0.4081 -0.5852 0.8239 -0.5852c 0.3542 0 0.6391 0.1694 0.847 0.5082c 0.1848 -0.3388 0.4851 -0.5082 0.9086 -0.5082c 0.4235 0 0.7623 0.1694 1.0241 0.5082c 0.2233 0.3003 0.3388 0.5313 0.3388 0.6776c 0 0.0847 -0.0462 0.1309 -0.1463 0.1309c -0.0847 0 -0.1463 -0.0539 -0.1771 -0.154c -0.1309 -0.4081 -0.5236 -0.8932 -1.0087 -0.8932c -0.2849 0 -0.4312 0.154 -0.4312 0.462c 0 0.1155 0.1309 0.693 0.3927 1.7171c 0.1309 0.5005 0.3619 0.7546 0.7084 0.7546l 0.0693 -0.0077c 0.0924 0 0.1848 -0.0231 0.2695 -0.0616c -0.1925 -0.0847 -0.2849 -0.2233 -0.2849 -0.4235c 0 -0.1848 0.1463 -0.3157 0.3311 -0.3157c 0.2618 0 0.4543 0.231 0.4543 0.4928Z "/></symbol><symbol id="gEC6B2960E55C4FDFB3A9FE64AB857D49" overflow="visible"><path d="M 0 0m 2.189 7.216c 0 -0.11 0.121 -0.165 0.352 -0.165c 0.44 0 0.66 -0.044 0.66 -0.143c 0 -0.033 -0.022 -0.11 -0.055 -0.253l -1.43 -5.753c -0.066 -0.242 -0.176 -0.385 -0.33 -0.44c -0.077 -0.022 -0.275 -0.033 -0.616 -0.033c -0.242 0 -0.352 -0.022 -0.352 -0.253c 0 -0.121 0.066 -0.176 0.209 -0.176l 1.43 0.033l 1.628 -0.033c 0.176 0 0.264 0.088 0.264 0.253c 0 0.187 -0.121 0.176 -0.407 0.176c -0.484 0 -0.759 0.022 -0.825 0.077c -0.033 0.011 -0.044 0.055 -0.044 0.11l 0.704 2.915h 1.023c 0.506 0 0.858 -0.022 0.858 -0.44c 0 -0.143 -0.022 -0.319 -0.077 -0.528c -0.011 -0.033 -0.022 -0.077 -0.033 -0.121c 0 -0.121 0.055 -0.176 0.176 -0.176c 0.055 0.011 0.132 0.088 0.209 0.253l 0.594 2.365c 0.022 0.088 0.033 0.154 0.033 0.187c -0.033 0.099 -0.099 0.154 -0.176 0.154c -0.088 0 -0.154 -0.088 -0.198 -0.253c -0.11 -0.418 -0.264 -0.682 -0.44 -0.814c -0.176 -0.132 -0.484 -0.198 -0.924 -0.198h -0.935l 0.682 2.706c 0.088 0.374 0.088 0.385 0.55 0.385h 1.43c 1.067 0 1.551 -0.165 1.551 -1.144c 0 -0.22 -0.011 -0.418 -0.033 -0.583c -0.011 -0.121 -0.022 -0.187 -0.022 -0.198c 0 -0.121 0.055 -0.176 0.165 -0.176c 0.11 0 0.176 0.099 0.198 0.308l 0.22 1.881c 0.033 0.308 -0.044 0.341 -0.341 0.341h -5.324c -0.253 0 -0.374 -0.011 -0.374 -0.264Z "/></symbol><symbol id="g6A7F5A83C1AD46379FEDFD85DC0924EE" overflow="visible"><path d="M 0 0m 1.903 6.952l -1.364 -5.643c -0.033 -0.154 -0.055 -0.286 -0.055 -0.385c 0 -0.583 0.429 -1.045 1.012 -1.045c 0.539 0 0.924 0.572 1.155 1.716c 0 0.099 -0.055 0.154 -0.176 0.154c -0.088 0 -0.154 -0.077 -0.187 -0.231c -0.22 -0.869 -0.473 -1.309 -0.77 -1.309c -0.187 0 -0.275 0.154 -0.275 0.451c 0 0.165 0.022 0.341 0.066 0.517l 1.529 6.292v 0.044c -0.033 0.077 -0.099 0.121 -0.176 0.121c -0.352 0 -1.166 -0.099 -1.298 -0.11c -0.165 -0.022 -0.242 -0.11 -0.242 -0.275c 0 -0.099 0.099 -0.154 0.308 -0.154c 0.187 0 0.473 0 0.473 -0.143Z "/></symbol><symbol id="g734CD247DFD60109D2311950C7F0F6FA" overflow="visible"><path d="M 0 0m 0.165 -1.551c 0 -0.473 0.495 -0.704 1.485 -0.704c 0.517 0 1.001 0.132 1.43 0.385c 0.484 0.286 0.781 0.671 0.902 1.144l 1.199 4.829c 0.022 0.11 0.033 0.176 0.033 0.209c 0 0.22 -0.121 0.33 -0.352 0.33c -0.242 0 -0.396 -0.132 -0.473 -0.385c -0.242 0.407 -0.572 0.605 -0.979 0.605c -0.704 0 -1.331 -0.352 -1.87 -1.056c -0.495 -0.66 -0.748 -1.353 -0.748 -2.068c 0 -0.957 0.561 -1.771 1.485 -1.771c 0.429 0 0.825 0.187 1.188 0.55l -0.33 -1.298c -0.319 -0.759 -0.814 -1.144 -1.507 -1.144c -0.286 0 -0.528 0.022 -0.726 0.066c 0.231 0.121 0.341 0.308 0.341 0.561c 0 0.275 -0.154 0.418 -0.451 0.418c -0.352 0 -0.627 -0.319 -0.627 -0.671Z m 3.751 5.863c 0.22 -0.231 0.33 -0.451 0.33 -0.671c 0 -0.011 -0.011 -0.066 -0.033 -0.143l -0.517 -2.079c -0.066 -0.253 -0.253 -0.517 -0.55 -0.759c -0.297 -0.242 -0.583 -0.363 -0.836 -0.363c -0.44 0 -0.66 0.319 -0.66 0.957c 0 0.605 0.374 1.947 0.594 2.343c 0.341 0.627 0.726 0.935 1.177 0.935c 0.198 0 0.363 -0.077 0.495 -0.22Z "/></symbol><symbol id="gCB4E91739EACE7368E3223F2D0EF6CCC" overflow="visible"><path d="M 0 0m 4.62 3.894c 0 0.627 -0.638 0.968 -1.32 0.968c -0.693 0 -1.188 -0.209 -1.485 -0.627c -0.253 -0.363 -0.385 -0.693 -0.385 -0.99c 0 -0.583 0.385 -0.957 1.144 -1.122c 0.319 -0.055 0.561 -0.132 0.748 -0.22c 0.231 -0.099 0.341 -0.286 0.341 -0.55c 0 -0.198 -0.088 -0.418 -0.275 -0.671c -0.231 -0.319 -0.638 -0.484 -1.221 -0.484c -0.594 0 -0.979 0.165 -1.155 0.484c 0.352 -0.011 0.649 0.275 0.649 0.627c 0 0.275 -0.143 0.418 -0.44 0.418c -0.396 0 -0.649 -0.363 -0.649 -0.759c 0 -0.726 0.792 -1.089 1.584 -1.089c 0.825 0 1.419 0.242 1.771 0.737c 0.297 0.407 0.44 0.77 0.44 1.1c 0 0.473 -0.231 0.825 -0.682 1.056c -0.341 0.121 -0.605 0.198 -0.77 0.231c -0.385 0.099 -0.781 0.132 -0.781 0.605c 0 0.583 0.55 0.935 1.166 0.935c 0.462 0 0.759 -0.143 0.902 -0.418c -0.242 -0.044 -0.495 -0.253 -0.495 -0.528c 0 -0.231 0.121 -0.352 0.374 -0.352c 0.341 0 0.539 0.308 0.539 0.649Z "/></symbol><symbol id="g44903F1336FFA3AC82F2FDAECC383B22" overflow="visible"><path d="M 0 0m 0.858 -2.695c 0.66 0.506 1.21 1.254 1.661 2.255c 0.429 0.957 0.649 1.859 0.649 2.728v 0.924c 0 0.869 -0.22 1.771 -0.649 2.728c -0.451 1.001 -1.001 1.749 -1.661 2.255c -0.033 0.022 -0.066 0.033 -0.077 0.033c -0.099 0 -0.154 -0.055 -0.154 -0.154c 0 -0.044 0.022 -0.088 0.055 -0.121c 0.572 -0.44 1.034 -1.166 1.375 -2.167c 0.297 -0.869 0.451 -1.727 0.451 -2.574v -0.924c 0 -0.847 -0.154 -1.705 -0.451 -2.574c -0.341 -1.001 -0.803 -1.727 -1.375 -2.167c -0.033 -0.044 -0.055 -0.088 -0.055 -0.121c 0 -0.099 0.055 -0.154 0.154 -0.154c 0.011 0 0.044 0.011 0.077 0.033Z "/></symbol><symbol id="g2F39271B45DAA385DCDAA0BAA9F6EC02" overflow="visible"><path d="M 0 0m 6.93 0.352c 0 0.077 -0.022 0.132 -0.077 0.187l -2.211 2.211l 2.211 2.211c 0.055 0.055 0.077 0.11 0.077 0.187c 0 0.143 -0.11 0.253 -0.253 0.253c -0.077 0 -0.132 -0.022 -0.187 -0.077l -2.211 -2.211l -2.211 2.211c -0.055 0.055 -0.11 0.077 -0.187 0.077c -0.143 0 -0.253 -0.11 -0.253 -0.253c 0 -0.077 0.022 -0.132 0.077 -0.187l 2.211 -2.211l -2.211 -2.211c -0.055 -0.055 -0.077 -0.11 -0.077 -0.187c 0 -0.143 0.11 -0.253 0.253 -0.253c 0.077 0 0.132 0.022 0.187 0.077l 2.211 2.211l 2.211 -2.211c 0.055 -0.055 0.11 -0.077 0.187 -0.077c 0.143 0 0.253 0.11 0.253 0.253Z "/></symbol><symbol id="g1191ED62F436B58C75B652BB46FBF60F" overflow="visible"><path d="M 0 0m 4.18 -3.817c 0.11 0 0.165 0.055 0.165 0.165c 0 0.055 -0.022 0.099 -0.055 0.132c -0.671 0.517 -1.21 1.364 -1.617 2.552c -0.352 1.023 -0.528 2.035 -0.528 3.014v 1.408c 0 0.979 0.176 1.991 0.528 3.014c 0.407 1.188 0.946 2.035 1.617 2.552c 0.033 0.033 0.055 0.077 0.055 0.132c 0 0.11 -0.055 0.165 -0.165 0.165c -0.022 0 -0.055 -0.011 -0.088 -0.033c -0.77 -0.583 -1.408 -1.463 -1.914 -2.64c -0.495 -1.111 -0.737 -2.178 -0.737 -3.19v -1.408c 0 -1.012 0.242 -2.079 0.737 -3.19c 0.506 -1.177 1.144 -2.057 1.914 -2.64c 0.033 -0.022 0.066 -0.033 0.088 -0.033Z "/></symbol><symbol id="g7058399F9FB7CD69929F2864C4EDB984" overflow="visible"><path d="M 0 0m 4.0348 3.3187c -0.154 0 -0.2695 -0.0693 -0.3388 -0.2002c -0.0154 -0.0231 -0.0539 -0.1694 -0.1232 -0.4466l -0.462 -1.848c -0.0539 -0.0847 -0.1001 -0.1617 -0.154 -0.2233c -0.2464 -0.2849 -0.5005 -0.4235 -0.7546 -0.4235c -0.3234 0 -0.4851 0.2002 -0.4851 0.6006c 0 0.2849 0.1309 0.7777 0.4004 1.463c 0.0847 0.231 0.1309 0.3927 0.1309 0.4774c 0 0.4004 -0.3465 0.6776 -0.7469 0.6776c -0.3696 0 -0.6622 -0.1848 -0.8778 -0.5544c -0.1771 -0.3003 -0.2618 -0.5159 -0.2618 -0.6391c 0 -0.0847 0.0539 -0.1309 0.1617 -0.1309c 0.0847 0 0.1386 0.0462 0.1617 0.1463c 0.1771 0.6006 0.4466 0.9009 0.7931 0.9009c 0.1001 0 0.154 -0.077 0.154 -0.231c 0 -0.1155 -0.0308 -0.2541 -0.1001 -0.4312c -0.1617 -0.4081 -0.2541 -0.6622 -0.2926 -0.7623c -0.1001 -0.3003 -0.1463 -0.5698 -0.1463 -0.7931c 0 -0.6545 0.4235 -0.9933 1.078 -0.9933c 0.2849 0 0.539 0.0924 0.7777 0.2849c -0.1155 -0.4389 -0.2695 -0.7777 -0.4697 -1.0164c -0.2772 -0.3157 -0.5698 -0.4697 -0.8855 -0.4697c -0.2387 0 -0.4158 0.0616 -0.5236 0.1925c 0.2156 0.0539 0.3927 0.2002 0.3927 0.4466c 0 0.2079 -0.1078 0.3157 -0.3311 0.3157c -0.2772 0 -0.4697 -0.2541 -0.4697 -0.5313c 0 -0.4543 0.4466 -0.7007 0.9317 -0.7007c 0.4543 0 0.8624 0.154 1.2397 0.4543c 0.3773 0.3003 0.616 0.6776 0.7238 1.1165l 0.7238 2.8721c 0.0231 0.0847 0.0308 0.1386 0.0308 0.1771c 0 0.154 -0.1232 0.2695 -0.2772 0.2695Z "/></symbol><symbol id="g90C70798A55D47911C9509EA3A2AC8D8" overflow="visible"><path d="M 0 0m 0.946 -3.784c 0.77 0.583 1.408 1.463 1.914 2.64c 0.495 1.111 0.737 2.178 0.737 3.19v 1.408c 0 1.012 -0.242 2.079 -0.737 3.19c -0.506 1.177 -1.144 2.057 -1.914 2.64c -0.033 0.022 -0.066 0.033 -0.088 0.033c -0.11 0 -0.165 -0.055 -0.165 -0.165c 0 -0.055 0.022 -0.099 0.055 -0.132c 0.671 -0.517 1.21 -1.364 1.617 -2.552c 0.352 -1.023 0.528 -2.035 0.528 -3.014v -1.408c 0 -0.979 -0.176 -1.991 -0.528 -3.014c -0.407 -1.188 -0.946 -2.035 -1.617 -2.552c -0.033 -0.033 -0.055 -0.077 -0.055 -0.132c 0 -0.11 0.055 -0.165 0.165 -0.165c 0.022 0 0.055 0.011 0.088 0.033Z "/></symbol><symbol id="gC5D2F11606059683B8CADF95C716D01F" overflow="visible"><path d="M 0 0m 3.6498 0.9702c -0.0462 0 -0.0924 -0.0308 -0.1386 -0.0924c -0.3927 -0.4543 -0.924 -0.6853 -1.5862 -0.6853c -0.4851 0 -0.7315 0.2926 -0.7315 0.8855c 0 0.1617 0.0308 0.3773 0.0847 0.6468h 0.4543c 1.2705 0 1.9096 0.3234 1.9096 0.9779c 0 0.4543 -0.4774 0.693 -0.9625 0.693c -0.3234 0 -0.6468 -0.077 -0.9702 -0.2233c -0.6237 -0.2849 -1.1935 -0.9471 -1.1935 -1.7941c 0 -0.847 0.5467 -1.4553 1.3937 -1.4553c 0.4774 0 0.8855 0.0924 1.2243 0.2772c 0.1771 0.1001 0.6776 0.4235 0.6776 0.6083c 0 0.0693 -0.0924 0.1617 -0.1617 0.1617Z m -0.3927 1.7325c 0 -0.4697 -0.5236 -0.7084 -1.5708 -0.7084h -0.3311c 0.1463 0.4851 0.3773 0.8085 0.7007 0.9548c 0.2541 0.1155 0.462 0.1771 0.6237 0.1771c 0.2926 0 0.5775 -0.1463 0.5775 -0.4235Z "/></symbol><symbol id="g9BF42A7FD200FCC695B69F38EC5E6DDA" overflow="visible"><path d="M 0 0m 3.674 -0.22c 0.759 0 1.441 0.209 2.024 0.638c 0.649 0.473 0.979 1.078 0.979 1.815v 4.147c 0 0.176 -0.088 0.264 -0.264 0.264c -0.165 0 -0.253 -0.088 -0.253 -0.264v -4.147c 0 -0.594 -0.275 -1.078 -0.825 -1.441c -0.495 -0.33 -1.045 -0.495 -1.661 -0.495c -0.616 0 -1.166 0.165 -1.661 0.495c -0.55 0.363 -0.825 0.847 -0.825 1.441v 4.147c 0 0.176 -0.088 0.264 -0.253 0.264c -0.176 0 -0.264 -0.088 -0.264 -0.264v -4.147c 0 -0.737 0.33 -1.342 0.979 -1.815c 0.583 -0.429 1.265 -0.638 2.024 -0.638Z "/></symbol><symbol id="gC8E481438285A0E013830E0AE21DE9E1" overflow="visible"><path d="M 0 0m 3.146 -1.342v 2.728c 0 0.627 -0.385 1.089 -1.144 1.364c 0.759 0.275 1.144 0.737 1.144 1.364v 2.728c 0 0.638 0.682 1.056 1.353 1.056c 0.121 0 0.176 0.055 0.176 0.176c 0 0.121 -0.055 0.176 -0.176 0.176c -0.506 0 -0.968 -0.11 -1.375 -0.319c -0.517 -0.264 -0.77 -0.627 -0.77 -1.089v -2.728c 0 -0.693 -0.66 -1.188 -1.353 -1.188c -0.121 0 -0.176 -0.055 -0.176 -0.176c 0 -0.121 0.055 -0.176 0.176 -0.176c 0.704 0 1.353 -0.506 1.353 -1.188v -2.728c 0 -0.462 0.253 -0.825 0.77 -1.089c 0.407 -0.209 0.869 -0.319 1.375 -0.319c 0.121 0 0.176 0.055 0.176 0.176c 0 0.121 -0.055 0.176 -0.176 0.176c -0.671 0 -1.353 0.418 -1.353 1.056Z "/></symbol><symbol id="gC9CF2B268112D692AA5AABDD5E57E12A" overflow="visible"><path d="M 0 0m 0.6875 1.680078125v 3.132421875h 1.258984375v -2.9390625q 0 -0.519921875 0.14609375 -0.743359375q 0.14609375 -0.2234375 0.485546875 -0.2234375q 0.339453125 0 0.530664063 0.30078125q 0.191210938 0.30078125 0.191210938 0.8421875v 2.762890625h 1.258984375v -4.8125h -1.258984375v 0.71328125q -0.133203125 -0.399609375 -0.453320313 -0.61875q -0.320117188 -0.219140625 -0.771289063 -0.219140625q -0.6875 0 -1.037695313 0.45546875q -0.350195313 0.45546875 -0.350195313 1.34921875Z "/></symbol><symbol id="gE9FB6D24CF34BB489DEF6497581F7D30" overflow="visible"><path d="M 0 0m 4.601953125 3.123828125v -3.123828125h -1.250390625v 2.93046875q 0 0.52421875 -0.148242188 0.749804688q -0.148242188 0.225585938 -0.483398438 0.225585938q -0.339453125 0 -0.534960938 -0.305078125q -0.195507813 -0.305078125 -0.195507813 -0.846484375v -2.754296875h -1.250390625v 4.8125h 1.250390625v -0.721875q 0.133203125 0.399609375 0.45546875 0.61875q 0.322265625 0.219140625 0.777734375 0.219140625q 0.683203125 0 1.03125 -0.453320313q 0.348046875 -0.453320313 0.348046875 -1.351367188Z "/></symbol><symbol id="g63B965801B083A4B7FC462DA5A8A0C4F" overflow="visible"><path d="M 0 0m 4.954296875 4.8125l -1.5296875 -4.8125h -1.551171875l -1.5296875 4.8125h 1.276171875l 1.026953125 -3.75546875l 1.03125 3.75546875h 1.276171875Z "/></symbol><symbol id="gC7D47DC372E107A289A7A7112EBE55E9" overflow="visible"><path d="M 0 0m 0.949609375 4.8125h 2.4921875v -3.845703125h 1.5640625v -0.966796875h -4.39140625v 0.966796875h 1.568359375v 2.87890625h -1.233203125v 0.966796875Z m 1.233203125 2.341796875h 1.258984375v -1.46953125h -1.258984375v 1.46953125Z "/></symbol><symbol id="g7C3292C458A46A58B9B9833BA97D9587" overflow="visible"><path d="M 0 0m 4.258203125 4.662109375v -1.1q -0.348046875 0.2234375 -0.724023438 0.337304688q -0.375976563 0.113867188 -0.754101563 0.113867188q -0.42109375 0 -0.6359375 -0.122460938q -0.21484375 -0.122460938 -0.21484375 -0.363085938q 0 -0.34375 0.91953125 -0.55859375l 0.047265625 -0.012890625l 0.3609375 -0.0859375q 0.6875 -0.16328125 1.007617188 -0.526367188q 0.320117188 -0.363085938 0.320117188 -0.981835938q 0 -0.743359375 -0.487695313 -1.115039063q -0.487695313 -0.371679688 -1.467382813 -0.371679688q -0.433984375 0 -0.889453125 0.075195313q -0.45546875 0.075195313 -0.923828125 0.225585938v 1.1q 0.416796875 -0.236328125 0.848632813 -0.3609375q 0.431835938 -0.124609375 0.835742188 -0.124609375q 0.442578125 0 0.6703125 0.12890625q 0.227734375 0.12890625 0.227734375 0.373828125q 0 0.240625 -0.161132813 0.36953125q -0.161132813 0.12890625 -0.766992188 0.275l -0.348046875 0.07734375q -0.721875 0.16328125 -1.052734375 0.511328125q -0.330859375 0.348046875 -0.330859375 0.932421875q 0 0.69609375 0.502734375 1.0828125q 0.502734375 0.38671875 1.413671875 0.38671875q 0.408203125 0 0.814257813 -0.066601563q 0.406054688 -0.066601563 0.788476563 -0.199804688Z "/></symbol><symbol id="gB75E13C86ADCA88662C5D7AC943163C3" overflow="visible"><path d="M 0 0m 2.96484375 6.17890625v -1.36640625h 1.645703125v -0.966796875h -1.645703125v -2.27734375q 0 -0.322265625 0.156835938 -0.461914063q 0.156835938 -0.139648438 0.522070313 -0.139648438h 0.966796875v -0.966796875h -1.05703125q -1.0828125 0 -1.465234375 0.345898438q -0.382421875 0.345898438 -0.382421875 1.282617188v 2.2171875h -1.22890625v 0.966796875h 1.22890625v 1.36640625h 1.258984375Z "/></symbol><symbol id="g11189D36A8ED0A9E003DFD239176016" overflow="visible"><path d="M 0 0m 4.73515625 0.236328125q -0.43828125 -0.18046875 -0.89375 -0.270703125q -0.45546875 -0.090234375 -0.9625 -0.090234375q -1.207421875 0 -1.845507813 0.646679688q -0.638085938 0.646679688 -0.638085938 1.862695313q 0 1.17734375 0.614453125 1.860546875q 0.614453125 0.683203125 1.67578125 0.683203125q 1.069921875 0 1.660742188 -0.633789063q 0.590820313 -0.633789063 0.590820313 -1.785351563v -0.511328125h -3.261328125q 0.004296875 -0.5671875 0.33515625 -0.846484375q 0.330859375 -0.279296875 0.98828125 -0.279296875q 0.433984375 0 0.855078125 0.124609375q 0.42109375 0.124609375 0.880859375 0.3953125v -1.155859375Z m -1.065625 2.70703125q -0.00859375 0.4984375 -0.255664063 0.754101563q -0.247070313 0.255664063 -0.728320313 0.255664063q -0.433984375 0 -0.691796875 -0.264257813q -0.2578125 -0.264257813 -0.305078125 -0.749804688l 1.980859375 0.004296875Z "/></symbol><symbol id="g96818725DD91C4F0FF90130D23331B7" overflow="visible"><path d="M 0 0m 3.398828125 4.129296875v 2.556640625h 1.2546875v -6.6859375h -1.2546875v 0.71328125q -0.201953125 -0.416796875 -0.522070313 -0.62734375q -0.320117188 -0.210546875 -0.754101563 -0.210546875q -0.825 0 -1.28046875 0.66171875q -0.45546875 0.66171875 -0.45546875 1.86484375q 0 1.2203125 0.461914063 1.8734375q 0.461914063 0.653125 1.316992188 0.653125q 0.38671875 0 0.693945313 -0.199804688q 0.307226563 -0.199804688 0.539257813 -0.599414063Z m -1.753125 -1.7359375q 0 -0.69609375 0.23203125 -1.09140625q 0.23203125 -0.3953125 0.640234375 -0.3953125q 0.408203125 0 0.64453125 0.3953125q 0.236328125 0.3953125 0.236328125 1.09140625q 0 0.69609375 -0.236328125 1.09140625q -0.236328125 0.3953125 -0.64453125 0.3953125q -0.408203125 0 -0.640234375 -0.3953125q -0.23203125 -0.3953125 -0.23203125 -1.09140625Z "/></symbol><symbol id="gDCF33896590FB4FA75025AD13DB0C7CC" overflow="visible"><path d="M 0 0m 3.146 4.114v 2.728c 0 0.462 -0.253 0.825 -0.77 1.089c -0.407 0.209 -0.869 0.319 -1.375 0.319c -0.121 0 -0.176 -0.055 -0.176 -0.176c 0 -0.121 0.055 -0.176 0.176 -0.176c 0.671 0 1.353 -0.418 1.353 -1.056v -2.728c 0 -0.627 0.385 -1.089 1.144 -1.364c -0.759 -0.275 -1.144 -0.737 -1.144 -1.364v -2.728c 0 -0.638 -0.682 -1.056 -1.353 -1.056c -0.121 0 -0.176 -0.055 -0.176 -0.176c 0 -0.121 0.055 -0.176 0.176 -0.176c 0.506 0 0.968 0.11 1.375 0.319c 0.517 0.264 0.77 0.627 0.77 1.089v 2.728c 0 0.682 0.649 1.188 1.353 1.188c 0.121 0 0.176 0.055 0.176 0.176c 0 0.121 -0.055 0.176 -0.176 0.176c -0.704 0 -1.353 0.506 -1.353 1.188Z "/></symbol><symbol id="g4AA9066DE258008E649636F009E5714C" overflow="visible"><path d="M 0 0m 4.499 3.883c 0 -0.286 0.154 -0.429 0.451 -0.429c 0.385 0 0.638 0.341 0.638 0.715c 0 0.429 -0.352 0.726 -0.781 0.726c -0.495 0 -1.023 -0.33 -1.606 -0.979c -0.451 -0.495 -0.814 -0.814 -1.111 -0.957l 1.111 4.51c -0.022 0.099 -0.044 0.165 -0.187 0.165c -0.352 0 -1.188 -0.099 -1.32 -0.11c -0.165 -0.022 -0.242 -0.099 -0.242 -0.264c 0 -0.11 0.099 -0.165 0.297 -0.165c 0.209 0 0.495 0.011 0.495 -0.143l -1.595 -6.479c -0.033 -0.121 -0.044 -0.198 -0.044 -0.242c 0 -0.231 0.121 -0.352 0.352 -0.352c 0.187 0 0.33 0.088 0.407 0.253c 0.055 0.099 0.253 0.88 0.605 2.354c 0.572 -0.055 1.177 -0.33 1.177 -0.88c 0 -0.165 -0.077 -0.495 -0.077 -0.605c 0 -0.627 0.407 -1.122 1.034 -1.122c 0.638 0 1.067 0.572 1.287 1.716c 0 0.099 -0.055 0.154 -0.165 0.154c -0.099 0 -0.165 -0.077 -0.198 -0.231c -0.242 -0.869 -0.539 -1.309 -0.902 -1.309c -0.198 0 -0.297 0.154 -0.297 0.462c 0 0.176 0.132 0.77 0.132 0.946c 0 0.627 -0.506 1.012 -1.529 1.166c 0.253 0.176 0.539 0.429 0.847 0.759c 0.308 0.33 0.528 0.539 0.671 0.66c 0.297 0.242 0.583 0.363 0.836 0.363c 0.11 0 0.198 -0.022 0.264 -0.066c -0.297 -0.055 -0.55 -0.33 -0.55 -0.616Z "/></symbol><symbol id="gF2E9DE7382F8BB82A14E9A8C0CA6C0F0" overflow="visible"><path d="M 0 0m 1.529 1.166c -0.352 0 -0.583 -0.264 -0.583 -0.616c 0 -0.33 0.253 -0.605 0.583 -0.605c 0.154 0 0.286 0.044 0.385 0.143l 0.011 -0.088c 0 -0.693 -0.231 -1.287 -0.693 -1.76c -0.077 -0.088 -0.121 -0.154 -0.121 -0.198c 0 -0.11 0.044 -0.165 0.143 -0.165c 0.099 0 0.231 0.132 0.418 0.385c 0.374 0.528 0.561 1.111 0.561 1.738c 0 0.583 -0.198 1.166 -0.704 1.166Z "/></symbol><symbol id="g558A5C375901DE965B1BCC9FC1C0BEA4" overflow="visible"><path d="M 0 0m 1.452 3.663c 0 1.479303284 1.13128511 2.706 2.706 2.706h 3.201c 0.176 0 0.264 0.088 0.264 0.264c 0 0.176 -0.088 0.264 -0.264 0.264h -3.201c -1.829379257 0 -3.223 -1.406540405 -3.223 -3.234c 0 -1.827478897 1.393639877 -3.234 3.223 -3.234h 3.201c 0.176 0 0.264 0.088 0.264 0.264c 0 0.143 -0.121 0.264 -0.264 0.264h -3.201c -1.574702972 0 -2.706 1.226684464 -2.706 2.706Z m 5.907 -4.543h -5.929c -0.165 0 -0.253 -0.088 -0.253 -0.253c 0 -0.176 0.088 -0.264 0.253 -0.264h 5.929c 0.176 0 0.264 0.088 0.264 0.264c 0 0.132 -0.121 0.253 -0.264 0.253Z "/></symbol><symbol id="g360B7012FB5D77E140EC2FBBBED66DC1" overflow="visible"><path d="M 0 0m 4.945703125 3.484765625q -0.20625 0.1890625 -0.483398438 0.28359375q -0.277148438 0.09453125 -0.608007813 0.09453125q -0.399609375 0 -0.698242188 -0.139648438q -0.298632813 -0.139648438 -0.461914063 -0.406054688q -0.103125 -0.16328125 -0.143945313 -0.3953125q -0.040820313 -0.23203125 -0.040820313 -0.7046875v -2.2171875h -1.258984375v 4.8125h 1.258984375v -0.74765625q 0.184765625 0.4125 0.5671875 0.638085938q 0.382421875 0.225585938 0.89375 0.225585938q 0.2578125 0 0.504882813 -0.062304688q 0.247070313 -0.062304688 0.470507813 -0.182617188v -1.198828125Z "/></symbol><symbol id="g7E7E6665B7F0AE46660C9C20644DB79" overflow="visible"><path d="M 0 0m 3.175390625 5.23359375v -0.42109375h 1.478125v -0.966796875h -1.478125v -3.845703125h -1.258984375v 3.845703125h -1.16875v 0.966796875h 1.16875v 0.33515625q 0 0.86796875 0.3609375 1.203125q 0.3609375 0.33515625 1.340625 0.33515625h 1.035546875v -0.966796875h -0.983984375q -0.28359375 0 -0.384570313 -0.103125q -0.100976563 -0.103125 -0.109570313 -0.382421875Z "/></symbol><symbol id="g82D23B6D5370404661A1780E66CA09E" overflow="visible"><path d="M 0 0m 3.0078125 2.26015625q -0.7046875 0 -0.983984375 -0.18046875q -0.279296875 -0.18046875 -0.279296875 -0.61875q 0 -0.3265625 0.193359375 -0.519921875q 0.193359375 -0.193359375 0.52421875 -0.193359375q 0.4984375 0 0.7734375 0.375976563q 0.275 0.375976563 0.275 1.050585938v 0.0859375h -0.502734375Z m 1.753125 0.485546875v -2.745703125h -1.250390625v 0.537109375q -0.227734375 -0.31796875 -0.584375 -0.48984375q -0.356640625 -0.171875 -0.786328125 -0.171875q -0.820703125 0 -1.278320313 0.433984375q -0.457617188 0.433984375 -0.457617188 1.21171875q 0 0.8421875 0.545703125 1.243945313q 0.545703125 0.401757813 1.688671875 0.401757813h 0.872265625v 0.210546875q 0 0.305078125 -0.221289063 0.461914063q -0.221289063 0.156835938 -0.650976563 0.156835938q -0.451171875 0 -0.874414063 -0.113867188q -0.423242188 -0.113867188 -0.883007813 -0.363085938v 1.07421875q 0.416796875 0.171875 0.846484375 0.253515625q 0.4296875 0.081640625 0.9109375 0.081640625q 1.173046875 0 1.647851563 -0.476953125q 0.474804688 -0.476953125 0.474804688 -1.705859375Z "/></symbol><symbol id="g94BCA02B566503DA7C3B222020565AB9" overflow="visible"><path d="M 0 0m 3.450390625 2.48359375q 0 0.64453125 -0.244921875 1.033398438q -0.244921875 0.388867188 -0.64453125 0.388867188q -0.3953125 0 -0.638085938 -0.38671875q -0.242773438 -0.38671875 -0.242773438 -1.035546875q 0 -0.653125 0.242773438 -1.03984375q 0.242773438 -0.38671875 0.638085938 -0.38671875q 0.399609375 0 0.64453125 0.388867188q 0.244921875 0.388867188 0.244921875 1.037695313Z m 1.258984375 -2.12265625q 0 -1.155859375 -0.522070313 -1.669335938q -0.522070313 -0.513476563 -1.695117188 -0.513476563q -0.3953125 0 -0.78203125 0.058007813q -0.38671875 0.058007813 -0.786328125 0.178320313v 1.155859375q 0.356640625 -0.19765625 0.726171875 -0.2921875q 0.36953125 -0.09453125 0.760546875 -0.09453125q 0.5328125 0 0.786328125 0.251367188q 0.253515625 0.251367188 0.253515625 0.784179688v 0.519921875q -0.184765625 -0.34375 -0.48984375 -0.511328125q -0.305078125 -0.167578125 -0.743359375 -0.167578125q -0.825 0 -1.310546875 0.64453125q -0.485546875 0.64453125 -0.485546875 1.748828125q 0 1.14296875 0.485546875 1.81328125q 0.485546875 0.6703125 1.301953125 0.6703125q 0.4125 0 0.734765625 -0.193359375q 0.322265625 -0.193359375 0.50703125 -0.545703125v 0.614453125h 1.258984375v -4.4515625Z "/></symbol><symbol id="g11B715B086B5896FA56CD5C2E567D0DB" overflow="visible"><path d="M 0 0m 1.662890625 2.006640625v 3.7125h -1.276171875v 0.966796875h 2.53515625v -4.679296875q 0 -0.5671875 0.176171875 -0.803515625q 0.176171875 -0.236328125 0.597265625 -0.236328125h 1.00546875v -0.966796875h -1.3578125q -0.898046875 0 -1.2890625 0.4640625q -0.391015625 0.4640625 -0.391015625 1.542578125Z "/></symbol><symbol id="g93668732B0E42348DDA57839D5743AC6" overflow="visible"><path d="M 0 0m 7.722 2.893c 0.275 0.627 0.418 1.254 0.418 1.892c 0 0.858 -0.253 1.562 -0.77 2.123c -0.517 0.561 -1.199 0.847 -2.046 0.847c -0.583 0 -1.166 -0.143 -1.749 -0.429c -1.188 -0.583 -2.057 -1.507 -2.618 -2.761c -0.275 -0.616 -0.418 -1.232 -0.418 -1.859c 0 -0.869 0.253 -1.573 0.77 -2.123c 0.517 -0.55 1.199 -0.825 2.057 -0.825c 0.572 0 1.144 0.143 1.727 0.418c 1.199 0.583 2.068 1.496 2.629 2.717Z m -0.638 2.321c 0 -1.463 -0.66 -2.926 -1.364 -3.795c -0.484 -0.605 -1.32 -1.287 -2.288 -1.287c -1.177 0 -1.793 1.023 -1.793 2.266c 0 0.385 0.077 0.902 0.22 1.529c 0.297 1.298 1.045 2.442 2.024 3.036c 0.473 0.286 0.935 0.429 1.375 0.429c 1.188 0 1.826 -0.946 1.826 -2.178Z "/></symbol><symbol id="gFCA8B7969079D7A79412C4845E7994CD" overflow="visible"><path d="M 0 0m 4.719 6.952l -0.649 -2.673c -0.231 0.407 -0.55 0.616 -0.979 0.616c -0.715 0 -1.342 -0.363 -1.892 -1.1c -0.506 -0.682 -0.759 -1.397 -0.759 -2.134c 0 -0.968 0.561 -1.782 1.485 -1.782c 0.473 0 0.935 0.253 1.375 0.77c 0.121 -0.418 0.495 -0.77 1.012 -0.77c 0.759 0 1.001 0.902 1.166 1.716c 0 0.099 -0.055 0.154 -0.165 0.154c -0.099 0 -0.165 -0.077 -0.198 -0.231c -0.22 -0.869 -0.484 -1.309 -0.781 -1.309c -0.187 0 -0.286 0.154 -0.286 0.451c 0 0.165 0.022 0.341 0.066 0.517l 1.562 6.292v 0.044c -0.033 0.077 -0.099 0.121 -0.187 0.121c -0.253 0 -0.715 -0.044 -1.375 -0.121c -0.121 -0.011 -0.187 -0.099 -0.187 -0.253c 0 -0.11 0.099 -0.165 0.297 -0.165c 0.209 0 0.495 0.011 0.495 -0.143Z m -0.968 -2.816c 0.11 -0.231 0.165 -0.385 0.165 -0.484c -0.011 -0.044 -0.022 -0.099 -0.033 -0.176l -0.539 -2.134c -0.033 -0.121 -0.11 -0.253 -0.209 -0.385c -0.407 -0.495 -0.803 -0.748 -1.188 -0.748c -0.429 0 -0.649 0.33 -0.649 0.979c 0 0.264 0.066 0.66 0.198 1.188c 0.231 0.935 0.561 1.573 0.968 1.914c 0.22 0.187 0.429 0.275 0.638 0.275c 0.297 0 0.517 -0.143 0.649 -0.429Z "/></symbol><symbol id="g2389F7618E8CE27CC7151A1D8E5DEAD4" overflow="visible"><path d="M 0 0m 7.678 4.037h -6.798c -0.176 0 -0.264 -0.088 -0.264 -0.253c 0 -0.165 0.088 -0.253 0.264 -0.253h 6.798c 0.176 0 0.264 0.088 0.264 0.253c 0 0.132 -0.121 0.253 -0.264 0.253Z m 0 -2.068h -6.798c -0.176 0 -0.264 -0.088 -0.264 -0.253c 0 -0.165 0.088 -0.253 0.264 -0.253h 6.798c 0.176 0 0.264 0.088 0.264 0.253c 0 0.143 -0.121 0.253 -0.264 0.253Z "/></symbol><symbol id="g92AE00E454ABE2A3B4DC14B5CA8FBE9" overflow="visible"><path d="M 0 0m 2.646875 5.392578125q -0.485546875 0 -0.708984375 -0.517773438q -0.2234375 -0.517773438 -0.2234375 -1.673632813q 0 -1.1515625 0.2234375 -1.669335938q 0.2234375 -0.517773438 0.708984375 -0.517773438q 0.48984375 0 0.71328125 0.517773438q 0.2234375 0.517773438 0.2234375 1.669335938q 0 1.155859375 -0.2234375 1.673632813q -0.2234375 0.517773438 -0.71328125 0.517773438Z m -2.2515625 -2.19140625q 0 1.645703125 0.569335938 2.487890625q 0.569335938 0.8421875 1.682226563 0.8421875q 1.1171875 0 1.686523438 -0.8421875q 0.569335938 -0.8421875 0.569335938 -2.487890625q 0 -1.64140625 -0.569335938 -2.48359375q -0.569335938 -0.8421875 -1.686523438 -0.8421875q -1.112890625 0 -1.682226563 0.8421875q -0.569335938 0.8421875 -0.569335938 2.48359375Z "/></symbol><symbol id="g42E72C06CADF56A793607B8210F158C5" overflow="visible"><path d="M 0 0m 1.89921875 0.67890625v -2.509375h -1.2546875v 6.64296875h 1.2546875v -0.721875q 0.19765625 0.416796875 0.519921875 0.62734375q 0.322265625 0.210546875 0.75625 0.210546875q 0.825 0 1.28046875 -0.66171875q 0.45546875 -0.66171875 0.45546875 -1.86484375q 0 -1.2203125 -0.461914063 -1.8734375q -0.461914063 -0.653125 -1.316992188 -0.653125q -0.38671875 0 -0.693945313 0.199804688q -0.307226563 0.199804688 -0.539257813 0.603710938Z m 1.753125 1.731640625q 0 0.69609375 -0.23203125 1.09140625q -0.23203125 0.3953125 -0.640234375 0.3953125q -0.408203125 0 -0.64453125 -0.3953125q -0.236328125 -0.3953125 -0.236328125 -1.09140625q 0 -0.69609375 0.236328125 -1.09140625q 0.236328125 -0.3953125 0.64453125 -0.3953125q 0.408203125 0 0.640234375 0.3953125q 0.23203125 0.3953125 0.23203125 1.09140625Z "/></symbol><symbol id="g521F2DDE78882B32DB463695F98C5705" overflow="visible"><path d="M 0 0m 2.646875 1.05703125l 1.130078125 5.358203125h 1.276171875l -1.525390625 -6.415234375h -1.757421875l -1.525390625 6.415234375h 1.276171875l 1.12578125 -5.358203125Z "/></symbol><symbol id="g8CAF94BAEF81D91CC1530A3D4F0B18EF" overflow="visible"><path d="M 0 0m 6.072 6.963c 0 0.484 -0.473 0.792 -0.99 0.792c -0.682 0 -1.155 -0.44 -1.408 -1.309c -0.055 -0.198 -0.176 -0.759 -0.352 -1.683h -0.715c -0.242 0 -0.363 -0.011 -0.363 -0.242c 0 -0.121 0.11 -0.176 0.341 -0.176h 0.66l -0.803 -4.257c -0.121 -0.627 -0.231 -1.089 -0.33 -1.397c -0.132 -0.407 -0.319 -0.616 -0.561 -0.616c -0.165 0 -0.297 0.044 -0.418 0.121c 0.352 0.055 0.528 0.264 0.528 0.616c 0 0.286 -0.143 0.429 -0.44 0.429c -0.374 0 -0.638 -0.33 -0.638 -0.704c 0 -0.484 0.451 -0.792 0.968 -0.792c 0.275 0 0.528 0.11 0.737 0.341c 0.352 0.363 0.627 0.88 0.825 1.573c 0.121 0.429 0.231 0.847 0.308 1.265l 0.638 3.421h 0.902c 0.253 0 0.363 0.011 0.363 0.264c 0 0.099 -0.11 0.154 -0.33 0.154h -0.847c 0.066 0.451 0.374 2.112 0.473 2.321c 0.11 0.231 0.264 0.341 0.462 0.341c 0.165 0 0.308 -0.044 0.429 -0.121c -0.341 -0.077 -0.517 -0.275 -0.517 -0.616c 0 -0.286 0.143 -0.429 0.44 -0.429c 0.374 0 0.638 0.33 0.638 0.704Z "/></symbol><symbol id="g4D6D0CA498010ACD5A22795F1AD38996" overflow="visible"><path d="M 0 0m 5.764 4.158c 0.143 0.275 0.209 0.418 0.209 0.429c 0 0.099 -0.055 0.154 -0.176 0.154c -0.077 0 -0.132 -0.033 -0.165 -0.099c -0.385 -0.715 -0.836 -1.727 -1.364 -3.036c -0.044 0.726 -0.187 1.408 -0.429 2.035c -0.319 0.814 -0.814 1.221 -1.485 1.221c -0.693 0 -1.298 -0.462 -1.606 -0.891c -0.363 -0.517 -0.55 -0.902 -0.55 -1.144c 0 -0.099 0.088 -0.154 0.275 -0.154l 0.055 0.077c 0.187 0.572 0.506 0.935 0.957 1.089c 0.308 0.099 0.55 0.154 0.726 0.154c 1.144 0 1.716 -0.902 1.716 -2.717c 0 -0.429 -0.044 -0.781 -0.132 -1.056c -0.374 -1.221 -0.561 -2.002 -0.561 -2.343c 0 -0.165 0.066 -0.242 0.187 -0.242c 0.132 0 0.264 0.231 0.385 0.682c 0.187 0.704 0.319 1.331 0.396 1.881c 0.033 0.165 0.055 0.308 0.088 0.407c 0.396 1.232 0.891 2.42 1.474 3.553Z "/></symbol><symbol id="g7A75113CED2D41C4AEDB752ABDB169EA" overflow="visible"><path d="M 0 0m 3.2828125 0h -1.267578125v 5.306640625h -1.628515625v 1.10859375h 4.524609375v -1.10859375h -1.628515625v -5.306640625Z "/></symbol><symbol id="g9AFD227174B31EC8A3993A1F7D232D54" overflow="visible"><path d="M 0 0m 1.529 -2.75c 0.143 0 0.22 0.088 0.22 0.264v 10.472c 0 0.176 -0.077 0.264 -0.22 0.264c -0.143 0 -0.22 -0.088 -0.22 -0.264v -10.472c 0 -0.176 0.077 -0.264 0.22 -0.264Z "/></symbol><symbol id="g51312D5A75BF1E93D7C6B5CCB301AC0" overflow="visible"><path d="M 0 0m 4.71796875 0h -3.99609375v 6.415234375h 3.99609375v -1.1171875h -2.728515625v -1.38359375h 2.470703125v -1.1171875h -2.470703125v -1.680078125h 2.728515625v -1.1171875Z "/></symbol><symbol id="g281310CBD5B670ABC4C91FC64E8D0C6A" overflow="visible"><path d="M 0 0m 4.558984375 0.244921875q -0.31796875 -0.184765625 -0.683203125 -0.277148438q -0.365234375 -0.092382813 -0.786328125 -0.092382813q -1.112890625 0 -1.740234375 0.6703125q -0.62734375 0.6703125 -0.62734375 1.85625q 0 1.190234375 0.631640625 1.862695313q 0.631640625 0.672460938 1.74453125 0.672460938q 0.38671875 0 0.745507813 -0.090234375q 0.358789063 -0.090234375 0.715429688 -0.279296875v -1.1515625q -0.275 0.236328125 -0.603710938 0.363085938q -0.328710938 0.126757813 -0.681054688 0.126757813q -0.614453125 0 -0.9453125 -0.391015625q -0.330859375 -0.391015625 -0.330859375 -1.112890625q 0 -0.721875 0.330859375 -1.10859375q 0.330859375 -0.38671875 0.9453125 -0.38671875q 0.365234375 0 0.683203125 0.122460938q 0.31796875 0.122460938 0.6015625 0.371679688v -1.155859375Z "/></symbol><symbol id="gA26959CC7A08E8EC12D9E5FDB3CAF766" overflow="visible"><path d="M 0 0m 2.646875 5.255078125l -0.597265625 -2.625390625h 1.198828125l -0.6015625 2.625390625Z m -0.7734375 1.16015625h 1.551171875l 1.731640625 -6.415234375h -1.267578125l -0.3953125 1.585546875h -1.697265625l -0.38671875 -1.585546875h -1.267578125l 1.731640625 6.415234375Z "/></symbol><symbol id="gA18F762FFFFE399C9BA1DB0D10B3D31E" overflow="visible"><path d="M 0 0m 4.6662 3.0877c 0.0231 0.0462 0.0385 0.0847 0.0385 0.1078c 0 0.0847 -0.0539 0.1232 -0.154 0.1232c -0.0693 0 -0.1155 -0.0154 -0.1386 -0.0539c -0.3542 -0.616 -0.6776 -1.3013 -0.9625 -2.0559c -0.0539 0.5005 -0.2541 1.1242 -0.462 1.5015c -0.2618 0.4543 -0.6237 0.6853 -1.0934 0.6853c -0.3927 0 -0.7469 -0.1463 -1.0703 -0.4466c -0.2002 -0.1925 -0.5621 -0.6853 -0.5621 -0.9548c 0 -0.0847 0.0539 -0.1232 0.154 -0.1232c 0.077 0 0.1309 0.0539 0.1694 0.154c 0.1386 0.4004 0.6622 0.7007 1.2012 0.7007c 0.9009 0 1.3552 -0.6545 1.3552 -1.9712c 0 -0.2464 -0.0154 -0.4235 -0.0539 -0.539c -0.2695 -0.8624 -0.4004 -1.4091 -0.4004 -1.6478c 0 -0.1463 0.0539 -0.2156 0.154 -0.2156c 0.0308 0 0.0539 0.0077 0.077 0.0154c 0.0693 0.0231 0.1386 0.1617 0.2156 0.4004c 0.1463 0.4851 0.2387 0.9548 0.2926 1.4168c 0.0231 0.2233 0.231 0.77 0.616 1.6478c 0.1771 0.4158 0.385 0.8316 0.6237 1.2551Z "/></symbol></defs></svg>