<svg viewBox="0 0 344.776473264 60.46478" width="344.776473264pt" height="60.46478pt" xmlns="http://www.w3.org/2000/svg" xmlns:xlink="http://www.w3.org/1999/xlink" xmlns:h5="http://www.w3.org/1999/xhtml"><path fill="#ffffff" fill-rule="nonzero" d="M 0 0v 60.46478h 344.776473264v -60.46478Z "/><g transform="matrix(1 0 0 -1 1 32.98239)"><use xlink:href="#g6DBFE2DA1D27E4D54C97E6F7579A935B" x="0" y="0" fill="#000000" fill-rule="nonzero"/></g><g transform="matrix(1 0 0 -1 10.427 32.98239)"><use xlink:href="#gEFD6A37741EDB46D1C5C1B0AEAB33C8D" x="0" y="0" fill="#000000" fill-rule="nonzero"/><use xlink:href="#gD614C08D1BB1FD9302C3FBF69C3A24A9" x="5.298046875" y="0" fill="#000000" fill-rule="nonzero"/><use xlink:href="#gEB5263C984B3A13E014F4FD81EEB98D5" x="10.59609375" y="0" fill="#000000" fill-rule="nonzero"/><use xlink:href="#g1A903C34409188F68C004DCF51BB982B" x="15.894140625" y="0" fill="#000000" fill-rule="nonzero"/><use xlink:href="#gA3E8761BC1767EAE1C4DC702DAD043D4" x="21.1921875" y="0" fill="#000000" fill-rule="nonzero"/><use xlink:href="#gEB5263C984B3A13E014F4FD81EEB98D5" x="26.490234375" y="0" fill="#000000" fill-rule="nonzero"/><use xlink:href="#g4666C3926E6A15F65572DD76E569736D" x="31.78828125" y="0" fill="#000000" fill-rule="nonzero"/><use xlink:href="#g6EBB5B97B43B5068D9B5D10D16E84305" x="37.086328125" y="0" fill="#000000" fill-rule="nonzero"/></g><g transform="matrix(1 0 0 -1 56.463375 32.98239)"><use xlink:href="#gBA5B8536F66C0740646C0BF4438FCF64" x="0" y="0" fill="#000000" fill-rule="nonzero"/></g><g transform="matrix(1 0 0 -1 62.579375 32.98239)"><use xlink:href="#gFF1EC1E3625C6E3C8EE7A324B4F795C4" x="0" y="0" fill="#000000" fill-rule="nonzero"/></g><g transform="matrix(1 0 0 -1 71.529421875 32.98239)"><use xlink:href="#g4D6D0CA498010ACD5A22795F1AD38996" x="0" y="0" fill="#000000" fill-rule="nonzero"/></g><g transform="matrix(1 0 0 -1 77.810421875 32.98239)"/><g transform="matrix(1 0 0 -1 81.462421875 32.98239)"><use xlink:href="#g8DD35590E5062F6A5840D8194DA80E6F" x="0" y="0" fill="#000000" fill-rule="nonzero"/></g><g transform="matrix(1 0 0 -1 87.292421875 32.98239)"/><g transform="matrix(1 0 0 -1 90.944421875 32.98239)"><use xlink:href="#g4AA9066DE258008E649636F009E5714C" x="0" y="0" fill="#000000" fill-rule="nonzero"/></g><g transform="matrix(1 0 0 -1 99.895977431 32.98239)"><use xlink:href="#g2389F7618E8CE27CC7151A1D8E5DEAD4" x="0" y="0" fill="#000000" fill-rule="nonzero"/></g><g transform="matrix(1 0 0 -1 111.509532986 59.46478)"><use xlink:href="#gBEAA5D980B1B6CD6E7BE74B68F1EC637" x="0" y="0" fill="#000000" fill-rule="nonzero"/><use xlink:href="#g58DE70B0DC67996A6062DF732675B06F" x="0" y="7.274764666" fill="#000000" fill-rule="nonzero"/><use xlink:href="#g58DE70B0DC67996A6062DF732675B06F" x="0" y="13.729625334" fill="#000000" fill-rule="nonzero"/><use xlink:href="#g2CD4E04A0D30BF0BCB592B65901BFCD" x="0" y="20.98239" fill="#000000" fill-rule="nonzero"/><use xlink:href="#g58DE70B0DC67996A6062DF732675B06F" x="0" y="36.507154666" fill="#000000" fill-rule="nonzero"/><use xlink:href="#g58DE70B0DC67996A6062DF732675B06F" x="0" y="42.962015334" fill="#000000" fill-rule="nonzero"/><use xlink:href="#g87E37713B4483662E5048B1608E6EC95" x="0" y="50.21478" fill="#000000" fill-rule="nonzero"/></g><g transform="matrix(1 0 0 -1 121.431532986 11.88549)"><use xlink:href="#g4AA9066DE258008E649636F009E5714C" x="0" y="0" fill="#000000" fill-rule="nonzero"/></g><g transform="matrix(1 0 0 -1 130.979532986 11.88549)"><use xlink:href="#gEFD6A37741EDB46D1C5C1B0AEAB33C8D" x="0" y="0" fill="#000000" fill-rule="nonzero"/><use xlink:href="#g753B405C8BCF0E1C48C693507077AE03" x="5.298046875" y="0" fill="#000000" fill-rule="nonzero"/><use xlink:href="#g8E43F24E687DFBB5D1E5526D8DC9339C" x="10.59609375" y="0" fill="#000000" fill-rule="nonzero"/><use xlink:href="#gEFA11BCBF584E95CF54C8F85D9D572D2" x="15.894140625" y="0" fill="#000000" fill-rule="nonzero"/><use xlink:href="#g18B0C645192E85FDD6BFE6E13B16D837" x="21.1921875" y="0" fill="#000000" fill-rule="nonzero"/><use xlink:href="#g675CA31BB2862F44F71394188EA0CA51" x="26.490234375" y="0" fill="#000000" fill-rule="nonzero"/></g><g transform="matrix(1 0 0 -1 166.419814236 11.88549)"><use xlink:href="#g675CA31BB2862F44F71394188EA0CA51" x="0" y="0" fill="#000000" fill-rule="nonzero"/><use xlink:href="#gEB5263C984B3A13E014F4FD81EEB98D5" x="5.298046875" y="0" fill="#000000" fill-rule="nonzero"/><use xlink:href="#gA8CD33D70EBD9AD4A6F72B95DF4DE014" x="10.59609375" y="0" fill="#000000" fill-rule="nonzero"/><use xlink:href="#g4666C3926E6A15F65572DD76E569736D" x="15.894140625" y="0" fill="#000000" fill-rule="nonzero"/></g><g transform="matrix(1 0 0 -1 187.612001736 11.88549)"><use xlink:href="#gFF1EC1E3625C6E3C8EE7A324B4F795C4" x="0" y="0" fill="#000000" fill-rule="nonzero"/></g><g transform="matrix(1 0 0 -1 245.871954861 11.88549)"><use xlink:href="#g8081A8237C24C95555CB26B7002BAA27" x="0" y="0" fill="#000000" fill-rule="nonzero"/><use xlink:href="#g42BE19054016F7BAE28890E34266D9C4" x="3.058" y="0" fill="#000000" fill-rule="nonzero"/></g><g transform="matrix(1 0 0 -1 255.947954861 11.88549)"><use xlink:href="#g4D6D0CA498010ACD5A22795F1AD38996" x="0" y="0" fill="#000000" fill-rule="nonzero"/></g><g transform="matrix(1 0 0 -1 265.284510417 11.88549)"><use xlink:href="#g2389F7618E8CE27CC7151A1D8E5DEAD4" x="0" y="0" fill="#000000" fill-rule="nonzero"/></g><g transform="matrix(1 0 0 -1 276.898065972 11.88549)"><use xlink:href="#g7A75113CED2D41C4AEDB752ABDB169EA" x="0" y="0" fill="#000000" fill-rule="nonzero"/><use xlink:href="#g11189D36A8ED0A9E003DFD239176016" x="5.298046875" y="0" fill="#000000" fill-rule="nonzero"/><use xlink:href="#g7C3292C458A46A58B9B9833BA97D9587" x="10.59609375" y="0" fill="#000000" fill-rule="nonzero"/><use xlink:href="#gB75E13C86ADCA88662C5D7AC943163C3" x="15.894140625" y="0" fill="#000000" fill-rule="nonzero"/></g><g transform="matrix(1 0 0 -1 121.431532986 25.04149)"><use xlink:href="#g4AA9066DE258008E649636F009E5714C" x="0" y="0" fill="#000000" fill-rule="nonzero"/></g><g transform="matrix(1 0 0 -1 130.979532986 25.04149)"><use xlink:href="#gEFD6A37741EDB46D1C5C1B0AEAB33C8D" x="0" y="0" fill="#000000" fill-rule="nonzero"/><use xlink:href="#g753B405C8BCF0E1C48C693507077AE03" x="5.298046875" y="0" fill="#000000" fill-rule="nonzero"/><use xlink:href="#g8E43F24E687DFBB5D1E5526D8DC9339C" x="10.59609375" y="0" fill="#000000" fill-rule="nonzero"/><use xlink:href="#gEFA11BCBF584E95CF54C8F85D9D572D2" x="15.894140625" y="0" fill="#000000" fill-rule="nonzero"/><use xlink:href="#g18B0C645192E85FDD6BFE6E13B16D837" x="21.1921875" y="0" fill="#000000" fill-rule="nonzero"/><use xlink:href="#g675CA31BB2862F44F71394188EA0CA51" x="26.490234375" y="0" fill="#000000" fill-rule="nonzero"/></g><g transform="matrix(1 0 0 -1 166.419814236 25.04149)"><use xlink:href="#g92EECDEFF4D0B4B994490A05B493B814" x="0" y="0" fill="#000000" fill-rule="nonzero"/><use xlink:href="#g8E43F24E687DFBB5D1E5526D8DC9339C" x="5.298046875" y="0" fill="#000000" fill-rule="nonzero"/><use xlink:href="#g1A903C34409188F68C004DCF51BB982B" x="10.59609375" y="0" fill="#000000" fill-rule="nonzero"/><use xlink:href="#g4F21559D411E52A0427C66D0631BE87E" x="15.894140625" y="0" fill="#000000" fill-rule="nonzero"/></g><g transform="matrix(1 0 0 -1 187.612001736 25.04149)"><use xlink:href="#gFF1EC1E3625C6E3C8EE7A324B4F795C4" x="0" y="0" fill="#000000" fill-rule="nonzero"/></g><g transform="matrix(1 0 0 -1 245.871954861 25.04149)"><use xlink:href="#g8081A8237C24C95555CB26B7002BAA27" x="0" y="0" fill="#000000" fill-rule="nonzero"/><use xlink:href="#g42BE19054016F7BAE28890E34266D9C4" x="3.058" y="0" fill="#000000" fill-rule="nonzero"/></g><g transform="matrix(1 0 0 -1 255.947954861 25.04149)"><use xlink:href="#g4D6D0CA498010ACD5A22795F1AD38996" x="0" y="0" fill="#000000" fill-rule="nonzero"/></g><g transform="matrix(1 0 0 -1 265.284510417 25.04149)"><use xlink:href="#g2389F7618E8CE27CC7151A1D8E5DEAD4" x="0" y="0" fill="#000000" fill-rule="nonzero"/></g><g transform="matrix(1 0 0 -1 276.898065972 25.04149)"><use xlink:href="#g51312D5A75BF1E93D7C6B5CCB301AC0" x="0" y="0" fill="#000000" fill-rule="nonzero"/><use xlink:href="#g7E7E6665B7F0AE46660C9C20644DB79" x="5.298046875" y="0" fill="#000000" fill-rule="nonzero"/><use xlink:href="#g7E7E6665B7F0AE46660C9C20644DB79" x="10.59609375" y="0" fill="#000000" fill-rule="nonzero"/><use xlink:href="#g11189D36A8ED0A9E003DFD239176016" x="15.894140625" y="0" fill="#000000" fill-rule="nonzero"/><use xlink:href="#g281310CBD5B670ABC4C91FC64E8D0C6A" x="21.1921875" y="0" fill="#000000" fill-rule="nonzero"/><use xlink:href="#gB75E13C86ADCA88662C5D7AC943163C3" x="26.490234375" y="0" fill="#000000" fill-rule="nonzero"/></g><g transform="matrix(1 0 0 -1 121.431532986 38.19749)"><use xlink:href="#g4AA9066DE258008E649636F009E5714C" x="0" y="0" fill="#000000" fill-rule="nonzero"/></g><g transform="matrix(1 0 0 -1 130.979532986 38.19749)"><use xlink:href="#gEFD6A37741EDB46D1C5C1B0AEAB33C8D" x="0" y="0" fill="#000000" fill-rule="nonzero"/><use xlink:href="#gD614C08D1BB1FD9302C3FBF69C3A24A9" x="5.298046875" y="0" fill="#000000" fill-rule="nonzero"/><use xlink:href="#gEB5263C984B3A13E014F4FD81EEB98D5" x="10.59609375" y="0" fill="#000000" fill-rule="nonzero"/><use xlink:href="#g1A903C34409188F68C004DCF51BB982B" x="15.894140625" y="0" fill="#000000" fill-rule="nonzero"/><use xlink:href="#gA3E8761BC1767EAE1C4DC702DAD043D4" x="21.1921875" y="0" fill="#000000" fill-rule="nonzero"/><use xlink:href="#gEB5263C984B3A13E014F4FD81EEB98D5" x="26.490234375" y="0" fill="#000000" fill-rule="nonzero"/><use xlink:href="#g4666C3926E6A15F65572DD76E569736D" x="31.78828125" y="0" fill="#000000" fill-rule="nonzero"/><use xlink:href="#g6EBB5B97B43B5068D9B5D10D16E84305" x="37.086328125" y="0" fill="#000000" fill-rule="nonzero"/></g><g transform="matrix(1 0 0 -1 177.015907986 38.19749)"><use xlink:href="#gBA5B8536F66C0740646C0BF4438FCF64" x="0" y="0" fill="#000000" fill-rule="nonzero"/></g><g transform="matrix(1 0 0 -1 183.131907986 38.19749)"><use xlink:href="#gFF1EC1E3625C6E3C8EE7A324B4F795C4" x="0" y="0" fill="#000000" fill-rule="nonzero"/></g><g transform="matrix(1 0 0 -1 245.871954861 38.19749)"><use xlink:href="#g8081A8237C24C95555CB26B7002BAA27" x="0" y="0" fill="#000000" fill-rule="nonzero"/><use xlink:href="#g42BE19054016F7BAE28890E34266D9C4" x="3.058" y="0" fill="#000000" fill-rule="nonzero"/></g><g transform="matrix(1 0 0 -1 255.947954861 38.19749)"><use xlink:href="#g4D6D0CA498010ACD5A22795F1AD38996" x="0" y="0" fill="#000000" fill-rule="nonzero"/></g><g transform="matrix(1 0 0 -1 265.284510417 38.19749)"><use xlink:href="#g2389F7618E8CE27CC7151A1D8E5DEAD4" x="0" y="0" fill="#000000" fill-rule="nonzero"/></g><g transform="matrix(1 0 0 -1 276.898065972 38.19749)"><use xlink:href="#g521F2DDE78882B32DB463695F98C5705" x="0" y="0" fill="#000000" fill-rule="nonzero"/><use xlink:href="#g82D23B6D5370404661A1780E66CA09E" x="5.298046875" y="0" fill="#000000" fill-rule="nonzero"/><use xlink:href="#g11B715B086B5896FA56CD5C2E567D0DB" x="10.59609375" y="0" fill="#000000" fill-rule="nonzero"/><use xlink:href="#gC9CF2B268112D692AA5AABDD5E57E12A" x="15.894140625" y="0" fill="#000000" fill-rule="nonzero"/><use xlink:href="#g11189D36A8ED0A9E003DFD239176016" x="21.1921875" y="0" fill="#000000" fill-rule="nonzero"/></g><g transform="matrix(1 0 0 -1 121.431532986 52.44249)"><use xlink:href="#g8CAF94BAEF81D91CC1530A3D4F0B18EF" x="0" y="0" fill="#000000" fill-rule="nonzero"/><use xlink:href="#g313E46022A35FE004C34D0F33FA6CF9" x="5.39" y="0" fill="#000000" fill-rule="nonzero"/><use xlink:href="#g6A7F5A83C1AD46379FEDFD85DC0924EE" x="10.725" y="0" fill="#000000" fill-rule="nonzero"/><use xlink:href="#gFCA8B7969079D7A79412C4845E7994CD" x="14.003" y="0" fill="#000000" fill-rule="nonzero"/></g><g transform="matrix(1 0 0 -1 144.806532986 52.44249)"><use xlink:href="#gEFD6A37741EDB46D1C5C1B0AEAB33C8D" x="0" y="0" fill="#000000" fill-rule="nonzero"/><use xlink:href="#gD614C08D1BB1FD9302C3FBF69C3A24A9" x="5.298046875" y="0" fill="#000000" fill-rule="nonzero"/><use xlink:href="#gEB5263C984B3A13E014F4FD81EEB98D5" x="10.59609375" y="0" fill="#000000" fill-rule="nonzero"/><use xlink:href="#g1A903C34409188F68C004DCF51BB982B" x="15.894140625" y="0" fill="#000000" fill-rule="nonzero"/><use xlink:href="#gA3E8761BC1767EAE1C4DC702DAD043D4" x="21.1921875" y="0" fill="#000000" fill-rule="nonzero"/><use xlink:href="#gEB5263C984B3A13E014F4FD81EEB98D5" x="26.490234375" y="0" fill="#000000" fill-rule="nonzero"/><use xlink:href="#g4666C3926E6A15F65572DD76E569736D" x="31.78828125" y="0" fill="#000000" fill-rule="nonzero"/><use xlink:href="#g6EBB5B97B43B5068D9B5D10D16E84305" x="37.086328125" y="0" fill="#000000" fill-rule="nonzero"/></g><g transform="matrix(1 0 0 -1 190.842907986 52.44249)"><use xlink:href="#gBA5B8536F66C0740646C0BF4438FCF64" x="0" y="0" fill="#000000" fill-rule="nonzero"/></g><g transform="matrix(1 0 0 -1 196.958907986 52.44249)"><use xlink:href="#gFF1EC1E3625C6E3C8EE7A324B4F795C4" x="0" y="0" fill="#000000" fill-rule="nonzero"/></g><g transform="matrix(1 0 0 -1 205.908954861 52.44249)"><use xlink:href="#g4D6D0CA498010ACD5A22795F1AD38996" x="0" y="0" fill="#000000" fill-rule="nonzero"/></g><g transform="matrix(1 0 0 -1 212.189954861 52.44249)"/><g transform="matrix(1 0 0 -1 215.841954861 52.44249)"><use xlink:href="#g8DD35590E5062F6A5840D8194DA80E6F" x="0" y="0" fill="#000000" fill-rule="nonzero"/></g><g transform="matrix(1 0 0 -1 221.671954861 52.44249)"/><g transform="matrix(1 0 0 -1 225.323954861 52.44249)"><use xlink:href="#g4AA9066DE258008E649636F009E5714C" x="0" y="0" fill="#000000" fill-rule="nonzero"/></g><g transform="matrix(1 0 0 -1 231.219954861 52.44249)"/><g transform="matrix(1 0 0 -1 245.871954861 52.44249)"><use xlink:href="#g8081A8237C24C95555CB26B7002BAA27" x="0" y="0" fill="#000000" fill-rule="nonzero"/><use xlink:href="#g42BE19054016F7BAE28890E34266D9C4" x="3.058" y="0" fill="#000000" fill-rule="nonzero"/></g><g transform="matrix(1 0 0 -1 255.947954861 52.44249)"><use xlink:href="#g4D6D0CA498010ACD5A22795F1AD38996" x="0" y="0" fill="#000000" fill-rule="nonzero"/></g><g transform="matrix(1 0 0 -1 265.284510417 52.44249)"><use xlink:href="#g2389F7618E8CE27CC7151A1D8E5DEAD4" x="0" y="0" fill="#000000" fill-rule="nonzero"/></g><g transform="matrix(1 0 0 -1 276.898065972 52.44249)"><use xlink:href="#gA26959CC7A08E8EC12D9E5FDB3CAF766" x="0" y="0" fill="#000000" fill-rule="nonzero"/><use xlink:href="#g42E72C06CADF56A793607B8210F158C5" x="5.298046875" y="0" fill="#000000" fill-rule="nonzero"/><use xlink:href="#g42E72C06CADF56A793607B8210F158C5" x="10.59609375" y="0" fill="#000000" fill-rule="nonzero"/></g><g transform="matrix(1 0 0 -1 292.792206597 52.44249)"><use xlink:href="#g1191ED62F436B58C75B652BB46FBF60F" x="0" y="0" fill="#000000" fill-rule="nonzero"/></g><g transform="matrix(1 0 0 -1 297.830206597 52.44249)"><use xlink:href="#g3BAF23AB431BDA7FCE4D7083470CFBD3" x="0" y="0" fill="#000000" fill-rule="nonzero"/><use xlink:href="#gBA5B8536F66C0740646C0BF4438FCF64" x="5.5" y="0" fill="#000000" fill-rule="nonzero"/></g><g transform="matrix(1 0 0 -1 309.446206597 52.44249)"><use xlink:href="#gF2E9DE7382F8BB82A14E9A8C0CA6C0F0" x="0" y="0" fill="#000000" fill-rule="nonzero"/></g><g transform="matrix(1 0 0 -1 314.337539931 52.44249)"><use xlink:href="#g4D6D0CA498010ACD5A22795F1AD38996" x="0" y="0" fill="#000000" fill-rule="nonzero"/></g><g transform="matrix(1 0 0 -1 320.035539931 55.15949)"><use xlink:href="#gBFCC2410A697C41E2DD3187C83DA8F3" x="0" y="0" fill="#000000" fill-rule="nonzero"/></g><g transform="matrix(1 0 0 -1 325.032839931 52.44249)"><use xlink:href="#gF2E9DE7382F8BB82A14E9A8C0CA6C0F0" x="0" y="0" fill="#000000" fill-rule="nonzero"/></g><g transform="matrix(1 0 0 -1 329.924173264 52.44249)"><use xlink:href="#g6A7F5A83C1AD46379FEDFD85DC0924EE" x="0" y="0" fill="#000000" fill-rule="nonzero"/></g><g transform="matrix(1 0 0 -1 333.202173264 55.15949)"><use xlink:href="#gA18F762FFFFE399C9BA1DB0D10B3D31E" x="0" y="0" fill="#000000" fill-rule="nonzero"/></g><g transform="matrix(1 0 0 -1 338.738473264 52.44249)"><use xlink:href="#g90C70798A55D47911C9509EA3A2AC8D8" x="0" y="0" fill="#000000" fill-rule="nonzero"/></g><defs><symbol id="g6DBFE2DA1D27E4D54C97E6F7579A935B" overflow="visible"><path d="M 0 0m 5.467 7.337c 0 0.121 -0.066 0.176 -0.209 0.176l -1.419 -0.033l -1.441 0.033c -0.176 0.011 -0.264 -0.077 -0.264 -0.264c 0 -0.11 0.121 -0.165 0.352 -0.165c 0.473 0 0.704 -0.055 0.704 -0.154c 0 -0.055 -0.011 -0.11 -0.022 -0.165l -1.463 -5.863c -0.055 -0.242 -0.165 -0.385 -0.33 -0.44c -0.077 -0.022 -0.275 -0.033 -0.616 -0.033c -0.275 0 -0.385 -0.011 -0.385 -0.264c 0 -0.11 0.066 -0.165 0.209 -0.165l 1.408 0.033l 1.452 -0.033c 0.176 -0.011 0.264 0.077 0.264 0.253c 0 0.176 -0.132 0.176 -0.374 0.176c -0.429 0 -0.693 -0.022 -0.693 0.154c 0 0.055 0.011 0.132 0.044 0.242l 1.452 5.797c 0.055 0.231 0.165 0.374 0.33 0.429c 0.077 0.022 0.275 0.033 0.616 0.033c 0.264 0 0.385 0.011 0.385 0.253Z "/></symbol><symbol id="gEFD6A37741EDB46D1C5C1B0AEAB33C8D" overflow="visible"><path d="M 0 0m 3.802734375 6.67734375q -0.571484375 -0.9796875 -0.852929688 -1.952929688q -0.281445313 -0.973242188 -0.281445313 -1.961523438q 0 -0.983984375 0.281445313 -1.959375q 0.281445313 -0.975390625 0.852929688 -1.963671875h -0.6875q -0.648828125 1.02265625 -0.966796875 1.991601563q -0.31796875 0.968945313 -0.31796875 1.931445313q 0 0.958203125 0.31796875 1.929296875q 0.31796875 0.97109375 0.966796875 1.98515625h 0.6875Z "/></symbol><symbol id="gD614C08D1BB1FD9302C3FBF69C3A24A9" overflow="visible"><path d="M 0 0m 1.611328125 0.605859375v -2.436328125h -0.794921875v 6.64296875h 0.794921875v -0.614453125q 0.19765625 0.356640625 0.526367188 0.543554688q 0.328710938 0.186914063 0.758398438 0.186914063q 0.872265625 0 1.368554688 -0.674609375q 0.496289063 -0.674609375 0.496289063 -1.869140625q 0 -1.173046875 -0.4984375 -1.841210938q -0.4984375 -0.668164063 -1.36640625 -0.668164063q -0.43828125 0 -0.766992188 0.186914063q -0.328710938 0.186914063 -0.517773438 0.543554688Z m 2.3203125 1.79609375q 0 0.91953125 -0.290039063 1.387890625q -0.290039063 0.468359375 -0.861523438 0.468359375q -0.57578125 0 -0.872265625 -0.470507813q -0.296484375 -0.470507813 -0.296484375 -1.385742188q 0 -0.9109375 0.296484375 -1.38359375q 0.296484375 -0.47265625 0.872265625 -0.47265625q 0.571484375 0 0.861523438 0.468359375q 0.290039063 0.468359375 0.290039063 1.387890625Z "/></symbol><symbol id="gEB5263C984B3A13E014F4FD81EEB98D5" overflow="visible"><path d="M 0 0m 4.962890625 3.819921875q -0.253515625 0.19765625 -0.515625 0.287890625q -0.262109375 0.090234375 -0.57578125 0.090234375q -0.7390625 0 -1.130078125 -0.4640625q -0.391015625 -0.4640625 -0.391015625 -1.340625v -2.393359375h -0.794921875v 4.8125h 0.794921875v -0.941015625q 0.19765625 0.511328125 0.608007813 0.784179688q 0.410351563 0.272851563 0.973242188 0.272851563q 0.2921875 0 0.545703125 -0.073046875q 0.253515625 -0.073046875 0.485546875 -0.227734375v -0.8078125Z "/></symbol><symbol id="g1A903C34409188F68C004DCF51BB982B" overflow="visible"><path d="M 0 0m 1.1 4.8125h 2.023828125v -4.198046875h 1.568359375v -0.614453125h -3.92734375v 0.614453125h 1.568359375v 3.58359375h -1.233203125v 0.614453125Z m 1.233203125 1.8734375h 0.790625v -1.001171875h -0.790625v 1.001171875Z "/></symbol><symbol id="gA3E8761BC1767EAE1C4DC702DAD043D4" overflow="visible"><path d="M 0 0m 2.9046875 4.32265625q 0.14609375 0.309375 0.371679688 0.457617188q 0.225585938 0.148242188 0.543554688 0.148242188q 0.580078125 0 0.818554688 -0.449023438q 0.238476563 -0.449023438 0.238476563 -1.690820313v -2.788671875h -0.721875v 2.754296875q 0 1.018359375 -0.113867188 1.265429688q -0.113867188 0.247070313 -0.414648438 0.247070313q -0.34375 0 -0.470507813 -0.264257813q -0.126757813 -0.264257813 -0.126757813 -1.248242188v -2.754296875h -0.721875v 2.754296875q 0 1.03125 -0.122460938 1.271875q -0.122460938 0.240625 -0.440429688 0.240625q -0.313671875 0 -0.436132813 -0.264257813q -0.122460938 -0.264257813 -0.122460938 -1.248242188v -2.754296875h -0.717578125v 4.8125h 0.717578125v -0.4125q 0.141796875 0.2578125 0.354492188 0.393164063q 0.212695313 0.135351563 0.483398438 0.135351563q 0.3265625 0 0.543554688 -0.150390625q 0.216992188 -0.150390625 0.337304688 -0.45546875Z "/></symbol><symbol id="g4666C3926E6A15F65572DD76E569736D" overflow="visible"><path d="M 0 0m 4.778125 2.60390625v -0.38671875h -3.424609375v -0.02578125q 0 -0.786328125 0.410351563 -1.216015625q 0.410351563 -0.4296875 1.158007813 -0.4296875q 0.378125 0 0.790625 0.1203125q 0.4125 0.1203125 0.880859375 0.365234375v -0.786328125q -0.451171875 -0.184765625 -0.870117188 -0.277148438q -0.418945313 -0.092382813 -0.809960938 -0.092382813q -1.121484375 0 -1.753125 0.672460938q -0.631640625 0.672460938 -0.631640625 1.854101563q 0 1.1515625 0.61875 1.8390625q 0.61875 0.6875 1.65 0.6875q 0.91953125 0 1.450195313 -0.623046875q 0.530664063 -0.623046875 0.530664063 -1.7015625Z m -0.790625 0.23203125q -0.0171875 0.69609375 -0.328710938 1.059179688q -0.311523438 0.363085938 -0.895898438 0.363085938q -0.571484375 0 -0.941015625 -0.378125q -0.36953125 -0.378125 -0.43828125 -1.0484375l 2.60390625 0.004296875Z "/></symbol><symbol id="g6EBB5B97B43B5068D9B5D10D16E84305" overflow="visible"><path d="M 0 0m 4.567578125 6.6859375v -0.657421875h -0.898046875q -0.425390625 0 -0.590820313 -0.174023438q -0.165429688 -0.174023438 -0.165429688 -0.616601563v -0.425390625h 1.654296875v -0.614453125h -1.654296875v -4.198046875h -0.790625v 4.198046875h -1.284765625v 0.614453125h 1.284765625v 0.33515625q 0 0.790625 0.363085938 1.164453125q 0.363085938 0.373828125 1.132226563 0.373828125h 0.949609375Z "/></symbol><symbol id="gBA5B8536F66C0740646C0BF4438FCF64" overflow="visible"><path d="M 0 0m 3.278 -0.143c 0.682 0 1.265 0.242 1.738 0.737c 0.473 0.495 0.715 1.078 0.715 1.771c 0 0.671 -0.22 1.243 -0.649 1.727c -0.451 0.517 -1.001 0.77 -1.661 0.77c -0.561 0 -1.045 -0.22 -1.463 -0.649v 0.649l -1.65 -0.121v -0.418c 0.407 0 0.649 -0.022 0.726 -0.077c 0.077 -0.055 0.121 -0.198 0.121 -0.429v -5.082c 0 -0.209 -0.044 -0.341 -0.121 -0.385c -0.077 -0.044 -0.319 -0.055 -0.726 -0.055v -0.429l 1.254 0.033l 1.265 -0.033v 0.429c -0.407 0 -0.638 0.011 -0.715 0.055c -0.077 0.044 -0.121 0.176 -0.121 0.385v 1.749c 0.242 -0.341 0.715 -0.627 1.287 -0.627Z m 0.066 4.642c 0.451 0 0.803 -0.253 1.078 -0.759c 0.209 -0.429 0.319 -0.88 0.319 -1.375c 0 -0.517 -0.121 -0.99 -0.363 -1.419c -0.286 -0.517 -0.671 -0.77 -1.144 -0.77c -0.462 0 -0.825 0.22 -1.1 0.649c -0.099 0.143 -0.143 0.286 -0.143 0.429v 2.409c 0.319 0.561 0.77 0.836 1.353 0.836Z "/></symbol><symbol id="gFF1EC1E3625C6E3C8EE7A324B4F795C4" overflow="visible"><path d="M 0 0m 1.4953125 6.67734375h 0.6875q 0.648828125 -1.0140625 0.966796875 -1.98515625q 0.31796875 -0.97109375 0.31796875 -1.929296875q 0 -0.966796875 -0.31796875 -1.937890625q -0.31796875 -0.97109375 -0.966796875 -1.98515625h -0.6875q 0.571484375 0.996875 0.852929688 1.972265625q 0.281445313 0.975390625 0.281445313 1.95078125q 0 0.9796875 -0.281445313 1.955078125q -0.281445313 0.975390625 -0.852929688 1.959375Z "/></symbol><symbol id="g4D6D0CA498010ACD5A22795F1AD38996" overflow="visible"><path d="M 0 0m 5.764 4.158c 0.143 0.275 0.209 0.418 0.209 0.429c 0 0.099 -0.055 0.154 -0.176 0.154c -0.077 0 -0.132 -0.033 -0.165 -0.099c -0.385 -0.715 -0.836 -1.727 -1.364 -3.036c -0.044 0.726 -0.187 1.408 -0.429 2.035c -0.319 0.814 -0.814 1.221 -1.485 1.221c -0.693 0 -1.298 -0.462 -1.606 -0.891c -0.363 -0.517 -0.55 -0.902 -0.55 -1.144c 0 -0.099 0.088 -0.154 0.275 -0.154l 0.055 0.077c 0.187 0.572 0.506 0.935 0.957 1.089c 0.308 0.099 0.55 0.154 0.726 0.154c 1.144 0 1.716 -0.902 1.716 -2.717c 0 -0.429 -0.044 -0.781 -0.132 -1.056c -0.374 -1.221 -0.561 -2.002 -0.561 -2.343c 0 -0.165 0.066 -0.242 0.187 -0.242c 0.132 0 0.264 0.231 0.385 0.682c 0.187 0.704 0.319 1.331 0.396 1.881c 0.033 0.165 0.055 0.308 0.088 0.407c 0.396 1.232 0.891 2.42 1.474 3.553Z "/></symbol><symbol id="g8DD35590E5062F6A5840D8194DA80E6F" overflow="visible"><path d="M 0 0m 3.971 4.862c -1.243 0 -2.277 -1.342 -2.552 -2.442l -1.056 -4.279c -0.022 -0.088 -0.033 -0.143 -0.033 -0.176c 0 -0.231 0.11 -0.341 0.341 -0.341c 0.165 0 0.308 0.088 0.418 0.253l 0.671 2.629c 0.253 -0.429 0.605 -0.649 1.056 -0.649c 0.726 0 1.364 0.352 1.925 1.067c 0.517 0.671 0.781 1.386 0.781 2.123c 0 1.001 -0.583 1.815 -1.551 1.815Z m -0.022 -0.33c 0.473 0 0.704 -0.341 0.704 -1.023c 0 -0.297 -0.066 -0.682 -0.187 -1.177c -0.242 -0.935 -0.583 -1.562 -1.012 -1.892c -0.231 -0.176 -0.44 -0.264 -0.649 -0.264c -0.209 0 -0.396 0.077 -0.539 0.22c -0.231 0.231 -0.341 0.473 -0.341 0.704c 0.011 0.077 0.033 0.209 0.077 0.396c 0.253 1.045 0.473 1.716 0.649 2.024c 0.385 0.671 0.814 1.012 1.298 1.012Z "/></symbol><symbol id="g4AA9066DE258008E649636F009E5714C" overflow="visible"><path d="M 0 0m 4.499 3.883c 0 -0.286 0.154 -0.429 0.451 -0.429c 0.385 0 0.638 0.341 0.638 0.715c 0 0.429 -0.352 0.726 -0.781 0.726c -0.495 0 -1.023 -0.33 -1.606 -0.979c -0.451 -0.495 -0.814 -0.814 -1.111 -0.957l 1.111 4.51c -0.022 0.099 -0.044 0.165 -0.187 0.165c -0.352 0 -1.188 -0.099 -1.32 -0.11c -0.165 -0.022 -0.242 -0.099 -0.242 -0.264c 0 -0.11 0.099 -0.165 0.297 -0.165c 0.209 0 0.495 0.011 0.495 -0.143l -1.595 -6.479c -0.033 -0.121 -0.044 -0.198 -0.044 -0.242c 0 -0.231 0.121 -0.352 0.352 -0.352c 0.187 0 0.33 0.088 0.407 0.253c 0.055 0.099 0.253 0.88 0.605 2.354c 0.572 -0.055 1.177 -0.33 1.177 -0.88c 0 -0.165 -0.077 -0.495 -0.077 -0.605c 0 -0.627 0.407 -1.122 1.034 -1.122c 0.638 0 1.067 0.572 1.287 1.716c 0 0.099 -0.055 0.154 -0.165 0.154c -0.099 0 -0.165 -0.077 -0.198 -0.231c -0.242 -0.869 -0.539 -1.309 -0.902 -1.309c -0.198 0 -0.297 0.154 -0.297 0.462c 0 0.176 0.132 0.77 0.132 0.946c 0 0.627 -0.506 1.012 -1.529 1.166c 0.253 0.176 0.539 0.429 0.847 0.759c 0.308 0.33 0.528 0.539 0.671 0.66c 0.297 0.242 0.583 0.363 0.836 0.363c 0.11 0 0.198 -0.022 0.264 -0.066c -0.297 -0.055 -0.55 -0.33 -0.55 -0.616Z "/></symbol><symbol id="g2389F7618E8CE27CC7151A1D8E5DEAD4" overflow="visible"><path d="M 0 0m 7.678 4.037h -6.798c -0.176 0 -0.264 -0.088 -0.264 -0.253c 0 -0.165 0.088 -0.253 0.264 -0.253h 6.798c 0.176 0 0.264 0.088 0.264 0.253c 0 0.132 -0.121 0.253 -0.264 0.253Z m 0 -2.068h -6.798c -0.176 0 -0.264 -0.088 -0.264 -0.253c 0 -0.165 0.088 -0.253 0.264 -0.253h 6.798c 0.176 0 0.264 0.088 0.264 0.253c 0 0.143 -0.121 0.253 -0.264 0.253Z "/></symbol><symbol id="gBEAA5D980B1B6CD6E7BE74B68F1EC637" overflow="visible"><path d="M 0 0m 7.953 0c 0.209 0 0.319 0.11 0.319 0.33c 0 0.143 -0.066 0.242 -0.209 0.297c -0.682 0.253 -1.276 0.715 -1.771 1.397c -0.495 0.682 -0.737 1.386 -0.737 2.101v 4.125h -1.188v -4.125c 0 -0.869 0.374 -1.705 1.133 -2.519c 0.671 -0.737 1.452 -1.265 2.343 -1.584c 0.044 -0.011 0.077 -0.022 0.11 -0.022Z "/></symbol><symbol id="g58DE70B0DC67996A6062DF732675B06F" overflow="visible"><path d="M 0 0m 4.367 0h 1.188v 8.228h -1.188Z "/></symbol><symbol id="g2CD4E04A0D30BF0BCB592B65901BFCD" overflow="visible"><path d="M 0 0m 2.75 8.25c 1.298 0.704 2.805 2.299 2.805 4.103v 4.147h -1.188v -4.147c 0 -0.781 -0.231 -1.529 -0.704 -2.266c -0.495 -0.759 -1.089 -1.276 -1.804 -1.529c -0.143 -0.055 -0.209 -0.154 -0.209 -0.308c 0 -0.154 0.066 -0.253 0.209 -0.308c 0.715 -0.253 1.309 -0.77 1.804 -1.529c 0.473 -0.737 0.704 -1.485 0.704 -2.266v -4.147h 1.188v 4.147c 0 1.804 -1.507 3.399 -2.805 4.103Z "/></symbol><symbol id="g87E37713B4483662E5048B1608E6EC95" overflow="visible"><path d="M 0 0m 8.063 7.623c 0.143 0.055 0.209 0.154 0.209 0.297c 0 0.22 -0.11 0.33 -0.319 0.33c -0.033 0 -0.066 -0.011 -0.11 -0.022c -0.891 -0.319 -1.672 -0.847 -2.343 -1.584c -0.759 -0.814 -1.133 -1.65 -1.133 -2.519v -4.125h 1.188v 4.125c 0 0.715 0.242 1.419 0.737 2.101c 0.495 0.682 1.089 1.144 1.771 1.397Z "/></symbol><symbol id="g753B405C8BCF0E1C48C693507077AE03" overflow="visible"><path d="M 0 0m 4.558984375 0.244921875q -0.31796875 -0.184765625 -0.655273438 -0.277148438q -0.337304688 -0.092382813 -0.689648438 -0.092382813q -1.1171875 0 -1.746679688 0.6703125q -0.629492188 0.6703125 -0.629492188 1.85625q 0 1.1859375 0.629492188 1.85625q 0.629492188 0.6703125 1.746679688 0.6703125q 0.348046875 0 0.67890625 -0.090234375q 0.330859375 -0.090234375 0.666015625 -0.279296875v -0.829296875q -0.313671875 0.279296875 -0.629492188 0.40390625q -0.315820313 0.124609375 -0.715429688 0.124609375q -0.743359375 0 -1.14296875 -0.48125q -0.399609375 -0.48125 -0.399609375 -1.375q 0 -0.889453125 0.401757813 -1.372851563q 0.401757813 -0.483398438 1.140820313 -0.483398438q 0.4125 0 0.7390625 0.126757813q 0.3265625 0.126757813 0.605859375 0.393164063v -0.820703125Z "/></symbol><symbol id="g8E43F24E687DFBB5D1E5526D8DC9339C" overflow="visible"><path d="M 0 0m 2.646875 4.258203125q -0.6015625 0 -0.9109375 -0.468359375q -0.309375 -0.468359375 -0.309375 -1.387890625q 0 -0.915234375 0.309375 -1.385742188q 0.309375 -0.470507813 0.9109375 -0.470507813q 0.605859375 0 0.915234375 0.470507813q 0.309375 0.470507813 0.309375 1.385742188q 0 0.91953125 -0.309375 1.387890625q -0.309375 0.468359375 -0.915234375 0.468359375Z m 0 0.6703125q 1.001171875 0 1.531835938 -0.648828125q 0.530664063 -0.648828125 0.530664063 -1.877734375q 0 -1.233203125 -0.528515625 -1.879882813q -0.528515625 -0.646679688 -1.533984375 -0.646679688q -1.001171875 0 -1.5296875 0.646679688q -0.528515625 0.646679688 -0.528515625 1.879882813q 0 1.22890625 0.528515625 1.877734375q 0.528515625 0.648828125 1.5296875 0.648828125Z "/></symbol><symbol id="gEFA11BCBF584E95CF54C8F85D9D572D2" overflow="visible"><path d="M 0 0m 4.516015625 2.98203125v -2.98203125h -0.794921875v 2.98203125q 0 0.648828125 -0.227734375 0.95390625q -0.227734375 0.305078125 -0.71328125 0.305078125q -0.554296875 0 -0.852929688 -0.393164063q -0.298632813 -0.393164063 -0.298632813 -1.127929688v -2.719921875h -0.790625v 4.8125h 0.790625v -0.721875q 0.210546875 0.4125 0.571484375 0.625195313q 0.3609375 0.212695313 0.855078125 0.212695313q 0.734765625 0 1.097851563 -0.483398438q 0.363085938 -0.483398438 0.363085938 -1.463085938Z "/></symbol><symbol id="g18B0C645192E85FDD6BFE6E13B16D837" overflow="visible"><path d="M 0 0m 4.180859375 4.644921875v -0.7734375q -0.339453125 0.19765625 -0.683203125 0.296484375q -0.34375 0.098828125 -0.700390625 0.098828125q -0.537109375 0 -0.801367188 -0.174023438q -0.264257813 -0.174023438 -0.264257813 -0.530664063q 0 -0.322265625 0.19765625 -0.48125q 0.19765625 -0.158984375 0.983984375 -0.309375l 0.31796875 -0.06015625q 0.588671875 -0.11171875 0.891601563 -0.446875q 0.302929688 -0.33515625 0.302929688 -0.872265625q 0 -0.71328125 -0.50703125 -1.115039063q -0.50703125 -0.401757813 -1.409375 -0.401757813q -0.356640625 0 -0.74765625 0.075195313q -0.391015625 0.075195313 -0.846484375 0.225585938v 0.81640625q 0.442578125 -0.227734375 0.846484375 -0.341601563q 0.40390625 -0.113867188 0.76484375 -0.113867188q 0.52421875 0 0.812109375 0.212695313q 0.287890625 0.212695313 0.287890625 0.595117188q 0 0.55 -1.052734375 0.760546875l -0.034375 0.00859375l -0.296484375 0.06015625q -0.683203125 0.133203125 -0.996875 0.449023438q -0.313671875 0.315820313 -0.313671875 0.861523438q 0 0.691796875 0.468359375 1.067773438q 0.468359375 0.375976563 1.336328125 0.375976563q 0.38671875 0 0.743359375 -0.070898438q 0.356640625 -0.070898438 0.700390625 -0.212695313Z "/></symbol><symbol id="g675CA31BB2862F44F71394188EA0CA51" overflow="visible"><path d="M 0 0m 2.63828125 6.17890625v -1.36640625h 1.79609375v -0.614453125h -1.79609375v -2.6125q 0 -0.5328125 0.201953125 -0.743359375q 0.201953125 -0.210546875 0.7046875 -0.210546875h 0.889453125v -0.631640625h -0.966796875q -0.889453125 0 -1.2546875 0.356640625q -0.365234375 0.356640625 -0.365234375 1.22890625v 2.6125h -1.284765625v 0.614453125h 1.284765625v 1.36640625h 0.790625Z "/></symbol><symbol id="gA8CD33D70EBD9AD4A6F72B95DF4DE014" overflow="visible"><path d="M 0 0m 0.837890625 1.821875v 2.98203125h 0.790625v -2.98203125q 0 -0.648828125 0.229882813 -0.95390625q 0.229882813 -0.305078125 0.711132813 -0.305078125q 0.55859375 0 0.855078125 0.393164063q 0.296484375 0.393164063 0.296484375 1.127929688v 2.719921875h 0.794921875v -4.80390625h -0.794921875v 0.721875q -0.210546875 -0.416796875 -0.573632813 -0.631640625q -0.363085938 -0.21484375 -0.848632813 -0.21484375q -0.7390625 0 -1.1 0.483398438q -0.3609375 0.483398438 -0.3609375 1.463085938Z "/></symbol><symbol id="g8081A8237C24C95555CB26B7002BAA27" overflow="visible"><path d="M 0 0m 2.134 6.611c 0 0.33 -0.275 0.616 -0.605 0.616c -0.33 0 -0.616 -0.286 -0.616 -0.616c 0 -0.33 0.275 -0.627 0.605 -0.627c 0.341 0 0.616 0.286 0.616 0.627Z m -0.561 -6.578l 1.144 -0.033v 0.429c -0.363 0 -0.583 0.022 -0.649 0.066c -0.066 0.044 -0.088 0.165 -0.088 0.363v 4.037l -1.573 -0.132v -0.418c 0.363 0 0.594 -0.033 0.671 -0.088c 0.077 -0.055 0.11 -0.209 0.11 -0.462v -2.926c 0 -0.209 -0.033 -0.341 -0.11 -0.385c -0.077 -0.044 -0.319 -0.055 -0.715 -0.055v -0.429Z "/></symbol><symbol id="g42BE19054016F7BAE28890E34266D9C4" overflow="visible"><path d="M 0 0m 2.915 7.755c -0.979 0 -1.705 -0.792 -1.705 -1.771v -1.21h -0.847v -0.418h 0.847v -3.487c 0 -0.209 -0.033 -0.341 -0.11 -0.385c -0.077 -0.044 -0.319 -0.055 -0.726 -0.055v -0.429l 1.265 0.033c 0.462 0.011 0.935 0 1.408 -0.033v 0.429h -0.264c -0.363 0 -0.594 0.022 -0.671 0.077c -0.077 0.055 -0.11 0.187 -0.11 0.385v 3.465h 1.232v 0.418h -1.265v 1.221c 0 0.66 0.341 1.43 0.946 1.43c 0.088 0 0.165 -0.011 0.242 -0.033c -0.165 -0.088 -0.253 -0.242 -0.253 -0.451c 0 -0.341 0.165 -0.517 0.506 -0.517c 0.341 0 0.517 0.176 0.517 0.528c 0 0.495 -0.517 0.803 -1.012 0.803Z "/></symbol><symbol id="g7A75113CED2D41C4AEDB752ABDB169EA" overflow="visible"><path d="M 0 0m 3.2828125 0h -1.267578125v 5.306640625h -1.628515625v 1.10859375h 4.524609375v -1.10859375h -1.628515625v -5.306640625Z "/></symbol><symbol id="g11189D36A8ED0A9E003DFD239176016" overflow="visible"><path d="M 0 0m 4.73515625 0.236328125q -0.43828125 -0.18046875 -0.89375 -0.270703125q -0.45546875 -0.090234375 -0.9625 -0.090234375q -1.207421875 0 -1.845507813 0.646679688q -0.638085938 0.646679688 -0.638085938 1.862695313q 0 1.17734375 0.614453125 1.860546875q 0.614453125 0.683203125 1.67578125 0.683203125q 1.069921875 0 1.660742188 -0.633789063q 0.590820313 -0.633789063 0.590820313 -1.785351563v -0.511328125h -3.261328125q 0.004296875 -0.5671875 0.33515625 -0.846484375q 0.330859375 -0.279296875 0.98828125 -0.279296875q 0.433984375 0 0.855078125 0.124609375q 0.42109375 0.124609375 0.880859375 0.3953125v -1.155859375Z m -1.065625 2.70703125q -0.00859375 0.4984375 -0.255664063 0.754101563q -0.247070313 0.255664063 -0.728320313 0.255664063q -0.433984375 0 -0.691796875 -0.264257813q -0.2578125 -0.264257813 -0.305078125 -0.749804688l 1.980859375 0.004296875Z "/></symbol><symbol id="g7C3292C458A46A58B9B9833BA97D9587" overflow="visible"><path d="M 0 0m 4.258203125 4.662109375v -1.1q -0.348046875 0.2234375 -0.724023438 0.337304688q -0.375976563 0.113867188 -0.754101563 0.113867188q -0.42109375 0 -0.6359375 -0.122460938q -0.21484375 -0.122460938 -0.21484375 -0.363085938q 0 -0.34375 0.91953125 -0.55859375l 0.047265625 -0.012890625l 0.3609375 -0.0859375q 0.6875 -0.16328125 1.007617188 -0.526367188q 0.320117188 -0.363085938 0.320117188 -0.981835938q 0 -0.743359375 -0.487695313 -1.115039063q -0.487695313 -0.371679688 -1.467382813 -0.371679688q -0.433984375 0 -0.889453125 0.075195313q -0.45546875 0.075195313 -0.923828125 0.225585938v 1.1q 0.416796875 -0.236328125 0.848632813 -0.3609375q 0.431835938 -0.124609375 0.835742188 -0.124609375q 0.442578125 0 0.6703125 0.12890625q 0.227734375 0.12890625 0.227734375 0.373828125q 0 0.240625 -0.161132813 0.36953125q -0.161132813 0.12890625 -0.766992188 0.275l -0.348046875 0.07734375q -0.721875 0.16328125 -1.052734375 0.511328125q -0.330859375 0.348046875 -0.330859375 0.932421875q 0 0.69609375 0.502734375 1.0828125q 0.502734375 0.38671875 1.413671875 0.38671875q 0.408203125 0 0.814257813 -0.066601563q 0.406054688 -0.066601563 0.788476563 -0.199804688Z "/></symbol><symbol id="gB75E13C86ADCA88662C5D7AC943163C3" overflow="visible"><path d="M 0 0m 2.96484375 6.17890625v -1.36640625h 1.645703125v -0.966796875h -1.645703125v -2.27734375q 0 -0.322265625 0.156835938 -0.461914063q 0.156835938 -0.139648438 0.522070313 -0.139648438h 0.966796875v -0.966796875h -1.05703125q -1.0828125 0 -1.465234375 0.345898438q -0.382421875 0.345898438 -0.382421875 1.282617188v 2.2171875h -1.22890625v 0.966796875h 1.22890625v 1.36640625h 1.258984375Z "/></symbol><symbol id="g92EECDEFF4D0B4B994490A05B493B814" overflow="visible"><path d="M 0 0m 0.4296875 4.8125h 0.820703125l 1.396484375 -4.0390625l 1.40078125 4.0390625h 0.820703125l -1.71015625 -4.8125h -1.018359375l -1.71015625 4.8125Z "/></symbol><symbol id="g4F21559D411E52A0427C66D0631BE87E" overflow="visible"><path d="M 0 0m 3.68671875 4.198046875v 2.487890625h 0.790625v -6.6859375h -0.790625v 0.605859375q -0.19765625 -0.356640625 -0.526367188 -0.543554688q -0.328710938 -0.186914063 -0.758398438 -0.186914063q -0.872265625 0 -1.372851563 0.676757813q -0.500585938 0.676757813 -0.500585938 1.866992188q 0 1.173046875 0.502734375 1.841210938q 0.502734375 0.668164063 1.370703125 0.668164063q 0.433984375 0 0.76484375 -0.186914063q 0.330859375 -0.186914063 0.519921875 -0.543554688Z m -2.324609375 -1.79609375q 0 -0.91953125 0.2921875 -1.387890625q 0.2921875 -0.468359375 0.863671875 -0.468359375q 0.571484375 0 0.870117188 0.47265625q 0.298632813 0.47265625 0.298632813 1.38359375q 0 0.915234375 -0.298632813 1.385742188q -0.298632813 0.470507813 -0.870117188 0.470507813q -0.571484375 0 -0.863671875 -0.468359375q -0.2921875 -0.468359375 -0.2921875 -1.387890625Z "/></symbol><symbol id="g51312D5A75BF1E93D7C6B5CCB301AC0" overflow="visible"><path d="M 0 0m 4.71796875 0h -3.99609375v 6.415234375h 3.99609375v -1.1171875h -2.728515625v -1.38359375h 2.470703125v -1.1171875h -2.470703125v -1.680078125h 2.728515625v -1.1171875Z "/></symbol><symbol id="g7E7E6665B7F0AE46660C9C20644DB79" overflow="visible"><path d="M 0 0m 3.175390625 5.23359375v -0.42109375h 1.478125v -0.966796875h -1.478125v -3.845703125h -1.258984375v 3.845703125h -1.16875v 0.966796875h 1.16875v 0.33515625q 0 0.86796875 0.3609375 1.203125q 0.3609375 0.33515625 1.340625 0.33515625h 1.035546875v -0.966796875h -0.983984375q -0.28359375 0 -0.384570313 -0.103125q -0.100976563 -0.103125 -0.109570313 -0.382421875Z "/></symbol><symbol id="g281310CBD5B670ABC4C91FC64E8D0C6A" overflow="visible"><path d="M 0 0m 4.558984375 0.244921875q -0.31796875 -0.184765625 -0.683203125 -0.277148438q -0.365234375 -0.092382813 -0.786328125 -0.092382813q -1.112890625 0 -1.740234375 0.6703125q -0.62734375 0.6703125 -0.62734375 1.85625q 0 1.190234375 0.631640625 1.862695313q 0.631640625 0.672460938 1.74453125 0.672460938q 0.38671875 0 0.745507813 -0.090234375q 0.358789063 -0.090234375 0.715429688 -0.279296875v -1.1515625q -0.275 0.236328125 -0.603710938 0.363085938q -0.328710938 0.126757813 -0.681054688 0.126757813q -0.614453125 0 -0.9453125 -0.391015625q -0.330859375 -0.391015625 -0.330859375 -1.112890625q 0 -0.721875 0.330859375 -1.10859375q 0.330859375 -0.38671875 0.9453125 -0.38671875q 0.365234375 0 0.683203125 0.122460938q 0.31796875 0.122460938 0.6015625 0.371679688v -1.155859375Z "/></symbol><symbol id="g521F2DDE78882B32DB463695F98C5705" overflow="visible"><path d="M 0 0m 2.646875 1.05703125l 1.130078125 5.358203125h 1.276171875l -1.525390625 -6.415234375h -1.757421875l -1.525390625 6.415234375h 1.276171875l 1.12578125 -5.358203125Z "/></symbol><symbol id="g82D23B6D5370404661A1780E66CA09E" overflow="visible"><path d="M 0 0m 3.0078125 2.26015625q -0.7046875 0 -0.983984375 -0.18046875q -0.279296875 -0.18046875 -0.279296875 -0.61875q 0 -0.3265625 0.193359375 -0.519921875q 0.193359375 -0.193359375 0.52421875 -0.193359375q 0.4984375 0 0.7734375 0.375976563q 0.275 0.375976563 0.275 1.050585938v 0.0859375h -0.502734375Z m 1.753125 0.485546875v -2.745703125h -1.250390625v 0.537109375q -0.227734375 -0.31796875 -0.584375 -0.48984375q -0.356640625 -0.171875 -0.786328125 -0.171875q -0.820703125 0 -1.278320313 0.433984375q -0.457617188 0.433984375 -0.457617188 1.21171875q 0 0.8421875 0.545703125 1.243945313q 0.545703125 0.401757813 1.688671875 0.401757813h 0.872265625v 0.210546875q 0 0.305078125 -0.221289063 0.461914063q -0.221289063 0.156835938 -0.650976563 0.156835938q -0.451171875 0 -0.874414063 -0.113867188q -0.423242188 -0.113867188 -0.883007813 -0.363085938v 1.07421875q 0.416796875 0.171875 0.846484375 0.253515625q 0.4296875 0.081640625 0.9109375 0.081640625q 1.173046875 0 1.647851563 -0.476953125q 0.474804688 -0.476953125 0.474804688 -1.705859375Z "/></symbol><symbol id="g11B715B086B5896FA56CD5C2E567D0DB" overflow="visible"><path d="M 0 0m 1.662890625 2.006640625v 3.7125h -1.276171875v 0.966796875h 2.53515625v -4.679296875q 0 -0.5671875 0.176171875 -0.803515625q 0.176171875 -0.236328125 0.597265625 -0.236328125h 1.00546875v -0.966796875h -1.3578125q -0.898046875 0 -1.2890625 0.4640625q -0.391015625 0.4640625 -0.391015625 1.542578125Z "/></symbol><symbol id="gC9CF2B268112D692AA5AABDD5E57E12A" overflow="visible"><path d="M 0 0m 0.6875 1.680078125v 3.132421875h 1.258984375v -2.9390625q 0 -0.519921875 0.14609375 -0.743359375q 0.14609375 -0.2234375 0.485546875 -0.2234375q 0.339453125 0 0.530664063 0.30078125q 0.191210938 0.30078125 0.191210938 0.8421875v 2.762890625h 1.258984375v -4.8125h -1.258984375v 0.71328125q -0.133203125 -0.399609375 -0.453320313 -0.61875q -0.320117188 -0.219140625 -0.771289063 -0.219140625q -0.6875 0 -1.037695313 0.45546875q -0.350195313 0.45546875 -0.350195313 1.34921875Z "/></symbol><symbol id="g8CAF94BAEF81D91CC1530A3D4F0B18EF" overflow="visible"><path d="M 0 0m 6.072 6.963c 0 0.484 -0.473 0.792 -0.99 0.792c -0.682 0 -1.155 -0.44 -1.408 -1.309c -0.055 -0.198 -0.176 -0.759 -0.352 -1.683h -0.715c -0.242 0 -0.363 -0.011 -0.363 -0.242c 0 -0.121 0.11 -0.176 0.341 -0.176h 0.66l -0.803 -4.257c -0.121 -0.627 -0.231 -1.089 -0.33 -1.397c -0.132 -0.407 -0.319 -0.616 -0.561 -0.616c -0.165 0 -0.297 0.044 -0.418 0.121c 0.352 0.055 0.528 0.264 0.528 0.616c 0 0.286 -0.143 0.429 -0.44 0.429c -0.374 0 -0.638 -0.33 -0.638 -0.704c 0 -0.484 0.451 -0.792 0.968 -0.792c 0.275 0 0.528 0.11 0.737 0.341c 0.352 0.363 0.627 0.88 0.825 1.573c 0.121 0.429 0.231 0.847 0.308 1.265l 0.638 3.421h 0.902c 0.253 0 0.363 0.011 0.363 0.264c 0 0.099 -0.11 0.154 -0.33 0.154h -0.847c 0.066 0.451 0.374 2.112 0.473 2.321c 0.11 0.231 0.264 0.341 0.462 0.341c 0.165 0 0.308 -0.044 0.429 -0.121c -0.341 -0.077 -0.517 -0.275 -0.517 -0.616c 0 -0.286 0.143 -0.429 0.44 -0.429c 0.374 0 0.638 0.33 0.638 0.704Z "/></symbol><symbol id="g313E46022A35FE004C34D0F33FA6CF9" overflow="visible"><path d="M 0 0m 3.388 4.862c -0.759 0 -1.452 -0.33 -2.046 -0.979c -0.594 -0.649 -0.891 -1.364 -0.891 -2.134c 0 -1.056 0.715 -1.87 1.771 -1.87c 0.77 0 1.452 0.33 2.046 0.979c 0.594 0.649 0.891 1.353 0.891 2.134c 0 1.067 -0.704 1.87 -1.771 1.87Z m 0.891 -1.452c 0 -0.253 -0.055 -0.605 -0.165 -1.067c -0.231 -0.913 -0.605 -1.54 -1.122 -1.881c -0.264 -0.176 -0.517 -0.264 -0.759 -0.264c -0.594 0 -0.902 0.517 -0.902 1.144c 0 0.638 0.374 1.826 0.627 2.222c 0.418 0.649 0.891 0.979 1.419 0.979c 0.594 0 0.902 -0.506 0.902 -1.133Z "/></symbol><symbol id="g6A7F5A83C1AD46379FEDFD85DC0924EE" overflow="visible"><path d="M 0 0m 1.903 6.952l -1.364 -5.643c -0.033 -0.154 -0.055 -0.286 -0.055 -0.385c 0 -0.583 0.429 -1.045 1.012 -1.045c 0.539 0 0.924 0.572 1.155 1.716c 0 0.099 -0.055 0.154 -0.176 0.154c -0.088 0 -0.154 -0.077 -0.187 -0.231c -0.22 -0.869 -0.473 -1.309 -0.77 -1.309c -0.187 0 -0.275 0.154 -0.275 0.451c 0 0.165 0.022 0.341 0.066 0.517l 1.529 6.292v 0.044c -0.033 0.077 -0.099 0.121 -0.176 0.121c -0.352 0 -1.166 -0.099 -1.298 -0.11c -0.165 -0.022 -0.242 -0.11 -0.242 -0.275c 0 -0.099 0.099 -0.154 0.308 -0.154c 0.187 0 0.473 0 0.473 -0.143Z "/></symbol><symbol id="gFCA8B7969079D7A79412C4845E7994CD" overflow="visible"><path d="M 0 0m 4.719 6.952l -0.649 -2.673c -0.231 0.407 -0.55 0.616 -0.979 0.616c -0.715 0 -1.342 -0.363 -1.892 -1.1c -0.506 -0.682 -0.759 -1.397 -0.759 -2.134c 0 -0.968 0.561 -1.782 1.485 -1.782c 0.473 0 0.935 0.253 1.375 0.77c 0.121 -0.418 0.495 -0.77 1.012 -0.77c 0.759 0 1.001 0.902 1.166 1.716c 0 0.099 -0.055 0.154 -0.165 0.154c -0.099 0 -0.165 -0.077 -0.198 -0.231c -0.22 -0.869 -0.484 -1.309 -0.781 -1.309c -0.187 0 -0.286 0.154 -0.286 0.451c 0 0.165 0.022 0.341 0.066 0.517l 1.562 6.292v 0.044c -0.033 0.077 -0.099 0.121 -0.187 0.121c -0.253 0 -0.715 -0.044 -1.375 -0.121c -0.121 -0.011 -0.187 -0.099 -0.187 -0.253c 0 -0.11 0.099 -0.165 0.297 -0.165c 0.209 0 0.495 0.011 0.495 -0.143Z m -0.968 -2.816c 0.11 -0.231 0.165 -0.385 0.165 -0.484c -0.011 -0.044 -0.022 -0.099 -0.033 -0.176l -0.539 -2.134c -0.033 -0.121 -0.11 -0.253 -0.209 -0.385c -0.407 -0.495 -0.803 -0.748 -1.188 -0.748c -0.429 0 -0.649 0.33 -0.649 0.979c 0 0.264 0.066 0.66 0.198 1.188c 0.231 0.935 0.561 1.573 0.968 1.914c 0.22 0.187 0.429 0.275 0.638 0.275c 0.297 0 0.517 -0.143 0.649 -0.429Z "/></symbol><symbol id="gA26959CC7A08E8EC12D9E5FDB3CAF766" overflow="visible"><path d="M 0 0m 2.646875 5.255078125l -0.597265625 -2.625390625h 1.198828125l -0.6015625 2.625390625Z m -0.7734375 1.16015625h 1.551171875l 1.731640625 -6.415234375h -1.267578125l -0.3953125 1.585546875h -1.697265625l -0.38671875 -1.585546875h -1.267578125l 1.731640625 6.415234375Z "/></symbol><symbol id="g42E72C06CADF56A793607B8210F158C5" overflow="visible"><path d="M 0 0m 1.89921875 0.67890625v -2.509375h -1.2546875v 6.64296875h 1.2546875v -0.721875q 0.19765625 0.416796875 0.519921875 0.62734375q 0.322265625 0.210546875 0.75625 0.210546875q 0.825 0 1.28046875 -0.66171875q 0.45546875 -0.66171875 0.45546875 -1.86484375q 0 -1.2203125 -0.461914063 -1.8734375q -0.461914063 -0.653125 -1.316992188 -0.653125q -0.38671875 0 -0.693945313 0.199804688q -0.307226563 0.199804688 -0.539257813 0.603710938Z m 1.753125 1.731640625q 0 0.69609375 -0.23203125 1.09140625q -0.23203125 0.3953125 -0.640234375 0.3953125q -0.408203125 0 -0.64453125 -0.3953125q -0.236328125 -0.3953125 -0.236328125 -1.09140625q 0 -0.69609375 0.236328125 -1.09140625q 0.236328125 -0.3953125 0.64453125 -0.3953125q 0.408203125 0 0.640234375 0.3953125q 0.23203125 0.3953125 0.23203125 1.09140625Z "/></symbol><symbol id="g1191ED62F436B58C75B652BB46FBF60F" overflow="visible"><path d="M 0 0m 4.18 -3.817c 0.11 0 0.165 0.055 0.165 0.165c 0 0.055 -0.022 0.099 -0.055 0.132c -0.671 0.517 -1.21 1.364 -1.617 2.552c -0.352 1.023 -0.528 2.035 -0.528 3.014v 1.408c 0 0.979 0.176 1.991 0.528 3.014c 0.407 1.188 0.946 2.035 1.617 2.552c 0.033 0.033 0.055 0.077 0.055 0.132c 0 0.11 -0.055 0.165 -0.165 0.165c -0.022 0 -0.055 -0.011 -0.088 -0.033c -0.77 -0.583 -1.408 -1.463 -1.914 -2.64c -0.495 -1.111 -0.737 -2.178 -0.737 -3.19v -1.408c 0 -1.012 0.242 -2.079 0.737 -3.19c 0.506 -1.177 1.144 -2.057 1.914 -2.64c 0.033 -0.022 0.066 -0.033 0.088 -0.033Z "/></symbol><symbol id="g3BAF23AB431BDA7FCE4D7083470CFBD3" overflow="visible"><path d="M 0 0m 2.739 -0.121c 0.682 0 1.254 0.242 1.727 0.726c 0.473 0.484 0.715 1.067 0.715 1.749c 0 0.693 -0.231 1.298 -0.693 1.804c -0.462 0.506 -1.045 0.77 -1.738 0.77c -0.693 0 -1.265 -0.264 -1.738 -0.77c -0.473 -0.506 -0.704 -1.111 -0.704 -1.804c 0 -0.682 0.231 -1.265 0.704 -1.749c 0.473 -0.484 1.056 -0.726 1.727 -0.726Z m 0.011 0.352c -0.528 0 -0.924 0.231 -1.199 0.704c -0.176 0.308 -0.264 0.814 -0.264 1.507c 0 0.671 0.088 1.155 0.253 1.463c 0.264 0.473 0.66 0.704 1.199 0.704c 0.517 0 0.913 -0.231 1.188 -0.682c 0.187 -0.308 0.275 -0.803 0.275 -1.485c 0 -1.276 -0.374 -2.211 -1.452 -2.211Z "/></symbol><symbol id="gF2E9DE7382F8BB82A14E9A8C0CA6C0F0" overflow="visible"><path d="M 0 0m 1.529 1.166c -0.352 0 -0.583 -0.264 -0.583 -0.616c 0 -0.33 0.253 -0.605 0.583 -0.605c 0.154 0 0.286 0.044 0.385 0.143l 0.011 -0.088c 0 -0.693 -0.231 -1.287 -0.693 -1.76c -0.077 -0.088 -0.121 -0.154 -0.121 -0.198c 0 -0.11 0.044 -0.165 0.143 -0.165c 0.099 0 0.231 0.132 0.418 0.385c 0.374 0.528 0.561 1.111 0.561 1.738c 0 0.583 -0.198 1.166 -0.704 1.166Z "/></symbol><symbol id="gBFCC2410A697C41E2DD3187C83DA8F3" overflow="visible"><path d="M 0 0m 2.3331 5.1128c -0.3311 -0.3234 -0.8239 -0.4851 -1.4938 -0.4851v -0.3388c 0.4543 0 0.8162 0.0693 1.0934 0.2002v -3.8346c 0 -0.1001 -0.0077 -0.1617 -0.0308 -0.1925c -0.0385 -0.0847 -0.2695 -0.1309 -0.693 -0.1309h -0.3157v -0.3311l 1.3706 0.0308l 1.3783 -0.0308v 0.3311h -0.3157c -0.4235 0 -0.6545 0.0462 -0.7007 0.1309c -0.0154 0.0308 -0.0231 0.0924 -0.0231 0.1925v 4.2119c 0 0.2079 -0.0308 0.2464 -0.2695 0.2464Z "/></symbol><symbol id="gA18F762FFFFE399C9BA1DB0D10B3D31E" overflow="visible"><path d="M 0 0m 4.6662 3.0877c 0.0231 0.0462 0.0385 0.0847 0.0385 0.1078c 0 0.0847 -0.0539 0.1232 -0.154 0.1232c -0.0693 0 -0.1155 -0.0154 -0.1386 -0.0539c -0.3542 -0.616 -0.6776 -1.3013 -0.9625 -2.0559c -0.0539 0.5005 -0.2541 1.1242 -0.462 1.5015c -0.2618 0.4543 -0.6237 0.6853 -1.0934 0.6853c -0.3927 0 -0.7469 -0.1463 -1.0703 -0.4466c -0.2002 -0.1925 -0.5621 -0.6853 -0.5621 -0.9548c 0 -0.0847 0.0539 -0.1232 0.154 -0.1232c 0.077 0 0.1309 0.0539 0.1694 0.154c 0.1386 0.4004 0.6622 0.7007 1.2012 0.7007c 0.9009 0 1.3552 -0.6545 1.3552 -1.9712c 0 -0.2464 -0.0154 -0.4235 -0.0539 -0.539c -0.2695 -0.8624 -0.4004 -1.4091 -0.4004 -1.6478c 0 -0.1463 0.0539 -0.2156 0.154 -0.2156c 0.0308 0 0.0539 0.0077 0.077 0.0154c 0.0693 0.0231 0.1386 0.1617 0.2156 0.4004c 0.1463 0.4851 0.2387 0.9548 0.2926 1.4168c 0.0231 0.2233 0.231 0.77 0.616 1.6478c 0.1771 0.4158 0.385 0.8316 0.6237 1.2551Z "/></symbol><symbol id="g90C70798A55D47911C9509EA3A2AC8D8" overflow="visible"><path d="M 0 0m 0.946 -3.784c 0.77 0.583 1.408 1.463 1.914 2.64c 0.495 1.111 0.737 2.178 0.737 3.19v 1.408c 0 1.012 -0.242 2.079 -0.737 3.19c -0.506 1.177 -1.144 2.057 -1.914 2.64c -0.033 0.022 -0.066 0.033 -0.088 0.033c -0.11 0 -0.165 -0.055 -0.165 -0.165c 0 -0.055 0.022 -0.099 0.055 -0.132c 0.671 -0.517 1.21 -1.364 1.617 -2.552c 0.352 -1.023 0.528 -2.035 0.528 -3.014v -1.408c 0 -0.979 -0.176 -1.991 -0.528 -3.014c -0.407 -1.188 -0.946 -2.035 -1.617 -2.552c -0.033 -0.033 -0.055 -0.077 -0.055 -0.132c 0 -0.11 0.055 -0.165 0.165 -0.165c 0.022 0 0.055 0.011 0.088 0.033Z "/></symbol></defs></svg>