<svg viewBox="0 0 498.985068403 127.6046" width="498.985068403pt" height="127.6046pt" xmlns="http://www.w3.org/2000/svg" xmlns:xlink="http://www.w3.org/1999/xlink" xmlns:h5="http://www.w3.org/1999/xhtml"><path fill="#ffffff" fill-rule="nonzero" d="M 0 0v 127.6046h 498.985068403v -127.6046Z "/><g transform="matrix(1 0 0 -1 1 8.634)"><use xlink:href="#g6DBFE2DA1D27E4D54C97E6F7579A935B" x="0" y="0" fill="#000000" fill-rule="nonzero"/></g><g transform="matrix(1 0 0 -1 10.427 8.634)"><use xlink:href="#gEFD6A37741EDB46D1C5C1B0AEAB33C8D" x="0" y="0" fill="#000000" fill-rule="nonzero"/><use xlink:href="#g753B405C8BCF0E1C48C693507077AE03" x="5.298046875" y="0" fill="#000000" fill-rule="nonzero"/><use xlink:href="#gC74EE0AF2B149D895BF9573AF08C8170" x="10.59609375" y="0" fill="#000000" fill-rule="nonzero"/><use xlink:href="#g6BE3C26FC5C2EF394923021E65FF3629" x="15.894140625" y="0" fill="#000000" fill-rule="nonzero"/><use xlink:href="#g6BE3C26FC5C2EF394923021E65FF3629" x="21.1921875" y="0" fill="#000000" fill-rule="nonzero"/></g><g transform="matrix(1 0 0 -1 40.569234375 8.634)"><use xlink:href="#g1570446F77F9A6C1B85605F46F92409E" x="0" y="0" fill="#000000" fill-rule="nonzero"/></g><g transform="matrix(1 0 0 -1 45.695234375 11.351)"><use xlink:href="#gBFCC2410A697C41E2DD3187C83DA8F3" x="0" y="0" fill="#000000" fill-rule="nonzero"/></g><g transform="matrix(1 0 0 -1 50.692534375 8.634)"/><g transform="matrix(1 0 0 -1 54.344534375 8.634)"/><g transform="matrix(1 0 0 -1 59.64258125 8.634)"><use xlink:href="#g1570446F77F9A6C1B85605F46F92409E" x="0" y="0" fill="#000000" fill-rule="nonzero"/></g><g transform="matrix(1 0 0 -1 64.76858125 11.351)"><use xlink:href="#g25B224D96CA3F5CCC7E774117FEA026D" x="0" y="0" fill="#000000" fill-rule="nonzero"/></g><g transform="matrix(1 0 0 -1 69.76588125 8.634)"><use xlink:href="#gFF1EC1E3625C6E3C8EE7A324B4F795C4" x="0" y="0" fill="#000000" fill-rule="nonzero"/></g><g transform="matrix(1 0 0 -1 78.715928125 8.634)"><use xlink:href="#g4D6D0CA498010ACD5A22795F1AD38996" x="0" y="0" fill="#000000" fill-rule="nonzero"/></g><g transform="matrix(1 0 0 -1 84.996928125 8.634)"/><g transform="matrix(1 0 0 -1 88.648928125 8.634)"><use xlink:href="#g8DD35590E5062F6A5840D8194DA80E6F" x="0" y="0" fill="#000000" fill-rule="nonzero"/></g><g transform="matrix(1 0 0 -1 94.478928125 8.634)"/><g transform="matrix(1 0 0 -1 98.130928125 8.634)"><use xlink:href="#g4AA9066DE258008E649636F009E5714C" x="0" y="0" fill="#000000" fill-rule="nonzero"/></g><g transform="matrix(1 0 0 -1 104.026928125 8.634)"/><g transform="matrix(1 0 0 -1 107.678928125 8.634)"><use xlink:href="#gD9181C58C134A18FD40559388A025E62" x="0" y="0" fill="#000000" fill-rule="nonzero"/></g><g transform="matrix(1 0 0 -1 117.279483681 8.634)"><use xlink:href="#g2389F7618E8CE27CC7151A1D8E5DEAD4" x="0" y="0" fill="#000000" fill-rule="nonzero"/></g><g transform="matrix(1 0 0 -1 128.893039236 8.634)"><use xlink:href="#g6DBFE2DA1D27E4D54C97E6F7579A935B" x="0" y="0" fill="#000000" fill-rule="nonzero"/></g><g transform="matrix(1 0 0 -1 134.668039236 8.634)"/><g transform="matrix(1 0 0 -1 138.320039236 8.634)"><use xlink:href="#g1570446F77F9A6C1B85605F46F92409E" x="0" y="0" fill="#000000" fill-rule="nonzero"/></g><g transform="matrix(1 0 0 -1 143.446039236 11.351)"><use xlink:href="#gBFCC2410A697C41E2DD3187C83DA8F3" x="0" y="0" fill="#000000" fill-rule="nonzero"/></g><g transform="matrix(1 0 0 -1 148.443339236 8.634)"/><g transform="matrix(1 0 0 -1 152.095339236 8.634)"><use xlink:href="#g4D6D0CA498010ACD5A22795F1AD38996" x="0" y="0" fill="#000000" fill-rule="nonzero"/></g><g transform="matrix(1 0 0 -1 157.793339236 11.351)"><use xlink:href="#gBFCC2410A697C41E2DD3187C83DA8F3" x="0" y="0" fill="#000000" fill-rule="nonzero"/></g><g transform="matrix(1 0 0 -1 162.790639236 8.634)"/><g transform="matrix(1 0 0 -1 166.442639236 8.634)"><use xlink:href="#g8DD35590E5062F6A5840D8194DA80E6F" x="0" y="0" fill="#000000" fill-rule="nonzero"/></g><g transform="matrix(1 0 0 -1 172.272639236 8.634)"/><g transform="matrix(1 0 0 -1 175.924639236 8.634)"><use xlink:href="#g4AA9066DE258008E649636F009E5714C" x="0" y="0" fill="#000000" fill-rule="nonzero"/></g><g transform="matrix(1 0 0 -1 181.655639236 11.351)"><use xlink:href="#gBFCC2410A697C41E2DD3187C83DA8F3" x="0" y="0" fill="#000000" fill-rule="nonzero"/></g><g transform="matrix(1 0 0 -1 186.652939236 8.634)"/><g transform="matrix(1 0 0 -1 190.304939236 8.634)"><use xlink:href="#gD9181C58C134A18FD40559388A025E62" x="0" y="0" fill="#000000" fill-rule="nonzero"/></g><g transform="matrix(1 0 0 -1 196.585939236 11.351)"><use xlink:href="#gBFCC2410A697C41E2DD3187C83DA8F3" x="0" y="0" fill="#000000" fill-rule="nonzero"/></g><g transform="matrix(1 0 0 -1 205.235239236 8.634)"><use xlink:href="#g30C36184EAFBF77DBD046B786F3331E" x="0" y="0" fill="#000000" fill-rule="nonzero"/><use xlink:href="#g7A15C53874C56177CC9533530FA2B070" x="7.942" y="0" fill="#000000" fill-rule="nonzero"/><use xlink:href="#g661B36513DCEC8B17F1DD8AE5C54E18F" x="14.058" y="0" fill="#000000" fill-rule="nonzero"/><use xlink:href="#g30A11840F6D1B58D63FF228F63DFF50C" x="18.942" y="0" fill="#000000" fill-rule="nonzero"/><use xlink:href="#g661B36513DCEC8B17F1DD8AE5C54E18F" x="23.254" y="0" fill="#000000" fill-rule="nonzero"/></g><g transform="matrix(1 0 0 -1 117.279483681 27.323)"/><g transform="matrix(1 0 0 -1 128.279483681 27.323)"/><g transform="translate(142.931483681 16.631)"><g transform="matrix(1 0 0 -1 31.9869 10.692)"><use xlink:href="#g313E46022A35FE004C34D0F33FA6CF9" x="0" y="0" fill="#000000" fill-rule="nonzero"/><use xlink:href="#gB7D1E2CC5BEFB1BAD32905121AEF9EA" x="5.335" y="0" fill="#000000" fill-rule="nonzero"/></g><g transform="matrix(1 0 0 -1 45.910455556 10.692)"><use xlink:href="#g2389F7618E8CE27CC7151A1D8E5DEAD4" x="0" y="0" fill="#000000" fill-rule="nonzero"/></g><g transform="matrix(1 0 0 -1 57.524011111 10.692)"><use xlink:href="#g92AE00E454ABE2A3B4DC14B5CA8FBE9" x="0" y="0" fill="#000000" fill-rule="nonzero"/><use xlink:href="#g42E72C06CADF56A793607B8210F158C5" x="5.298046875" y="0" fill="#000000" fill-rule="nonzero"/><use xlink:href="#gE9FB6D24CF34BB489DEF6497581F7D30" x="10.59609375" y="0" fill="#000000" fill-rule="nonzero"/><use xlink:href="#g96818725DD91C4F0FF90130D23331B7" x="15.894140625" y="0" fill="#000000" fill-rule="nonzero"/></g><g transform="matrix(1 0 0 -1 78.716198611 10.692)"><use xlink:href="#gAF9F81DC8F237819C2370C3A12E78B95" x="0" y="0" fill="#000000" fill-rule="nonzero"/></g><g transform="matrix(1 0 0 -1 84.469198611 10.692)"><use xlink:href="#g1570446F77F9A6C1B85605F46F92409E" x="0" y="0" fill="#000000" fill-rule="nonzero"/></g><g transform="matrix(1 0 0 -1 89.595198611 13.409)"><use xlink:href="#g25B224D96CA3F5CCC7E774117FEA026D" x="0" y="0" fill="#000000" fill-rule="nonzero"/></g><g transform="matrix(1 0 0 -1 94.592498611 10.692)"><use xlink:href="#gF2E9DE7382F8BB82A14E9A8C0CA6C0F0" x="0" y="0" fill="#000000" fill-rule="nonzero"/></g><g transform="matrix(1 0 0 -1 99.483831944 10.692)"><use xlink:href="#g8DD35590E5062F6A5840D8194DA80E6F" x="0" y="0" fill="#000000" fill-rule="nonzero"/></g><g transform="matrix(1 0 0 -1 105.313831944 10.692)"><use xlink:href="#gF2E9DE7382F8BB82A14E9A8C0CA6C0F0" x="0" y="0" fill="#000000" fill-rule="nonzero"/></g><g transform="matrix(1 0 0 -1 110.205165278 10.692)"><use xlink:href="#g6A7F5A83C1AD46379FEDFD85DC0924EE" x="0" y="0" fill="#000000" fill-rule="nonzero"/></g><g transform="matrix(1 0 0 -1 113.483165278 13.409)"><use xlink:href="#gC5D2F11606059683B8CADF95C716D01F" x="0" y="0" fill="#000000" fill-rule="nonzero"/></g><g transform="matrix(1 0 0 -1 117.656565278 15.3109)"><use xlink:href="#g1E91EC0565909D26837158C3378F24FD" x="0" y="0" fill="#000000" fill-rule="nonzero"/></g><g transform="matrix(1 0 0 -1 122.449265278 10.692)"><use xlink:href="#gE1B314257D573D54CCD4E09523E8268A" x="0" y="0" fill="#000000" fill-rule="nonzero"/></g><g transform="matrix(1 0 0 -1 128.202265278 10.692)"/><g transform="matrix(1 0 0 -1 139.202265278 10.692)"/><g transform="matrix(1 0 0 -1 316.145484722 10.692)"><use xlink:href="#g6A7F5A83C1AD46379FEDFD85DC0924EE" x="0" y="0" fill="#000000" fill-rule="nonzero"/></g><g transform="matrix(1 0 0 -1 319.423484722 13.409)"><use xlink:href="#gC5D2F11606059683B8CADF95C716D01F" x="0" y="0" fill="#000000" fill-rule="nonzero"/></g><g transform="matrix(1 0 0 -1 323.596884722 15.3109)"><use xlink:href="#g1E91EC0565909D26837158C3378F24FD" x="0" y="0" fill="#000000" fill-rule="nonzero"/></g><g transform="matrix(1 0 0 -1 332.041584722 10.692)"><use xlink:href="#g42BE19054016F7BAE28890E34266D9C4" x="0" y="0" fill="#000000" fill-rule="nonzero"/><use xlink:href="#g30A11840F6D1B58D63FF228F63DFF50C" x="3.366" y="0" fill="#000000" fill-rule="nonzero"/><use xlink:href="#g661B36513DCEC8B17F1DD8AE5C54E18F" x="7.678" y="0" fill="#000000" fill-rule="nonzero"/><use xlink:href="#g316D45BB6425B2B3622251A815E109FB" x="12.562" y="0" fill="#000000" fill-rule="nonzero"/><use xlink:href="#g7A15C53874C56177CC9533530FA2B070" x="16.896" y="0" fill="#000000" fill-rule="nonzero"/></g><g transform="matrix(1 0 0 -1 32.1596 31.856)"><use xlink:href="#g4D6D0CA498010ACD5A22795F1AD38996" x="0" y="0" fill="#000000" fill-rule="nonzero"/></g><g transform="matrix(1 0 0 -1 37.8576 34.573)"><use xlink:href="#gBFCC2410A697C41E2DD3187C83DA8F3" x="0" y="0" fill="#000000" fill-rule="nonzero"/></g><g transform="matrix(1 0 0 -1 45.910455556 31.856)"><use xlink:href="#g2389F7618E8CE27CC7151A1D8E5DEAD4" x="0" y="0" fill="#000000" fill-rule="nonzero"/></g><g transform="matrix(1 0 0 -1 57.524011111 31.856)"><use xlink:href="#gA26959CC7A08E8EC12D9E5FDB3CAF766" x="0" y="0" fill="#000000" fill-rule="nonzero"/><use xlink:href="#g42E72C06CADF56A793607B8210F158C5" x="5.298046875" y="0" fill="#000000" fill-rule="nonzero"/><use xlink:href="#g42E72C06CADF56A793607B8210F158C5" x="10.59609375" y="0" fill="#000000" fill-rule="nonzero"/></g><g transform="matrix(1 0 0 -1 73.418151736 31.856)"><use xlink:href="#gAF9F81DC8F237819C2370C3A12E78B95" x="0" y="0" fill="#000000" fill-rule="nonzero"/></g><g transform="matrix(1 0 0 -1 79.171151736 31.856)"><use xlink:href="#g313E46022A35FE004C34D0F33FA6CF9" x="0" y="0" fill="#000000" fill-rule="nonzero"/><use xlink:href="#gB7D1E2CC5BEFB1BAD32905121AEF9EA" x="5.335" y="0" fill="#000000" fill-rule="nonzero"/></g><g transform="matrix(1 0 0 -1 90.039151736 31.856)"><use xlink:href="#gF2E9DE7382F8BB82A14E9A8C0CA6C0F0" x="0" y="0" fill="#000000" fill-rule="nonzero"/></g><g transform="matrix(1 0 0 -1 94.930485069 31.856)"><use xlink:href="#g4D6D0CA498010ACD5A22795F1AD38996" x="0" y="0" fill="#000000" fill-rule="nonzero"/></g><g transform="matrix(1 0 0 -1 101.211485069 31.856)"><use xlink:href="#gF2E9DE7382F8BB82A14E9A8C0CA6C0F0" x="0" y="0" fill="#000000" fill-rule="nonzero"/></g><g transform="matrix(1 0 0 -1 106.102818403 31.856)"><use xlink:href="#g6A7F5A83C1AD46379FEDFD85DC0924EE" x="0" y="0" fill="#000000" fill-rule="nonzero"/></g><g transform="matrix(1 0 0 -1 109.380818403 34.573)"><use xlink:href="#gA18F762FFFFE399C9BA1DB0D10B3D31E" x="0" y="0" fill="#000000" fill-rule="nonzero"/></g><g transform="matrix(1 0 0 -1 114.000818403 36.4749)"><use xlink:href="#g7E86CC2927588CFF0FBA1CDB95C5580A" x="0" y="0" fill="#000000" fill-rule="nonzero"/></g><g transform="matrix(1 0 0 -1 118.793518403 31.856)"><use xlink:href="#gE1B314257D573D54CCD4E09523E8268A" x="0" y="0" fill="#000000" fill-rule="nonzero"/></g><g transform="matrix(1 0 0 -1 316.145484722 31.856)"><use xlink:href="#g6A7F5A83C1AD46379FEDFD85DC0924EE" x="0" y="0" fill="#000000" fill-rule="nonzero"/></g><g transform="matrix(1 0 0 -1 319.423484722 34.573)"><use xlink:href="#gC5D2F11606059683B8CADF95C716D01F" x="0" y="0" fill="#000000" fill-rule="nonzero"/></g><g transform="matrix(1 0 0 -1 323.596884722 36.4749)"><use xlink:href="#g1E91EC0565909D26837158C3378F24FD" x="0" y="0" fill="#000000" fill-rule="nonzero"/></g><g transform="matrix(1 0 0 -1 332.041584722 31.856)"><use xlink:href="#g42BE19054016F7BAE28890E34266D9C4" x="0" y="0" fill="#000000" fill-rule="nonzero"/><use xlink:href="#g30A11840F6D1B58D63FF228F63DFF50C" x="3.366" y="0" fill="#000000" fill-rule="nonzero"/><use xlink:href="#g661B36513DCEC8B17F1DD8AE5C54E18F" x="7.678" y="0" fill="#000000" fill-rule="nonzero"/><use xlink:href="#g316D45BB6425B2B3622251A815E109FB" x="12.562" y="0" fill="#000000" fill-rule="nonzero"/><use xlink:href="#g7A15C53874C56177CC9533530FA2B070" x="16.896" y="0" fill="#000000" fill-rule="nonzero"/></g><g transform="matrix(1 0 0 -1 31.5766 53.053)"><use xlink:href="#gD9181C58C134A18FD40559388A025E62" x="0" y="0" fill="#000000" fill-rule="nonzero"/></g><g transform="matrix(1 0 0 -1 37.8576 55.77)"><use xlink:href="#gBFCC2410A697C41E2DD3187C83DA8F3" x="0" y="0" fill="#000000" fill-rule="nonzero"/></g><g transform="matrix(1 0 0 -1 45.910455556 53.053)"><use xlink:href="#g2389F7618E8CE27CC7151A1D8E5DEAD4" x="0" y="0" fill="#000000" fill-rule="nonzero"/></g><g transform="matrix(1 0 0 -1 57.524011111 53.053)"><use xlink:href="#gD9181C58C134A18FD40559388A025E62" x="0" y="0" fill="#000000" fill-rule="nonzero"/></g><g transform="matrix(1 0 0 -1 64.069011111 53.053)"><use xlink:href="#gA3837C098A4B9EB1F48E86D52E310E09" x="0" y="0" fill="#000000" fill-rule="nonzero"/></g><g transform="matrix(1 0 0 -1 68.953011111 53.053)"><use xlink:href="#g6A7F5A83C1AD46379FEDFD85DC0924EE" x="0" y="0" fill="#000000" fill-rule="nonzero"/></g><g transform="matrix(1 0 0 -1 72.231011111 55.77)"><use xlink:href="#gC5D2F11606059683B8CADF95C716D01F" x="0" y="0" fill="#000000" fill-rule="nonzero"/></g><g transform="matrix(1 0 0 -1 76.404411111 57.6719)"><use xlink:href="#g1E91EC0565909D26837158C3378F24FD" x="0" y="0" fill="#000000" fill-rule="nonzero"/></g><g transform="matrix(1 0 0 -1 84.252666667 53.053)"><use xlink:href="#gAD3130B59A76219CC465C1A9B30EF0EE" x="0" y="0" fill="#000000" fill-rule="nonzero"/></g><g transform="matrix(1 0 0 -1 98.055222222 53.053)"><use xlink:href="#gC9CF2B268112D692AA5AABDD5E57E12A" x="0" y="0" fill="#000000" fill-rule="nonzero"/><use xlink:href="#gE9FB6D24CF34BB489DEF6497581F7D30" x="5.298046875" y="0" fill="#000000" fill-rule="nonzero"/><use xlink:href="#g63B965801B083A4B7FC462DA5A8A0C4F" x="10.59609375" y="0" fill="#000000" fill-rule="nonzero"/><use xlink:href="#gC7D47DC372E107A289A7A7112EBE55E9" x="15.894140625" y="0" fill="#000000" fill-rule="nonzero"/><use xlink:href="#g7C3292C458A46A58B9B9833BA97D9587" x="21.1921875" y="0" fill="#000000" fill-rule="nonzero"/><use xlink:href="#gC7D47DC372E107A289A7A7112EBE55E9" x="26.490234375" y="0" fill="#000000" fill-rule="nonzero"/><use xlink:href="#gB75E13C86ADCA88662C5D7AC943163C3" x="31.78828125" y="0" fill="#000000" fill-rule="nonzero"/><use xlink:href="#g11189D36A8ED0A9E003DFD239176016" x="37.086328125" y="0" fill="#000000" fill-rule="nonzero"/><use xlink:href="#g96818725DD91C4F0FF90130D23331B7" x="42.384375" y="0" fill="#000000" fill-rule="nonzero"/></g><g transform="matrix(1 0 0 -1 145.737644097 53.053)"><use xlink:href="#gF2E9DE7382F8BB82A14E9A8C0CA6C0F0" x="0" y="0" fill="#000000" fill-rule="nonzero"/></g><g transform="matrix(1 0 0 -1 150.628977431 53.053)"><use xlink:href="#g6A7F5A83C1AD46379FEDFD85DC0924EE" x="0" y="0" fill="#000000" fill-rule="nonzero"/></g><g transform="matrix(1 0 0 -1 153.906977431 55.77)"><use xlink:href="#gA18F762FFFFE399C9BA1DB0D10B3D31E" x="0" y="0" fill="#000000" fill-rule="nonzero"/></g><g transform="matrix(1 0 0 -1 158.526977431 57.6719)"><use xlink:href="#g7E86CC2927588CFF0FBA1CDB95C5580A" x="0" y="0" fill="#000000" fill-rule="nonzero"/></g><g transform="matrix(1 0 0 -1 166.375232986 53.053)"><use xlink:href="#gAD3130B59A76219CC465C1A9B30EF0EE" x="0" y="0" fill="#000000" fill-rule="nonzero"/></g><g transform="matrix(1 0 0 -1 180.177788542 53.053)"><use xlink:href="#g2F860E3C418A9398BD0A0D6F00ED0578" x="0" y="0" fill="#000000" fill-rule="nonzero"/></g><g transform="matrix(1 0 0 -1 188.735788542 53.053)"><use xlink:href="#g375D9D81C27DA2B4F407C4204670AA29" x="0" y="0" fill="#000000" fill-rule="nonzero"/></g><g transform="matrix(1 0 0 -1 0 89.5158)"><use xlink:href="#g4AA9066DE258008E649636F009E5714C" x="0" y="0" fill="#000000" fill-rule="nonzero"/></g><g transform="matrix(1 0 0 -1 5.731 92.2328)"><use xlink:href="#gBFCC2410A697C41E2DD3187C83DA8F3" x="0" y="0" fill="#000000" fill-rule="nonzero"/></g><g transform="matrix(1 0 0 -1 10.7283 89.5158)"/><g transform="matrix(1 0 0 -1 14.3803 89.5158)"><use xlink:href="#g1570446F77F9A6C1B85605F46F92409E" x="0" y="0" fill="#000000" fill-rule="nonzero"/></g><g transform="matrix(1 0 0 -1 19.5063 92.2328)"><use xlink:href="#gBFCC2410A697C41E2DD3187C83DA8F3" x="0" y="0" fill="#000000" fill-rule="nonzero"/></g><g transform="matrix(1 0 0 -1 24.5036 89.5158)"><use xlink:href="#g5922B9D1A7C81F3BA193C01F5BD33C" x="0" y="0" fill="#000000" fill-rule="nonzero"/></g><g transform="matrix(1 0 0 -1 27.9246 89.5158)"/><g transform="matrix(1 0 0 -1 31.5766 89.5158)"><use xlink:href="#gD9181C58C134A18FD40559388A025E62" x="0" y="0" fill="#000000" fill-rule="nonzero"/></g><g transform="matrix(1 0 0 -1 37.8576 92.2328)"><use xlink:href="#g25B224D96CA3F5CCC7E774117FEA026D" x="0" y="0" fill="#000000" fill-rule="nonzero"/></g><g transform="matrix(1 0 0 -1 45.910455556 89.5158)"><use xlink:href="#g2389F7618E8CE27CC7151A1D8E5DEAD4" x="0" y="0" fill="#000000" fill-rule="nonzero"/></g><g transform="matrix(1 0 0 -1 57.524011111 109.9736)"><use xlink:href="#gBEAA5D980B1B6CD6E7BE74B68F1EC637" x="0" y="0" fill="#000000" fill-rule="nonzero"/><use xlink:href="#g58DE70B0DC67996A6062DF732675B06F" x="0" y="7.4899" fill="#000000" fill-rule="nonzero"/><use xlink:href="#g2CD4E04A0D30BF0BCB592B65901BFCD" x="0" y="14.9578" fill="#000000" fill-rule="nonzero"/><use xlink:href="#g58DE70B0DC67996A6062DF732675B06F" x="0" y="30.6977" fill="#000000" fill-rule="nonzero"/><use xlink:href="#g87E37713B4483662E5048B1608E6EC95" x="0" y="38.1656" fill="#000000" fill-rule="nonzero"/></g><g transform="matrix(1 0 0 -1 67.446011111 76.3598)"><use xlink:href="#g4AA9066DE258008E649636F009E5714C" x="0" y="0" fill="#000000" fill-rule="nonzero"/></g><g transform="matrix(1 0 0 -1 73.342011111 76.3598)"/><g transform="matrix(1 0 0 -1 76.994011111 76.3598)"><use xlink:href="#g1570446F77F9A6C1B85605F46F92409E" x="0" y="0" fill="#000000" fill-rule="nonzero"/></g><g transform="matrix(1 0 0 -1 82.120011111 79.0768)"><use xlink:href="#gBFCC2410A697C41E2DD3187C83DA8F3" x="0" y="0" fill="#000000" fill-rule="nonzero"/></g><g transform="matrix(1 0 0 -1 87.117311111 76.3598)"><use xlink:href="#g5922B9D1A7C81F3BA193C01F5BD33C" x="0" y="0" fill="#000000" fill-rule="nonzero"/></g><g transform="matrix(1 0 0 -1 90.538311111 76.3598)"/><g transform="matrix(1 0 0 -1 94.190311111 76.3598)"><use xlink:href="#gD9181C58C134A18FD40559388A025E62" x="0" y="0" fill="#000000" fill-rule="nonzero"/></g><g transform="matrix(1 0 0 -1 100.471311111 79.0768)"><use xlink:href="#g25B224D96CA3F5CCC7E774117FEA026D" x="0" y="0" fill="#000000" fill-rule="nonzero"/></g><g transform="matrix(1 0 0 -1 175.749845486 76.3598)"><use xlink:href="#g8081A8237C24C95555CB26B7002BAA27" x="0" y="0" fill="#000000" fill-rule="nonzero"/><use xlink:href="#g42BE19054016F7BAE28890E34266D9C4" x="3.058" y="0" fill="#000000" fill-rule="nonzero"/></g><g transform="matrix(1 0 0 -1 185.825845486 76.3598)"><use xlink:href="#gC7D47DC372E107A289A7A7112EBE55E9" x="0" y="0" fill="#000000" fill-rule="nonzero"/><use xlink:href="#gE9FB6D24CF34BB489DEF6497581F7D30" x="5.298046875" y="0" fill="#000000" fill-rule="nonzero"/><use xlink:href="#g11B715B086B5896FA56CD5C2E567D0DB" x="10.59609375" y="0" fill="#000000" fill-rule="nonzero"/><use xlink:href="#gC7D47DC372E107A289A7A7112EBE55E9" x="15.894140625" y="0" fill="#000000" fill-rule="nonzero"/><use xlink:href="#gE9FB6D24CF34BB489DEF6497581F7D30" x="21.1921875" y="0" fill="#000000" fill-rule="nonzero"/><use xlink:href="#g11189D36A8ED0A9E003DFD239176016" x="26.490234375" y="0" fill="#000000" fill-rule="nonzero"/><use xlink:href="#g96818725DD91C4F0FF90130D23331B7" x="31.78828125" y="0" fill="#000000" fill-rule="nonzero"/></g><g transform="matrix(1 0 0 -1 225.967729167 76.3598)"><use xlink:href="#g8DBC885062845FD28572A9997804BEA2" x="0" y="0" fill="#000000" fill-rule="nonzero"/></g><g transform="matrix(1 0 0 -1 236.360284722 76.3598)"><use xlink:href="#gD9181C58C134A18FD40559388A025E62" x="0" y="0" fill="#000000" fill-rule="nonzero"/></g><g transform="matrix(1 0 0 -1 242.641284722 79.0768)"><use xlink:href="#g25B224D96CA3F5CCC7E774117FEA026D" x="0" y="0" fill="#000000" fill-rule="nonzero"/></g><g transform="matrix(1 0 0 -1 247.638584722 76.3598)"><use xlink:href="#gAF9F81DC8F237819C2370C3A12E78B95" x="0" y="0" fill="#000000" fill-rule="nonzero"/></g><g transform="matrix(1 0 0 -1 253.391584722 76.3598)"><use xlink:href="#g6A7F5A83C1AD46379FEDFD85DC0924EE" x="0" y="0" fill="#000000" fill-rule="nonzero"/></g><g transform="matrix(1 0 0 -1 256.669584722 79.0768)"><use xlink:href="#gA18F762FFFFE399C9BA1DB0D10B3D31E" x="0" y="0" fill="#000000" fill-rule="nonzero"/></g><g transform="matrix(1 0 0 -1 261.289584722 80.9787)"><use xlink:href="#g7E86CC2927588CFF0FBA1CDB95C5580A" x="0" y="0" fill="#000000" fill-rule="nonzero"/></g><g transform="matrix(1 0 0 -1 266.082284722 76.3598)"><use xlink:href="#gE1B314257D573D54CCD4E09523E8268A" x="0" y="0" fill="#000000" fill-rule="nonzero"/></g><g transform="matrix(1 0 0 -1 67.446011111 91.9798)"><use xlink:href="#g46F76533A45DB4C11A9843577693DDC7" x="0" y="0" fill="#000000" fill-rule="nonzero"/><use xlink:href="#g1EF7D0770C42778A4BEBEDA87EE7829A" x="5.335" y="0" fill="#000000" fill-rule="nonzero"/><use xlink:href="#gCB4E91739EACE7368E3223F2D0EF6CCC" x="9.13" y="0" fill="#000000" fill-rule="nonzero"/><use xlink:href="#g1EF7D0770C42778A4BEBEDA87EE7829A" x="14.289" y="0" fill="#000000" fill-rule="nonzero"/><use xlink:href="#g293C48F3C6D5CEB2943C0E5CE10C76D3" x="18.084" y="0" fill="#000000" fill-rule="nonzero"/></g><g transform="matrix(1 0 0 -1 89.501011111 91.9798)"><use xlink:href="#g9C5E01F97914784D6046F24928CB3533" x="0" y="0" fill="#000000" fill-rule="nonzero"/></g><g transform="matrix(1 0 0 -1 93.780011111 91.9798)"><use xlink:href="#g313E46022A35FE004C34D0F33FA6CF9" x="0" y="0" fill="#000000" fill-rule="nonzero"/><use xlink:href="#gB7D1E2CC5BEFB1BAD32905121AEF9EA" x="5.335" y="0" fill="#000000" fill-rule="nonzero"/></g><g transform="matrix(1 0 0 -1 104.648011111 91.9798)"><use xlink:href="#gF2E9DE7382F8BB82A14E9A8C0CA6C0F0" x="0" y="0" fill="#000000" fill-rule="nonzero"/></g><g transform="matrix(1 0 0 -1 109.539344444 91.9798)"><use xlink:href="#g521F2DDE78882B32DB463695F98C5705" x="0" y="0" fill="#000000" fill-rule="nonzero"/><use xlink:href="#g82D23B6D5370404661A1780E66CA09E" x="5.298046875" y="0" fill="#000000" fill-rule="nonzero"/><use xlink:href="#g11B715B086B5896FA56CD5C2E567D0DB" x="10.59609375" y="0" fill="#000000" fill-rule="nonzero"/><use xlink:href="#gC9CF2B268112D692AA5AABDD5E57E12A" x="15.894140625" y="0" fill="#000000" fill-rule="nonzero"/><use xlink:href="#g11189D36A8ED0A9E003DFD239176016" x="21.1921875" y="0" fill="#000000" fill-rule="nonzero"/></g><g transform="matrix(1 0 0 -1 136.029578819 91.9798)"><use xlink:href="#gF2E9DE7382F8BB82A14E9A8C0CA6C0F0" x="0" y="0" fill="#000000" fill-rule="nonzero"/></g><g transform="matrix(1 0 0 -1 140.920912153 91.9798)"><use xlink:href="#g4AA9066DE258008E649636F009E5714C" x="0" y="0" fill="#000000" fill-rule="nonzero"/></g><g transform="matrix(1 0 0 -1 146.651912153 94.6968)"><use xlink:href="#g25B224D96CA3F5CCC7E774117FEA026D" x="0" y="0" fill="#000000" fill-rule="nonzero"/></g><g transform="matrix(1 0 0 -1 151.649212153 91.9798)"><use xlink:href="#gF2E9DE7382F8BB82A14E9A8C0CA6C0F0" x="0" y="0" fill="#000000" fill-rule="nonzero"/></g><g transform="matrix(1 0 0 -1 156.540545486 91.9798)"><use xlink:href="#gD9181C58C134A18FD40559388A025E62" x="0" y="0" fill="#000000" fill-rule="nonzero"/></g><g transform="matrix(1 0 0 -1 162.821545486 94.6968)"><use xlink:href="#g25B224D96CA3F5CCC7E774117FEA026D" x="0" y="0" fill="#000000" fill-rule="nonzero"/></g><g transform="matrix(1 0 0 -1 167.818845486 91.9798)"><use xlink:href="#g44903F1336FFA3AC82F2FDAECC383B22" x="0" y="0" fill="#000000" fill-rule="nonzero"/></g><g transform="matrix(1 0 0 -1 175.749845486 91.9798)"><use xlink:href="#g3BAF23AB431BDA7FCE4D7083470CFBD3" x="0" y="0" fill="#000000" fill-rule="nonzero"/><use xlink:href="#gE4D46F1D17F1B65EB6D4E3B2291CCF8F" x="5.5" y="0" fill="#000000" fill-rule="nonzero"/><use xlink:href="#g7A15C53874C56177CC9533530FA2B070" x="9.779" y="0" fill="#000000" fill-rule="nonzero"/><use xlink:href="#g661B36513DCEC8B17F1DD8AE5C54E18F" x="15.895" y="0" fill="#000000" fill-rule="nonzero"/><use xlink:href="#g30A11840F6D1B58D63FF228F63DFF50C" x="20.779" y="0" fill="#000000" fill-rule="nonzero"/><use xlink:href="#g30C36184EAFBF77DBD046B786F3331E" x="25.091" y="0" fill="#000000" fill-rule="nonzero"/><use xlink:href="#g8081A8237C24C95555CB26B7002BAA27" x="33.033" y="0" fill="#000000" fill-rule="nonzero"/><use xlink:href="#g316D45BB6425B2B3622251A815E109FB" x="36.091" y="0" fill="#000000" fill-rule="nonzero"/><use xlink:href="#g661B36513DCEC8B17F1DD8AE5C54E18F" x="40.425" y="0" fill="#000000" fill-rule="nonzero"/><use xlink:href="#gF2E9DE7382F8BB82A14E9A8C0CA6C0F0" x="45.309" y="0" fill="#000000" fill-rule="nonzero"/><use xlink:href="#g30C36184EAFBF77DBD046B786F3331E" x="52.019" y="0" fill="#000000" fill-rule="nonzero"/><use xlink:href="#g7A15C53874C56177CC9533530FA2B070" x="59.961" y="0" fill="#000000" fill-rule="nonzero"/><use xlink:href="#g661B36513DCEC8B17F1DD8AE5C54E18F" x="66.077" y="0" fill="#000000" fill-rule="nonzero"/><use xlink:href="#g30A11840F6D1B58D63FF228F63DFF50C" x="70.961" y="0" fill="#000000" fill-rule="nonzero"/><use xlink:href="#g661B36513DCEC8B17F1DD8AE5C54E18F" x="75.273" y="0" fill="#000000" fill-rule="nonzero"/></g><g transform="matrix(1 0 0 -1 175.749845486 105.1358)"><use xlink:href="#g4AA9066DE258008E649636F009E5714C" x="0" y="0" fill="#000000" fill-rule="nonzero"/></g><g transform="matrix(1 0 0 -1 181.480845486 107.8528)"><use xlink:href="#g25B224D96CA3F5CCC7E774117FEA026D" x="0" y="0" fill="#000000" fill-rule="nonzero"/></g><g transform="matrix(1 0 0 -1 189.533701042 105.1358)"><use xlink:href="#g2389F7618E8CE27CC7151A1D8E5DEAD4" x="0" y="0" fill="#000000" fill-rule="nonzero"/></g><g transform="matrix(1 0 0 -1 201.147256597 105.1358)"><use xlink:href="#gB3A9917DB6D66B13D3CDFF1EBB5097D1" x="0" y="0" fill="#000000" fill-rule="nonzero"/></g><g transform="matrix(1 0 0 -1 207.560256597 105.1358)"/><g transform="matrix(1 0 0 -1 211.212256597 105.1358)"><use xlink:href="#g1570446F77F9A6C1B85605F46F92409E" x="0" y="0" fill="#000000" fill-rule="nonzero"/></g><g transform="matrix(1 0 0 -1 216.338256597 107.8528)"><use xlink:href="#g25B224D96CA3F5CCC7E774117FEA026D" x="0" y="0" fill="#000000" fill-rule="nonzero"/></g><g transform="matrix(1 0 0 -1 221.335556597 105.1358)"><use xlink:href="#g5922B9D1A7C81F3BA193C01F5BD33C" x="0" y="0" fill="#000000" fill-rule="nonzero"/></g><g transform="matrix(1 0 0 -1 224.756556597 105.1358)"/><g transform="matrix(1 0 0 -1 228.408556597 105.1358)"><use xlink:href="#g8AF8F2BC2B33BC6B311ED96E17728B80" x="0" y="0" fill="#000000" fill-rule="nonzero"/></g><g transform="matrix(1 0 0 -1 231.466556597 105.1358)"/><g transform="matrix(1 0 0 -1 235.118556597 105.1358)"><use xlink:href="#g4AA9066DE258008E649636F009E5714C" x="0" y="0" fill="#000000" fill-rule="nonzero"/></g><g transform="matrix(1 0 0 -1 244.666556597 105.1358)"><use xlink:href="#gEFD6A37741EDB46D1C5C1B0AEAB33C8D" x="0" y="0" fill="#000000" fill-rule="nonzero"/><use xlink:href="#g753B405C8BCF0E1C48C693507077AE03" x="5.298046875" y="0" fill="#000000" fill-rule="nonzero"/><use xlink:href="#gC74EE0AF2B149D895BF9573AF08C8170" x="10.59609375" y="0" fill="#000000" fill-rule="nonzero"/><use xlink:href="#g6BE3C26FC5C2EF394923021E65FF3629" x="15.894140625" y="0" fill="#000000" fill-rule="nonzero"/><use xlink:href="#g6BE3C26FC5C2EF394923021E65FF3629" x="21.1921875" y="0" fill="#000000" fill-rule="nonzero"/></g><g transform="matrix(1 0 0 -1 274.808790972 105.1358)"><use xlink:href="#g1570446F77F9A6C1B85605F46F92409E" x="0" y="0" fill="#000000" fill-rule="nonzero"/></g><g transform="matrix(1 0 0 -1 279.934790972 107.8528)"><use xlink:href="#gBFCC2410A697C41E2DD3187C83DA8F3" x="0" y="0" fill="#000000" fill-rule="nonzero"/></g><g transform="matrix(1 0 0 -1 284.932090972 105.1358)"><use xlink:href="#g5922B9D1A7C81F3BA193C01F5BD33C" x="0" y="0" fill="#000000" fill-rule="nonzero"/></g><g transform="matrix(1 0 0 -1 288.353090972 105.1358)"/><g transform="matrix(1 0 0 -1 292.005090972 105.1358)"/><g transform="matrix(1 0 0 -1 297.303137847 105.1358)"><use xlink:href="#g1570446F77F9A6C1B85605F46F92409E" x="0" y="0" fill="#000000" fill-rule="nonzero"/></g><g transform="matrix(1 0 0 -1 302.429137847 107.8528)"><use xlink:href="#g25B224D96CA3F5CCC7E774117FEA026D" x="0" y="0" fill="#000000" fill-rule="nonzero"/></g><g transform="matrix(1 0 0 -1 307.426437847 105.1358)"><use xlink:href="#g5922B9D1A7C81F3BA193C01F5BD33C" x="0" y="0" fill="#000000" fill-rule="nonzero"/></g><g transform="matrix(1 0 0 -1 310.847437847 105.1358)"><use xlink:href="#gFF1EC1E3625C6E3C8EE7A324B4F795C4" x="0" y="0" fill="#000000" fill-rule="nonzero"/></g></g><defs><symbol id="g6DBFE2DA1D27E4D54C97E6F7579A935B" overflow="visible"><path d="M 0 0m 5.467 7.337c 0 0.121 -0.066 0.176 -0.209 0.176l -1.419 -0.033l -1.441 0.033c -0.176 0.011 -0.264 -0.077 -0.264 -0.264c 0 -0.11 0.121 -0.165 0.352 -0.165c 0.473 0 0.704 -0.055 0.704 -0.154c 0 -0.055 -0.011 -0.11 -0.022 -0.165l -1.463 -5.863c -0.055 -0.242 -0.165 -0.385 -0.33 -0.44c -0.077 -0.022 -0.275 -0.033 -0.616 -0.033c -0.275 0 -0.385 -0.011 -0.385 -0.264c 0 -0.11 0.066 -0.165 0.209 -0.165l 1.408 0.033l 1.452 -0.033c 0.176 -0.011 0.264 0.077 0.264 0.253c 0 0.176 -0.132 0.176 -0.374 0.176c -0.429 0 -0.693 -0.022 -0.693 0.154c 0 0.055 0.011 0.132 0.044 0.242l 1.452 5.797c 0.055 0.231 0.165 0.374 0.33 0.429c 0.077 0.022 0.275 0.033 0.616 0.033c 0.264 0 0.385 0.011 0.385 0.253Z "/></symbol><symbol id="gEFD6A37741EDB46D1C5C1B0AEAB33C8D" overflow="visible"><path d="M 0 0m 3.802734375 6.67734375q -0.571484375 -0.9796875 -0.852929688 -1.952929688q -0.281445313 -0.973242188 -0.281445313 -1.961523438q 0 -0.983984375 0.281445313 -1.959375q 0.281445313 -0.975390625 0.852929688 -1.963671875h -0.6875q -0.648828125 1.02265625 -0.966796875 1.991601563q -0.31796875 0.968945313 -0.31796875 1.931445313q 0 0.958203125 0.31796875 1.929296875q 0.31796875 0.97109375 0.966796875 1.98515625h 0.6875Z "/></symbol><symbol id="g753B405C8BCF0E1C48C693507077AE03" overflow="visible"><path d="M 0 0m 4.558984375 0.244921875q -0.31796875 -0.184765625 -0.655273438 -0.277148438q -0.337304688 -0.092382813 -0.689648438 -0.092382813q -1.1171875 0 -1.746679688 0.6703125q -0.629492188 0.6703125 -0.629492188 1.85625q 0 1.1859375 0.629492188 1.85625q 0.629492188 0.6703125 1.746679688 0.6703125q 0.348046875 0 0.67890625 -0.090234375q 0.330859375 -0.090234375 0.666015625 -0.279296875v -0.829296875q -0.313671875 0.279296875 -0.629492188 0.40390625q -0.315820313 0.124609375 -0.715429688 0.124609375q -0.743359375 0 -1.14296875 -0.48125q -0.399609375 -0.48125 -0.399609375 -1.375q 0 -0.889453125 0.401757813 -1.372851563q 0.401757813 -0.483398438 1.140820313 -0.483398438q 0.4125 0 0.7390625 0.126757813q 0.3265625 0.126757813 0.605859375 0.393164063v -0.820703125Z "/></symbol><symbol id="gC74EE0AF2B149D895BF9573AF08C8170" overflow="visible"><path d="M 0 0m 3.01640625 2.419140625h -0.262109375q -0.691796875 0 -1.041992188 -0.242773438q -0.350195313 -0.242773438 -0.350195313 -0.724023438q 0 -0.433984375 0.262109375 -0.674609375q 0.262109375 -0.240625 0.726171875 -0.240625q 0.653125 0 1.026953125 0.453320313q 0.373828125 0.453320313 0.378125 1.252539063v 0.176171875h -0.7390625Z m 1.533984375 0.3265625v -2.745703125h -0.794921875v 0.71328125q -0.253515625 -0.4296875 -0.638085938 -0.633789063q -0.384570313 -0.204101563 -0.934570313 -0.204101563q -0.734765625 0 -1.173046875 0.414648438q -0.43828125 0.414648438 -0.43828125 1.110742188q 0 0.803515625 0.539257813 1.2203125q 0.539257813 0.416796875 1.583398438 0.416796875h 1.061328125v 0.124609375q -0.004296875 0.57578125 -0.2921875 0.835742188q -0.287890625 0.259960938 -0.91953125 0.259960938q -0.40390625 0 -0.81640625 -0.116015625q -0.4125 -0.116015625 -0.803515625 -0.339453125v 0.790625q 0.43828125 0.167578125 0.840039063 0.251367188q 0.401757813 0.083789063 0.779882813 0.083789063q 0.597265625 0 1.020507813 -0.176171875q 0.423242188 -0.176171875 0.685351563 -0.528515625q 0.16328125 -0.21484375 0.23203125 -0.530664063q 0.06875 -0.315820313 0.06875 -0.947460938Z "/></symbol><symbol id="g6BE3C26FC5C2EF394923021E65FF3629" overflow="visible"><path d="M 0 0m 2.745703125 1.74453125q 0 -0.5328125 0.195507813 -0.803515625q 0.195507813 -0.270703125 0.577929688 -0.270703125h 0.923828125v -0.6703125h -1.001171875q -0.708984375 0 -1.097851563 0.45546875q -0.388867188 0.45546875 -0.388867188 1.2890625v 4.369921875h -1.267578125v 0.61875h 2.058203125v -4.988671875Z "/></symbol><symbol id="g1570446F77F9A6C1B85605F46F92409E" overflow="visible"><path d="M 0 0m 1.364 1.419c 0 0.264 0.055 0.627 0.165 1.078h 0.539c 0.715 0 1.265 0.088 1.661 0.253c 0.363 0.154 0.605 0.374 0.726 0.649c 0.077 0.187 0.11 0.363 0.11 0.506c 0 0.605 -0.572 0.957 -1.188 0.957c -0.429 0 -0.858 -0.11 -1.287 -0.33c -0.847 -0.44 -1.584 -1.441 -1.584 -2.651c 0 -1.122 0.649 -2.002 1.738 -2.002c 0.583 0 1.1 0.143 1.551 0.418c 0.374 0.231 0.649 0.462 0.825 0.693c 0.077 0.099 0.11 0.176 0.11 0.209c 0 0.121 -0.055 0.187 -0.176 0.187c -0.055 0 -0.11 -0.044 -0.176 -0.132c -0.363 -0.484 -0.814 -0.792 -1.331 -0.924c -0.341 -0.088 -0.594 -0.132 -0.781 -0.132c -0.627 0 -0.902 0.594 -0.902 1.221Z m 2.761 2.486c 0 -0.726 -0.704 -1.089 -2.123 -1.089h -0.385c 0.209 0.726 0.517 1.21 0.935 1.441c 0.33 0.187 0.605 0.286 0.825 0.286c 0.396 0 0.748 -0.242 0.748 -0.638Z "/></symbol><symbol id="gBFCC2410A697C41E2DD3187C83DA8F3" overflow="visible"><path d="M 0 0m 2.3331 5.1128c -0.3311 -0.3234 -0.8239 -0.4851 -1.4938 -0.4851v -0.3388c 0.4543 0 0.8162 0.0693 1.0934 0.2002v -3.8346c 0 -0.1001 -0.0077 -0.1617 -0.0308 -0.1925c -0.0385 -0.0847 -0.2695 -0.1309 -0.693 -0.1309h -0.3157v -0.3311l 1.3706 0.0308l 1.3783 -0.0308v 0.3311h -0.3157c -0.4235 0 -0.6545 0.0462 -0.7007 0.1309c -0.0154 0.0308 -0.0231 0.0924 -0.0231 0.1925v 4.2119c 0 0.2079 -0.0308 0.2464 -0.2695 0.2464Z "/></symbol><symbol id="g25B224D96CA3F5CCC7E774117FEA026D" overflow="visible"><path d="M 0 0m 0.9163 3.2648c 0.2464 0 0.4312 0.1848 0.4312 0.4312c 0 0.2772 -0.1463 0.4235 -0.4312 0.4312c 0.1694 0.3619 0.5544 0.6545 1.0549 0.6545c 0.6776 0 1.1242 -0.5082 1.1242 -1.1858c 0 -0.3696 -0.1309 -0.7238 -0.4004 -1.0703c -0.1309 -0.1771 -0.231 -0.3003 -0.3003 -0.3696l -1.8249 -1.8095c -0.1001 -0.0924 -0.0847 -0.1155 -0.0847 -0.3465h 3.1724l 0.2387 1.4476h -0.3234c -0.0539 -0.4081 -0.1155 -0.6468 -0.1848 -0.7007c -0.0385 -0.0231 -0.2772 -0.0385 -0.7315 -0.0385h -1.309c 0.5159 0.4543 0.9933 0.8624 1.4476 1.2243c 0.3465 0.2695 0.5929 0.5082 0.7469 0.7161c 0.231 0.3003 0.3465 0.616 0.3465 0.9471c 0 0.4774 -0.1848 0.8547 -0.5621 1.1319c -0.3311 0.2541 -0.7469 0.385 -1.2397 0.385c -0.4235 0 -0.7854 -0.1232 -1.1011 -0.3696c -0.3311 -0.2695 -0.5005 -0.6083 -0.5005 -1.0241c 0 -0.2618 0.1925 -0.4543 0.4312 -0.4543Z "/></symbol><symbol id="gFF1EC1E3625C6E3C8EE7A324B4F795C4" overflow="visible"><path d="M 0 0m 1.4953125 6.67734375h 0.6875q 0.648828125 -1.0140625 0.966796875 -1.98515625q 0.31796875 -0.97109375 0.31796875 -1.929296875q 0 -0.966796875 -0.31796875 -1.937890625q -0.31796875 -0.97109375 -0.966796875 -1.98515625h -0.6875q 0.571484375 0.996875 0.852929688 1.972265625q 0.281445313 0.975390625 0.281445313 1.95078125q 0 0.9796875 -0.281445313 1.955078125q -0.281445313 0.975390625 -0.852929688 1.959375Z "/></symbol><symbol id="g4D6D0CA498010ACD5A22795F1AD38996" overflow="visible"><path d="M 0 0m 5.764 4.158c 0.143 0.275 0.209 0.418 0.209 0.429c 0 0.099 -0.055 0.154 -0.176 0.154c -0.077 0 -0.132 -0.033 -0.165 -0.099c -0.385 -0.715 -0.836 -1.727 -1.364 -3.036c -0.044 0.726 -0.187 1.408 -0.429 2.035c -0.319 0.814 -0.814 1.221 -1.485 1.221c -0.693 0 -1.298 -0.462 -1.606 -0.891c -0.363 -0.517 -0.55 -0.902 -0.55 -1.144c 0 -0.099 0.088 -0.154 0.275 -0.154l 0.055 0.077c 0.187 0.572 0.506 0.935 0.957 1.089c 0.308 0.099 0.55 0.154 0.726 0.154c 1.144 0 1.716 -0.902 1.716 -2.717c 0 -0.429 -0.044 -0.781 -0.132 -1.056c -0.374 -1.221 -0.561 -2.002 -0.561 -2.343c 0 -0.165 0.066 -0.242 0.187 -0.242c 0.132 0 0.264 0.231 0.385 0.682c 0.187 0.704 0.319 1.331 0.396 1.881c 0.033 0.165 0.055 0.308 0.088 0.407c 0.396 1.232 0.891 2.42 1.474 3.553Z "/></symbol><symbol id="g8DD35590E5062F6A5840D8194DA80E6F" overflow="visible"><path d="M 0 0m 3.971 4.862c -1.243 0 -2.277 -1.342 -2.552 -2.442l -1.056 -4.279c -0.022 -0.088 -0.033 -0.143 -0.033 -0.176c 0 -0.231 0.11 -0.341 0.341 -0.341c 0.165 0 0.308 0.088 0.418 0.253l 0.671 2.629c 0.253 -0.429 0.605 -0.649 1.056 -0.649c 0.726 0 1.364 0.352 1.925 1.067c 0.517 0.671 0.781 1.386 0.781 2.123c 0 1.001 -0.583 1.815 -1.551 1.815Z m -0.022 -0.33c 0.473 0 0.704 -0.341 0.704 -1.023c 0 -0.297 -0.066 -0.682 -0.187 -1.177c -0.242 -0.935 -0.583 -1.562 -1.012 -1.892c -0.231 -0.176 -0.44 -0.264 -0.649 -0.264c -0.209 0 -0.396 0.077 -0.539 0.22c -0.231 0.231 -0.341 0.473 -0.341 0.704c 0.011 0.077 0.033 0.209 0.077 0.396c 0.253 1.045 0.473 1.716 0.649 2.024c 0.385 0.671 0.814 1.012 1.298 1.012Z "/></symbol><symbol id="g4AA9066DE258008E649636F009E5714C" overflow="visible"><path d="M 0 0m 4.499 3.883c 0 -0.286 0.154 -0.429 0.451 -0.429c 0.385 0 0.638 0.341 0.638 0.715c 0 0.429 -0.352 0.726 -0.781 0.726c -0.495 0 -1.023 -0.33 -1.606 -0.979c -0.451 -0.495 -0.814 -0.814 -1.111 -0.957l 1.111 4.51c -0.022 0.099 -0.044 0.165 -0.187 0.165c -0.352 0 -1.188 -0.099 -1.32 -0.11c -0.165 -0.022 -0.242 -0.099 -0.242 -0.264c 0 -0.11 0.099 -0.165 0.297 -0.165c 0.209 0 0.495 0.011 0.495 -0.143l -1.595 -6.479c -0.033 -0.121 -0.044 -0.198 -0.044 -0.242c 0 -0.231 0.121 -0.352 0.352 -0.352c 0.187 0 0.33 0.088 0.407 0.253c 0.055 0.099 0.253 0.88 0.605 2.354c 0.572 -0.055 1.177 -0.33 1.177 -0.88c 0 -0.165 -0.077 -0.495 -0.077 -0.605c 0 -0.627 0.407 -1.122 1.034 -1.122c 0.638 0 1.067 0.572 1.287 1.716c 0 0.099 -0.055 0.154 -0.165 0.154c -0.099 0 -0.165 -0.077 -0.198 -0.231c -0.242 -0.869 -0.539 -1.309 -0.902 -1.309c -0.198 0 -0.297 0.154 -0.297 0.462c 0 0.176 0.132 0.77 0.132 0.946c 0 0.627 -0.506 1.012 -1.529 1.166c 0.253 0.176 0.539 0.429 0.847 0.759c 0.308 0.33 0.528 0.539 0.671 0.66c 0.297 0.242 0.583 0.363 0.836 0.363c 0.11 0 0.198 -0.022 0.264 -0.066c -0.297 -0.055 -0.55 -0.33 -0.55 -0.616Z "/></symbol><symbol id="gD9181C58C134A18FD40559388A025E62" overflow="visible"><path d="M 0 0m 5.775 4.741h -2.475c -0.528 0 -1.023 -0.165 -1.474 -0.506c -0.704 -0.539 -1.408 -1.485 -1.408 -2.607c 0 -0.99 0.682 -1.749 1.672 -1.749c 0.737 0 1.397 0.319 1.958 0.957c 0.539 0.616 0.803 1.298 0.803 2.057c 0 0.451 -0.099 0.825 -0.297 1.133h 1.111c 0.385 0 0.572 0.132 0.572 0.407c 0 0.253 -0.187 0.308 -0.462 0.308Z m -4.598 -3.41c 0 0.649 0.154 1.243 0.473 1.771c 0.374 0.616 0.858 0.924 1.463 0.924c 0.638 0 0.957 -0.33 0.957 -1.001c 0 -0.275 -0.055 -0.594 -0.165 -0.968c -0.22 -0.781 -0.583 -1.331 -1.089 -1.628c -0.253 -0.154 -0.495 -0.231 -0.715 -0.231c -0.605 0 -0.924 0.495 -0.924 1.133Z "/></symbol><symbol id="g2389F7618E8CE27CC7151A1D8E5DEAD4" overflow="visible"><path d="M 0 0m 7.678 4.037h -6.798c -0.176 0 -0.264 -0.088 -0.264 -0.253c 0 -0.165 0.088 -0.253 0.264 -0.253h 6.798c 0.176 0 0.264 0.088 0.264 0.253c 0 0.132 -0.121 0.253 -0.264 0.253Z m 0 -2.068h -6.798c -0.176 0 -0.264 -0.088 -0.264 -0.253c 0 -0.165 0.088 -0.253 0.264 -0.253h 6.798c 0.176 0 0.264 0.088 0.264 0.253c 0 0.143 -0.121 0.253 -0.264 0.253Z "/></symbol><symbol id="g30C36184EAFBF77DBD046B786F3331E" overflow="visible"><path d="M 0 0m 6.82 3.652c 0.154 0.429 0.462 0.66 0.913 0.671v 0.418c -0.341 -0.033 -0.627 -0.044 -0.836 -0.033l -1.056 0.033v -0.418c 0.418 -0.011 0.627 -0.176 0.627 -0.484c 0 -0.044 -0.011 -0.11 -0.044 -0.209l -0.957 -2.651l -1.034 2.904c -0.033 0.099 -0.044 0.154 -0.044 0.187c 0 0.165 0.209 0.253 0.638 0.253v 0.418l -1.177 -0.033c -0.22 -0.011 -0.561 0 -1.012 0.033v -0.418c 0.385 0 0.616 -0.055 0.693 -0.154c 0.033 -0.033 0.121 -0.22 0.242 -0.561l -0.891 -2.486l -0.99 2.772c -0.033 0.099 -0.055 0.154 -0.055 0.176c 0 0.165 0.22 0.253 0.649 0.253v 0.418l -1.232 -0.033l -1.056 0.033v -0.418c 0.539 0 0.682 0.011 0.803 -0.352l 1.375 -3.828c 0.066 -0.176 0.154 -0.264 0.264 -0.264c 0.121 0 0.209 0.077 0.264 0.242l 1.056 2.948l 1.067 -2.959c 0.055 -0.154 0.143 -0.231 0.264 -0.231c 0.077 0.011 0.165 0.088 0.253 0.231Z "/></symbol><symbol id="g7A15C53874C56177CC9533530FA2B070" overflow="visible"><path d="M 0 0m 3.454 4.565c 0.495 0 0.748 -0.385 0.748 -1.166v -2.53c 0 -0.209 -0.033 -0.341 -0.11 -0.385c -0.077 -0.044 -0.319 -0.055 -0.726 -0.055v -0.429l 1.265 0.033l 1.254 -0.033v 0.429c -0.352 0 -0.583 0.011 -0.693 0.044c -0.11 0.033 -0.154 0.11 -0.154 0.231v 2.079c 0 0.528 -0.011 0.891 -0.044 1.1c -0.11 0.671 -0.605 1.012 -1.474 1.012c -0.671 0 -1.177 -0.308 -1.518 -0.924v 3.663l -1.65 -0.121v -0.418c 0.396 0 0.638 -0.033 0.726 -0.099c 0.088 -0.066 0.121 -0.22 0.121 -0.473v -5.654c 0 -0.209 -0.044 -0.341 -0.121 -0.385c -0.077 -0.044 -0.319 -0.055 -0.726 -0.055v -0.429l 1.265 0.033l 1.254 -0.033v 0.429c -0.407 0 -0.638 0.011 -0.715 0.055c -0.077 0.044 -0.121 0.176 -0.121 0.385v 2.002c 0 0.891 0.561 1.694 1.419 1.694Z "/></symbol><symbol id="g661B36513DCEC8B17F1DD8AE5C54E18F" overflow="visible"><path d="M 0 0m 4.565 2.761c 0 1.265 -0.737 2.167 -1.969 2.167c -0.66 0 -1.21 -0.253 -1.661 -0.77c -0.418 -0.484 -0.627 -1.067 -0.627 -1.738c 0 -0.693 0.231 -1.276 0.693 -1.782c 0.462 -0.506 1.034 -0.759 1.716 -0.759c 0.627 0 1.111 0.22 1.441 0.649c 0.275 0.363 0.407 0.627 0.407 0.803c 0 0.11 -0.066 0.165 -0.187 0.165c -0.088 0 -0.143 -0.055 -0.176 -0.176c -0.242 -0.726 -0.715 -1.089 -1.419 -1.089c -0.495 0 -0.88 0.231 -1.177 0.704c -0.209 0.341 -0.308 0.858 -0.319 1.562h 2.97c 0.242 0 0.308 0.022 0.308 0.264Z m -0.979 1.078c 0.121 -0.363 0.176 -0.715 0.176 -1.034h -2.464c 0.033 0.726 0.22 1.221 0.55 1.474c 0.275 0.22 0.517 0.33 0.748 0.33c 0.495 0 0.825 -0.253 0.99 -0.77Z "/></symbol><symbol id="g30A11840F6D1B58D63FF228F63DFF50C" overflow="visible"><path d="M 0 0m 4.004 4.158c 0 0.429 -0.407 0.704 -0.836 0.704c -0.561 0 -0.99 -0.33 -1.276 -1.001v 1.001l -1.584 -0.121v -0.418c 0.385 0 0.616 -0.033 0.704 -0.099c 0.088 -0.066 0.132 -0.209 0.132 -0.462v -2.893c 0 -0.209 -0.033 -0.341 -0.11 -0.385c -0.077 -0.044 -0.319 -0.066 -0.726 -0.066v -0.418l 1.265 0.033c 0.462 0.011 0.935 0 1.408 -0.033v 0.418h -0.264c -0.363 0 -0.594 0.033 -0.671 0.088c -0.077 0.055 -0.11 0.187 -0.11 0.385v 1.661c 0 0.473 0.088 0.902 0.253 1.265c 0.22 0.473 0.539 0.715 0.968 0.726c -0.11 -0.11 -0.165 -0.242 -0.165 -0.396c 0 -0.341 0.165 -0.506 0.506 -0.506c 0.297 0 0.506 0.231 0.506 0.517Z "/></symbol><symbol id="g313E46022A35FE004C34D0F33FA6CF9" overflow="visible"><path d="M 0 0m 3.388 4.862c -0.759 0 -1.452 -0.33 -2.046 -0.979c -0.594 -0.649 -0.891 -1.364 -0.891 -2.134c 0 -1.056 0.715 -1.87 1.771 -1.87c 0.77 0 1.452 0.33 2.046 0.979c 0.594 0.649 0.891 1.353 0.891 2.134c 0 1.067 -0.704 1.87 -1.771 1.87Z m 0.891 -1.452c 0 -0.253 -0.055 -0.605 -0.165 -1.067c -0.231 -0.913 -0.605 -1.54 -1.122 -1.881c -0.264 -0.176 -0.517 -0.264 -0.759 -0.264c -0.594 0 -0.902 0.517 -0.902 1.144c 0 0.638 0.374 1.826 0.627 2.222c 0.418 0.649 0.891 0.979 1.419 0.979c 0.594 0 0.902 -0.506 0.902 -1.133Z "/></symbol><symbol id="gB7D1E2CC5BEFB1BAD32905121AEF9EA" overflow="visible"><path d="M 0 0m 3.905 4.862c -0.484 0 -0.946 -0.253 -1.397 -0.759c -0.121 0.506 -0.462 0.759 -1.001 0.759c -0.451 0 -0.781 -0.363 -1.012 -1.078c -0.11 -0.363 -0.165 -0.572 -0.165 -0.638c 0 -0.099 0.055 -0.154 0.176 -0.154c 0.055 0 0.088 0.011 0.121 0.033c 0.055 0.099 0.088 0.176 0.099 0.253c 0.198 0.836 0.451 1.254 0.748 1.254c 0.198 0 0.297 -0.154 0.297 -0.451c 0 -0.165 -0.022 -0.352 -0.077 -0.55l -1.21 -4.829c -0.099 -0.363 -0.11 -0.407 -0.539 -0.407c -0.198 0 -0.297 -0.088 -0.297 -0.253c 0 -0.121 0.066 -0.176 0.187 -0.176c 0.165 0 0.737 0.033 0.902 0.033c 0.209 0 0.869 -0.033 1.078 -0.033c 0.165 0 0.242 0.088 0.242 0.264c 0 0.11 -0.099 0.165 -0.308 0.165c -0.198 0 -0.495 -0.011 -0.495 0.121c 0 0.143 0.451 1.87 0.495 2.057c 0.22 -0.407 0.55 -0.616 0.99 -0.616c 0.715 0 1.342 0.363 1.892 1.1c 0.506 0.671 0.759 1.386 0.759 2.123c 0 0.957 -0.572 1.782 -1.485 1.782Z m -0.033 -0.33c 0.429 0 0.649 -0.33 0.649 -0.979c 0 -0.297 -0.066 -0.693 -0.187 -1.188c -0.253 -0.957 -0.572 -1.584 -0.957 -1.903c -0.231 -0.187 -0.44 -0.286 -0.649 -0.286c -0.319 0 -0.539 0.143 -0.66 0.44c -0.099 0.231 -0.154 0.396 -0.154 0.484l 0.561 2.299c 0.055 0.242 0.253 0.495 0.561 0.748c 0.308 0.253 0.583 0.385 0.836 0.385Z "/></symbol><symbol id="g92AE00E454ABE2A3B4DC14B5CA8FBE9" overflow="visible"><path d="M 0 0m 2.646875 5.392578125q -0.485546875 0 -0.708984375 -0.517773438q -0.2234375 -0.517773438 -0.2234375 -1.673632813q 0 -1.1515625 0.2234375 -1.669335938q 0.2234375 -0.517773438 0.708984375 -0.517773438q 0.48984375 0 0.71328125 0.517773438q 0.2234375 0.517773438 0.2234375 1.669335938q 0 1.155859375 -0.2234375 1.673632813q -0.2234375 0.517773438 -0.71328125 0.517773438Z m -2.2515625 -2.19140625q 0 1.645703125 0.569335938 2.487890625q 0.569335938 0.8421875 1.682226563 0.8421875q 1.1171875 0 1.686523438 -0.8421875q 0.569335938 -0.8421875 0.569335938 -2.487890625q 0 -1.64140625 -0.569335938 -2.48359375q -0.569335938 -0.8421875 -1.686523438 -0.8421875q -1.112890625 0 -1.682226563 0.8421875q -0.569335938 0.8421875 -0.569335938 2.48359375Z "/></symbol><symbol id="g42E72C06CADF56A793607B8210F158C5" overflow="visible"><path d="M 0 0m 1.89921875 0.67890625v -2.509375h -1.2546875v 6.64296875h 1.2546875v -0.721875q 0.19765625 0.416796875 0.519921875 0.62734375q 0.322265625 0.210546875 0.75625 0.210546875q 0.825 0 1.28046875 -0.66171875q 0.45546875 -0.66171875 0.45546875 -1.86484375q 0 -1.2203125 -0.461914063 -1.8734375q -0.461914063 -0.653125 -1.316992188 -0.653125q -0.38671875 0 -0.693945313 0.199804688q -0.307226563 0.199804688 -0.539257813 0.603710938Z m 1.753125 1.731640625q 0 0.69609375 -0.23203125 1.09140625q -0.23203125 0.3953125 -0.640234375 0.3953125q -0.408203125 0 -0.64453125 -0.3953125q -0.236328125 -0.3953125 -0.236328125 -1.09140625q 0 -0.69609375 0.236328125 -1.09140625q 0.236328125 -0.3953125 0.64453125 -0.3953125q 0.408203125 0 0.640234375 0.3953125q 0.23203125 0.3953125 0.23203125 1.09140625Z "/></symbol><symbol id="gE9FB6D24CF34BB489DEF6497581F7D30" overflow="visible"><path d="M 0 0m 4.601953125 3.123828125v -3.123828125h -1.250390625v 2.93046875q 0 0.52421875 -0.148242188 0.749804688q -0.148242188 0.225585938 -0.483398438 0.225585938q -0.339453125 0 -0.534960938 -0.305078125q -0.195507813 -0.305078125 -0.195507813 -0.846484375v -2.754296875h -1.250390625v 4.8125h 1.250390625v -0.721875q 0.133203125 0.399609375 0.45546875 0.61875q 0.322265625 0.219140625 0.777734375 0.219140625q 0.683203125 0 1.03125 -0.453320313q 0.348046875 -0.453320313 0.348046875 -1.351367188Z "/></symbol><symbol id="g96818725DD91C4F0FF90130D23331B7" overflow="visible"><path d="M 0 0m 3.398828125 4.129296875v 2.556640625h 1.2546875v -6.6859375h -1.2546875v 0.71328125q -0.201953125 -0.416796875 -0.522070313 -0.62734375q -0.320117188 -0.210546875 -0.754101563 -0.210546875q -0.825 0 -1.28046875 0.66171875q -0.45546875 0.66171875 -0.45546875 1.86484375q 0 1.2203125 0.461914063 1.8734375q 0.461914063 0.653125 1.316992188 0.653125q 0.38671875 0 0.693945313 -0.199804688q 0.307226563 -0.199804688 0.539257813 -0.599414063Z m -1.753125 -1.7359375q 0 -0.69609375 0.23203125 -1.09140625q 0.23203125 -0.3953125 0.640234375 -0.3953125q 0.408203125 0 0.64453125 0.3953125q 0.236328125 0.3953125 0.236328125 1.09140625q 0 0.69609375 -0.236328125 1.09140625q -0.236328125 0.3953125 -0.64453125 0.3953125q -0.408203125 0 -0.640234375 -0.3953125q -0.23203125 -0.3953125 -0.23203125 -1.09140625Z "/></symbol><symbol id="gAF9F81DC8F237819C2370C3A12E78B95" overflow="visible"><path d="M 0 0m 4.884 -5.192c 0.121 0 0.187 0.066 0.187 0.187c 0 0.066 -0.022 0.11 -0.077 0.143c -0.792 0.605 -1.419 1.628 -1.892 3.058c -0.407 1.221 -0.616 2.431 -0.616 3.608v 1.892c 0 1.177 0.209 2.376 0.616 3.608c 0.473 1.419 1.1 2.442 1.892 3.058c 0.055 0.033 0.077 0.077 0.077 0.143c 0 0.121 -0.066 0.187 -0.187 0.187c -0.044 0 -0.077 -0.011 -0.11 -0.044c -0.891 -0.693 -1.639 -1.749 -2.222 -3.157c -0.561 -1.331 -0.836 -2.596 -0.836 -3.795v -1.892c 0 -1.199 0.275 -2.464 0.836 -3.795c 0.583 -1.419 1.331 -2.464 2.222 -3.157c 0.033 -0.033 0.066 -0.044 0.11 -0.044Z "/></symbol><symbol id="gF2E9DE7382F8BB82A14E9A8C0CA6C0F0" overflow="visible"><path d="M 0 0m 1.529 1.166c -0.352 0 -0.583 -0.264 -0.583 -0.616c 0 -0.33 0.253 -0.605 0.583 -0.605c 0.154 0 0.286 0.044 0.385 0.143l 0.011 -0.088c 0 -0.693 -0.231 -1.287 -0.693 -1.76c -0.077 -0.088 -0.121 -0.154 -0.121 -0.198c 0 -0.11 0.044 -0.165 0.143 -0.165c 0.099 0 0.231 0.132 0.418 0.385c 0.374 0.528 0.561 1.111 0.561 1.738c 0 0.583 -0.198 1.166 -0.704 1.166Z "/></symbol><symbol id="g6A7F5A83C1AD46379FEDFD85DC0924EE" overflow="visible"><path d="M 0 0m 1.903 6.952l -1.364 -5.643c -0.033 -0.154 -0.055 -0.286 -0.055 -0.385c 0 -0.583 0.429 -1.045 1.012 -1.045c 0.539 0 0.924 0.572 1.155 1.716c 0 0.099 -0.055 0.154 -0.176 0.154c -0.088 0 -0.154 -0.077 -0.187 -0.231c -0.22 -0.869 -0.473 -1.309 -0.77 -1.309c -0.187 0 -0.275 0.154 -0.275 0.451c 0 0.165 0.022 0.341 0.066 0.517l 1.529 6.292v 0.044c -0.033 0.077 -0.099 0.121 -0.176 0.121c -0.352 0 -1.166 -0.099 -1.298 -0.11c -0.165 -0.022 -0.242 -0.11 -0.242 -0.275c 0 -0.099 0.099 -0.154 0.308 -0.154c 0.187 0 0.473 0 0.473 -0.143Z "/></symbol><symbol id="gC5D2F11606059683B8CADF95C716D01F" overflow="visible"><path d="M 0 0m 3.6498 0.9702c -0.0462 0 -0.0924 -0.0308 -0.1386 -0.0924c -0.3927 -0.4543 -0.924 -0.6853 -1.5862 -0.6853c -0.4851 0 -0.7315 0.2926 -0.7315 0.8855c 0 0.1617 0.0308 0.3773 0.0847 0.6468h 0.4543c 1.2705 0 1.9096 0.3234 1.9096 0.9779c 0 0.4543 -0.4774 0.693 -0.9625 0.693c -0.3234 0 -0.6468 -0.077 -0.9702 -0.2233c -0.6237 -0.2849 -1.1935 -0.9471 -1.1935 -1.7941c 0 -0.847 0.5467 -1.4553 1.3937 -1.4553c 0.4774 0 0.8855 0.0924 1.2243 0.2772c 0.1771 0.1001 0.6776 0.4235 0.6776 0.6083c 0 0.0693 -0.0924 0.1617 -0.1617 0.1617Z m -0.3927 1.7325c 0 -0.4697 -0.5236 -0.7084 -1.5708 -0.7084h -0.3311c 0.1463 0.4851 0.3773 0.8085 0.7007 0.9548c 0.2541 0.1155 0.462 0.1771 0.6237 0.1771c 0.2926 0 0.5775 -0.1463 0.5775 -0.4235Z "/></symbol><symbol id="g1E91EC0565909D26837158C3378F24FD" overflow="visible"><path d="M 0 0m 0.836 2.332c 0.198 0 0.341 0.143 0.341 0.341c 0 0.1925 -0.099 0.308 -0.2915 0.341c 0.1705 0.2475 0.4345 0.3685 0.792 0.3685c 0.5225 0 0.9405 -0.3245 0.9405 -0.8305c 0 -0.3465 -0.242 -0.726 -0.726 -1.1385l -1.32 -1.1275c -0.044 -0.0385 -0.066 -0.0715 -0.0715 -0.099v -0.187h 2.5575l 0.187 1.0945h -0.275c -0.0495 -0.297 -0.099 -0.462 -0.1485 -0.5005c -0.0275 -0.0165 -0.22 -0.0275 -0.5665 -0.0275h -0.9955c 0.7095 0.5225 0.8635 0.627 1.32 0.9515c 0.22 0.1595 0.374 0.308 0.4675 0.4455c 0.1265 0.1925 0.1925 0.3905 0.1925 0.594c 0 0.3685 -0.1595 0.649 -0.473 0.847c -0.2695 0.1705 -0.594 0.2585 -0.979 0.2585c -0.3245 0 -0.6105 -0.0825 -0.858 -0.242c -0.286 -0.1815 -0.429 -0.429 -0.429 -0.737c 0 -0.209 0.165 -0.352 0.3355 -0.352Z "/></symbol><symbol id="gE1B314257D573D54CCD4E09523E8268A" overflow="visible"><path d="M 0 0m 0.979 -5.148c 0.891 0.693 1.639 1.738 2.222 3.157c 0.561 1.331 0.836 2.596 0.836 3.795v 1.892c 0 1.199 -0.275 2.464 -0.836 3.795c -0.583 1.419 -1.331 2.464 -2.222 3.157c -0.044 0.033 -0.077 0.044 -0.11 0.044c -0.121 0 -0.187 -0.066 -0.187 -0.187c 0 -0.055 0.022 -0.11 0.066 -0.143c 0.792 -0.605 1.43 -1.617 1.903 -3.058c 0.407 -1.232 0.616 -2.431 0.616 -3.608v -1.892c 0 -1.177 -0.209 -2.376 -0.616 -3.608c -0.473 -1.441 -1.111 -2.453 -1.903 -3.058c -0.044 -0.033 -0.066 -0.088 -0.066 -0.143c 0 -0.121 0.066 -0.187 0.187 -0.187c 0.033 0 0.077 0.011 0.11 0.044Z "/></symbol><symbol id="g42BE19054016F7BAE28890E34266D9C4" overflow="visible"><path d="M 0 0m 2.915 7.755c -0.979 0 -1.705 -0.792 -1.705 -1.771v -1.21h -0.847v -0.418h 0.847v -3.487c 0 -0.209 -0.033 -0.341 -0.11 -0.385c -0.077 -0.044 -0.319 -0.055 -0.726 -0.055v -0.429l 1.265 0.033c 0.462 0.011 0.935 0 1.408 -0.033v 0.429h -0.264c -0.363 0 -0.594 0.022 -0.671 0.077c -0.077 0.055 -0.11 0.187 -0.11 0.385v 3.465h 1.232v 0.418h -1.265v 1.221c 0 0.66 0.341 1.43 0.946 1.43c 0.088 0 0.165 -0.011 0.242 -0.033c -0.165 -0.088 -0.253 -0.242 -0.253 -0.451c 0 -0.341 0.165 -0.517 0.506 -0.517c 0.341 0 0.517 0.176 0.517 0.528c 0 0.495 -0.517 0.803 -1.012 0.803Z "/></symbol><symbol id="g316D45BB6425B2B3622251A815E109FB" overflow="visible"><path d="M 0 0m 3.96 1.43c 0 0.836 -0.572 1.364 -1.705 1.584c -0.517 0.099 -0.847 0.22 -1.023 0.341c -0.176 0.121 -0.264 0.297 -0.264 0.506c 0 0.517 0.385 0.77 1.155 0.77c 0.748 0 1.155 -0.418 1.21 -1.265c 0.011 -0.088 0.066 -0.132 0.176 -0.132c 0.121 0 0.187 0.099 0.187 0.297v 1.089c 0 0.209 -0.055 0.308 -0.165 0.308c -0.121 0 -0.286 -0.198 -0.396 -0.286c -0.275 0.187 -0.616 0.286 -1.012 0.286c -0.979 0 -1.76 -0.44 -1.76 -1.375c 0 -0.374 0.154 -0.693 0.473 -0.946c 0.385 -0.319 0.748 -0.385 1.441 -0.506c 0.715 -0.143 1.078 -0.462 1.078 -0.957c 0 -0.627 -0.385 -0.946 -1.166 -0.946c -0.759 0 -1.243 0.506 -1.452 1.507c -0.033 0.143 -0.088 0.22 -0.187 0.22c -0.121 0 -0.187 -0.11 -0.187 -0.319v -1.419c 0 -0.209 0.055 -0.308 0.165 -0.308c 0.033 0 0.088 0.033 0.176 0.11c 0.198 0.176 0.11 0.143 0.308 0.341c 0.319 -0.297 0.715 -0.451 1.177 -0.451c 1.045 0 1.771 0.539 1.771 1.551Z "/></symbol><symbol id="gA26959CC7A08E8EC12D9E5FDB3CAF766" overflow="visible"><path d="M 0 0m 2.646875 5.255078125l -0.597265625 -2.625390625h 1.198828125l -0.6015625 2.625390625Z m -0.7734375 1.16015625h 1.551171875l 1.731640625 -6.415234375h -1.267578125l -0.3953125 1.585546875h -1.697265625l -0.38671875 -1.585546875h -1.267578125l 1.731640625 6.415234375Z "/></symbol><symbol id="gA18F762FFFFE399C9BA1DB0D10B3D31E" overflow="visible"><path d="M 0 0m 4.6662 3.0877c 0.0231 0.0462 0.0385 0.0847 0.0385 0.1078c 0 0.0847 -0.0539 0.1232 -0.154 0.1232c -0.0693 0 -0.1155 -0.0154 -0.1386 -0.0539c -0.3542 -0.616 -0.6776 -1.3013 -0.9625 -2.0559c -0.0539 0.5005 -0.2541 1.1242 -0.462 1.5015c -0.2618 0.4543 -0.6237 0.6853 -1.0934 0.6853c -0.3927 0 -0.7469 -0.1463 -1.0703 -0.4466c -0.2002 -0.1925 -0.5621 -0.6853 -0.5621 -0.9548c 0 -0.0847 0.0539 -0.1232 0.154 -0.1232c 0.077 0 0.1309 0.0539 0.1694 0.154c 0.1386 0.4004 0.6622 0.7007 1.2012 0.7007c 0.9009 0 1.3552 -0.6545 1.3552 -1.9712c 0 -0.2464 -0.0154 -0.4235 -0.0539 -0.539c -0.2695 -0.8624 -0.4004 -1.4091 -0.4004 -1.6478c 0 -0.1463 0.0539 -0.2156 0.154 -0.2156c 0.0308 0 0.0539 0.0077 0.077 0.0154c 0.0693 0.0231 0.1386 0.1617 0.2156 0.4004c 0.1463 0.4851 0.2387 0.9548 0.2926 1.4168c 0.0231 0.2233 0.231 0.77 0.616 1.6478c 0.1771 0.4158 0.385 0.8316 0.6237 1.2551Z "/></symbol><symbol id="g7E86CC2927588CFF0FBA1CDB95C5580A" overflow="visible"><path d="M 0 0m 1.98 3.663c -0.253 -0.231 -0.6105 -0.3465 -1.078 -0.3465h -0.1155v -0.286h 0.1155c 0.2805 0 0.5335 0.0495 0.7645 0.143v -2.684c 0 -0.0605 -0.0055 -0.1045 -0.022 -0.1265c -0.0275 -0.055 -0.2035 -0.0825 -0.528 -0.0825h -0.2915v -0.2805c 0.2145 0.0165 0.583 0.022 1.111 0.022c 0.528 0 0.8965 -0.0055 1.111 -0.022v 0.2805h -0.2915c -0.3245 0 -0.5005 0.0275 -0.5335 0.0825c -0.011 0.022 -0.0165 0.066 -0.0165 0.1265v 2.9865c 0 0.187 -0.022 0.187 -0.2255 0.187Z "/></symbol><symbol id="gA3837C098A4B9EB1F48E86D52E310E09" overflow="visible"><path d="M 0 0m 4.257 -5.225c 0.198 0 0.297 0.099 0.297 0.308c 0 0.209 -0.099 0.308 -0.297 0.308h -1.177v 14.718h 1.177c 0.198 0 0.297 0.099 0.297 0.308c 0 0.209 -0.099 0.308 -0.297 0.308h -1.771v -15.95Z "/></symbol><symbol id="gAD3130B59A76219CC465C1A9B30EF0EE" overflow="visible"><path d="M 0 0m 10.01 2.574c 0.077 0.033 0.121 0.099 0.121 0.176c 0 0.077 -0.044 0.143 -0.121 0.176c -0.528 0.176 -1.023 0.55 -1.485 1.122c -0.308 0.385 -0.517 0.836 -0.616 1.353c -0.033 0.143 -0.121 0.209 -0.264 0.209c -0.176 0 -0.264 -0.088 -0.264 -0.275l 0.011 -0.022v -0.011c 0.187 -0.957 0.671 -1.716 1.474 -2.288h -7.722v 2.332c 0 0.176 -0.088 0.264 -0.264 0.264c -0.176 0 -0.264 -0.088 -0.264 -0.264v -5.192c 0 -0.187 0.088 -0.275 0.264 -0.275c 0.176 0 0.264 0.088 0.264 0.275v 2.332h 7.722c -0.803 -0.572 -1.287 -1.331 -1.474 -2.288v -0.011l -0.011 -0.022c 0 -0.187 0.088 -0.275 0.264 -0.275c 0.143 0 0.231 0.066 0.264 0.209c 0.099 0.517 0.308 0.968 0.616 1.353c 0.462 0.572 0.957 0.946 1.485 1.122Z "/></symbol><symbol id="gC9CF2B268112D692AA5AABDD5E57E12A" overflow="visible"><path d="M 0 0m 0.6875 1.680078125v 3.132421875h 1.258984375v -2.9390625q 0 -0.519921875 0.14609375 -0.743359375q 0.14609375 -0.2234375 0.485546875 -0.2234375q 0.339453125 0 0.530664063 0.30078125q 0.191210938 0.30078125 0.191210938 0.8421875v 2.762890625h 1.258984375v -4.8125h -1.258984375v 0.71328125q -0.133203125 -0.399609375 -0.453320313 -0.61875q -0.320117188 -0.219140625 -0.771289063 -0.219140625q -0.6875 0 -1.037695313 0.45546875q -0.350195313 0.45546875 -0.350195313 1.34921875Z "/></symbol><symbol id="g63B965801B083A4B7FC462DA5A8A0C4F" overflow="visible"><path d="M 0 0m 4.954296875 4.8125l -1.5296875 -4.8125h -1.551171875l -1.5296875 4.8125h 1.276171875l 1.026953125 -3.75546875l 1.03125 3.75546875h 1.276171875Z "/></symbol><symbol id="gC7D47DC372E107A289A7A7112EBE55E9" overflow="visible"><path d="M 0 0m 0.949609375 4.8125h 2.4921875v -3.845703125h 1.5640625v -0.966796875h -4.39140625v 0.966796875h 1.568359375v 2.87890625h -1.233203125v 0.966796875Z m 1.233203125 2.341796875h 1.258984375v -1.46953125h -1.258984375v 1.46953125Z "/></symbol><symbol id="g7C3292C458A46A58B9B9833BA97D9587" overflow="visible"><path d="M 0 0m 4.258203125 4.662109375v -1.1q -0.348046875 0.2234375 -0.724023438 0.337304688q -0.375976563 0.113867188 -0.754101563 0.113867188q -0.42109375 0 -0.6359375 -0.122460938q -0.21484375 -0.122460938 -0.21484375 -0.363085938q 0 -0.34375 0.91953125 -0.55859375l 0.047265625 -0.012890625l 0.3609375 -0.0859375q 0.6875 -0.16328125 1.007617188 -0.526367188q 0.320117188 -0.363085938 0.320117188 -0.981835938q 0 -0.743359375 -0.487695313 -1.115039063q -0.487695313 -0.371679688 -1.467382813 -0.371679688q -0.433984375 0 -0.889453125 0.075195313q -0.45546875 0.075195313 -0.923828125 0.225585938v 1.1q 0.416796875 -0.236328125 0.848632813 -0.3609375q 0.431835938 -0.124609375 0.835742188 -0.124609375q 0.442578125 0 0.6703125 0.12890625q 0.227734375 0.12890625 0.227734375 0.373828125q 0 0.240625 -0.161132813 0.36953125q -0.161132813 0.12890625 -0.766992188 0.275l -0.348046875 0.07734375q -0.721875 0.16328125 -1.052734375 0.511328125q -0.330859375 0.348046875 -0.330859375 0.932421875q 0 0.69609375 0.502734375 1.0828125q 0.502734375 0.38671875 1.413671875 0.38671875q 0.408203125 0 0.814257813 -0.066601563q 0.406054688 -0.066601563 0.788476563 -0.199804688Z "/></symbol><symbol id="gB75E13C86ADCA88662C5D7AC943163C3" overflow="visible"><path d="M 0 0m 2.96484375 6.17890625v -1.36640625h 1.645703125v -0.966796875h -1.645703125v -2.27734375q 0 -0.322265625 0.156835938 -0.461914063q 0.156835938 -0.139648438 0.522070313 -0.139648438h 0.966796875v -0.966796875h -1.05703125q -1.0828125 0 -1.465234375 0.345898438q -0.382421875 0.345898438 -0.382421875 1.282617188v 2.2171875h -1.22890625v 0.966796875h 1.22890625v 1.36640625h 1.258984375Z "/></symbol><symbol id="g11189D36A8ED0A9E003DFD239176016" overflow="visible"><path d="M 0 0m 4.73515625 0.236328125q -0.43828125 -0.18046875 -0.89375 -0.270703125q -0.45546875 -0.090234375 -0.9625 -0.090234375q -1.207421875 0 -1.845507813 0.646679688q -0.638085938 0.646679688 -0.638085938 1.862695313q 0 1.17734375 0.614453125 1.860546875q 0.614453125 0.683203125 1.67578125 0.683203125q 1.069921875 0 1.660742188 -0.633789063q 0.590820313 -0.633789063 0.590820313 -1.785351563v -0.511328125h -3.261328125q 0.004296875 -0.5671875 0.33515625 -0.846484375q 0.330859375 -0.279296875 0.98828125 -0.279296875q 0.433984375 0 0.855078125 0.124609375q 0.42109375 0.124609375 0.880859375 0.3953125v -1.155859375Z m -1.065625 2.70703125q -0.00859375 0.4984375 -0.255664063 0.754101563q -0.247070313 0.255664063 -0.728320313 0.255664063q -0.433984375 0 -0.691796875 -0.264257813q -0.2578125 -0.264257813 -0.305078125 -0.749804688l 1.980859375 0.004296875Z "/></symbol><symbol id="g2F860E3C418A9398BD0A0D6F00ED0578" overflow="visible"><path d="M 0 0m 7.821 6.567c -0.055 0 -0.121 -0.033 -0.176 -0.088l -1.122 -1.111c -0.638 0.55 -1.386 0.825 -2.244 0.825c -0.957 0 -1.771 -0.33 -2.442 -1.001c -0.671 -0.671 -1.001 -1.485 -1.001 -2.442c 0 -0.858 0.275 -1.606 0.825 -2.244l -1.111 -1.122c -0.055 -0.055 -0.088 -0.121 -0.088 -0.176c 0 -0.132 0.143 -0.275 0.275 -0.275c 0.055 0 0.121 0.033 0.176 0.088l 1.122 1.111c 0.638 -0.55 1.386 -0.825 2.244 -0.825c 0.957 0 1.771 0.33 2.442 1.001c 0.671 0.671 1.001 1.485 1.001 2.442c 0 0.858 -0.275 1.606 -0.825 2.244l 1.111 1.122c 0.055 0.055 0.088 0.121 0.088 0.176c 0 0.132 -0.143 0.275 -0.275 0.275Z m -1.298 -1.947c 0.451 -0.539 0.682 -1.166 0.682 -1.87c 0 -0.814 -0.275 -1.496 -0.847 -2.068c -0.572 -0.572 -1.265 -0.858 -2.079 -0.858c -0.715 0 -1.331 0.231 -1.87 0.682Z m -2.244 1.056c 0.715 0 1.331 -0.231 1.87 -0.682l -4.114 -4.114c -0.451 0.539 -0.682 1.166 -0.682 1.87c 0 0.814 0.275 1.496 0.847 2.068c 0.572 0.572 1.265 0.858 2.079 0.858Z "/></symbol><symbol id="g375D9D81C27DA2B4F407C4204670AA29" overflow="visible"><path d="M 0 0m 0.627 -5.225h 1.771v 15.95h -1.771c -0.198 0 -0.297 -0.099 -0.297 -0.308c 0 -0.209 0.099 -0.308 0.297 -0.308h 1.177v -14.718h -1.177c -0.198 0 -0.297 -0.099 -0.297 -0.308c 0 -0.209 0.099 -0.308 0.297 -0.308Z "/></symbol><symbol id="g5922B9D1A7C81F3BA193C01F5BD33C" overflow="visible"><path d="M 0 0m 2.321 8.228c -0.187 0 -0.319 -0.088 -0.396 -0.253l -1.287 -3.245h 0.374l 1.683 2.816c 0.044 0.055 0.066 0.132 0.066 0.231c 0 0.242 -0.187 0.451 -0.44 0.451Z "/></symbol><symbol id="gBEAA5D980B1B6CD6E7BE74B68F1EC637" overflow="visible"><path d="M 0 0m 7.953 0c 0.209 0 0.319 0.11 0.319 0.33c 0 0.143 -0.066 0.242 -0.209 0.297c -0.682 0.253 -1.276 0.715 -1.771 1.397c -0.495 0.682 -0.737 1.386 -0.737 2.101v 4.125h -1.188v -4.125c 0 -0.869 0.374 -1.705 1.133 -2.519c 0.671 -0.737 1.452 -1.265 2.343 -1.584c 0.044 -0.011 0.077 -0.022 0.11 -0.022Z "/></symbol><symbol id="g58DE70B0DC67996A6062DF732675B06F" overflow="visible"><path d="M 0 0m 4.367 0h 1.188v 8.228h -1.188Z "/></symbol><symbol id="g2CD4E04A0D30BF0BCB592B65901BFCD" overflow="visible"><path d="M 0 0m 2.75 8.25c 1.298 0.704 2.805 2.299 2.805 4.103v 4.147h -1.188v -4.147c 0 -0.781 -0.231 -1.529 -0.704 -2.266c -0.495 -0.759 -1.089 -1.276 -1.804 -1.529c -0.143 -0.055 -0.209 -0.154 -0.209 -0.308c 0 -0.154 0.066 -0.253 0.209 -0.308c 0.715 -0.253 1.309 -0.77 1.804 -1.529c 0.473 -0.737 0.704 -1.485 0.704 -2.266v -4.147h 1.188v 4.147c 0 1.804 -1.507 3.399 -2.805 4.103Z "/></symbol><symbol id="g87E37713B4483662E5048B1608E6EC95" overflow="visible"><path d="M 0 0m 8.063 7.623c 0.143 0.055 0.209 0.154 0.209 0.297c 0 0.22 -0.11 0.33 -0.319 0.33c -0.033 0 -0.066 -0.011 -0.11 -0.022c -0.891 -0.319 -1.672 -0.847 -2.343 -1.584c -0.759 -0.814 -1.133 -1.65 -1.133 -2.519v -4.125h 1.188v 4.125c 0 0.715 0.242 1.419 0.737 2.101c 0.495 0.682 1.089 1.144 1.771 1.397Z "/></symbol><symbol id="g8081A8237C24C95555CB26B7002BAA27" overflow="visible"><path d="M 0 0m 2.134 6.611c 0 0.33 -0.275 0.616 -0.605 0.616c -0.33 0 -0.616 -0.286 -0.616 -0.616c 0 -0.33 0.275 -0.627 0.605 -0.627c 0.341 0 0.616 0.286 0.616 0.627Z m -0.561 -6.578l 1.144 -0.033v 0.429c -0.363 0 -0.583 0.022 -0.649 0.066c -0.066 0.044 -0.088 0.165 -0.088 0.363v 4.037l -1.573 -0.132v -0.418c 0.363 0 0.594 -0.033 0.671 -0.088c 0.077 -0.055 0.11 -0.209 0.11 -0.462v -2.926c 0 -0.209 -0.033 -0.341 -0.11 -0.385c -0.077 -0.044 -0.319 -0.055 -0.715 -0.055v -0.429Z "/></symbol><symbol id="g11B715B086B5896FA56CD5C2E567D0DB" overflow="visible"><path d="M 0 0m 1.662890625 2.006640625v 3.7125h -1.276171875v 0.966796875h 2.53515625v -4.679296875q 0 -0.5671875 0.176171875 -0.803515625q 0.176171875 -0.236328125 0.597265625 -0.236328125h 1.00546875v -0.966796875h -1.3578125q -0.898046875 0 -1.2890625 0.4640625q -0.391015625 0.4640625 -0.391015625 1.542578125Z "/></symbol><symbol id="g8DBC885062845FD28572A9997804BEA2" overflow="visible"><path d="M 0 0m 6.193 0.044h -2.09c -0.693 0 -1.309 0.231 -1.815 0.704c -0.506 0.473 -0.792 1.045 -0.858 1.738h 4.763c 0.176 0 0.264 0.088 0.264 0.264c 0 0.176 -0.088 0.264 -0.264 0.264h -4.763c 0.066 0.693 0.352 1.265 0.858 1.738c 0.506 0.473 1.122 0.704 1.815 0.704h 2.09c 0.176 0 0.264 0.088 0.264 0.253c 0 0.176 -0.088 0.264 -0.264 0.264h -2.09c -0.891 0 -1.65 -0.308 -2.277 -0.935c -0.627 -0.627 -0.935 -1.386 -0.935 -2.288c 0 -0.902 0.308 -1.661 0.935 -2.288c 0.627 -0.627 1.386 -0.935 2.277 -0.935h 2.09c 0.176 0 0.264 0.088 0.264 0.264c 0 0.132 -0.121 0.253 -0.264 0.253Z "/></symbol><symbol id="g46F76533A45DB4C11A9843577693DDC7" overflow="visible"><path d="M 0 0m 4.059 4.301c 0 -0.088 0.099 -0.231 0.275 -0.451c 0.176 -0.22 0.264 -0.473 0.264 -0.759c 0 -0.319 -0.154 -0.858 -0.473 -1.617c -0.231 -0.528 -0.759 -1.276 -1.408 -1.276c -0.506 0 -0.759 0.297 -0.759 0.902c 0 0.429 0.209 1.188 0.627 2.277c 0.088 0.231 0.132 0.418 0.132 0.55c 0 0.55 -0.374 0.935 -0.924 0.935c -0.484 0 -0.869 -0.275 -1.144 -0.825c -0.22 -0.451 -0.33 -0.737 -0.33 -0.88c 0 -0.099 0.055 -0.154 0.176 -0.154c 0.143 0 0.165 0.066 0.209 0.22c 0.253 0.88 0.605 1.32 1.056 1.32c 0.143 0 0.22 -0.099 0.22 -0.308c 0 -0.176 -0.055 -0.418 -0.176 -0.737c -0.407 -1.089 -0.616 -1.826 -0.616 -2.233c 0 -0.561 0.187 -0.946 0.561 -1.155c 0.297 -0.154 0.605 -0.231 0.924 -0.231c 0.979 0 1.661 1.056 1.947 1.903c 0.352 1.034 0.528 1.793 0.528 2.277c 0 0.539 -0.176 0.803 -0.517 0.803c -0.275 0 -0.572 -0.286 -0.572 -0.561Z "/></symbol><symbol id="g1EF7D0770C42778A4BEBEDA87EE7829A" overflow="visible"><path d="M 0 0m 3.124 6.831c 0 0.297 -0.143 0.44 -0.44 0.44c -0.308 0 -0.616 -0.308 -0.616 -0.616c 0 -0.297 0.154 -0.44 0.451 -0.44c 0.308 0 0.605 0.308 0.605 0.616Z m -0.275 -5.313c -0.242 -0.869 -0.594 -1.309 -1.045 -1.309c -0.143 0 -0.22 0.099 -0.22 0.308c 0 0.187 0.319 1.133 0.968 2.849c 0.088 0.253 0.132 0.451 0.132 0.594c 0 0.539 -0.374 0.935 -0.913 0.935c -0.473 0 -0.847 -0.275 -1.122 -0.836c -0.22 -0.451 -0.33 -0.748 -0.33 -0.891c 0 -0.099 0.055 -0.143 0.176 -0.143c 0.143 0 0.165 0.066 0.209 0.22c 0.253 0.88 0.594 1.32 1.034 1.32c 0.143 0 0.22 -0.099 0.22 -0.308c 0 -0.154 -0.033 -0.33 -0.11 -0.539c -0.253 -0.693 -0.517 -1.43 -0.737 -2.013c -0.165 -0.44 -0.253 -0.737 -0.253 -0.891c 0 -0.539 0.396 -0.935 0.924 -0.935c 0.473 0 0.847 0.275 1.122 0.825c 0.209 0.429 0.319 0.726 0.319 0.891c 0 0.099 -0.055 0.154 -0.176 0.154c -0.033 0 -0.198 -0.099 -0.198 -0.231Z "/></symbol><symbol id="gCB4E91739EACE7368E3223F2D0EF6CCC" overflow="visible"><path d="M 0 0m 4.62 3.894c 0 0.627 -0.638 0.968 -1.32 0.968c -0.693 0 -1.188 -0.209 -1.485 -0.627c -0.253 -0.363 -0.385 -0.693 -0.385 -0.99c 0 -0.583 0.385 -0.957 1.144 -1.122c 0.319 -0.055 0.561 -0.132 0.748 -0.22c 0.231 -0.099 0.341 -0.286 0.341 -0.55c 0 -0.198 -0.088 -0.418 -0.275 -0.671c -0.231 -0.319 -0.638 -0.484 -1.221 -0.484c -0.594 0 -0.979 0.165 -1.155 0.484c 0.352 -0.011 0.649 0.275 0.649 0.627c 0 0.275 -0.143 0.418 -0.44 0.418c -0.396 0 -0.649 -0.363 -0.649 -0.759c 0 -0.726 0.792 -1.089 1.584 -1.089c 0.825 0 1.419 0.242 1.771 0.737c 0.297 0.407 0.44 0.77 0.44 1.1c 0 0.473 -0.231 0.825 -0.682 1.056c -0.341 0.121 -0.605 0.198 -0.77 0.231c -0.385 0.099 -0.781 0.132 -0.781 0.605c 0 0.583 0.55 0.935 1.166 0.935c 0.462 0 0.759 -0.143 0.902 -0.418c -0.242 -0.044 -0.495 -0.253 -0.495 -0.528c 0 -0.231 0.121 -0.352 0.374 -0.352c 0.341 0 0.539 0.308 0.539 0.649Z "/></symbol><symbol id="g293C48F3C6D5CEB2943C0E5CE10C76D3" overflow="visible"><path d="M 0 0m 3.63 4.609c 0 0.099 -0.11 0.154 -0.341 0.154h -0.891c 0.286 1.144 0.429 1.738 0.429 1.782c 0 0.231 -0.121 0.341 -0.352 0.341c -0.253 0 -0.407 -0.143 -0.473 -0.429l -0.407 -1.694h -0.979c -0.242 0 -0.363 -0.011 -0.363 -0.242c 0 -0.121 0.11 -0.176 0.341 -0.176h 0.891c -0.539 -2.145 -0.803 -3.278 -0.803 -3.421c 0 -0.616 0.418 -1.045 1.034 -1.045c 0.418 0 0.781 0.187 1.1 0.572c 0.264 0.319 0.451 0.627 0.572 0.924c 0.044 0.121 0.066 0.187 0.066 0.22c 0 0.099 -0.055 0.154 -0.165 0.154c -0.088 0 -0.154 -0.055 -0.198 -0.176c -0.374 -0.913 -0.825 -1.364 -1.364 -1.364c -0.187 0 -0.286 0.154 -0.286 0.451c 0 0.165 0.022 0.341 0.066 0.517l 0.781 3.168h 0.979c 0.286 0 0.363 0.022 0.363 0.264Z "/></symbol><symbol id="g9C5E01F97914784D6046F24928CB3533" overflow="visible"><path d="M 0 0m 3.498 -2.728c 0.099 0 0.154 0.055 0.154 0.154c 0 0.033 -0.022 0.077 -0.055 0.121c -0.572 0.44 -1.034 1.166 -1.375 2.167c -0.297 0.869 -0.451 1.727 -0.451 2.574v 0.924c 0 0.847 0.154 1.705 0.451 2.574c 0.341 1.001 0.803 1.727 1.375 2.167c 0.033 0.033 0.055 0.077 0.055 0.121c 0 0.099 -0.055 0.154 -0.154 0.154c -0.011 0 -0.044 -0.011 -0.077 -0.033c -0.66 -0.506 -1.21 -1.254 -1.661 -2.255c -0.429 -0.957 -0.649 -1.859 -0.649 -2.728v -0.924c 0 -0.869 0.22 -1.771 0.649 -2.728c 0.451 -1.001 1.001 -1.749 1.661 -2.255c 0.033 -0.022 0.066 -0.033 0.077 -0.033Z "/></symbol><symbol id="g521F2DDE78882B32DB463695F98C5705" overflow="visible"><path d="M 0 0m 2.646875 1.05703125l 1.130078125 5.358203125h 1.276171875l -1.525390625 -6.415234375h -1.757421875l -1.525390625 6.415234375h 1.276171875l 1.12578125 -5.358203125Z "/></symbol><symbol id="g82D23B6D5370404661A1780E66CA09E" overflow="visible"><path d="M 0 0m 3.0078125 2.26015625q -0.7046875 0 -0.983984375 -0.18046875q -0.279296875 -0.18046875 -0.279296875 -0.61875q 0 -0.3265625 0.193359375 -0.519921875q 0.193359375 -0.193359375 0.52421875 -0.193359375q 0.4984375 0 0.7734375 0.375976563q 0.275 0.375976563 0.275 1.050585938v 0.0859375h -0.502734375Z m 1.753125 0.485546875v -2.745703125h -1.250390625v 0.537109375q -0.227734375 -0.31796875 -0.584375 -0.48984375q -0.356640625 -0.171875 -0.786328125 -0.171875q -0.820703125 0 -1.278320313 0.433984375q -0.457617188 0.433984375 -0.457617188 1.21171875q 0 0.8421875 0.545703125 1.243945313q 0.545703125 0.401757813 1.688671875 0.401757813h 0.872265625v 0.210546875q 0 0.305078125 -0.221289063 0.461914063q -0.221289063 0.156835938 -0.650976563 0.156835938q -0.451171875 0 -0.874414063 -0.113867188q -0.423242188 -0.113867188 -0.883007813 -0.363085938v 1.07421875q 0.416796875 0.171875 0.846484375 0.253515625q 0.4296875 0.081640625 0.9109375 0.081640625q 1.173046875 0 1.647851563 -0.476953125q 0.474804688 -0.476953125 0.474804688 -1.705859375Z "/></symbol><symbol id="g44903F1336FFA3AC82F2FDAECC383B22" overflow="visible"><path d="M 0 0m 0.858 -2.695c 0.66 0.506 1.21 1.254 1.661 2.255c 0.429 0.957 0.649 1.859 0.649 2.728v 0.924c 0 0.869 -0.22 1.771 -0.649 2.728c -0.451 1.001 -1.001 1.749 -1.661 2.255c -0.033 0.022 -0.066 0.033 -0.077 0.033c -0.099 0 -0.154 -0.055 -0.154 -0.154c 0 -0.044 0.022 -0.088 0.055 -0.121c 0.572 -0.44 1.034 -1.166 1.375 -2.167c 0.297 -0.869 0.451 -1.727 0.451 -2.574v -0.924c 0 -0.847 -0.154 -1.705 -0.451 -2.574c -0.341 -1.001 -0.803 -1.727 -1.375 -2.167c -0.033 -0.044 -0.055 -0.088 -0.055 -0.121c 0 -0.099 0.055 -0.154 0.154 -0.154c 0.011 0 0.044 0.011 0.077 0.033Z "/></symbol><symbol id="g3BAF23AB431BDA7FCE4D7083470CFBD3" overflow="visible"><path d="M 0 0m 2.739 -0.121c 0.682 0 1.254 0.242 1.727 0.726c 0.473 0.484 0.715 1.067 0.715 1.749c 0 0.693 -0.231 1.298 -0.693 1.804c -0.462 0.506 -1.045 0.77 -1.738 0.77c -0.693 0 -1.265 -0.264 -1.738 -0.77c -0.473 -0.506 -0.704 -1.111 -0.704 -1.804c 0 -0.682 0.231 -1.265 0.704 -1.749c 0.473 -0.484 1.056 -0.726 1.727 -0.726Z m 0.011 0.352c -0.528 0 -0.924 0.231 -1.199 0.704c -0.176 0.308 -0.264 0.814 -0.264 1.507c 0 0.671 0.088 1.155 0.253 1.463c 0.264 0.473 0.66 0.704 1.199 0.704c 0.517 0 0.913 -0.231 1.188 -0.682c 0.187 -0.308 0.275 -0.803 0.275 -1.485c 0 -1.276 -0.374 -2.211 -1.452 -2.211Z "/></symbol><symbol id="gE4D46F1D17F1B65EB6D4E3B2291CCF8F" overflow="visible"><path d="M 0 0m 3.652 1.386v 0.66h -0.352v -0.638c 0 -0.55 -0.198 -1.166 -0.682 -1.166c -0.451 0 -0.671 0.374 -0.671 1.122v 2.981h 1.529v 0.418h -1.529v 2.002h -0.352c -0.011 -0.363 -0.044 -0.682 -0.121 -0.968c -0.187 -0.726 -0.616 -1.1 -1.265 -1.133v -0.319h 0.913v -2.959c 0 -0.649 0.198 -1.067 0.583 -1.276c 0.297 -0.154 0.572 -0.231 0.847 -0.231c 0.726 0 1.1 0.726 1.1 1.507Z "/></symbol><symbol id="gB3A9917DB6D66B13D3CDFF1EBB5097D1" overflow="visible"><path d="M 0 0m 0.946 -0.143c 0.121 0 0.253 0.077 0.396 0.242l 2.563 3.036c 0.385 -1.056 0.671 -1.848 0.858 -2.387c 0.121 -0.341 0.198 -0.539 0.253 -0.616c 0.121 -0.165 0.33 -0.253 0.616 -0.253h 0.231c 0.11 0.011 0.165 0.055 0.165 0.154c 0 0.022 -0.022 0.066 -0.066 0.121c -0.077 0.077 -0.154 0.242 -0.242 0.495l -2.211 6.182c -0.187 0.539 -0.638 0.803 -1.353 0.803c -0.165 0 -0.242 -0.055 -0.242 -0.165c 0 -0.077 0.066 -0.132 0.187 -0.165c 0.154 -0.044 0.253 -0.099 0.308 -0.165c 0.077 -0.088 0.187 -0.308 0.308 -0.66l 1.045 -2.937l -2.97 -2.959c -0.143 -0.143 -0.209 -0.264 -0.209 -0.363c 0 -0.198 0.165 -0.363 0.363 -0.363Z "/></symbol><symbol id="g8AF8F2BC2B33BC6B311ED96E17728B80" overflow="visible"><path d="M 0 0m 2.112 0.583c 0 0.319 -0.264 0.583 -0.583 0.583c -0.319 0 -0.583 -0.264 -0.583 -0.583c 0 -0.319 0.264 -0.583 0.583 -0.583c 0.319 0 0.583 0.264 0.583 0.583Z "/></symbol></defs></svg>