<svg viewBox="0 0 199.676703125 125.057" width="199.676703125pt" height="125.057pt" xmlns="http://www.w3.org/2000/svg" xmlns:xlink="http://www.w3.org/1999/xlink" xmlns:h5="http://www.w3.org/1999/xhtml"><path fill="#ffffff" fill-rule="nonzero" d="M 0 0v 125.057h 199.676703125v -125.057Z "/><g transform="matrix(1 0 0 -1 10.24 11.593)"><use xlink:href="#g1570446F77F9A6C1B85605F46F92409E" x="0" y="0" fill="#000000" fill-rule="nonzero"/></g><g transform="matrix(1 0 0 -1 21.526 11.593)"><use xlink:href="#g53BD52A98D7FE43A4F5ED01B08879B5F" x="0" y="0" fill="#000000" fill-rule="nonzero"/></g><g transform="matrix(1 0 0 -1 36.948 11.593)"><use xlink:href="#gEFD6A37741EDB46D1C5C1B0AEAB33C8D" x="0" y="0" fill="#000000" fill-rule="nonzero"/><use xlink:href="#g753B405C8BCF0E1C48C693507077AE03" x="5.298046875" y="0" fill="#000000" fill-rule="nonzero"/><use xlink:href="#g8E43F24E687DFBB5D1E5526D8DC9339C" x="10.59609375" y="0" fill="#000000" fill-rule="nonzero"/><use xlink:href="#gEFA11BCBF584E95CF54C8F85D9D572D2" x="15.894140625" y="0" fill="#000000" fill-rule="nonzero"/><use xlink:href="#g18B0C645192E85FDD6BFE6E13B16D837" x="21.1921875" y="0" fill="#000000" fill-rule="nonzero"/><use xlink:href="#g675CA31BB2862F44F71394188EA0CA51" x="26.490234375" y="0" fill="#000000" fill-rule="nonzero"/></g><g transform="matrix(1 0 0 -1 68.73628125 11.593)"/><g transform="matrix(1 0 0 -1 71.48628125 11.593)"><use xlink:href="#g40FE25E54F5492ED24B9F95C84D97EA9" x="0" y="0" fill="#000000" fill-rule="nonzero"/></g><g transform="matrix(1 0 0 -1 76.52428125 11.593)"><use xlink:href="#gFF1EC1E3625C6E3C8EE7A324B4F795C4" x="0" y="0" fill="#000000" fill-rule="nonzero"/></g><g transform="matrix(1 0 0 -1 24.628 25.266)"><use xlink:href="#g9AFD227174B31EC8A3993A1F7D232D54" x="0" y="0" fill="#000000" fill-rule="nonzero"/></g><g transform="matrix(1 0 0 -1 36.948 25.266)"><use xlink:href="#gEFD6A37741EDB46D1C5C1B0AEAB33C8D" x="0" y="0" fill="#000000" fill-rule="nonzero"/><use xlink:href="#gEB5263C984B3A13E014F4FD81EEB98D5" x="5.298046875" y="0" fill="#000000" fill-rule="nonzero"/><use xlink:href="#g4666C3926E6A15F65572DD76E569736D" x="10.59609375" y="0" fill="#000000" fill-rule="nonzero"/><use xlink:href="#g6EBB5B97B43B5068D9B5D10D16E84305" x="15.894140625" y="0" fill="#000000" fill-rule="nonzero"/></g><g transform="matrix(1 0 0 -1 58.1401875 25.266)"/><g transform="matrix(1 0 0 -1 60.8901875 25.266)"><use xlink:href="#g7FDD4349A49914F62F30F23AE9794251" x="0" y="0" fill="#000000" fill-rule="nonzero"/></g><g transform="matrix(1 0 0 -1 67.1821875 25.266)"><use xlink:href="#gFF1EC1E3625C6E3C8EE7A324B4F795C4" x="0" y="0" fill="#000000" fill-rule="nonzero"/></g><g transform="matrix(1 0 0 -1 24.628 38.939)"><use xlink:href="#g9AFD227174B31EC8A3993A1F7D232D54" x="0" y="0" fill="#000000" fill-rule="nonzero"/></g><g transform="matrix(1 0 0 -1 36.948 38.939)"><use xlink:href="#gEFD6A37741EDB46D1C5C1B0AEAB33C8D" x="0" y="0" fill="#000000" fill-rule="nonzero"/><use xlink:href="#gD614C08D1BB1FD9302C3FBF69C3A24A9" x="5.298046875" y="0" fill="#000000" fill-rule="nonzero"/><use xlink:href="#gEB5263C984B3A13E014F4FD81EEB98D5" x="10.59609375" y="0" fill="#000000" fill-rule="nonzero"/><use xlink:href="#g1A903C34409188F68C004DCF51BB982B" x="15.894140625" y="0" fill="#000000" fill-rule="nonzero"/><use xlink:href="#gA3E8761BC1767EAE1C4DC702DAD043D4" x="21.1921875" y="0" fill="#000000" fill-rule="nonzero"/><use xlink:href="#gEB5263C984B3A13E014F4FD81EEB98D5" x="26.490234375" y="0" fill="#000000" fill-rule="nonzero"/><use xlink:href="#g4666C3926E6A15F65572DD76E569736D" x="31.78828125" y="0" fill="#000000" fill-rule="nonzero"/><use xlink:href="#g6EBB5B97B43B5068D9B5D10D16E84305" x="37.086328125" y="0" fill="#000000" fill-rule="nonzero"/></g><g transform="matrix(1 0 0 -1 79.332375 38.939)"/><g transform="matrix(1 0 0 -1 82.082375 38.939)"><use xlink:href="#gB7D1E2CC5BEFB1BAD32905121AEF9EA" x="0" y="0" fill="#000000" fill-rule="nonzero"/></g><g transform="matrix(1 0 0 -1 87.780375 38.939)"><use xlink:href="#gFF1EC1E3625C6E3C8EE7A324B4F795C4" x="0" y="0" fill="#000000" fill-rule="nonzero"/></g><g transform="matrix(1 0 0 -1 24.628 52.612)"><use xlink:href="#g9AFD227174B31EC8A3993A1F7D232D54" x="0" y="0" fill="#000000" fill-rule="nonzero"/></g><g transform="matrix(1 0 0 -1 36.948 52.612)"><use xlink:href="#gEFD6A37741EDB46D1C5C1B0AEAB33C8D" x="0" y="0" fill="#000000" fill-rule="nonzero"/><use xlink:href="#g1A903C34409188F68C004DCF51BB982B" x="5.298046875" y="0" fill="#000000" fill-rule="nonzero"/><use xlink:href="#g6EBB5B97B43B5068D9B5D10D16E84305" x="10.59609375" y="0" fill="#000000" fill-rule="nonzero"/></g><g transform="matrix(1 0 0 -1 52.842140625 52.612)"/><g transform="matrix(1 0 0 -1 55.592140625 52.612)"><use xlink:href="#g1570446F77F9A6C1B85605F46F92409E" x="0" y="0" fill="#000000" fill-rule="nonzero"/></g><g transform="matrix(1 0 0 -1 60.718140625 55.329)"><use xlink:href="#gBFCC2410A697C41E2DD3187C83DA8F3" x="0" y="0" fill="#000000" fill-rule="nonzero"/></g><g transform="matrix(1 0 0 -1 65.715440625 52.612)"/><g transform="matrix(1 0 0 -1 68.465440625 52.612)"><use xlink:href="#g1570446F77F9A6C1B85605F46F92409E" x="0" y="0" fill="#000000" fill-rule="nonzero"/></g><g transform="matrix(1 0 0 -1 73.591440625 55.329)"><use xlink:href="#g25B224D96CA3F5CCC7E774117FEA026D" x="0" y="0" fill="#000000" fill-rule="nonzero"/></g><g transform="matrix(1 0 0 -1 78.588740625 52.612)"/><g transform="matrix(1 0 0 -1 81.338740625 52.612)"><use xlink:href="#g1570446F77F9A6C1B85605F46F92409E" x="0" y="0" fill="#000000" fill-rule="nonzero"/></g><g transform="matrix(1 0 0 -1 86.464740625 55.329)"><use xlink:href="#g777C235EA19CAB599B58B593B0044621" x="0" y="0" fill="#000000" fill-rule="nonzero"/></g><g transform="matrix(1 0 0 -1 91.462040625 52.612)"><use xlink:href="#gFF1EC1E3625C6E3C8EE7A324B4F795C4" x="0" y="0" fill="#000000" fill-rule="nonzero"/></g><g transform="matrix(1 0 0 -1 24.628 66.285)"><use xlink:href="#g9AFD227174B31EC8A3993A1F7D232D54" x="0" y="0" fill="#000000" fill-rule="nonzero"/></g><g transform="matrix(1 0 0 -1 36.948 66.285)"><use xlink:href="#gEFD6A37741EDB46D1C5C1B0AEAB33C8D" x="0" y="0" fill="#000000" fill-rule="nonzero"/><use xlink:href="#g18B0C645192E85FDD6BFE6E13B16D837" x="5.298046875" y="0" fill="#000000" fill-rule="nonzero"/><use xlink:href="#g4666C3926E6A15F65572DD76E569736D" x="10.59609375" y="0" fill="#000000" fill-rule="nonzero"/><use xlink:href="#g4DBC9FFEE1FA47B29D44E4FB1D228A46" x="15.894140625" y="0" fill="#000000" fill-rule="nonzero"/></g><g transform="matrix(1 0 0 -1 58.1401875 66.285)"/><g transform="matrix(1 0 0 -1 60.8901875 66.285)"><use xlink:href="#g1570446F77F9A6C1B85605F46F92409E" x="0" y="0" fill="#000000" fill-rule="nonzero"/></g><g transform="matrix(1 0 0 -1 66.0161875 69.002)"><use xlink:href="#gBFCC2410A697C41E2DD3187C83DA8F3" x="0" y="0" fill="#000000" fill-rule="nonzero"/></g><g transform="matrix(1 0 0 -1 71.0134875 66.285)"/><g transform="matrix(1 0 0 -1 73.7634875 66.285)"><use xlink:href="#g1570446F77F9A6C1B85605F46F92409E" x="0" y="0" fill="#000000" fill-rule="nonzero"/></g><g transform="matrix(1 0 0 -1 78.8894875 69.002)"><use xlink:href="#g25B224D96CA3F5CCC7E774117FEA026D" x="0" y="0" fill="#000000" fill-rule="nonzero"/></g><g transform="matrix(1 0 0 -1 83.8867875 66.285)"><use xlink:href="#gFF1EC1E3625C6E3C8EE7A324B4F795C4" x="0" y="0" fill="#000000" fill-rule="nonzero"/></g><g transform="matrix(1 0 0 -1 24.628 79.958)"><use xlink:href="#g9AFD227174B31EC8A3993A1F7D232D54" x="0" y="0" fill="#000000" fill-rule="nonzero"/></g><g transform="matrix(1 0 0 -1 36.948 79.958)"><use xlink:href="#gEFD6A37741EDB46D1C5C1B0AEAB33C8D" x="0" y="0" fill="#000000" fill-rule="nonzero"/><use xlink:href="#gC74EE0AF2B149D895BF9573AF08C8170" x="5.298046875" y="0" fill="#000000" fill-rule="nonzero"/><use xlink:href="#g18B0C645192E85FDD6BFE6E13B16D837" x="10.59609375" y="0" fill="#000000" fill-rule="nonzero"/><use xlink:href="#g18B0C645192E85FDD6BFE6E13B16D837" x="15.894140625" y="0" fill="#000000" fill-rule="nonzero"/><use xlink:href="#g1A903C34409188F68C004DCF51BB982B" x="21.1921875" y="0" fill="#000000" fill-rule="nonzero"/><use xlink:href="#gB01FA705E47A1B592BDD7941016195A5" x="26.490234375" y="0" fill="#000000" fill-rule="nonzero"/><use xlink:href="#gEFA11BCBF584E95CF54C8F85D9D572D2" x="31.78828125" y="0" fill="#000000" fill-rule="nonzero"/></g><g transform="matrix(1 0 0 -1 74.034328125 79.958)"/><g transform="matrix(1 0 0 -1 76.784328125 79.958)"><use xlink:href="#g7FDD4349A49914F62F30F23AE9794251" x="0" y="0" fill="#000000" fill-rule="nonzero"/></g><g transform="matrix(1 0 0 -1 83.076328125 79.958)"/><g transform="matrix(1 0 0 -1 85.826328125 79.958)"><use xlink:href="#g1570446F77F9A6C1B85605F46F92409E" x="0" y="0" fill="#000000" fill-rule="nonzero"/></g><g transform="matrix(1 0 0 -1 90.952328125 79.958)"><use xlink:href="#gFF1EC1E3625C6E3C8EE7A324B4F795C4" x="0" y="0" fill="#000000" fill-rule="nonzero"/></g><g transform="matrix(1 0 0 -1 24.628 93.631)"><use xlink:href="#g9AFD227174B31EC8A3993A1F7D232D54" x="0" y="0" fill="#000000" fill-rule="nonzero"/></g><g transform="matrix(1 0 0 -1 36.948 93.631)"><use xlink:href="#gEFD6A37741EDB46D1C5C1B0AEAB33C8D" x="0" y="0" fill="#000000" fill-rule="nonzero"/><use xlink:href="#g6BE3C26FC5C2EF394923021E65FF3629" x="5.298046875" y="0" fill="#000000" fill-rule="nonzero"/><use xlink:href="#gC74EE0AF2B149D895BF9573AF08C8170" x="10.59609375" y="0" fill="#000000" fill-rule="nonzero"/><use xlink:href="#gA3E8761BC1767EAE1C4DC702DAD043D4" x="15.894140625" y="0" fill="#000000" fill-rule="nonzero"/><use xlink:href="#g2D4F233067A158DA7E2B00C615A24811" x="21.1921875" y="0" fill="#000000" fill-rule="nonzero"/><use xlink:href="#g4F21559D411E52A0427C66D0631BE87E" x="26.490234375" y="0" fill="#000000" fill-rule="nonzero"/><use xlink:href="#gC74EE0AF2B149D895BF9573AF08C8170" x="31.78828125" y="0" fill="#000000" fill-rule="nonzero"/><use xlink:href="#gEFD6A37741EDB46D1C5C1B0AEAB33C8D" x="42.384375" y="0" fill="#000000" fill-rule="nonzero"/></g><g transform="matrix(1 0 0 -1 84.630421875 93.631)"><use xlink:href="#g7FDD4349A49914F62F30F23AE9794251" x="0" y="0" fill="#000000" fill-rule="nonzero"/></g><g transform="matrix(1 0 0 -1 90.922421875 93.631)"><use xlink:href="#gFF1EC1E3625C6E3C8EE7A324B4F795C4" x="0" y="0" fill="#000000" fill-rule="nonzero"/></g><g transform="matrix(1 0 0 -1 96.22046875 93.631)"/><g transform="matrix(1 0 0 -1 98.97046875 93.631)"><use xlink:href="#g1570446F77F9A6C1B85605F46F92409E" x="0" y="0" fill="#000000" fill-rule="nonzero"/></g><g transform="matrix(1 0 0 -1 104.09646875 93.631)"><use xlink:href="#gFF1EC1E3625C6E3C8EE7A324B4F795C4" x="0" y="0" fill="#000000" fill-rule="nonzero"/></g><g transform="matrix(1 0 0 -1 24.628 107.304)"><use xlink:href="#g9AFD227174B31EC8A3993A1F7D232D54" x="0" y="0" fill="#000000" fill-rule="nonzero"/></g><g transform="matrix(1 0 0 -1 36.948 107.304)"><use xlink:href="#gEFD6A37741EDB46D1C5C1B0AEAB33C8D" x="0" y="0" fill="#000000" fill-rule="nonzero"/><use xlink:href="#g6BE3C26FC5C2EF394923021E65FF3629" x="5.298046875" y="0" fill="#000000" fill-rule="nonzero"/><use xlink:href="#g4666C3926E6A15F65572DD76E569736D" x="10.59609375" y="0" fill="#000000" fill-rule="nonzero"/><use xlink:href="#g675CA31BB2862F44F71394188EA0CA51" x="15.894140625" y="0" fill="#000000" fill-rule="nonzero"/><use xlink:href="#gEB5263C984B3A13E014F4FD81EEB98D5" x="21.1921875" y="0" fill="#000000" fill-rule="nonzero"/><use xlink:href="#g4666C3926E6A15F65572DD76E569736D" x="26.490234375" y="0" fill="#000000" fill-rule="nonzero"/><use xlink:href="#g753B405C8BCF0E1C48C693507077AE03" x="31.78828125" y="0" fill="#000000" fill-rule="nonzero"/><use xlink:href="#gEFD6A37741EDB46D1C5C1B0AEAB33C8D" x="42.384375" y="0" fill="#000000" fill-rule="nonzero"/><use xlink:href="#gEFD6A37741EDB46D1C5C1B0AEAB33C8D" x="47.682421875" y="0" fill="#000000" fill-rule="nonzero"/></g><g transform="matrix(1 0 0 -1 89.92846875 107.304)"><use xlink:href="#g7FDD4349A49914F62F30F23AE9794251" x="0" y="0" fill="#000000" fill-rule="nonzero"/></g><g transform="matrix(1 0 0 -1 96.22046875 110.021)"><use xlink:href="#gBFCC2410A697C41E2DD3187C83DA8F3" x="0" y="0" fill="#000000" fill-rule="nonzero"/></g><g transform="matrix(1 0 0 -1 101.21776875 107.304)"/><g transform="matrix(1 0 0 -1 103.96776875 107.304)"><use xlink:href="#g1570446F77F9A6C1B85605F46F92409E" x="0" y="0" fill="#000000" fill-rule="nonzero"/></g><g transform="matrix(1 0 0 -1 109.09376875 110.021)"><use xlink:href="#gBFCC2410A697C41E2DD3187C83DA8F3" x="0" y="0" fill="#000000" fill-rule="nonzero"/></g><g transform="matrix(1 0 0 -1 114.09106875 107.304)"><use xlink:href="#gFF1EC1E3625C6E3C8EE7A324B4F795C4" x="0" y="0" fill="#000000" fill-rule="nonzero"/></g><g transform="matrix(1 0 0 -1 119.389115625 107.304)"/><g transform="matrix(1 0 0 -1 122.139115625 107.304)"><use xlink:href="#g2976B3AAA0F39836AD7567A346D43EF2" x="0" y="0" fill="#000000" fill-rule="nonzero"/></g><g transform="matrix(1 0 0 -1 131.346115625 107.304)"/><g transform="matrix(1 0 0 -1 134.096115625 107.304)"><use xlink:href="#gEFD6A37741EDB46D1C5C1B0AEAB33C8D" x="0" y="0" fill="#000000" fill-rule="nonzero"/></g><g transform="matrix(1 0 0 -1 139.3941625 107.304)"><use xlink:href="#g7FDD4349A49914F62F30F23AE9794251" x="0" y="0" fill="#000000" fill-rule="nonzero"/></g><g transform="matrix(1 0 0 -1 145.6861625 110.021)"><use xlink:href="#gE9D44E82A68222D85CCD65B2AB069D55" x="0" y="0" fill="#000000" fill-rule="nonzero"/></g><g transform="matrix(1 0 0 -1 151.7383625 107.304)"/><g transform="matrix(1 0 0 -1 154.4883625 107.304)"><use xlink:href="#g1570446F77F9A6C1B85605F46F92409E" x="0" y="0" fill="#000000" fill-rule="nonzero"/></g><g transform="matrix(1 0 0 -1 159.6143625 110.021)"><use xlink:href="#gE9D44E82A68222D85CCD65B2AB069D55" x="0" y="0" fill="#000000" fill-rule="nonzero"/></g><g transform="matrix(1 0 0 -1 165.6665625 107.304)"><use xlink:href="#gFF1EC1E3625C6E3C8EE7A324B4F795C4" x="0" y="0" fill="#000000" fill-rule="nonzero"/><use xlink:href="#gFF1EC1E3625C6E3C8EE7A324B4F795C4" x="5.298046875" y="0" fill="#000000" fill-rule="nonzero"/></g><g transform="matrix(1 0 0 -1 176.26265625 107.304)"/><g transform="matrix(1 0 0 -1 179.01265625 107.304)"><use xlink:href="#g1570446F77F9A6C1B85605F46F92409E" x="0" y="0" fill="#000000" fill-rule="nonzero"/></g><g transform="matrix(1 0 0 -1 184.13865625 107.304)"><use xlink:href="#gFF1EC1E3625C6E3C8EE7A324B4F795C4" x="0" y="0" fill="#000000" fill-rule="nonzero"/></g><g transform="matrix(1 0 0 -1 24.628 120.977)"><use xlink:href="#g9AFD227174B31EC8A3993A1F7D232D54" x="0" y="0" fill="#000000" fill-rule="nonzero"/></g><g transform="matrix(1 0 0 -1 36.948 120.977)"><use xlink:href="#gEFD6A37741EDB46D1C5C1B0AEAB33C8D" x="0" y="0" fill="#000000" fill-rule="nonzero"/><use xlink:href="#g753B405C8BCF0E1C48C693507077AE03" x="5.298046875" y="0" fill="#000000" fill-rule="nonzero"/><use xlink:href="#gC74EE0AF2B149D895BF9573AF08C8170" x="10.59609375" y="0" fill="#000000" fill-rule="nonzero"/><use xlink:href="#g6BE3C26FC5C2EF394923021E65FF3629" x="15.894140625" y="0" fill="#000000" fill-rule="nonzero"/><use xlink:href="#g6BE3C26FC5C2EF394923021E65FF3629" x="21.1921875" y="0" fill="#000000" fill-rule="nonzero"/></g><g transform="matrix(1 0 0 -1 63.438234375 120.977)"/><g transform="matrix(1 0 0 -1 66.188234375 120.977)"><use xlink:href="#g1570446F77F9A6C1B85605F46F92409E" x="0" y="0" fill="#000000" fill-rule="nonzero"/></g><g transform="matrix(1 0 0 -1 71.314234375 123.694)"><use xlink:href="#gCFFEDE9C82D78D7703A652B0C82EC869" x="0" y="0" fill="#000000" fill-rule="nonzero"/></g><g transform="matrix(1 0 0 -1 76.311534375 120.977)"/><g transform="matrix(1 0 0 -1 81.60958125 120.977)"><use xlink:href="#g1570446F77F9A6C1B85605F46F92409E" x="0" y="0" fill="#000000" fill-rule="nonzero"/></g><g transform="matrix(1 0 0 -1 86.73558125 123.694)"><use xlink:href="#gBFCC2410A697C41E2DD3187C83DA8F3" x="0" y="0" fill="#000000" fill-rule="nonzero"/></g><g transform="matrix(1 0 0 -1 91.73288125 120.977)"><use xlink:href="#gFF1EC1E3625C6E3C8EE7A324B4F795C4" x="0" y="0" fill="#000000" fill-rule="nonzero"/></g><defs><symbol id="g1570446F77F9A6C1B85605F46F92409E" overflow="visible"><path d="M 0 0m 1.364 1.419c 0 0.264 0.055 0.627 0.165 1.078h 0.539c 0.715 0 1.265 0.088 1.661 0.253c 0.363 0.154 0.605 0.374 0.726 0.649c 0.077 0.187 0.11 0.363 0.11 0.506c 0 0.605 -0.572 0.957 -1.188 0.957c -0.429 0 -0.858 -0.11 -1.287 -0.33c -0.847 -0.44 -1.584 -1.441 -1.584 -2.651c 0 -1.122 0.649 -2.002 1.738 -2.002c 0.583 0 1.1 0.143 1.551 0.418c 0.374 0.231 0.649 0.462 0.825 0.693c 0.077 0.099 0.11 0.176 0.11 0.209c 0 0.121 -0.055 0.187 -0.176 0.187c -0.055 0 -0.11 -0.044 -0.176 -0.132c -0.363 -0.484 -0.814 -0.792 -1.331 -0.924c -0.341 -0.088 -0.594 -0.132 -0.781 -0.132c -0.627 0 -0.902 0.594 -0.902 1.221Z m 2.761 2.486c 0 -0.726 -0.704 -1.089 -2.123 -1.089h -0.385c 0.209 0.726 0.517 1.21 0.935 1.441c 0.33 0.187 0.605 0.286 0.825 0.286c 0.396 0 0.748 -0.242 0.748 -0.638Z "/></symbol><symbol id="g53BD52A98D7FE43A4F5ED01B08879B5F" overflow="visible"><path d="M 0 0m 8.371 4.048h -3.828c -0.176 0 -0.264 -0.088 -0.264 -0.253c 0 -0.176 0.088 -0.264 0.264 -0.264h 3.828c 0.176 0 0.264 0.088 0.264 0.264c 0 0.132 -0.121 0.253 -0.264 0.253Z m 0 -2.079h -3.828c -0.176 0 -0.264 -0.088 -0.264 -0.264c 0 -0.165 0.088 -0.253 0.264 -0.253h 3.828c 0.176 0 0.264 0.088 0.264 0.253c 0 0.143 -0.121 0.264 -0.264 0.264Z m -4.686 2.057c 0 0.33 -0.286 0.616 -0.616 0.616c -0.352 0 -0.627 -0.264 -0.627 -0.616c 0 -0.341 0.286 -0.605 0.627 -0.605c 0.33 0 0.616 0.275 0.616 0.605Z m -1.826 0c 0 0.341 -0.286 0.616 -0.627 0.616c -0.341 0 -0.616 -0.275 -0.616 -0.616c 0 -0.33 0.286 -0.605 0.616 -0.605c 0.341 0 0.627 0.264 0.627 0.605Z m 1.826 -2.552c 0 0.33 -0.286 0.605 -0.616 0.605c -0.341 0 -0.627 -0.264 -0.627 -0.605c 0 -0.352 0.275 -0.616 0.627 -0.616c 0.341 0 0.616 0.275 0.616 0.616Z m -1.826 0c 0 0.341 -0.286 0.605 -0.627 0.605c -0.33 0 -0.616 -0.275 -0.616 -0.605c 0 -0.341 0.275 -0.616 0.616 -0.616c 0.352 0 0.627 0.264 0.627 0.616Z "/></symbol><symbol id="gEFD6A37741EDB46D1C5C1B0AEAB33C8D" overflow="visible"><path d="M 0 0m 3.802734375 6.67734375q -0.571484375 -0.9796875 -0.852929688 -1.952929688q -0.281445313 -0.973242188 -0.281445313 -1.961523438q 0 -0.983984375 0.281445313 -1.959375q 0.281445313 -0.975390625 0.852929688 -1.963671875h -0.6875q -0.648828125 1.02265625 -0.966796875 1.991601563q -0.31796875 0.968945313 -0.31796875 1.931445313q 0 0.958203125 0.31796875 1.929296875q 0.31796875 0.97109375 0.966796875 1.98515625h 0.6875Z "/></symbol><symbol id="g753B405C8BCF0E1C48C693507077AE03" overflow="visible"><path d="M 0 0m 4.558984375 0.244921875q -0.31796875 -0.184765625 -0.655273438 -0.277148438q -0.337304688 -0.092382813 -0.689648438 -0.092382813q -1.1171875 0 -1.746679688 0.6703125q -0.629492188 0.6703125 -0.629492188 1.85625q 0 1.1859375 0.629492188 1.85625q 0.629492188 0.6703125 1.746679688 0.6703125q 0.348046875 0 0.67890625 -0.090234375q 0.330859375 -0.090234375 0.666015625 -0.279296875v -0.829296875q -0.313671875 0.279296875 -0.629492188 0.40390625q -0.315820313 0.124609375 -0.715429688 0.124609375q -0.743359375 0 -1.14296875 -0.48125q -0.399609375 -0.48125 -0.399609375 -1.375q 0 -0.889453125 0.401757813 -1.372851563q 0.401757813 -0.483398438 1.140820313 -0.483398438q 0.4125 0 0.7390625 0.126757813q 0.3265625 0.126757813 0.605859375 0.393164063v -0.820703125Z "/></symbol><symbol id="g8E43F24E687DFBB5D1E5526D8DC9339C" overflow="visible"><path d="M 0 0m 2.646875 4.258203125q -0.6015625 0 -0.9109375 -0.468359375q -0.309375 -0.468359375 -0.309375 -1.387890625q 0 -0.915234375 0.309375 -1.385742188q 0.309375 -0.470507813 0.9109375 -0.470507813q 0.605859375 0 0.915234375 0.470507813q 0.309375 0.470507813 0.309375 1.385742188q 0 0.91953125 -0.309375 1.387890625q -0.309375 0.468359375 -0.915234375 0.468359375Z m 0 0.6703125q 1.001171875 0 1.531835938 -0.648828125q 0.530664063 -0.648828125 0.530664063 -1.877734375q 0 -1.233203125 -0.528515625 -1.879882813q -0.528515625 -0.646679688 -1.533984375 -0.646679688q -1.001171875 0 -1.5296875 0.646679688q -0.528515625 0.646679688 -0.528515625 1.879882813q 0 1.22890625 0.528515625 1.877734375q 0.528515625 0.648828125 1.5296875 0.648828125Z "/></symbol><symbol id="gEFA11BCBF584E95CF54C8F85D9D572D2" overflow="visible"><path d="M 0 0m 4.516015625 2.98203125v -2.98203125h -0.794921875v 2.98203125q 0 0.648828125 -0.227734375 0.95390625q -0.227734375 0.305078125 -0.71328125 0.305078125q -0.554296875 0 -0.852929688 -0.393164063q -0.298632813 -0.393164063 -0.298632813 -1.127929688v -2.719921875h -0.790625v 4.8125h 0.790625v -0.721875q 0.210546875 0.4125 0.571484375 0.625195313q 0.3609375 0.212695313 0.855078125 0.212695313q 0.734765625 0 1.097851563 -0.483398438q 0.363085938 -0.483398438 0.363085938 -1.463085938Z "/></symbol><symbol id="g18B0C645192E85FDD6BFE6E13B16D837" overflow="visible"><path d="M 0 0m 4.180859375 4.644921875v -0.7734375q -0.339453125 0.19765625 -0.683203125 0.296484375q -0.34375 0.098828125 -0.700390625 0.098828125q -0.537109375 0 -0.801367188 -0.174023438q -0.264257813 -0.174023438 -0.264257813 -0.530664063q 0 -0.322265625 0.19765625 -0.48125q 0.19765625 -0.158984375 0.983984375 -0.309375l 0.31796875 -0.06015625q 0.588671875 -0.11171875 0.891601563 -0.446875q 0.302929688 -0.33515625 0.302929688 -0.872265625q 0 -0.71328125 -0.50703125 -1.115039063q -0.50703125 -0.401757813 -1.409375 -0.401757813q -0.356640625 0 -0.74765625 0.075195313q -0.391015625 0.075195313 -0.846484375 0.225585938v 0.81640625q 0.442578125 -0.227734375 0.846484375 -0.341601563q 0.40390625 -0.113867188 0.76484375 -0.113867188q 0.52421875 0 0.812109375 0.212695313q 0.287890625 0.212695313 0.287890625 0.595117188q 0 0.55 -1.052734375 0.760546875l -0.034375 0.00859375l -0.296484375 0.06015625q -0.683203125 0.133203125 -0.996875 0.449023438q -0.313671875 0.315820313 -0.313671875 0.861523438q 0 0.691796875 0.468359375 1.067773438q 0.468359375 0.375976563 1.336328125 0.375976563q 0.38671875 0 0.743359375 -0.070898438q 0.356640625 -0.070898438 0.700390625 -0.212695313Z "/></symbol><symbol id="g675CA31BB2862F44F71394188EA0CA51" overflow="visible"><path d="M 0 0m 2.63828125 6.17890625v -1.36640625h 1.79609375v -0.614453125h -1.79609375v -2.6125q 0 -0.5328125 0.201953125 -0.743359375q 0.201953125 -0.210546875 0.7046875 -0.210546875h 0.889453125v -0.631640625h -0.966796875q -0.889453125 0 -1.2546875 0.356640625q -0.365234375 0.356640625 -0.365234375 1.22890625v 2.6125h -1.284765625v 0.614453125h 1.284765625v 1.36640625h 0.790625Z "/></symbol><symbol id="g40FE25E54F5492ED24B9F95C84D97EA9" overflow="visible"><path d="M 0 0m 3.608 3.575c 0 -0.275 0.143 -0.418 0.44 -0.418c 0.396 0 0.649 0.341 0.649 0.737c 0 0.616 -0.649 0.968 -1.309 0.968c -0.759 0 -1.452 -0.33 -2.046 -0.979c -0.594 -0.649 -0.891 -1.364 -0.891 -2.134c 0 -1.078 0.715 -1.87 1.793 -1.87c 0.583 0 1.1 0.143 1.551 0.418c 0.374 0.231 0.649 0.462 0.825 0.693c 0.077 0.099 0.11 0.176 0.11 0.209c 0 0.121 -0.055 0.187 -0.176 0.187c -0.055 0 -0.11 -0.044 -0.176 -0.132c -0.363 -0.484 -0.814 -0.792 -1.331 -0.924c -0.341 -0.088 -0.594 -0.132 -0.781 -0.132c -0.627 0 -0.935 0.385 -0.935 1.144c 0 0.682 0.319 1.672 0.583 2.145c 0.264 0.484 0.825 1.056 1.474 1.056c 0.418 0 0.704 -0.121 0.858 -0.352c -0.341 -0.033 -0.638 -0.253 -0.638 -0.616Z "/></symbol><symbol id="gFF1EC1E3625C6E3C8EE7A324B4F795C4" overflow="visible"><path d="M 0 0m 1.4953125 6.67734375h 0.6875q 0.648828125 -1.0140625 0.966796875 -1.98515625q 0.31796875 -0.97109375 0.31796875 -1.929296875q 0 -0.966796875 -0.31796875 -1.937890625q -0.31796875 -0.97109375 -0.966796875 -1.98515625h -0.6875q 0.571484375 0.996875 0.852929688 1.972265625q 0.281445313 0.975390625 0.281445313 1.95078125q 0 0.9796875 -0.281445313 1.955078125q -0.281445313 0.975390625 -0.852929688 1.959375Z "/></symbol><symbol id="g9AFD227174B31EC8A3993A1F7D232D54" overflow="visible"><path d="M 0 0m 1.529 -2.75c 0.143 0 0.22 0.088 0.22 0.264v 10.472c 0 0.176 -0.077 0.264 -0.22 0.264c -0.143 0 -0.22 -0.088 -0.22 -0.264v -10.472c 0 -0.176 0.077 -0.264 0.22 -0.264Z "/></symbol><symbol id="gEB5263C984B3A13E014F4FD81EEB98D5" overflow="visible"><path d="M 0 0m 4.962890625 3.819921875q -0.253515625 0.19765625 -0.515625 0.287890625q -0.262109375 0.090234375 -0.57578125 0.090234375q -0.7390625 0 -1.130078125 -0.4640625q -0.391015625 -0.4640625 -0.391015625 -1.340625v -2.393359375h -0.794921875v 4.8125h 0.794921875v -0.941015625q 0.19765625 0.511328125 0.608007813 0.784179688q 0.410351563 0.272851563 0.973242188 0.272851563q 0.2921875 0 0.545703125 -0.073046875q 0.253515625 -0.073046875 0.485546875 -0.227734375v -0.8078125Z "/></symbol><symbol id="g4666C3926E6A15F65572DD76E569736D" overflow="visible"><path d="M 0 0m 4.778125 2.60390625v -0.38671875h -3.424609375v -0.02578125q 0 -0.786328125 0.410351563 -1.216015625q 0.410351563 -0.4296875 1.158007813 -0.4296875q 0.378125 0 0.790625 0.1203125q 0.4125 0.1203125 0.880859375 0.365234375v -0.786328125q -0.451171875 -0.184765625 -0.870117188 -0.277148438q -0.418945313 -0.092382813 -0.809960938 -0.092382813q -1.121484375 0 -1.753125 0.672460938q -0.631640625 0.672460938 -0.631640625 1.854101563q 0 1.1515625 0.61875 1.8390625q 0.61875 0.6875 1.65 0.6875q 0.91953125 0 1.450195313 -0.623046875q 0.530664063 -0.623046875 0.530664063 -1.7015625Z m -0.790625 0.23203125q -0.0171875 0.69609375 -0.328710938 1.059179688q -0.311523438 0.363085938 -0.895898438 0.363085938q -0.571484375 0 -0.941015625 -0.378125q -0.36953125 -0.378125 -0.43828125 -1.0484375l 2.60390625 0.004296875Z "/></symbol><symbol id="g6EBB5B97B43B5068D9B5D10D16E84305" overflow="visible"><path d="M 0 0m 4.567578125 6.6859375v -0.657421875h -0.898046875q -0.425390625 0 -0.590820313 -0.174023438q -0.165429688 -0.174023438 -0.165429688 -0.616601563v -0.425390625h 1.654296875v -0.614453125h -1.654296875v -4.198046875h -0.790625v 4.198046875h -1.284765625v 0.614453125h 1.284765625v 0.33515625q 0 0.790625 0.363085938 1.164453125q 0.363085938 0.373828125 1.132226563 0.373828125h 0.949609375Z "/></symbol><symbol id="g7FDD4349A49914F62F30F23AE9794251" overflow="visible"><path d="M 0 0m 5.797 4.103c 0 0.506 -0.495 0.759 -1.045 0.759c -0.473 0 -0.847 -0.253 -1.133 -0.759c -0.231 0.506 -0.616 0.759 -1.177 0.759c -0.539 0 -0.979 -0.253 -1.331 -0.748c -0.297 -0.429 -0.451 -0.748 -0.451 -0.957c 0 -0.099 0.055 -0.154 0.165 -0.154c 0.099 0 0.165 0.055 0.187 0.154c 0.209 0.638 0.671 1.386 1.408 1.386c 0.363 0 0.539 -0.231 0.539 -0.682c 0 -0.231 -0.198 -1.089 -0.583 -2.563c -0.187 -0.737 -0.517 -1.1 -0.99 -1.1c -0.154 0 -0.297 0.033 -0.418 0.088c 0.286 0.11 0.429 0.308 0.429 0.594c 0 0.286 -0.143 0.429 -0.44 0.429c -0.363 0 -0.638 -0.308 -0.638 -0.671c 0 -0.506 0.517 -0.759 1.056 -0.759c 0.462 0 0.836 0.253 1.133 0.759c 0.209 -0.506 0.605 -0.759 1.177 -0.759c 0.528 0 0.968 0.253 1.32 0.748c 0.297 0.429 0.451 0.748 0.451 0.957c 0 0.099 -0.055 0.154 -0.165 0.154c -0.099 0 -0.154 -0.055 -0.187 -0.154c -0.187 -0.627 -0.682 -1.386 -1.397 -1.386c -0.363 0 -0.55 0.22 -0.55 0.671c 0 0.143 0.055 0.451 0.176 0.946l 0.374 1.485c 0.209 0.825 0.55 1.243 1.034 1.243c 0.154 0 0.297 -0.033 0.418 -0.088c -0.297 -0.099 -0.44 -0.297 -0.44 -0.594c 0 -0.286 0.154 -0.429 0.451 -0.429c 0.352 0 0.627 0.319 0.627 0.671Z "/></symbol><symbol id="gD614C08D1BB1FD9302C3FBF69C3A24A9" overflow="visible"><path d="M 0 0m 1.611328125 0.605859375v -2.436328125h -0.794921875v 6.64296875h 0.794921875v -0.614453125q 0.19765625 0.356640625 0.526367188 0.543554688q 0.328710938 0.186914063 0.758398438 0.186914063q 0.872265625 0 1.368554688 -0.674609375q 0.496289063 -0.674609375 0.496289063 -1.869140625q 0 -1.173046875 -0.4984375 -1.841210938q -0.4984375 -0.668164063 -1.36640625 -0.668164063q -0.43828125 0 -0.766992188 0.186914063q -0.328710938 0.186914063 -0.517773438 0.543554688Z m 2.3203125 1.79609375q 0 0.91953125 -0.290039063 1.387890625q -0.290039063 0.468359375 -0.861523438 0.468359375q -0.57578125 0 -0.872265625 -0.470507813q -0.296484375 -0.470507813 -0.296484375 -1.385742188q 0 -0.9109375 0.296484375 -1.38359375q 0.296484375 -0.47265625 0.872265625 -0.47265625q 0.571484375 0 0.861523438 0.468359375q 0.290039063 0.468359375 0.290039063 1.387890625Z "/></symbol><symbol id="g1A903C34409188F68C004DCF51BB982B" overflow="visible"><path d="M 0 0m 1.1 4.8125h 2.023828125v -4.198046875h 1.568359375v -0.614453125h -3.92734375v 0.614453125h 1.568359375v 3.58359375h -1.233203125v 0.614453125Z m 1.233203125 1.8734375h 0.790625v -1.001171875h -0.790625v 1.001171875Z "/></symbol><symbol id="gA3E8761BC1767EAE1C4DC702DAD043D4" overflow="visible"><path d="M 0 0m 2.9046875 4.32265625q 0.14609375 0.309375 0.371679688 0.457617188q 0.225585938 0.148242188 0.543554688 0.148242188q 0.580078125 0 0.818554688 -0.449023438q 0.238476563 -0.449023438 0.238476563 -1.690820313v -2.788671875h -0.721875v 2.754296875q 0 1.018359375 -0.113867188 1.265429688q -0.113867188 0.247070313 -0.414648438 0.247070313q -0.34375 0 -0.470507813 -0.264257813q -0.126757813 -0.264257813 -0.126757813 -1.248242188v -2.754296875h -0.721875v 2.754296875q 0 1.03125 -0.122460938 1.271875q -0.122460938 0.240625 -0.440429688 0.240625q -0.313671875 0 -0.436132813 -0.264257813q -0.122460938 -0.264257813 -0.122460938 -1.248242188v -2.754296875h -0.717578125v 4.8125h 0.717578125v -0.4125q 0.141796875 0.2578125 0.354492188 0.393164063q 0.212695313 0.135351563 0.483398438 0.135351563q 0.3265625 0 0.543554688 -0.150390625q 0.216992188 -0.150390625 0.337304688 -0.45546875Z "/></symbol><symbol id="gB7D1E2CC5BEFB1BAD32905121AEF9EA" overflow="visible"><path d="M 0 0m 3.905 4.862c -0.484 0 -0.946 -0.253 -1.397 -0.759c -0.121 0.506 -0.462 0.759 -1.001 0.759c -0.451 0 -0.781 -0.363 -1.012 -1.078c -0.11 -0.363 -0.165 -0.572 -0.165 -0.638c 0 -0.099 0.055 -0.154 0.176 -0.154c 0.055 0 0.088 0.011 0.121 0.033c 0.055 0.099 0.088 0.176 0.099 0.253c 0.198 0.836 0.451 1.254 0.748 1.254c 0.198 0 0.297 -0.154 0.297 -0.451c 0 -0.165 -0.022 -0.352 -0.077 -0.55l -1.21 -4.829c -0.099 -0.363 -0.11 -0.407 -0.539 -0.407c -0.198 0 -0.297 -0.088 -0.297 -0.253c 0 -0.121 0.066 -0.176 0.187 -0.176c 0.165 0 0.737 0.033 0.902 0.033c 0.209 0 0.869 -0.033 1.078 -0.033c 0.165 0 0.242 0.088 0.242 0.264c 0 0.11 -0.099 0.165 -0.308 0.165c -0.198 0 -0.495 -0.011 -0.495 0.121c 0 0.143 0.451 1.87 0.495 2.057c 0.22 -0.407 0.55 -0.616 0.99 -0.616c 0.715 0 1.342 0.363 1.892 1.1c 0.506 0.671 0.759 1.386 0.759 2.123c 0 0.957 -0.572 1.782 -1.485 1.782Z m -0.033 -0.33c 0.429 0 0.649 -0.33 0.649 -0.979c 0 -0.297 -0.066 -0.693 -0.187 -1.188c -0.253 -0.957 -0.572 -1.584 -0.957 -1.903c -0.231 -0.187 -0.44 -0.286 -0.649 -0.286c -0.319 0 -0.539 0.143 -0.66 0.44c -0.099 0.231 -0.154 0.396 -0.154 0.484l 0.561 2.299c 0.055 0.242 0.253 0.495 0.561 0.748c 0.308 0.253 0.583 0.385 0.836 0.385Z "/></symbol><symbol id="gBFCC2410A697C41E2DD3187C83DA8F3" overflow="visible"><path d="M 0 0m 2.3331 5.1128c -0.3311 -0.3234 -0.8239 -0.4851 -1.4938 -0.4851v -0.3388c 0.4543 0 0.8162 0.0693 1.0934 0.2002v -3.8346c 0 -0.1001 -0.0077 -0.1617 -0.0308 -0.1925c -0.0385 -0.0847 -0.2695 -0.1309 -0.693 -0.1309h -0.3157v -0.3311l 1.3706 0.0308l 1.3783 -0.0308v 0.3311h -0.3157c -0.4235 0 -0.6545 0.0462 -0.7007 0.1309c -0.0154 0.0308 -0.0231 0.0924 -0.0231 0.1925v 4.2119c 0 0.2079 -0.0308 0.2464 -0.2695 0.2464Z "/></symbol><symbol id="g25B224D96CA3F5CCC7E774117FEA026D" overflow="visible"><path d="M 0 0m 0.9163 3.2648c 0.2464 0 0.4312 0.1848 0.4312 0.4312c 0 0.2772 -0.1463 0.4235 -0.4312 0.4312c 0.1694 0.3619 0.5544 0.6545 1.0549 0.6545c 0.6776 0 1.1242 -0.5082 1.1242 -1.1858c 0 -0.3696 -0.1309 -0.7238 -0.4004 -1.0703c -0.1309 -0.1771 -0.231 -0.3003 -0.3003 -0.3696l -1.8249 -1.8095c -0.1001 -0.0924 -0.0847 -0.1155 -0.0847 -0.3465h 3.1724l 0.2387 1.4476h -0.3234c -0.0539 -0.4081 -0.1155 -0.6468 -0.1848 -0.7007c -0.0385 -0.0231 -0.2772 -0.0385 -0.7315 -0.0385h -1.309c 0.5159 0.4543 0.9933 0.8624 1.4476 1.2243c 0.3465 0.2695 0.5929 0.5082 0.7469 0.7161c 0.231 0.3003 0.3465 0.616 0.3465 0.9471c 0 0.4774 -0.1848 0.8547 -0.5621 1.1319c -0.3311 0.2541 -0.7469 0.385 -1.2397 0.385c -0.4235 0 -0.7854 -0.1232 -1.1011 -0.3696c -0.3311 -0.2695 -0.5005 -0.6083 -0.5005 -1.0241c 0 -0.2618 0.1925 -0.4543 0.4312 -0.4543Z "/></symbol><symbol id="g777C235EA19CAB599B58B593B0044621" overflow="visible"><path d="M 0 0m 2.7181 2.7181c 0.5159 0.2079 1.0087 0.6622 1.0087 1.3167c 0 0.3465 -0.1848 0.6237 -0.5467 0.8239c -0.3003 0.1694 -0.6391 0.2541 -1.0164 0.2541c -0.3773 0 -0.7084 -0.077 -0.9933 -0.2387c -0.3465 -0.1925 -0.5236 -0.462 -0.5236 -0.8085c 0 -0.2926 0.1463 -0.4389 0.4312 -0.4389c 0.2387 0 0.4158 0.1848 0.4158 0.4235c 0 0.2387 -0.1232 0.3773 -0.3619 0.4158c 0.2233 0.2387 0.5544 0.3619 1.0087 0.3619c 0.5005 0 0.7854 -0.3003 0.7854 -0.7931c 0 -0.3619 -0.1001 -0.6545 -0.2926 -0.8855c -0.2156 -0.2541 -0.3696 -0.2926 -0.8162 -0.3234c -0.2079 -0.0154 -0.3465 0.0077 -0.3465 -0.1463c 0 -0.0924 0.077 -0.1386 0.2233 -0.1386h 0.4081c 0.6622 0 0.9856 -0.5005 0.9856 -1.1935c 0 -0.6776 -0.308 -1.1935 -0.9548 -1.1935c -0.5621 0 -0.9702 0.154 -1.2243 0.4697c 0.2695 0.0308 0.4081 0.1848 0.4081 0.4543c 0 0.2541 -0.1925 0.4466 -0.4466 0.4466c -0.3003 0 -0.4543 -0.154 -0.4543 -0.4697c 0 -0.3927 0.2002 -0.7084 0.5929 -0.9317c 0.3311 -0.1848 0.7084 -0.2772 1.1396 -0.2772c 0.4697 0 0.8778 0.1309 1.232 0.3927c 0.385 0.2849 0.5775 0.6545 0.5775 1.1088c 0 0.7161 -0.6237 1.2089 -1.2397 1.3706Z "/></symbol><symbol id="g4DBC9FFEE1FA47B29D44E4FB1D228A46" overflow="visible"><path d="M 0 0m 1.4265625 2.384765625q 0 -0.91953125 0.290039063 -1.387890625q 0.290039063 -0.468359375 0.861523438 -0.468359375q 0.571484375 0 0.865820313 0.470507813q 0.294335938 0.470507813 0.294335938 1.385742188q 0 0.915234375 -0.294335938 1.385742188q -0.294335938 0.470507813 -0.865820313 0.470507813q -0.571484375 0 -0.861523438 -0.468359375q -0.290039063 -0.468359375 -0.290039063 -1.387890625Z m 2.31171875 -1.7875q -0.193359375 -0.356640625 -0.522070313 -0.547851563q -0.328710938 -0.191210938 -0.762695313 -0.191210938q -0.863671875 0 -1.364257813 0.668164063q -0.500585938 0.668164063 -0.500585938 1.841210938q 0 1.19453125 0.4984375 1.869140625q 0.4984375 0.674609375 1.36640625 0.674609375q 0.4296875 0 0.758398438 -0.186914063q 0.328710938 -0.186914063 0.526367188 -0.543554688v 0.614453125h 0.794921875v -6.64296875h -0.794921875v 2.444921875Z "/></symbol><symbol id="gC74EE0AF2B149D895BF9573AF08C8170" overflow="visible"><path d="M 0 0m 3.01640625 2.419140625h -0.262109375q -0.691796875 0 -1.041992188 -0.242773438q -0.350195313 -0.242773438 -0.350195313 -0.724023438q 0 -0.433984375 0.262109375 -0.674609375q 0.262109375 -0.240625 0.726171875 -0.240625q 0.653125 0 1.026953125 0.453320313q 0.373828125 0.453320313 0.378125 1.252539063v 0.176171875h -0.7390625Z m 1.533984375 0.3265625v -2.745703125h -0.794921875v 0.71328125q -0.253515625 -0.4296875 -0.638085938 -0.633789063q -0.384570313 -0.204101563 -0.934570313 -0.204101563q -0.734765625 0 -1.173046875 0.414648438q -0.43828125 0.414648438 -0.43828125 1.110742188q 0 0.803515625 0.539257813 1.2203125q 0.539257813 0.416796875 1.583398438 0.416796875h 1.061328125v 0.124609375q -0.004296875 0.57578125 -0.2921875 0.835742188q -0.287890625 0.259960938 -0.91953125 0.259960938q -0.40390625 0 -0.81640625 -0.116015625q -0.4125 -0.116015625 -0.803515625 -0.339453125v 0.790625q 0.43828125 0.167578125 0.840039063 0.251367188q 0.401757813 0.083789063 0.779882813 0.083789063q 0.597265625 0 1.020507813 -0.176171875q 0.423242188 -0.176171875 0.685351563 -0.528515625q 0.16328125 -0.21484375 0.23203125 -0.530664063q 0.06875 -0.315820313 0.06875 -0.947460938Z "/></symbol><symbol id="gB01FA705E47A1B592BDD7941016195A5" overflow="visible"><path d="M 0 0m 3.68671875 2.444921875q 0 0.889453125 -0.290039063 1.351367188q -0.290039063 0.461914063 -0.844335938 0.461914063q -0.580078125 0 -0.88515625 -0.461914063q -0.305078125 -0.461914063 -0.305078125 -1.351367188q 0 -0.889453125 0.307226563 -1.355664063q 0.307226563 -0.466210938 0.891601563 -0.466210938q 0.545703125 0 0.835742188 0.468359375q 0.290039063 0.468359375 0.290039063 1.353515625Z m 0.790625 -2.135546875q 0 -1.0828125 -0.511328125 -1.64140625q -0.511328125 -0.55859375 -1.50390625 -0.55859375q -0.3265625 0 -0.683203125 0.06015625q -0.356640625 0.06015625 -0.71328125 0.176171875v 0.78203125q 0.42109375 -0.19765625 0.76484375 -0.2921875q 0.34375 -0.09453125 0.631640625 -0.09453125q 0.640234375 0 0.932421875 0.348046875q 0.2921875 0.348046875 0.2921875 1.104296875v 0.034375v 0.537109375q -0.1890625 -0.40390625 -0.515625 -0.6015625q -0.3265625 -0.19765625 -0.794921875 -0.19765625q -0.8421875 0 -1.344921875 0.674609375q -0.502734375 0.674609375 -0.502734375 1.8046875q 0 1.134375 0.502734375 1.808984375q 0.502734375 0.674609375 1.344921875 0.674609375q 0.4640625 0 0.786328125 -0.184765625q 0.322265625 -0.184765625 0.52421875 -0.571484375v 0.623046875h 0.790625v -4.4859375Z "/></symbol><symbol id="g6BE3C26FC5C2EF394923021E65FF3629" overflow="visible"><path d="M 0 0m 2.745703125 1.74453125q 0 -0.5328125 0.195507813 -0.803515625q 0.195507813 -0.270703125 0.577929688 -0.270703125h 0.923828125v -0.6703125h -1.001171875q -0.708984375 0 -1.097851563 0.45546875q -0.388867188 0.45546875 -0.388867188 1.2890625v 4.369921875h -1.267578125v 0.61875h 2.058203125v -4.988671875Z "/></symbol><symbol id="g2D4F233067A158DA7E2B00C615A24811" overflow="visible"><path d="M 0 0m 3.94453125 2.401953125q 0 0.91953125 -0.2921875 1.387890625q -0.2921875 0.468359375 -0.863671875 0.468359375q -0.57578125 0 -0.872265625 -0.470507813q -0.296484375 -0.470507813 -0.296484375 -1.385742188q 0 -0.9109375 0.296484375 -1.38359375q 0.296484375 -0.47265625 0.872265625 -0.47265625q 0.571484375 0 0.863671875 0.468359375q 0.2921875 0.468359375 0.2921875 1.387890625Z m -2.324609375 1.79609375q 0.1890625 0.35234375 0.522070313 0.54140625q 0.333007813 0.1890625 0.771289063 0.1890625q 0.86796875 0 1.36640625 -0.668164063q 0.4984375 -0.668164063 0.4984375 -1.841210938q 0 -1.190234375 -0.500585938 -1.866992188q -0.500585938 -0.676757813 -1.372851563 -0.676757813q -0.4296875 0 -0.758398438 0.186914063q -0.328710938 0.186914063 -0.526367188 0.543554688v -0.605859375h -0.790625v 6.6859375h 0.790625v -2.487890625Z "/></symbol><symbol id="g4F21559D411E52A0427C66D0631BE87E" overflow="visible"><path d="M 0 0m 3.68671875 4.198046875v 2.487890625h 0.790625v -6.6859375h -0.790625v 0.605859375q -0.19765625 -0.356640625 -0.526367188 -0.543554688q -0.328710938 -0.186914063 -0.758398438 -0.186914063q -0.872265625 0 -1.372851563 0.676757813q -0.500585938 0.676757813 -0.500585938 1.866992188q 0 1.173046875 0.502734375 1.841210938q 0.502734375 0.668164063 1.370703125 0.668164063q 0.433984375 0 0.76484375 -0.186914063q 0.330859375 -0.186914063 0.519921875 -0.543554688Z m -2.324609375 -1.79609375q 0 -0.91953125 0.2921875 -1.387890625q 0.2921875 -0.468359375 0.863671875 -0.468359375q 0.571484375 0 0.870117188 0.47265625q 0.298632813 0.47265625 0.298632813 1.38359375q 0 0.915234375 -0.298632813 1.385742188q -0.298632813 0.470507813 -0.870117188 0.470507813q -0.571484375 0 -0.863671875 -0.468359375q -0.2921875 -0.468359375 -0.2921875 -1.387890625Z "/></symbol><symbol id="g2976B3AAA0F39836AD7567A346D43EF2" overflow="visible"><path d="M 0 0m 8.261 0.583c 0 0.33 -0.286 0.583 -0.616 0.583c -0.341 0 -0.627 -0.253 -0.627 -0.583c 0 -0.33 0.286 -0.583 0.627 -0.583c 0.33 0 0.616 0.253 0.616 0.583Z m -3.036 0c 0 0.33 -0.286 0.583 -0.616 0.583c -0.341 0 -0.616 -0.253 -0.616 -0.583c 0 -0.33 0.275 -0.583 0.616 -0.583c 0.33 0 0.616 0.253 0.616 0.583Z m -3.025 0c 0 0.33 -0.286 0.583 -0.627 0.583c -0.33 0 -0.616 -0.253 -0.616 -0.583c 0 -0.33 0.286 -0.583 0.616 -0.583c 0.33 0 0.627 0.253 0.627 0.583Z "/></symbol><symbol id="gE9D44E82A68222D85CCD65B2AB069D55" overflow="visible"><path d="M 0 0m 1.2628 3.3957c -0.2541 0 -0.462 -0.1386 -0.6237 -0.4235c -0.1078 -0.1925 -0.1925 -0.3927 -0.2464 -0.616c -0.0231 -0.0847 -0.0308 -0.1309 -0.0308 -0.1463c 0 -0.0847 0.0539 -0.1309 0.1617 -0.1309c 0.1463 0 0.154 0.0847 0.1925 0.2464c 0.1309 0.5313 0.308 0.8008 0.5313 0.8008c 0.1463 0 0.2156 -0.1155 0.2156 -0.3465c 0 -0.0847 -0.0385 -0.2849 -0.1232 -0.616l -0.4081 -1.6478c -0.0539 -0.2079 -0.077 -0.3157 -0.077 -0.3234c 0 -0.1771 0.1001 -0.2695 0.2926 -0.2695c 0.1463 0 0.2541 0.0616 0.3234 0.1848c 0.0231 0.0462 0.0693 0.2079 0.1386 0.4774l 0.1617 0.6776c 0.0924 0.3619 0.1463 0.5621 0.1617 0.6083c 0.0616 0.2002 0.154 0.3927 0.2849 0.5698c 0.3234 0.4543 0.693 0.6853 1.1165 0.6853c 0.2772 0 0.4158 -0.1694 0.4158 -0.5005c 0 -0.3003 -0.1463 -0.8316 -0.4466 -1.6016c -0.077 -0.2002 -0.1155 -0.3388 -0.1155 -0.4235c 0 -0.4158 0.3388 -0.6776 0.7546 -0.6776c 0.3619 0 0.6545 0.1848 0.8624 0.5544c 0.1771 0.3157 0.2618 0.5236 0.2618 0.6314c 0 0.0847 -0.0539 0.1309 -0.154 0.1309c -0.0539 -0.0077 -0.1078 -0.0462 -0.1617 -0.1232c -0.0077 -0.0077 -0.0077 -0.0231 -0.0077 -0.0308c -0.1771 -0.5929 -0.4389 -0.8932 -0.7777 -0.8932c -0.1078 0 -0.1617 0.077 -0.1617 0.2387c 0 0.1078 0.0616 0.308 0.1771 0.6006c 0.2695 0.6853 0.4004 1.1781 0.4004 1.4707c 0 0.3542 -0.1232 0.6006 -0.3619 0.7315c -0.1925 0.1078 -0.4158 0.1617 -0.6545 0.1617c -0.5005 0 -0.924 -0.2156 -1.2628 -0.6468c -0.0693 0.3773 -0.4004 0.6468 -0.8393 0.6468Z "/></symbol><symbol id="gCFFEDE9C82D78D7703A652B0C82EC869" overflow="visible"><path d="M 0 0m 3.9732 2.4563c 0 0.8701 -0.154 1.5323 -0.4543 1.9866c -0.2464 0.385 -0.7392 0.6699 -1.3321 0.6699c -0.2464 0 -0.4697 -0.0385 -0.6622 -0.1232c -0.847 -0.3542 -1.1242 -1.3398 -1.1242 -2.5333c 0 -0.2618 0.0154 -0.5082 0.0385 -0.7469c 0.1309 -1.0087 0.6006 -1.8634 1.7479 -1.8634c 0.2464 0 0.4697 0.0385 0.6622 0.1232c 0.847 0.3465 1.1242 1.309 1.1242 2.4871Z m -0.8778 1.7094c 0.0847 -0.2849 0.1309 -0.8162 0.1309 -1.6093c 0 -0.7546 -0.0308 -1.2859 -0.1001 -1.6016c -0.0924 -0.4543 -0.4158 -0.8316 -0.9394 -0.8316c -0.1925 0 -0.385 0.0616 -0.5621 0.1925c -0.2387 0.1771 -0.385 0.5236 -0.4466 1.0549c -0.0231 0.1771 -0.0308 0.5698 -0.0308 1.1858c 0 0.7469 0.0385 1.2628 0.1155 1.54c 0.1309 0.4928 0.4389 0.7392 0.924 0.7392c 0.462 0 0.8008 -0.3003 0.9086 -0.6699Z "/></symbol></defs></svg>