<?xml version="1.0" encoding="UTF-8" standalone="no"?>
<!DOCTYPE svg PUBLIC "-//W3C//DTD SVG 1.1//EN" "http://www.w3.org/Graphics/SVG/1.1/DTD/svg11.dtd">
<svg width="100%" height="100%" viewBox="0 0 1617 1111" version="1.1" xmlns="http://www.w3.org/2000/svg" xmlns:xlink="http://www.w3.org/1999/xlink" xml:space="preserve" xmlns:serif="http://www.serif.com/" style="fill-rule:evenodd;clip-rule:evenodd;stroke-miterlimit:10;">
    <g transform="matrix(1,0,0,1,-252.899,-1165.12)">
        <g transform="matrix(4.16667,0,0,4.16667,0,0)">
            <clipPath id="_clip1">
                <rect x="59.924" y="278.59" width="386.362" height="267.477" clip-rule="nonzero"/>
            </clipPath>
            <g clip-path="url(#_clip1)">
                <g transform="matrix(0,-0.24,0.24,0,59.1286,313.674)">
                    <g transform="matrix(33.3333,0,0,33.3333,-197.834,101.678)">
                    </g>
                    <text x="-412.729px" y="101.678px" style="font-family:'ArialMT', 'Arial', sans-serif;font-size:33.333px;fill:rgb(35,31,32);">Base predictor</text>
                </g>
                <g transform="matrix(-1,0,0,1,65.532,349.275)">
                    <rect x="-32.333" y="0" width="32.333" height="79.333" style="fill:none;stroke:rgb(35,31,32);stroke-width:0.5px;"/>
                </g>
                <g transform="matrix(0,1,1,0,96.983,329.56)">
                    <path d="M-15.285,-15.285L15.285,-15.285" style="fill:none;fill-rule:nonzero;stroke:rgb(35,31,32);stroke-width:0.5px;"/>
                </g>
                <g transform="matrix(1,0,0,1,80.245,349.274)">
                    <path d="M0,-5.42L1.453,0L2.905,-5.42L0,-5.42" style="fill:rgb(35,31,32);fill-rule:nonzero;"/>
                </g>
                <g transform="matrix(1,0,0,1,81.698,451.511)">
                    <path d="M0,-22.903L0,-6.57L35.5,-6.57L35.5,0" style="fill:none;fill-rule:nonzero;stroke:rgb(35,31,32);stroke-width:0.5px;"/>
                </g>
                <g transform="matrix(1,0,0,1,115.745,455.941)">
                    <path d="M0,-5.42L1.453,0L2.905,-5.42L0,-5.42" style="fill:rgb(35,31,32);fill-rule:nonzero;"/>
                </g>
                <g transform="matrix(0,1,1,0,153.125,430.601)">
                    <path d="M-20.91,-20.91L20.91,-20.91" style="fill:none;fill-rule:nonzero;stroke:rgb(35,31,32);stroke-width:0.5px;"/>
                </g>
                <g transform="matrix(1,0,0,1,130.762,455.941)">
                    <path d="M0,-5.42L1.453,0L2.905,-5.42L0,-5.42" style="fill:rgb(35,31,32);fill-rule:nonzero;"/>
                </g>
                <g transform="matrix(0,1,1,0,163.774,418.601)">
                    <path d="M-8.91,-8.91L8.91,-8.91" style="fill:none;fill-rule:nonzero;stroke:rgb(35,31,32);stroke-width:0.5px;"/>
                </g>
                <g transform="matrix(1,0,0,1,153.412,431.941)">
                    <path d="M0,-5.42L1.453,0L2.905,-5.42L0,-5.42" style="fill:rgb(35,31,32);fill-rule:nonzero;"/>
                </g>
                <g transform="matrix(0,1,1,0,168.591,331.118)">
                    <path d="M-13.727,-13.727L13.727,-13.727" style="fill:none;fill-rule:nonzero;stroke:rgb(35,31,32);stroke-width:0.5px;"/>
                </g>
                <g transform="matrix(1,0,0,1,153.412,349.274)">
                    <path d="M0,-5.42L1.453,0L2.905,-5.42L0,-5.42" style="fill:rgb(35,31,32);fill-rule:nonzero;"/>
                </g>
                <g transform="matrix(1,0,0,1,189.239,436.786)">
                    <path d="M0,-119.396L0,0L-21.732,0" style="fill:none;fill-rule:nonzero;stroke:rgb(35,31,32);stroke-width:0.5px;"/>
                </g>
                <g transform="matrix(1,0,0,1,168.498,438.238)">
                    <path d="M0,-2.905L-5.42,-1.452L0,0L0,-2.905" style="fill:rgb(35,31,32);fill-rule:nonzero;"/>
                </g>
                <g transform="matrix(0,1,1,0,156.83,296.068)">
                    <path d="M-7.204,-7.204L7.204,-7.204" style="fill:none;fill-rule:nonzero;stroke:rgb(35,31,32);stroke-width:0.5px;"/>
                </g>
                <g transform="matrix(1,0,0,1,148.173,307.7)">
                    <path d="M0,-5.42L1.453,0L2.905,-5.42L0,-5.42" style="fill:rgb(35,31,32);fill-rule:nonzero;"/>
                </g>
                <g transform="matrix(0,1,1,0,167.557,296.068)">
                    <path d="M-7.204,-7.204L7.204,-7.204" style="fill:none;fill-rule:nonzero;stroke:rgb(35,31,32);stroke-width:0.5px;"/>
                </g>
                <g transform="matrix(1,0,0,1,158.9,307.7)">
                    <path d="M0,-5.42L1.453,0L2.905,-5.42L0,-5.42" style="fill:rgb(35,31,32);fill-rule:nonzero;"/>
                </g>
                <g transform="matrix(-1,0,0,1,131.365,349.275)">
                    <rect x="-46.999" y="0" width="46.999" height="60.416" style="fill:none;stroke:rgb(35,31,32);stroke-width:0.5px;"/>
                </g>
                <g transform="matrix(0,-1,-1,0,155.615,408.941)">
                    <path d="M-0.75,0.75L0.75,0.75" style="fill:none;fill-rule:nonzero;stroke:rgb(35,31,32);stroke-width:0.5px;"/>
                </g>
                <g transform="matrix(0,-1,-1,0,441.857,533.843)">
                    <path d="M127.667,286.993L182.061,286.993" style="fill:none;fill-rule:nonzero;stroke:rgb(35,31,32);stroke-width:0.5px;stroke-dasharray:3.02,2.01;"/>
                </g>
                <g transform="matrix(0,-1,-1,0,155.614,350.025)">
                    <path d="M-0.75,0.75L0.75,0.75" style="fill:none;fill-rule:nonzero;stroke:rgb(35,31,32);stroke-width:0.5px;"/>
                </g>
                <g transform="matrix(0.24,0,0,0.24,102.274,287.06)">
                    <g transform="matrix(33.3333,0,0,33.3333,201.277,401.588)">
                    </g>
                    <text x="134.571px" y="401.588px" style="font-family:'ArialMT', 'Arial', sans-serif;font-size:33.333px;fill:rgb(35,31,32);">pred</text>
                </g>
                <g transform="matrix(0.24,0,0,0.24,45.5425,246.705)">
                    <g transform="matrix(41.6663,0,0,41.6663,439.362,354.458)">
                    </g>
                    <text x="59.924px" y="354.458px" style="font-family:'ArialMT', 'Arial', sans-serif;font-size:41.666px;fill:rgb(35,31,32);">P(0) <tspan x="360.654px " y="354.458px ">P</tspan>(1)</text>
                </g>
                <g transform="matrix(0.24,0,0,0.24,122.001,287.06)">
                    <g transform="matrix(33.3333,0,0,33.3333,207.2,401.588)">
                    </g>
                    <text x="160.528px" y="401.588px" style="font-family:'ArialMT', 'Arial', sans-serif;font-size:33.333px;fill:rgb(35,31,32);">ta<tspan x="188.661px " y="401.588px ">g</tspan></text>
                </g>
                <g transform="matrix(0.24,0,0,0.24,114.231,329.529)">
                    <g transform="matrix(33.3333,0,0,33.3333,188.31,457.468)">
                    </g>
                    <text x="150.305px" y="457.468px" style="font-family:'ArialMT', 'Arial', sans-serif;font-size:33.333px;fill:rgb(35,31,32);">=?</text>
                </g>
                <g transform="matrix(1,0,0,1,163.078,433.941)">
                    <path d="M0,5.69C0,6.794 -0.896,7.69 -2,7.69L-14.427,7.69C-15.531,7.69 -16.427,6.794 -16.427,5.69L-16.427,0C-16.427,-1.104 -15.531,-2 -14.427,-2L-2,-2C-0.896,-2 0,-1.104 0,0L0,5.69Z" style="fill:none;fill-rule:nonzero;stroke:rgb(35,31,32);stroke-width:0.5px;"/>
                </g>
                <g transform="matrix(1,0,0,1,166.203,309.701)">
                    <path d="M0,5.689C0,6.793 -0.896,7.689 -2,7.689L-20.427,7.689C-21.531,7.689 -22.427,6.793 -22.427,5.689L-22.427,0C-22.427,-1.105 -21.531,-2 -20.427,-2L-2,-2C-0.896,-2 0,-1.105 0,0L0,5.689Z" style="fill:none;fill-rule:nonzero;stroke:rgb(35,31,32);stroke-width:0.5px;"/>
                </g>
                <g transform="matrix(-1,0,0,1,118.075,455.94)">
                    <path d="M-10.64,8.048L-0,8.048L7,0L-17.64,0L-10.64,8.048Z" style="fill:none;fill-rule:nonzero;stroke:rgb(35,31,32);stroke-width:0.5px;"/>
                </g>
                <g transform="matrix(-1,0,0,1,198.408,478.19)">
                    <path d="M-10.641,8.048L-0,8.048L7,0L-17.641,0L-10.641,8.048Z" style="fill:none;fill-rule:nonzero;stroke:rgb(35,31,32);stroke-width:0.5px;"/>
                </g>
                <g transform="matrix(1,0,0,1,154.865,459.964)">
                    <path d="M0,-18.334L0,0L-18.22,0" style="fill:none;fill-rule:nonzero;stroke:rgb(35,31,32);stroke-width:0.5px;"/>
                </g>
                <g transform="matrix(1,0,0,1,137.635,461.418)">
                    <path d="M0,-2.906L-5.42,-1.453L0,0L0,-2.906" style="fill:rgb(35,31,32);fill-rule:nonzero;"/>
                </g>
                <g transform="matrix(1,0,0,1,235.01,482.324)">
                    <path d="M0,-40.693L0,0L-18.219,0" style="fill:none;fill-rule:nonzero;stroke:rgb(35,31,32);stroke-width:0.5px;"/>
                </g>
                <g transform="matrix(1,0,0,1,217.782,483.777)">
                    <path d="M0,-2.906L-5.42,-1.453L0,0L0,-2.906" style="fill:rgb(35,31,32);fill-rule:nonzero;"/>
                </g>
                <g transform="matrix(1,0,0,1,316.803,504.682)">
                    <path d="M0,-63.051L0,0L-18.221,0" style="fill:none;fill-rule:nonzero;stroke:rgb(35,31,32);stroke-width:0.5px;"/>
                </g>
                <g transform="matrix(1,0,0,1,299.572,506.133)">
                    <path d="M0,-2.904L-5.42,-1.452L0,0L0,-2.904" style="fill:rgb(35,31,32);fill-rule:nonzero;"/>
                </g>
                <g transform="matrix(1,0,0,1,123.395,473.844)">
                    <path d="M0,-9.855L0,-2.903L73.469,-2.903L73.469,0" style="fill:none;fill-rule:nonzero;stroke:rgb(35,31,32);stroke-width:0.5px;"/>
                </g>
                <g transform="matrix(1,0,0,1,195.412,478.274)">
                    <path d="M0,-5.421L1.452,0L2.905,-5.421L0,-5.421" style="fill:rgb(35,31,32);fill-rule:nonzero;"/>
                </g>
                <g transform="matrix(1,0,0,1,160.353,303.271)">
                    <path d="M0,-8.061L34.25,-8.061L34.25,0" style="fill:none;fill-rule:nonzero;stroke:rgb(35,31,32);stroke-width:0.5px;"/>
                </g>
                <g transform="matrix(1,0,0,1,193.15,307.7)">
                    <path d="M0,-5.42L1.453,0L2.905,-5.42L0,-5.42" style="fill:rgb(35,31,32);fill-rule:nonzero;"/>
                </g>
                <g transform="matrix(1,0,0,1,200.453,309.701)">
                    <path d="M0,5.689C0,6.793 -0.896,7.689 -2,7.689L-20.427,7.689C-21.531,7.689 -22.427,6.793 -22.427,5.689L-22.427,0C-22.427,-1.105 -21.531,-2 -20.427,-2L-2,-2C-0.896,-2 0,-1.105 0,0L0,5.689Z" style="fill:none;fill-rule:nonzero;stroke:rgb(35,31,32);stroke-width:0.5px;"/>
                </g>
                <g transform="matrix(1,0,0,1,149.626,303.271)">
                    <path d="M0,-4.989L34.25,-4.989L34.25,0" style="fill:none;fill-rule:nonzero;stroke:rgb(35,31,32);stroke-width:0.5px;"/>
                </g>
                <g transform="matrix(1,0,0,1,182.424,307.7)">
                    <path d="M0,-5.42L1.452,0L2.905,-5.42L0,-5.42" style="fill:rgb(35,31,32);fill-rule:nonzero;"/>
                </g>
                <g transform="matrix(-0.903757,0.428046,0.428046,0.903757,187.558,420.358)">
                    <path d="M-5.052,-1.136L0.255,-1.136" style="fill:none;fill-rule:nonzero;stroke:rgb(35,31,32);stroke-width:0.5px;"/>
                </g>
                <g transform="matrix(0,1,1,0,244.397,441.726)">
                    <path d="M-32.035,-32.035L32.035,-32.035" style="fill:none;fill-rule:nonzero;stroke:rgb(35,31,32);stroke-width:0.5px;"/>
                </g>
                <g transform="matrix(1,0,0,1,210.909,478.191)">
                    <path d="M0,-5.42L1.453,0L2.906,-5.42L0,-5.42" style="fill:rgb(35,31,32);fill-rule:nonzero;"/>
                </g>
                <g transform="matrix(0,1,1,0,244.271,418.601)">
                    <path d="M-8.91,-8.91L8.91,-8.91" style="fill:none;fill-rule:nonzero;stroke:rgb(35,31,32);stroke-width:0.5px;"/>
                </g>
                <g transform="matrix(1,0,0,1,233.908,431.941)">
                    <path d="M0,-5.42L1.453,0L2.906,-5.42L0,-5.42" style="fill:rgb(35,31,32);fill-rule:nonzero;"/>
                </g>
                <g transform="matrix(0,1,1,0,249.089,331.118)">
                    <path d="M-13.727,-13.727L13.727,-13.727" style="fill:none;fill-rule:nonzero;stroke:rgb(35,31,32);stroke-width:0.5px;"/>
                </g>
                <g transform="matrix(1,0,0,1,233.908,349.274)">
                    <path d="M0,-5.42L1.453,0L2.906,-5.42L0,-5.42" style="fill:rgb(35,31,32);fill-rule:nonzero;"/>
                </g>
                <g transform="matrix(1,0,0,1,269.736,436.786)">
                    <path d="M0,-119.396L0,0L-21.731,0" style="fill:none;fill-rule:nonzero;stroke:rgb(35,31,32);stroke-width:0.5px;"/>
                </g>
                <g transform="matrix(1,0,0,1,248.995,438.238)">
                    <path d="M0,-2.905L-5.42,-1.452L0,0L0,-2.905" style="fill:rgb(35,31,32);fill-rule:nonzero;"/>
                </g>
                <g transform="matrix(0,1,1,0,237.327,296.068)">
                    <path d="M-7.204,-7.204L7.204,-7.204" style="fill:none;fill-rule:nonzero;stroke:rgb(35,31,32);stroke-width:0.5px;"/>
                </g>
                <g transform="matrix(1,0,0,1,228.67,307.7)">
                    <path d="M0,-5.42L1.453,0L2.905,-5.42L0,-5.42" style="fill:rgb(35,31,32);fill-rule:nonzero;"/>
                </g>
                <g transform="matrix(0,1,1,0,248.053,296.068)">
                    <path d="M-7.204,-7.204L7.204,-7.204" style="fill:none;fill-rule:nonzero;stroke:rgb(35,31,32);stroke-width:0.5px;"/>
                </g>
                <g transform="matrix(1,0,0,1,239.397,307.7)">
                    <path d="M0,-5.42L1.452,0L2.905,-5.42L0,-5.42" style="fill:rgb(35,31,32);fill-rule:nonzero;"/>
                </g>
                <g transform="matrix(-1,0,0,1,211.861,349.275)">
                    <rect x="-47" y="0" width="47" height="60.416" style="fill:none;stroke:rgb(35,31,32);stroke-width:0.5px;"/>
                </g>
                <g transform="matrix(0,-1,-1,0,236.111,408.941)">
                    <path d="M-0.75,0.75L0.75,0.75" style="fill:none;fill-rule:nonzero;stroke:rgb(35,31,32);stroke-width:0.5px;"/>
                </g>
                <g transform="matrix(0,-1,-1,0,522.354,614.34)">
                    <path d="M208.164,286.993L262.558,286.993" style="fill:none;fill-rule:nonzero;stroke:rgb(35,31,32);stroke-width:0.5px;stroke-dasharray:3.02,2.01;"/>
                </g>
                <g transform="matrix(0,-1,-1,0,236.111,350.025)">
                    <path d="M-0.75,0.75L0.75,0.75" style="fill:none;fill-rule:nonzero;stroke:rgb(35,31,32);stroke-width:0.5px;"/>
                </g>
                <g transform="matrix(0.24,0,0,0.24,111.201,235.107)">
                    <g transform="matrix(33.3333,0,0,33.3333,218.589,333.229)">
                    </g>
                    <text x="146.317px" y="333.229px" style="font-family:'ArialMT', 'Arial', sans-serif;font-size:33.333px;fill:rgb(35,31,32);">hash</text>
                </g>
                <g transform="matrix(0.24,0,0,0.24,58.8799,232.214)">
                    <g transform="matrix(33.3333,0,0,33.3333,112.673,329.421)">
                    </g>
                    <text x="77.473px" y="329.421px" style="font-family:'ArialMT', 'Arial', sans-serif;font-size:33.333px;fill:rgb(35,31,32);">pc</text>
                </g>
                <g transform="matrix(0.24,0,0,0.24,110.505,212.589)">
                    <g transform="matrix(33.3333,0,0,33.3333,348.371,303.6)">
                    </g>
                    <text x="145.402px" y="303.6px" style="font-family:'ArialMT', 'Arial', sans-serif;font-size:33.333px;fill:rgb(35,31,32);">pc <tspan x="224.245px " y="303.6px ">h</tspan>[0:L(1)]</text>
                </g>
                <g transform="matrix(0.24,0,0,0.24,137.231,235.107)">
                    <g transform="matrix(33.3333,0,0,33.3333,252.839,333.229)">
                    </g>
                    <text x="180.568px" y="333.229px" style="font-family:'ArialMT', 'Arial', sans-serif;font-size:33.333px;fill:rgb(35,31,32);">hash</text>
                </g>
                <g transform="matrix(0.24,0,0,0.24,163.774,287.06)">
                    <g transform="matrix(33.3333,0,0,33.3333,282.197,401.588)">
                    </g>
                    <text x="215.491px" y="401.588px" style="font-family:'ArialMT', 'Arial', sans-serif;font-size:33.333px;fill:rgb(35,31,32);">pred</text>
                </g>
                <g transform="matrix(0.24,0,0,0.24,162.241,246.705)">
                    <g transform="matrix(41.6663,0,0,41.6663,292.183,354.458)">
                    </g>
                    <text x="213.476px" y="354.458px" style="font-family:'ArialMT', 'Arial', sans-serif;font-size:41.666px;fill:rgb(35,31,32);">P(2)</text>
                </g>
                <g transform="matrix(0.24,0,0,0.24,183.431,287.06)">
                    <g transform="matrix(33.3333,0,0,33.3333,288.028,401.588)">
                    </g>
                    <text x="241.356px" y="401.588px" style="font-family:'ArialMT', 'Arial', sans-serif;font-size:33.333px;fill:rgb(35,31,32);">ta<tspan x="269.49px " y="401.588px ">g</tspan></text>
                </g>
                <g transform="matrix(0.24,0,0,0.24,175.409,329.529)">
                    <g transform="matrix(33.3333,0,0,33.3333,268.806,457.468)">
                    </g>
                    <text x="230.801px" y="457.468px" style="font-family:'ArialMT', 'Arial', sans-serif;font-size:33.333px;fill:rgb(35,31,32);">=?</text>
                </g>
                <g transform="matrix(1,0,0,1,243.575,433.941)">
                    <path d="M0,5.69C0,6.794 -0.897,7.69 -2.001,7.69L-14.427,7.69C-15.532,7.69 -16.427,6.794 -16.427,5.69L-16.427,0C-16.427,-1.104 -15.532,-2 -14.427,-2L-2.001,-2C-0.897,-2 0,-1.104 0,0L0,5.69Z" style="fill:none;fill-rule:nonzero;stroke:rgb(35,31,32);stroke-width:0.5px;"/>
                </g>
                <g transform="matrix(1,0,0,1,246.7,309.701)">
                    <path d="M0,5.689C0,6.793 -0.897,7.689 -2,7.689L-20.427,7.689C-21.532,7.689 -22.427,6.793 -22.427,5.689L-22.427,0C-22.427,-1.105 -21.532,-2 -20.427,-2L-2,-2C-0.897,-2 0,-1.105 0,0L0,5.689Z" style="fill:none;fill-rule:nonzero;stroke:rgb(35,31,32);stroke-width:0.5px;"/>
                </g>
                <g transform="matrix(1,0,0,1,240.849,303.271)">
                    <path d="M0,-8.061L34.251,-8.061L34.251,0" style="fill:none;fill-rule:nonzero;stroke:rgb(35,31,32);stroke-width:0.5px;"/>
                </g>
                <g transform="matrix(1,0,0,1,273.647,307.7)">
                    <path d="M0,-5.42L1.453,0L2.906,-5.42L0,-5.42" style="fill:rgb(35,31,32);fill-rule:nonzero;"/>
                </g>
                <g transform="matrix(1,0,0,1,280.949,309.701)">
                    <path d="M0,5.689C0,6.793 -0.896,7.689 -2,7.689L-20.427,7.689C-21.531,7.689 -22.427,6.793 -22.427,5.689L-22.427,0C-22.427,-1.105 -21.531,-2 -20.427,-2L-2,-2C-0.896,-2 0,-1.105 0,0L0,5.689Z" style="fill:none;fill-rule:nonzero;stroke:rgb(35,31,32);stroke-width:0.5px;"/>
                </g>
                <g transform="matrix(1,0,0,1,230.123,303.271)">
                    <path d="M0,-4.989L34.25,-4.989L34.25,0" style="fill:none;fill-rule:nonzero;stroke:rgb(35,31,32);stroke-width:0.5px;"/>
                </g>
                <g transform="matrix(1,0,0,1,262.92,307.7)">
                    <path d="M0,-5.42L1.453,0L2.906,-5.42L0,-5.42" style="fill:rgb(35,31,32);fill-rule:nonzero;"/>
                </g>
                <g transform="matrix(-1,0,0,1,280.775,500.44)">
                    <path d="M-10.639,8.048L-0,8.048L7,0L-17.639,0L-10.639,8.048Z" style="fill:none;fill-rule:nonzero;stroke:rgb(35,31,32);stroke-width:0.5px;"/>
                </g>
                <g transform="matrix(1,0,0,1,203.728,496.093)">
                    <path d="M0,-9.855L0,-2.903L75.503,-2.903L75.503,0" style="fill:none;fill-rule:nonzero;stroke:rgb(35,31,32);stroke-width:0.5px;"/>
                </g>
                <g transform="matrix(1,0,0,1,277.777,500.524)">
                    <path d="M0,-5.421L1.454,0L2.907,-5.421L0,-5.421" style="fill:rgb(35,31,32);fill-rule:nonzero;"/>
                </g>
                <g transform="matrix(0,1,1,0,337.514,452.851)">
                    <path d="M-43.16,-43.16L43.16,-43.16" style="fill:none;fill-rule:nonzero;stroke:rgb(35,31,32);stroke-width:0.5px;"/>
                </g>
                <g transform="matrix(1,0,0,1,292.901,500.441)">
                    <path d="M0,-5.42L1.453,0L2.906,-5.42L0,-5.42" style="fill:rgb(35,31,32);fill-rule:nonzero;"/>
                </g>
                <g transform="matrix(0,1,1,0,326.639,418.601)">
                    <path d="M-8.91,-8.91L8.91,-8.91" style="fill:none;fill-rule:nonzero;stroke:rgb(35,31,32);stroke-width:0.5px;"/>
                </g>
                <g transform="matrix(1,0,0,1,316.276,431.941)">
                    <path d="M0,-5.42L1.453,0L2.906,-5.42L0,-5.42" style="fill:rgb(35,31,32);fill-rule:nonzero;"/>
                </g>
                <g transform="matrix(0,1,1,0,331.457,331.118)">
                    <path d="M-13.727,-13.727L13.727,-13.727" style="fill:none;fill-rule:nonzero;stroke:rgb(35,31,32);stroke-width:0.5px;"/>
                </g>
                <g transform="matrix(1,0,0,1,316.276,349.274)">
                    <path d="M0,-5.42L1.453,0L2.906,-5.42L0,-5.42" style="fill:rgb(35,31,32);fill-rule:nonzero;"/>
                </g>
                <g transform="matrix(1,0,0,1,352.104,436.786)">
                    <path d="M0,-119.396L0,0L-21.733,0" style="fill:none;fill-rule:nonzero;stroke:rgb(35,31,32);stroke-width:0.5px;"/>
                </g>
                <g transform="matrix(1,0,0,1,331.361,438.238)">
                    <path d="M0,-2.905L-5.419,-1.452L0,0L0,-2.905" style="fill:rgb(35,31,32);fill-rule:nonzero;"/>
                </g>
                <g transform="matrix(0,1,1,0,319.694,296.068)">
                    <path d="M-7.204,-7.204L7.204,-7.204" style="fill:none;fill-rule:nonzero;stroke:rgb(35,31,32);stroke-width:0.5px;"/>
                </g>
                <g transform="matrix(1,0,0,1,311.037,307.7)">
                    <path d="M0,-5.42L1.453,0L2.907,-5.42L0,-5.42" style="fill:rgb(35,31,32);fill-rule:nonzero;"/>
                </g>
                <g transform="matrix(0,1,1,0,330.421,296.068)">
                    <path d="M-7.204,-7.204L7.204,-7.204" style="fill:none;fill-rule:nonzero;stroke:rgb(35,31,32);stroke-width:0.5px;"/>
                </g>
                <g transform="matrix(1,0,0,1,321.764,307.7)">
                    <path d="M0,-5.42L1.453,0L2.906,-5.42L0,-5.42" style="fill:rgb(35,31,32);fill-rule:nonzero;"/>
                </g>
                <g transform="matrix(-1,0,0,1,294.354,349.275)">
                    <rect x="-47" y="0" width="47" height="60.416" style="fill:none;stroke:rgb(35,31,32);stroke-width:0.5px;"/>
                </g>
                <g transform="matrix(0,-1,-1,0,318.604,408.941)">
                    <path d="M-0.75,0.75L0.75,0.75" style="fill:none;fill-rule:nonzero;stroke:rgb(35,31,32);stroke-width:0.5px;"/>
                </g>
                <g transform="matrix(0,-1,-1,0,604.847,696.833)">
                    <path d="M290.657,286.993L345.051,286.993" style="fill:none;fill-rule:nonzero;stroke:rgb(35,31,32);stroke-width:0.5px;stroke-dasharray:3.02,2.01;"/>
                </g>
                <g transform="matrix(0,-1,-1,0,318.604,350.025)">
                    <path d="M-0.75,0.75L0.75,0.75" style="fill:none;fill-rule:nonzero;stroke:rgb(35,31,32);stroke-width:0.5px;"/>
                </g>
                <g transform="matrix(0.24,0,0,0.24,172.379,235.107)">
                    <g transform="matrix(33.3333,0,0,33.3333,299.086,333.229)">
                    </g>
                    <text x="226.814px" y="333.229px" style="font-family:'ArialMT', 'Arial', sans-serif;font-size:33.333px;fill:rgb(35,31,32);">hash</text>
                </g>
                <g transform="matrix(0.24,0,0,0.24,171.683,212.589)">
                    <g transform="matrix(33.3333,0,0,33.3333,428.858,303.6)">
                    </g>
                    <text x="225.899px" y="303.6px" style="font-family:'ArialMT', 'Arial', sans-serif;font-size:33.333px;fill:rgb(35,31,32);">pc <tspan x="304.733px " y="303.6px ">h</tspan>[0:L(2)]</text>
                </g>
                <g transform="matrix(0.24,0,0,0.24,198.409,235.107)">
                    <g transform="matrix(33.3333,0,0,33.3333,333.336,333.229)">
                    </g>
                    <text x="261.064px" y="333.229px" style="font-family:'ArialMT', 'Arial', sans-serif;font-size:33.333px;fill:rgb(35,31,32);">hash</text>
                </g>
                <g transform="matrix(0.24,0,0,0.24,226.076,287.06)">
                    <g transform="matrix(33.3333,0,0,33.3333,364.173,401.588)">
                    </g>
                    <text x="297.468px" y="401.588px" style="font-family:'ArialMT', 'Arial', sans-serif;font-size:33.333px;fill:rgb(35,31,32);">pred</text>
                </g>
                <g transform="matrix(0.24,0,0,0.24,224.173,246.705)">
                    <g transform="matrix(41.6663,0,0,41.6663,373.672,354.458)">
                    </g>
                    <text x="294.964px" y="354.458px" style="font-family:'ArialMT', 'Arial', sans-serif;font-size:41.666px;fill:rgb(35,31,32);">P(3)</text>
                </g>
                <g transform="matrix(0.24,0,0,0.24,246.363,287.06)">
                    <g transform="matrix(33.3333,0,0,33.3333,370.834,401.588)">
                    </g>
                    <text x="324.162px" y="401.588px" style="font-family:'ArialMT', 'Arial', sans-serif;font-size:33.333px;fill:rgb(35,31,32);">ta<tspan x="352.295px " y="401.588px ">g</tspan></text>
                </g>
                <g transform="matrix(0.24,0,0,0.24,238.007,329.529)">
                    <g transform="matrix(33.3333,0,0,33.3333,351.173,457.468)">
                    </g>
                    <text x="313.168px" y="457.468px" style="font-family:'ArialMT', 'Arial', sans-serif;font-size:33.333px;fill:rgb(35,31,32);">=?</text>
                </g>
                <g transform="matrix(1,0,0,1,325.942,433.941)">
                    <path d="M0,5.69C0,6.794 -0.897,7.69 -2,7.69L-14.427,7.69C-15.532,7.69 -16.427,6.794 -16.427,5.69L-16.427,0C-16.427,-1.104 -15.532,-2 -14.427,-2L-2,-2C-0.897,-2 0,-1.104 0,0L0,5.69Z" style="fill:none;fill-rule:nonzero;stroke:rgb(35,31,32);stroke-width:0.5px;"/>
                </g>
                <g transform="matrix(1,0,0,1,329.067,309.701)">
                    <path d="M0,5.689C0,6.793 -0.897,7.689 -2,7.689L-20.427,7.689C-21.532,7.689 -22.427,6.793 -22.427,5.689L-22.427,0C-22.427,-1.105 -21.532,-2 -20.427,-2L-2,-2C-0.897,-2 0,-1.105 0,0L0,5.689Z" style="fill:none;fill-rule:nonzero;stroke:rgb(35,31,32);stroke-width:0.5px;"/>
                </g>
                <g transform="matrix(1,0,0,1,323.217,303.271)">
                    <path d="M0,-8.061L34.25,-8.061L34.25,0" style="fill:none;fill-rule:nonzero;stroke:rgb(35,31,32);stroke-width:0.5px;"/>
                </g>
                <g transform="matrix(1,0,0,1,356.014,307.7)">
                    <path d="M0,-5.42L1.453,0L2.906,-5.42L0,-5.42" style="fill:rgb(35,31,32);fill-rule:nonzero;"/>
                </g>
                <g transform="matrix(1,0,0,1,363.317,309.701)">
                    <path d="M0,5.689C0,6.793 -0.897,7.689 -2,7.689L-20.428,7.689C-21.532,7.689 -22.428,6.793 -22.428,5.689L-22.428,0C-22.428,-1.105 -21.532,-2 -20.428,-2L-2,-2C-0.897,-2 0,-1.105 0,0L0,5.689Z" style="fill:none;fill-rule:nonzero;stroke:rgb(35,31,32);stroke-width:0.5px;"/>
                </g>
                <g transform="matrix(1,0,0,1,312.49,303.271)">
                    <path d="M0,-4.989L34.25,-4.989L34.25,0" style="fill:none;fill-rule:nonzero;stroke:rgb(35,31,32);stroke-width:0.5px;"/>
                </g>
                <g transform="matrix(1,0,0,1,345.287,307.7)">
                    <path d="M0,-5.42L1.453,0L2.907,-5.42L0,-5.42" style="fill:rgb(35,31,32);fill-rule:nonzero;"/>
                </g>
                <g transform="matrix(1,0,0,1,399.598,526.932)">
                    <path d="M0,-85.301L0,0L-18.221,0" style="fill:none;fill-rule:nonzero;stroke:rgb(35,31,32);stroke-width:0.5px;"/>
                </g>
                <g transform="matrix(1,0,0,1,382.367,528.383)">
                    <path d="M0,-2.904L-5.42,-1.452L0,0L0,-2.904" style="fill:rgb(35,31,32);fill-rule:nonzero;"/>
                </g>
                <g transform="matrix(-1,0,0,1,363.569,522.69)">
                    <path d="M-10.64,8.048L-0,8.048L7,0L-17.64,0L-10.64,8.048Z" style="fill:none;fill-rule:nonzero;stroke:rgb(35,31,32);stroke-width:0.5px;"/>
                </g>
                <g transform="matrix(1,0,0,1,286.095,518.343)">
                    <path d="M0,-9.855L0,-2.903L75.931,-2.903L75.931,0" style="fill:none;fill-rule:nonzero;stroke:rgb(35,31,32);stroke-width:0.5px;"/>
                </g>
                <g transform="matrix(1,0,0,1,360.572,522.773)">
                    <path d="M0,-5.421L1.454,0L2.907,-5.421L0,-5.421" style="fill:rgb(35,31,32);fill-rule:nonzero;"/>
                </g>
                <g transform="matrix(0,1,1,0,431.308,463.976)">
                    <path d="M-54.285,-54.285L54.285,-54.285" style="fill:none;fill-rule:nonzero;stroke:rgb(35,31,32);stroke-width:0.5px;"/>
                </g>
                <g transform="matrix(1,0,0,1,375.57,522.69)">
                    <path d="M0,-5.42L1.454,0L2.907,-5.42L0,-5.42" style="fill:rgb(35,31,32);fill-rule:nonzero;"/>
                </g>
                <g transform="matrix(0,1,1,0,409.434,418.601)">
                    <path d="M-8.91,-8.91L8.91,-8.91" style="fill:none;fill-rule:nonzero;stroke:rgb(35,31,32);stroke-width:0.5px;"/>
                </g>
                <g transform="matrix(1,0,0,1,399.07,431.941)">
                    <path d="M0,-5.42L1.454,0L2.907,-5.42L0,-5.42" style="fill:rgb(35,31,32);fill-rule:nonzero;"/>
                </g>
                <g transform="matrix(0,1,1,0,414.252,331.118)">
                    <path d="M-13.727,-13.727L13.727,-13.727" style="fill:none;fill-rule:nonzero;stroke:rgb(35,31,32);stroke-width:0.5px;"/>
                </g>
                <g transform="matrix(1,0,0,1,399.07,349.274)">
                    <path d="M0,-5.42L1.454,0L2.907,-5.42L0,-5.42" style="fill:rgb(35,31,32);fill-rule:nonzero;"/>
                </g>
                <g transform="matrix(1,0,0,1,434.898,436.786)">
                    <path d="M0,-119.396L0,0L-21.733,0" style="fill:none;fill-rule:nonzero;stroke:rgb(35,31,32);stroke-width:0.5px;"/>
                </g>
                <g transform="matrix(1,0,0,1,414.156,438.238)">
                    <path d="M0,-2.905L-5.42,-1.452L0,0L0,-2.905" style="fill:rgb(35,31,32);fill-rule:nonzero;"/>
                </g>
                <g transform="matrix(0,1,1,0,402.489,296.068)">
                    <path d="M-7.204,-7.204L7.204,-7.204" style="fill:none;fill-rule:nonzero;stroke:rgb(35,31,32);stroke-width:0.5px;"/>
                </g>
                <g transform="matrix(1,0,0,1,393.832,307.7)">
                    <path d="M0,-5.42L1.453,0L2.906,-5.42L0,-5.42" style="fill:rgb(35,31,32);fill-rule:nonzero;"/>
                </g>
                <g transform="matrix(0,1,1,0,413.216,296.068)">
                    <path d="M-7.204,-7.204L7.204,-7.204" style="fill:none;fill-rule:nonzero;stroke:rgb(35,31,32);stroke-width:0.5px;"/>
                </g>
                <g transform="matrix(1,0,0,1,404.559,307.7)">
                    <path d="M0,-5.42L1.453,0L2.906,-5.42L0,-5.42" style="fill:rgb(35,31,32);fill-rule:nonzero;"/>
                </g>
                <g transform="matrix(-1,0,0,1,377.023,349.275)">
                    <rect x="-47" y="0" width="47" height="60.416" style="fill:none;stroke:rgb(35,31,32);stroke-width:0.5px;"/>
                </g>
                <g transform="matrix(0,-1,-1,0,401.273,408.941)">
                    <path d="M-0.75,0.75L0.75,0.75" style="fill:none;fill-rule:nonzero;stroke:rgb(35,31,32);stroke-width:0.5px;"/>
                </g>
                <g transform="matrix(0,-1,-1,0,687.517,779.503)">
                    <path d="M373.327,286.993L427.721,286.993" style="fill:none;fill-rule:nonzero;stroke:rgb(35,31,32);stroke-width:0.5px;stroke-dasharray:3.02,2.01;"/>
                </g>
                <g transform="matrix(0,-1,-1,0,401.274,350.025)">
                    <path d="M-0.75,0.75L0.75,0.75" style="fill:none;fill-rule:nonzero;stroke:rgb(35,31,32);stroke-width:0.5px;"/>
                </g>
                <g transform="matrix(0.24,0,0,0.24,234.978,235.107)">
                    <g transform="matrix(33.3333,0,0,33.3333,381.453,333.229)">
                    </g>
                    <text x="309.181px" y="333.229px" style="font-family:'ArialMT', 'Arial', sans-serif;font-size:33.333px;fill:rgb(35,31,32);">hash</text>
                </g>
                <g transform="matrix(0.24,0,0,0.24,234.282,212.589)">
                    <g transform="matrix(33.3333,0,0,33.3333,511.235,303.6)">
                    </g>
                    <text x="308.266px" y="303.6px" style="font-family:'ArialMT', 'Arial', sans-serif;font-size:33.333px;fill:rgb(35,31,32);">pc <tspan x="387.11px " y="303.6px ">h</tspan>[0:L(3)]</text>
                </g>
                <g transform="matrix(0.24,0,0,0.24,261.007,235.107)">
                    <g transform="matrix(33.3333,0,0,33.3333,415.703,333.229)">
                    </g>
                    <text x="343.431px" y="333.229px" style="font-family:'ArialMT', 'Arial', sans-serif;font-size:33.333px;fill:rgb(35,31,32);">hash</text>
                </g>
                <g transform="matrix(0.24,0,0,0.24,288.481,287.06)">
                    <g transform="matrix(33.3333,0,0,33.3333,446.286,401.588)">
                    </g>
                    <text x="379.581px" y="401.588px" style="font-family:'ArialMT', 'Arial', sans-serif;font-size:33.333px;fill:rgb(35,31,32);">pred</text>
                </g>
                <g transform="matrix(0.24,0,0,0.24,250.011,406.209)">
                    <g transform="matrix(33.3333,0,0,33.3333,477.167,558.362)">
                    </g>
                    <text x="328.962px" y="558.362px" style="font-family:'ArialMT', 'Arial', sans-serif;font-size:33.333px;fill:rgb(35,31,32);">Prediction</text>
                </g>
                <g transform="matrix(0.24,0,0,0.24,287.097,246.49)">
                    <g transform="matrix(41.6663,0,0,41.6663,456.467,354.175)">
                    </g>
                    <text x="377.759px" y="354.175px" style="font-family:'ArialMT', 'Arial', sans-serif;font-size:41.666px;fill:rgb(35,31,32);">P(4)</text>
                </g>
                <g transform="matrix(0.24,0,0,0.24,309.119,287.06)">
                    <g transform="matrix(33.3333,0,0,33.3333,453.407,401.588)">
                    </g>
                    <text x="406.735px" y="401.588px" style="font-family:'ArialMT', 'Arial', sans-serif;font-size:33.333px;fill:rgb(35,31,32);">ta<tspan x="434.869px " y="401.588px ">g</tspan></text>
                </g>
                <g transform="matrix(0.24,0,0,0.24,300.932,329.529)">
                    <g transform="matrix(33.3333,0,0,33.3333,433.968,457.468)">
                    </g>
                    <text x="395.963px" y="457.468px" style="font-family:'ArialMT', 'Arial', sans-serif;font-size:33.333px;fill:rgb(35,31,32);">=?</text>
                </g>
                <g transform="matrix(1,0,0,1,408.736,433.941)">
                    <path d="M0,5.69C0,6.794 -0.896,7.69 -2,7.69L-14.426,7.69C-15.531,7.69 -16.426,6.794 -16.426,5.69L-16.426,0C-16.426,-1.104 -15.531,-2 -14.426,-2L-2,-2C-0.896,-2 0,-1.104 0,0L0,5.69Z" style="fill:none;fill-rule:nonzero;stroke:rgb(35,31,32);stroke-width:0.5px;"/>
                </g>
                <g transform="matrix(1,0,0,1,411.861,309.701)">
                    <path d="M0,5.689C0,6.793 -0.896,7.689 -2,7.689L-20.426,7.689C-21.531,7.689 -22.426,6.793 -22.426,5.689L-22.426,0C-22.426,-1.105 -21.531,-2 -20.426,-2L-2,-2C-0.896,-2 0,-1.105 0,0L0,5.689Z" style="fill:none;fill-rule:nonzero;stroke:rgb(35,31,32);stroke-width:0.5px;"/>
                </g>
                <g transform="matrix(1,0,0,1,406.012,303.271)">
                    <path d="M0,-8.061L34.25,-8.061L34.25,0" style="fill:none;fill-rule:nonzero;stroke:rgb(35,31,32);stroke-width:0.5px;"/>
                </g>
                <g transform="matrix(1,0,0,1,438.808,307.7)">
                    <path d="M0,-5.42L1.453,0L2.906,-5.42L0,-5.42" style="fill:rgb(35,31,32);fill-rule:nonzero;"/>
                </g>
                <g transform="matrix(1,0,0,1,446.11,309.701)">
                    <path d="M0,5.689C0,6.793 -0.896,7.689 -2,7.689L-20.427,7.689C-21.531,7.689 -22.427,6.793 -22.427,5.689L-22.427,0C-22.427,-1.105 -21.531,-2 -20.427,-2L-2,-2C-0.896,-2 0,-1.105 0,0L0,5.689Z" style="fill:none;fill-rule:nonzero;stroke:rgb(35,31,32);stroke-width:0.5px;"/>
                </g>
                <g transform="matrix(0.24,0,0,0.24,297.901,235.107)">
                    <g transform="matrix(33.3333,0,0,33.3333,464.247,333.229)">
                    </g>
                    <text x="391.976px" y="333.229px" style="font-family:'ArialMT', 'Arial', sans-serif;font-size:33.333px;fill:rgb(35,31,32);">hash</text>
                </g>
                <g transform="matrix(0.24,0,0,0.24,297.206,212.589)">
                    <g transform="matrix(33.3333,0,0,33.3333,594.03,303.6)">
                    </g>
                    <text x="391.06px" y="303.6px" style="font-family:'ArialMT', 'Arial', sans-serif;font-size:33.333px;fill:rgb(35,31,32);">pc <tspan x="469.904px " y="303.6px ">h</tspan>[0:L(4)]</text>
                </g>
                <g transform="matrix(0.24,0,0,0.24,323.931,235.107)">
                    <g transform="matrix(33.3333,0,0,33.3333,498.497,333.229)">
                    </g>
                    <text x="426.226px" y="333.229px" style="font-family:'ArialMT', 'Arial', sans-serif;font-size:33.333px;fill:rgb(35,31,32);">hash</text>
                </g>
                <g transform="matrix(1,0,0,1,395.285,303.271)">
                    <path d="M0,-4.989L34.25,-4.989L34.25,0" style="fill:none;fill-rule:nonzero;stroke:rgb(35,31,32);stroke-width:0.5px;"/>
                </g>
                <g transform="matrix(1,0,0,1,428.081,307.7)">
                    <path d="M0,-5.42L1.453,0L2.906,-5.42L0,-5.42" style="fill:rgb(35,31,32);fill-rule:nonzero;"/>
                </g>
                <g transform="matrix(0,1,1,0,374.401,536.201)">
                    <path d="M-5.512,-5.512L5.512,-5.512" style="fill:none;fill-rule:nonzero;stroke:rgb(35,31,32);stroke-width:0.5px;"/>
                </g>
                <g transform="matrix(1,0,0,1,367.436,546.143)">
                    <clipPath id="_clip2">
                        <rect x="-307.512" y="-267.553" width="386.362" height="267.477" clip-rule="nonzero"/>
                    </clipPath>
                    <g clip-path="url(#_clip2)">
                        <path d="M0,-5.42L1.453,0L2.906,-5.42L0,-5.42" style="fill:rgb(35,31,32);fill-rule:nonzero;"/>
                    </g>
                </g>
            </g>
        </g>
    </g>
</svg>
